<svg width="16" height="16" viewBox="0 0 16 16" fill="none" xmlns="http://www.w3.org/2000/svg">
<path fill-rule="evenodd" clip-rule="evenodd" d="M7.00139 4.70139L0.731135 10.3938C0.48984 10.6138 0.432931 10.9004 0.580895 11.1637C0.679917 11.3392 0.850645 11.4581 1.04983 11.4881C1.27177 11.5236 1.50282 11.4492 1.68493 11.2848C2.97108 10.1183 4.25723 8.95182 5.54224 7.78312L5.71525 7.62648C6.30938 7.08768 6.90351 6.54887 7.49992 6.00341C7.63878 6.13005 7.77764 6.25559 7.9165 6.38112L12.5887 10.6271C12.8494 10.8637 13.1078 11.1015 13.3752 11.3303C13.6552 11.5736 14.0855 11.5525 14.3324 11.2848C14.4451 11.1648 14.4998 11.0226 14.4998 10.8793C14.4998 10.7038 14.4189 10.526 14.2585 10.3805L8.01666 4.71695C7.91308 4.62252 7.74691 4.49587 7.50333 4.50032C7.3235 4.49476 7.15505 4.56253 7.00139 4.70139Z" fill="#291482"/>
</svg>
