<svg width="16" height="18" viewBox="0 0 16 18" fill="none" xmlns="http://www.w3.org/2000/svg">
<path fill-rule="evenodd" clip-rule="evenodd" d="M8.99836 12.4253L15.2686 6.51397C15.5099 6.28555 15.5668 5.9879 15.4189 5.71449C15.3198 5.53221 15.1491 5.40877 14.9499 5.37762C14.728 5.3407 14.4969 5.41799 14.3148 5.58874C13.0287 6.80008 11.7425 8.01142 10.4575 9.22507L10.2845 9.38774C9.69038 9.94726 9.09624 10.5068 8.49984 11.0732C8.36098 10.9417 8.22212 10.8114 8.08326 10.681L3.41101 6.2717C3.15037 6.02597 2.892 5.77909 2.62453 5.54144C2.34453 5.28878 1.9143 5.3107 1.66731 5.58874C1.55463 5.71333 1.5 5.861 1.5 6.00982C1.5 6.1921 1.58081 6.37669 1.74129 6.52782L7.9831 12.4092C8.08667 12.5072 8.25285 12.6388 8.49642 12.6341C8.67625 12.6399 8.84471 12.5695 8.99836 12.4253" fill="#291482"/>
</svg>
