<svg xmlns="http://www.w3.org/2000/svg" width="25" height="25" viewBox="0 0 25 25">
    <g fill="none" fill-rule="evenodd">
        <g fill="#F5A623">
            <g>
                <path fill-rule="nonzero" d="M21.338 3.662C18.976 1.299 15.841 0 12.5 0 9.16 0 6.024 1.3 3.662 3.662 1.299 6.024 0 9.159 0 12.5c0 3.34 1.3 6.476 3.662 8.838C6.024 23.701 9.159 25 12.5 25c3.34 0 6.476-1.3 8.838-3.662C23.701 18.976 25 15.841 25 12.5c0-3.34-1.3-6.476-3.662-8.838zm-1.004 16.672c-2.094 2.093-4.877 3.246-7.834 3.246s-5.74-1.153-7.834-3.246c-4.319-4.32-4.319-11.348 0-15.668C6.76 2.573 9.543 1.42 12.5 1.42s5.74 1.153 7.834 3.246c4.319 4.32 4.319 11.348 0 15.668z" transform="translate(-30.000000, -272.000000) translate(30.000000, 272.000000)"/>
                <path d="M16.358 12.497c.12-.128.265-.176.433-.09.155.079.24.231.18.416-.046.138.026.145.11.172 1.306.425 2.121 1.61 2.056 2.987-.069 1.44-1.264 2.647-2.698 2.759-1.483.116-2.878-.897-3.142-2.456-.11-.653-.002-1.274.306-1.86.12-.227.322-.301.512-.198.19.102.246.31.127.536-.55 1.044-.199 2.302.763 2.906.732.46 1.502.49 2.256.075.762-.42 1.153-1.093 1.14-1.969-.012-.898-.447-1.549-1.236-1.966-.051-.027-.102-.06-.183-.057v.13c.002.17-.085.278-.239.336-.152.056-.293.017-.382-.107-.175-.245-.335-.501-.49-.759-.077-.126-.033-.257.053-.362.139-.17.285-.333.434-.493zm-.536-6.053c.267-.267.987-.256 1.244.02.16.173.203.387.19.613-.007.145.034.216.178.281.612.276.907.791.915 1.445.007.488.01.976.01 1.464l-.004 2.929c0 .016-.008.033-.018.072-.223-.128-.43-.243-.656-.315-.098-.032-.084-.104-.084-.176 0-.49-.006-.98.003-1.47.003-.141-.041-.172-.174-.172-3.28.003-6.561.003-9.842-.002-.146 0-.18.044-.179.185.005 1.685.003 3.37.004 5.054 0 .482.305.785.784.785 1.613 0 3.226.002 4.839-.003.135 0 .205.026.24.17.055.218.165.417.271.618-.067.04-.128.023-.186.023-1.704.001-3.408.002-5.111 0-.927 0-1.594-.645-1.598-1.584-.01-2.53-.011-5.06.003-7.59.003-.656.311-1.159.92-1.44.09-.042.123-.088.124-.19.01-.728.188-.9.915-.894.443.003.707.265.72.717.009.247.009.247.256.247.637 0 1.274-.004 1.91.002.127.002.173-.033.163-.163-.016-.2.008-.392.139-.556.12-.15.272-.241.467-.245.103-.002.206-.003.31-.002.443.003.705.264.72.717.008.247.008.247.257.247.636 0 1.273-.004 1.91.003.128 0 .172-.037.16-.165-.019-.234.027-.451.2-.625zm-.402 8.443c.164-.08.326-.012.437.186.084.15.169.299.246.452.041.082.078.096.16.044.27-.169.547-.329.821-.492.227-.135.397-.114.51.062.125.193.072.422-.14.55-.405.244-.815.48-1.222.721-.058.035-.118.053-.189.044-.124.02-.209-.042-.269-.149-.173-.31-.354-.614-.516-.93-.093-.18-.004-.408.162-.488zm.037-6.858c-.667.008-1.334.006-2 0-.127 0-.172.034-.164.164.012.206-.02.406-.161.567-.24.272-.894.344-1.19.13-.23-.166-.307-.403-.284-.676.013-.146-.037-.187-.181-.185-.63.008-1.261.003-1.891.003-.248 0-.252 0-.254.25-.004.419-.316.757-.72.719-.095-.009-.193 0-.29-.002-.28-.01-.492-.172-.592-.436-.042-.111-.025-.227-.051-.364-.187.166-.269.358-.27.587-.002.453.007.907-.005 1.36-.004.166.04.211.208.211 3.06-.006 6.122-.004 9.183-.004.225 0 .45-.003.673 0 .087.002.133-.014.132-.118-.005-.49.004-.98-.007-1.47-.006-.24-.107-.445-.319-.6-.014.111-.02.208-.04.301-.053.254-.197.443-.447.505-.236.058-.484.062-.72-.006-.303-.088-.444-.333-.444-.754 0-.126-.019-.184-.166-.182zm-2.976-.98c-.082-.008-.082.05-.082.108v.987c.002.044.012.082.08.078.075-.004.06-.064.06-.109v-1.01c-.001-.028-.013-.051-.058-.055zm3.954-.001c-.072 0-.07.051-.07.1v.973c0 .05-.003.1.07.102.074 0 .069-.053.07-.102V7.12c-.002-.038-.01-.072-.07-.072zm-7.921 0c-.083-.005-.08.055-.08.111v.954c0 .057 0 .115.082.109.077-.006.056-.068.056-.111.002-.318.002-.636 0-.953 0-.044.019-.105-.058-.11z" transform="translate(-30.000000, -272.000000) translate(30.000000, 272.000000)"/>
            </g>
        </g>
    </g>
</svg>
