<svg width="24" height="24" fill="none" xmlns="http://www.w3.org/2000/svg"><path d="M24 12c0 6.627-5.373 12-12 12S0 18.627 0 12 5.373 0 12 0s12 5.373 12 12z" fill="#EFEFF4"/><path fill-rule="evenodd" clip-rule="evenodd" d="m14.849 11.626-4.27-4.702c-.164-.181-.38-.224-.577-.113a.485.485 0 0 0-.243.352c-.027.166.03.34.152.476.875.965 1.75 1.93 2.627 2.893l.117.13c.404.445.808.89 1.217 1.338l-.283.313-3.184 3.504c-.178.195-.356.389-.528.59a.52.52 0 0 0 .034.718c.09.084.197.125.305.125.131 0 .264-.06.374-.181l4.247-4.681a.547.547 0 0 0 .163-.385.528.528 0 0 0-.151-.377" fill="#291482"/></svg>