<svg width="189" height="100" viewBox="0 0 189 100" fill="none" xmlns="http://www.w3.org/2000/svg">
<ellipse cx="141.5" cy="65" rx="47.5" ry="9" fill="#EBECF6"/>
<ellipse cx="137.738" cy="47.3856" rx="18.594" ry="2.61446" fill="#D8D8D8"/>
<path d="M146.886 2.31885C148.065 3.55527 146.095 8.32665 144.921 10.8648H130.976C127.85 5.06947 128.147 1.80413 128.599 1.3466C128.599 1.34387 128.602 1.34387 128.602 1.34115C128.629 1.31664 128.654 1.3003 128.679 1.29485C129.586 1.04702 130.382 1.98115 131.155 2.31885C131.725 2.56668 132.48 2.7791 133.095 2.59119C133.741 2.38965 134.093 2.17723 134.768 2.36242C135.395 2.53127 135.608 3.30744 136.234 3.53348C136.523 3.63697 136.839 3.63152 137.147 3.62335C137.733 3.60973 138.398 3.59612 138.91 3.27476C139.166 3.11408 139.332 2.85263 139.57 2.65927C139.815 2.45774 139.992 2.43595 140.278 2.36514C141.049 2.17723 141.643 3.30744 142.382 2.96974C142.572 2.88531 142.698 2.70557 142.869 2.62659C143.046 2.54761 143.259 2.58302 143.455 2.61297C143.943 2.6865 144.371 2.6048 144.662 2.30795C144.929 2.03834 145.245 1.36566 145.828 1.54268C146.283 1.67885 146.599 2.09825 146.886 2.31885Z" fill="white"/>
<path d="M130.975 10.8649H144.918C144.469 11.8344 144.136 12.4798 144.136 12.4798H131.899C131.561 11.9215 131.256 11.3823 130.975 10.8649Z" fill="#291482"/>
<path d="M131.939 12.6299H144.096C147.901 14.8331 151.337 18.7019 153.824 23.0977C156.319 27.5068 157.85 32.4298 157.85 36.7071C157.85 39.436 157.295 41.5762 156.3 43.2538C155.305 44.9307 153.865 46.1558 152.077 47.045C148.492 48.8273 143.524 49.2536 138 49.2536C132.477 49.2536 127.509 48.8273 123.924 47.0449C122.136 46.1558 120.695 44.9307 119.701 43.2538C118.705 41.5762 118.15 39.436 118.15 36.7071C118.15 32.43 119.69 27.5064 122.193 23.0968C124.689 18.7007 128.134 14.8318 131.939 12.6299Z" fill="white" stroke="#DEDEDE" stroke-width="0.3"/>
<path d="M131.155 2.31887C130.381 1.9839 129.586 1.04977 128.678 1.29488C128.654 1.30305 128.629 1.31667 128.602 1.34118C128.905 0.799221 129.12 0.608584 129.583 0.368926C130.049 0.129267 130.142 0.142884 130.654 0.240926C131.169 0.338968 131.687 0.483308 132.21 0.42067C132.869 0.341692 133.488 -0.066817 134.147 0.00943797C134.837 0.0856929 135.406 0.679392 136.101 0.682115C136.804 0.684839 137.381 0.0856929 138.079 0.0176081C138.774 -0.0504766 139.403 0.417947 140.09 0.532329C140.883 0.663052 141.668 0.319905 142.46 0.178288C143.158 0.0530122 143.886 0.0884163 144.569 0.279054C145.076 0.42067 145.986 0.782881 146.886 2.31615C146.599 2.09556 146.286 1.67615 145.831 1.53998C145.248 1.36296 144.932 2.03564 144.665 2.30526C144.371 2.60483 143.945 2.68653 143.458 2.61028C143.262 2.58032 143.049 2.54219 142.872 2.62389C142.7 2.70287 142.575 2.88262 142.384 2.96704C141.646 3.30202 141.052 2.17453 140.281 2.36245C139.995 2.43326 139.817 2.45504 139.572 2.65657C139.335 2.84993 139.169 3.10866 138.913 3.27206C138.401 3.59342 137.733 3.60704 137.15 3.62065C136.845 3.62882 136.526 3.63427 136.237 3.53078C135.61 3.30474 135.398 2.52857 134.771 2.35972C134.093 2.17453 133.741 2.38696 133.098 2.58849C132.482 2.77913 131.728 2.56398 131.155 2.31887Z" fill="#363D98"/>
<path d="M131.155 2.31887C130.381 1.9839 129.586 1.04977 128.678 1.29488C128.654 1.30305 128.629 1.31667 128.602 1.34118C128.905 0.799221 129.12 0.608584 129.583 0.368926C130.049 0.129267 130.142 0.142884 130.654 0.240926C131.169 0.338968 131.687 0.483308 132.21 0.42067C132.869 0.341692 133.488 -0.066817 134.147 0.00943797C134.837 0.0856929 135.406 0.679392 136.101 0.682115C136.804 0.684839 137.381 0.0856929 138.079 0.0176081C138.774 -0.0504766 139.403 0.417947 140.09 0.532329C140.883 0.663052 141.668 0.319905 142.46 0.178288C143.158 0.0530122 143.886 0.0884163 144.569 0.279054C145.076 0.42067 145.986 0.782881 146.886 2.31615C146.599 2.09556 146.286 1.67615 145.831 1.53998C145.248 1.36296 144.932 2.03564 144.665 2.30526C144.371 2.60483 143.945 2.68653 143.458 2.61028C143.262 2.58032 143.049 2.54219 142.872 2.62389C142.7 2.70287 142.575 2.88262 142.384 2.96704C141.646 3.30202 141.052 2.17453 140.281 2.36245C139.995 2.43326 139.817 2.45504 139.572 2.65657C139.335 2.84993 139.169 3.10866 138.913 3.27206C138.401 3.59342 137.733 3.60704 137.15 3.62065C136.845 3.62882 136.526 3.63427 136.237 3.53078C135.61 3.30474 135.398 2.52857 134.771 2.35972C134.093 2.17453 133.741 2.38696 133.098 2.58849C132.482 2.77913 131.728 2.56398 131.155 2.31887Z" fill="#DEDEDE"/>
<path d="M148.147 15.5056C148.305 16.8046 148.387 18.1363 148.387 19.4899C148.387 34.4304 138.433 46.544 126.158 46.544C124.763 46.544 123.398 46.3861 122.074 46.0865C125.728 48.8126 131.501 49.4036 138 49.4036C149.046 49.4036 158 47.7042 158 36.7072C158 29.6536 153.867 20.887 148.147 15.5056Z" fill="#E8E8E8"/>
<path d="M142.924 8.94488C139.054 10.6579 130.975 10.8649 130.975 10.8649H144.918C146.095 8.32395 148.063 3.55529 146.883 2.31887C146.657 2.14458 146.411 1.84773 146.095 1.66254C145.52 4.4758 144.471 8.26131 142.924 8.94488Z" fill="#DEDEDE"/>
<path d="M141.183 12.4635C141.15 14.3617 143.294 15.7888 144.158 17.3112C145.008 18.809 145.055 20.3831 145 22.0662C145.014 21.6958 146.714 21.369 146.725 20.9714C146.782 19.2883 146.736 17.7142 145.883 16.2163C145.019 14.6967 142.877 13.2696 142.907 11.3687C142.902 11.7309 141.188 12.0768 141.183 12.4635Z" fill="#251B7D"/>
<path d="M142.256 13.1089C144.022 12.4526 145.248 13.8606 146.444 14.939C146.973 15.4156 147.553 15.8732 148.253 16.0638C149.041 16.2762 149.858 16.1237 150.659 16.2136C152.332 16.3988 152.706 17.6761 153.422 18.9615C154.226 20.4076 155.512 21.4616 157.196 21.6005C157.008 21.5841 156.967 19.626 156.749 19.6069C155.15 19.4762 153.877 18.5121 153.079 17.1423C152.308 15.8241 151.965 14.4243 150.215 14.2201C148.578 14.0294 147.488 14.2419 146.144 13.079C144.888 11.9896 143.662 10.4291 141.809 11.1154C141.711 11.1535 142.33 13.0817 142.256 13.1089Z" fill="#291482"/>
<path d="M132.183 12.4362C132.183 12.4362 130.074 14.3807 128.54 16.8699C128.54 16.8699 131.436 13.0817 133.114 12.4254L132.183 12.4362Z" fill="#DEDEDE"/>
<path d="M134.608 12.4744H135.055L134.183 15.2986L134.608 12.4744Z" fill="#DEDEDE"/>
<path d="M124.717 21.4126C124.717 21.4126 125.232 20.5465 125.823 19.7186C125.97 19.5116 126.12 19.3019 126.262 19.1167C126.411 18.9288 126.55 18.7518 126.668 18.602C126.907 18.297 127.027 18.0682 127.027 18.0682C127.027 18.0682 126.861 18.2643 126.567 18.5067C126.42 18.6293 126.245 18.7709 126.06 18.9234C125.872 19.0813 125.681 19.2529 125.49 19.4272C124.725 20.1217 124.014 20.8815 124.014 20.8815C124.014 20.8815 123.896 21.0531 123.689 21.3499C123.485 21.6495 123.202 22.0852 122.883 22.6163C122.564 23.1501 122.215 23.7846 121.872 24.4791C121.529 25.1736 121.193 25.9252 120.886 26.685C120.264 28.2047 119.738 29.7543 119.343 30.9117C118.948 32.0719 118.684 32.8426 118.684 32.8426C118.684 32.8426 119 32.091 119.474 30.9608C119.948 29.8306 120.575 28.3245 121.289 26.8648C121.646 26.1349 122.025 25.4187 122.406 24.7623C122.785 24.106 123.166 23.5123 123.51 23.0166C123.853 22.521 124.158 22.1206 124.373 21.8429C124.591 21.5705 124.717 21.4126 124.717 21.4126Z" fill="#DEDEDE"/>
<path d="M132.777 9.03202C132.777 9.03202 133 9.39423 133.188 9.77823C133.281 9.96886 133.373 10.1704 133.425 10.3175C133.477 10.4672 133.477 10.5789 133.477 10.5789C133.477 10.5789 133.531 10.4809 133.561 10.3093C133.591 10.1377 133.605 9.91984 133.618 9.6938C133.64 9.24172 133.618 8.78964 133.618 8.78964C133.618 8.78964 133.496 8.45738 133.289 7.98079C133.185 7.74658 133.065 7.47152 132.937 7.17739C132.809 6.87782 132.662 6.56463 132.515 6.25688C132.221 5.63867 131.937 5.02319 131.766 4.54387C131.676 4.30421 131.616 4.09996 131.572 3.95834C131.534 3.814 131.512 3.7323 131.512 3.7323C131.512 3.7323 131.52 3.81672 131.537 3.96651C131.556 4.1163 131.583 4.32872 131.635 4.582C131.73 5.08855 131.915 5.75578 132.106 6.41212C132.202 6.74165 132.294 7.06573 132.371 7.37347C132.45 7.68394 132.526 7.97262 132.589 8.22317C132.714 8.70793 132.777 9.03202 132.777 9.03202Z" fill="#DEDEDE"/>
<path d="M143.226 12.8693L142.82 11.9869C142.82 11.9869 143.068 12.3192 143.422 12.5262C143.777 12.7331 144.335 13.0763 144.49 13.2533C144.49 13.2533 143.828 12.8802 143.226 12.8693Z" fill="#1B2877"/>
<path d="M142.447 11.8535C142.384 12.0332 141.926 12.2511 141.373 12.1095C140.82 11.9706 141.085 11.012 141.085 11.012C141.085 11.012 140.766 11.7119 140.85 11.9379C140.935 12.164 141.311 12.1394 141.379 12.2484C141.45 12.3573 142.57 13.6182 142.57 13.6182C142.57 13.6182 142.071 12.7713 141.94 12.5452C141.807 12.3192 141.97 12.2021 142.204 12.1803C142.439 12.1558 142.452 11.8235 142.452 11.8235L142.447 11.8535Z" fill="#1B2877"/>
<path d="M144.518 11.72C144.518 11.72 144.153 11.3687 143.692 11.3469C143.692 11.3469 144.518 11.3469 144.619 11.2843L144.518 11.72Z" fill="#1B2877"/>
<path d="M142.782 11.5103C143 11.3769 143.943 11.7663 144.51 12.0931C145.079 12.4199 145.864 13.1035 145.864 13.1035C145.864 13.1035 144.728 12.1939 144.011 11.9842C143.294 11.7745 142.733 11.6873 142.602 11.641C142.469 11.5947 142.782 11.5103 142.782 11.5103Z" fill="#1B2877"/>
<path d="M136.202 11.8998C135.61 11.9788 132.09 12.0387 132.09 12.0387C132.09 12.0387 133.553 12.2266 134.458 12.2565C135.362 12.2865 136.202 11.8998 136.202 11.8998Z" fill="#1B2877"/>
<path d="M141.202 11.0964C141.15 11.2625 141.128 11.8426 141.39 11.957C141.39 11.957 141.264 11.6138 141.264 11.4804C141.264 11.3442 141.202 11.0964 141.202 11.0964Z" fill="#1B2877"/>
<path d="M145.196 20.0236C145.196 20.0236 145.213 20.1326 145.229 20.296C145.237 20.3804 145.243 20.4675 145.248 20.5819C145.267 20.6881 145.278 20.7916 145.283 20.9033C145.297 21.1211 145.272 21.3417 145.232 21.5024C145.193 21.6631 145.147 21.7666 145.147 21.7666C145.147 21.7666 145.204 21.6713 145.264 21.5133C145.324 21.3554 145.379 21.1348 145.392 20.906C145.401 20.7943 145.401 20.6745 145.398 20.5737C145.406 20.4811 145.411 20.3722 145.414 20.2905C145.42 20.1217 145.417 20.0073 145.417 20.0073C145.417 20.0073 145.39 19.6423 145.27 19.1167C145.21 18.8526 145.125 18.5503 145.022 18.2289C144.97 18.0682 144.913 17.9048 144.853 17.7387C144.823 17.6543 144.79 17.5698 144.758 17.4854C144.719 17.401 144.67 17.3275 144.627 17.2485C144.534 17.096 144.452 16.9326 144.349 16.7882C144.248 16.6439 144.142 16.505 144.033 16.377C143.817 16.1183 143.594 15.8977 143.398 15.7152C143.003 15.353 142.719 15.1351 142.719 15.1351C142.719 15.1351 142.995 15.3639 143.373 15.7397C143.561 15.9276 143.774 16.1564 143.978 16.4206C144.079 16.5513 144.18 16.6929 144.272 16.84C144.368 16.9843 144.441 17.1477 144.529 17.3002C144.569 17.3792 144.616 17.4555 144.649 17.5344C144.676 17.6161 144.703 17.7006 144.73 17.7823C144.782 17.9484 144.834 18.1145 144.877 18.2725C144.967 18.5911 145.038 18.8934 145.087 19.1549C145.183 19.6723 145.196 20.0236 145.196 20.0236Z" fill="#363D98"/>
<path d="M149.098 15.8269C149.098 15.8269 148.877 15.846 148.654 15.8405C148.43 15.8405 148.207 15.8051 148.207 15.8051C148.207 15.8051 148.417 15.895 148.638 15.9495C148.858 16.0094 149.087 16.0448 149.087 16.0448C149.087 16.0448 149.27 16.0475 149.539 16.0393C149.809 16.0339 150.169 16.0121 150.52 16.0339C150.875 16.0584 151.226 16.1319 151.474 16.23C151.725 16.3253 151.864 16.4424 151.864 16.4424C151.864 16.4424 151.733 16.3144 151.488 16.1973C151.242 16.0775 150.891 15.974 150.531 15.9249C150.169 15.8759 149.809 15.8678 149.539 15.8541C149.275 15.8432 149.098 15.8269 149.098 15.8269Z" fill="#363D98"/>
<path d="M133.602 10.8975L131.717 10.982L133.594 11.1154L139.627 11.0909L133.602 10.8975Z" fill="#1B2877"/>
<path d="M128.866 2.14185C128.866 2.14185 128.899 2.25078 128.956 2.44142C129.003 2.63478 129.095 2.9044 129.163 3.23937C129.232 3.5689 129.311 3.98013 129.343 4.39681C129.39 4.81349 129.428 5.25468 129.52 5.67681C129.597 6.10438 129.738 6.49927 129.899 6.88327C130.063 7.26454 130.215 7.62948 130.357 7.93722C130.499 8.24769 130.583 8.52275 130.651 8.71067C130.706 8.90403 130.736 9.01568 130.736 9.01568C130.736 9.01568 130.676 8.91764 130.564 8.75424C130.46 8.58539 130.289 8.35935 130.109 8.07067C129.929 7.78199 129.698 7.45791 129.499 7.07118C129.292 6.69263 129.12 6.23238 129.027 5.77213C128.94 5.30915 128.907 4.84617 128.902 4.4186C128.899 3.9883 128.907 3.61248 128.883 3.27205C128.861 2.93435 128.866 2.6484 128.858 2.44959C128.866 2.25623 128.866 2.14185 128.866 2.14185Z" fill="#DEDEDE"/>
<path d="M132.106 13.4711C132.106 13.4711 131.992 13.5991 131.793 13.8197C131.589 14.0349 131.313 14.3617 130.973 14.7375C130.632 15.1133 130.256 15.5709 129.85 16.0556C129.447 16.5431 129.016 17.0633 128.594 17.5943C128.161 18.12 127.752 18.6428 127.376 19.1548C127 19.6614 126.64 20.1434 126.335 20.5492C126.03 20.9605 125.741 21.2791 125.548 21.5051C125.341 21.723 125.223 21.8456 125.223 21.8456C125.223 21.8456 125.316 21.7012 125.469 21.4452C125.629 21.1947 125.834 20.8216 126.101 20.3885C126.368 19.9555 126.657 19.4354 127.011 18.8988C127.354 18.3569 127.777 17.8068 128.202 17.2757C128.635 16.7474 129.076 16.2272 129.518 15.7615C129.954 15.2931 130.395 14.8846 130.774 14.5387C131.153 14.1901 131.496 13.9341 131.73 13.7489C131.967 13.5719 132.106 13.4711 132.106 13.4711Z" fill="#DEDEDE"/>
<path d="M135.221 12.8176C135.221 12.8176 135.191 12.9292 135.158 13.1253C135.117 13.3187 135.098 13.5992 135.06 13.9369C135.019 14.2719 135.005 14.6722 134.91 15.1079C134.809 15.5273 134.676 15.9576 134.545 16.3961C134.406 16.8291 134.267 17.2621 134.12 17.6625C133.978 18.0655 133.82 18.4332 133.698 18.7518C133.575 19.0705 133.444 19.3265 133.365 19.5089C133.275 19.6887 133.226 19.7922 133.226 19.7922C133.226 19.7922 133.243 19.6778 133.273 19.479C133.313 19.2829 133.349 18.9969 133.428 18.6674C133.507 18.3352 133.583 17.9457 133.695 17.5345C133.801 17.1232 133.932 16.6902 134.06 16.2545C134.199 15.8242 134.341 15.3912 134.48 14.9936C134.597 14.6041 134.695 14.2174 134.782 13.8851C134.867 13.5502 134.984 13.2805 135.065 13.0981C135.158 12.9129 135.221 12.8176 135.221 12.8176Z" fill="#DEDEDE"/>
<path d="M135.531 21.2845C135.531 21.2845 135.534 21.241 135.54 21.1647C135.553 21.0939 135.553 20.9823 135.578 20.8651C135.605 20.748 135.616 20.6037 135.654 20.4594C135.684 20.3123 135.733 20.1625 135.777 20.0073C135.831 19.8575 135.883 19.7023 135.951 19.5634C136.014 19.4218 136.098 19.2992 136.158 19.1903C136.218 19.0813 136.302 19.0023 136.346 18.9424C136.401 18.888 136.433 18.8553 136.433 18.8553C136.433 18.8553 136.436 18.8989 136.439 18.9778C136.433 19.0514 136.444 19.163 136.428 19.2829C136.409 19.4027 136.406 19.5498 136.373 19.6995C136.349 19.8493 136.302 20.0046 136.256 20.1625C136.199 20.3177 136.142 20.473 136.068 20.6119C135.997 20.7535 135.907 20.8733 135.834 20.9768C135.763 21.083 135.673 21.1538 135.621 21.2083C135.567 21.2573 135.531 21.2845 135.531 21.2845Z" fill="#DEDEDE"/>
<path d="M140.485 2.73281C140.485 2.73281 140.447 2.73281 140.381 2.74915C140.316 2.76004 140.232 2.79545 140.136 2.84719C140.038 2.89894 139.937 2.97519 139.826 3.05962C139.717 3.14676 139.594 3.23936 139.469 3.32651C139.341 3.41093 139.21 3.49264 139.079 3.55527C138.948 3.62063 138.817 3.66149 138.706 3.69144C138.594 3.72412 138.496 3.73229 138.43 3.74046C138.362 3.74591 138.324 3.74591 138.324 3.74591C138.324 3.74591 138.36 3.73229 138.422 3.70778C138.485 3.686 138.569 3.64514 138.673 3.60157C138.777 3.558 138.888 3.49264 139.008 3.42183C139.128 3.35102 139.251 3.26932 139.373 3.18489C139.499 3.10319 139.618 3.01332 139.741 2.93434C139.861 2.85536 139.986 2.79545 140.098 2.75732C140.21 2.71647 140.311 2.71375 140.379 2.71375C140.447 2.72192 140.485 2.73281 140.485 2.73281Z" fill="#DEDEDE"/>
<path d="M132.719 2.85539C132.719 2.85539 132.736 2.84994 132.763 2.83633C132.79 2.82816 132.828 2.80909 132.877 2.7982C132.924 2.78731 132.978 2.76552 133.035 2.75462C133.093 2.74101 133.155 2.73011 133.218 2.7165C133.281 2.70833 133.343 2.69743 133.403 2.69199C133.463 2.68382 133.52 2.68654 133.569 2.68382C133.619 2.68109 133.662 2.68654 133.689 2.68654C133.719 2.68926 133.736 2.69199 133.736 2.69199C133.736 2.69199 133.722 2.70016 133.698 2.71922C133.673 2.73284 133.635 2.75735 133.591 2.77641C133.545 2.79548 133.493 2.81999 133.433 2.83905C133.376 2.85811 133.311 2.87173 133.245 2.88535C133.18 2.89352 133.114 2.90441 133.055 2.90441C132.992 2.90713 132.935 2.89896 132.886 2.89624C132.837 2.89352 132.793 2.8799 132.766 2.87445C132.736 2.86084 132.719 2.85539 132.719 2.85539Z" fill="#DEDEDE"/>
<path d="M137.619 9.39427C137.619 9.39427 137.657 9.35341 137.7 9.26627C137.747 9.18184 137.785 9.05112 137.812 8.89044C137.839 8.72976 137.853 8.53367 137.872 8.32942C137.888 8.12244 137.902 7.90457 137.907 7.68398C137.913 7.46338 137.921 7.25096 137.926 7.03309C137.935 6.83972 137.943 6.63002 137.948 6.4639C137.954 6.29777 137.97 6.15888 137.978 6.06084C137.989 5.96279 137.995 5.90833 137.995 5.90833C137.995 5.90833 138 5.96279 138.011 6.06084C138.016 6.15888 138.035 6.29777 138.044 6.4639C138.052 6.63002 138.068 6.82611 138.074 7.03309C138.082 7.24279 138.082 7.4661 138.074 7.68942C138.063 7.91274 138.049 8.13606 138.016 8.34576C137.986 8.55546 137.946 8.7461 137.902 8.9095C137.858 9.07563 137.787 9.20363 137.728 9.28261C137.665 9.36158 137.619 9.39427 137.619 9.39427Z" fill="#DEDEDE"/>
<path d="M136.332 12.4853H137.33C137.33 12.4853 137.185 15.8051 135.523 18.9397C135.523 18.9397 136.436 13.9178 136.332 12.4853Z" fill="#DEDEDE"/>
<path d="M148.782 43.5075L147.281 39.0193C147.278 39.0139 147.278 39.0111 147.275 39.0057C147.134 38.6326 146.774 38.3848 146.376 38.3848C145.845 38.3848 145.414 38.8151 145.414 39.3461C145.414 39.4578 145.433 39.5667 145.471 39.6702C145.471 39.6729 145.474 39.6757 145.474 39.6784L146.946 44.0794C147.065 44.4852 147.444 44.7684 147.867 44.7684C148.398 44.7684 148.828 44.3381 148.828 43.807C148.828 43.7063 148.812 43.6082 148.782 43.5129C148.785 43.5129 148.782 43.5102 148.782 43.5075Z" fill="#291482"/>
<path d="M151.493 43.5075L150.602 40.8331C150.599 40.8277 150.599 40.8249 150.597 40.8195C150.455 40.4464 150.095 40.1985 149.698 40.1985C149.166 40.1985 148.736 40.6288 148.736 41.1599C148.736 41.2716 148.755 41.3805 148.793 41.484C148.793 41.4867 148.796 41.4894 148.796 41.4949L149.659 44.0821C149.779 44.4879 150.158 44.7711 150.58 44.7711C151.112 44.7711 151.542 44.3408 151.542 43.8098C151.542 43.709 151.526 43.611 151.496 43.5156C151.496 43.5129 151.496 43.5102 151.493 43.5075Z" fill="#291482"/>
<path d="M152.929 39.6593C152.916 39.6212 152.897 39.583 152.875 39.5422C152.872 39.5367 152.869 39.5313 152.867 39.5286C152.867 39.5286 152.858 39.515 152.845 39.4932C152.842 39.4877 152.837 39.4823 152.834 39.4741C152.755 39.357 152.452 38.9349 151.858 38.4801C151.725 38.3793 151.553 38.3548 151.395 38.4147C151.24 38.4746 151.128 38.6081 151.101 38.7715C151.016 39.2426 150.978 39.9071 151.101 40.253C151.104 40.2584 151.106 40.2639 151.106 40.2693C151.125 40.3401 151.155 40.4082 151.191 40.4709C151.365 40.7813 151.695 40.9638 152.035 40.9638C152.147 40.9638 152.262 40.9447 152.371 40.9039C152.613 40.8113 152.804 40.6315 152.91 40.3946C153.016 40.1631 153.022 39.9017 152.929 39.6593Z" fill="#291482"/>
<ellipse cx="68.5" cy="88.1179" rx="62.5" ry="11" fill="#EBECF6"/>
<path d="M131.481 13.7795C132.891 15.2633 130.536 20.9893 129.132 24.0353H112.46C108.72 17.0805 109.079 13.1618 109.619 12.6128C109.619 12.6095 109.623 12.6095 109.623 12.6062C109.655 12.5768 109.685 12.5572 109.714 12.5507C110.799 12.2533 111.75 13.3743 112.675 13.7795C113.356 14.0769 114.259 14.3319 114.995 14.1064C115.767 13.8645 116.188 13.6096 116.996 13.8318C117.745 14.0345 117.999 14.9659 118.748 15.2372C119.094 15.3614 119.472 15.3548 119.84 15.345C120.54 15.3287 121.335 15.3123 121.948 14.9267C122.254 14.7339 122.453 14.4201 122.736 14.1881C123.029 13.9462 123.241 13.9201 123.583 13.8351C124.505 13.6096 125.215 14.9659 126.098 14.5606C126.326 14.4593 126.476 14.2436 126.682 14.1488C126.893 14.0541 127.147 14.0966 127.382 14.1325C127.965 14.2207 128.477 14.1227 128.825 13.7665C129.145 13.4429 129.523 12.6356 130.22 12.8481C130.761 13.0115 131.139 13.5148 131.481 13.7795Z" fill="#3D3488"/>
<path d="M112.457 24.0353H129.128C128.591 25.1988 128.193 25.9733 128.193 25.9733H113.558C113.158 25.3034 112.793 24.6595 112.457 24.0353Z" fill="#02FFF7"/>
<path d="M128.193 25.9733C137.397 31.2908 144.77 44.7037 144.77 55.0477C144.77 68.2448 134.067 70.2842 120.856 70.2842C107.648 70.2842 96.9425 68.2448 96.9425 55.0477C96.9425 44.7037 104.358 31.2908 113.562 25.9733L128.193 25.9733Z" fill="#3D3488"/>
<path d="M112.672 13.7795C111.747 13.3775 110.796 12.2565 109.711 12.5507C109.681 12.5605 109.652 12.5768 109.619 12.6062C109.981 11.9558 110.238 11.7271 110.792 11.4395C111.349 11.1519 111.46 11.1682 112.073 11.2859C112.692 11.4068 113.311 11.58 113.933 11.5048C114.721 11.4101 115.461 10.9198 116.249 11.0113C117.074 11.1028 117.755 11.8153 118.585 11.8186C119.426 11.8219 120.117 11.1028 120.951 11.0211C121.782 10.9394 122.534 11.5016 123.355 11.6388C124.303 11.7957 125.242 11.3839 126.19 11.214C127.024 11.0636 127.894 11.1061 128.711 11.3349C129.317 11.5048 130.405 11.9395 131.481 13.7795C131.139 13.5148 130.764 13.0115 130.22 12.8481C129.523 12.6356 129.145 13.4429 128.825 13.7665C128.473 14.126 127.965 14.224 127.382 14.1325C127.147 14.0966 126.893 14.0508 126.682 14.1488C126.476 14.2436 126.326 14.4593 126.098 14.5606C125.215 14.9626 124.505 13.6096 123.583 13.8351C123.241 13.9201 123.029 13.9462 122.736 14.1881C122.453 14.4201 122.254 14.7306 121.948 14.9267C121.335 15.3123 120.537 15.3287 119.84 15.345C119.475 15.3548 119.094 15.3614 118.748 15.2372C117.999 14.9659 117.745 14.0345 116.996 13.8318C116.184 13.6096 115.764 13.8645 114.995 14.1064C114.259 14.3319 113.356 14.0769 112.672 13.7795Z" fill="#251B7D"/>
<path d="M112.672 13.7795C111.747 13.3775 110.796 12.2565 109.711 12.5507C109.681 12.5605 109.652 12.5768 109.619 12.6062C109.981 11.9558 110.238 11.7271 110.792 11.4395C111.349 11.1519 111.46 11.1682 112.073 11.2859C112.692 11.4068 113.311 11.58 113.933 11.5048C114.721 11.4101 115.461 10.9198 116.249 11.0113C117.074 11.1028 117.755 11.8153 118.585 11.8186C119.426 11.8219 120.117 11.1028 120.951 11.0211C121.782 10.9394 122.534 11.5016 123.355 11.6388C124.303 11.7957 125.242 11.3839 126.19 11.214C127.024 11.0636 127.894 11.1061 128.711 11.3349C129.317 11.5048 130.405 11.9395 131.481 13.7795C131.139 13.5148 130.764 13.0115 130.22 12.8481C129.523 12.6356 129.145 13.4429 128.825 13.7665C128.473 14.126 127.965 14.224 127.382 14.1325C127.147 14.0966 126.893 14.0508 126.682 14.1488C126.476 14.2436 126.326 14.4593 126.098 14.5606C125.215 14.9626 124.505 13.6096 123.583 13.8351C123.241 13.9201 123.029 13.9462 122.736 14.1881C122.453 14.4201 122.254 14.7306 121.948 14.9267C121.335 15.3123 120.537 15.3287 119.84 15.345C119.475 15.3548 119.094 15.3614 118.748 15.2372C117.999 14.9659 117.745 14.0345 116.996 13.8318C116.184 13.6096 115.764 13.8645 114.995 14.1064C114.259 14.3319 113.356 14.0769 112.672 13.7795Z" fill="#251B7D"/>
<path d="M132.989 29.6042C133.178 31.1632 133.276 32.7614 133.276 34.3857C133.276 52.3153 121.374 66.8525 106.697 66.8525C105.029 66.8525 103.397 66.6629 101.813 66.3034C106.182 69.5749 113.086 70.2841 120.856 70.2841C134.064 70.2841 144.77 68.2447 144.77 55.0476C144.77 46.5828 139.828 36.0623 132.989 29.6042Z" fill="#251B7D"/>
<path d="M126.747 21.7344C122.12 23.7901 112.46 24.0385 112.46 24.0385H129.128C130.536 20.9892 132.888 15.2665 131.477 13.7828C131.207 13.5736 130.914 13.2174 130.536 12.9951C129.848 16.3679 128.594 20.9108 126.747 21.7344Z" fill="#251B7D"/>
<path d="M124.662 25.9537C124.622 28.2317 127.186 29.9443 128.219 31.7712C129.236 33.5687 129.291 35.4578 129.226 37.4776C129.242 37.0331 131.275 36.6409 131.288 36.1637C131.357 34.144 131.301 32.2549 130.282 30.4574C129.249 28.6337 126.688 26.9211 126.724 24.6399C126.717 25.0746 124.668 25.4896 124.662 25.9537Z" fill="#02FFF7"/>
<path d="M125.949 26.7284C128.06 25.9408 129.526 27.6305 130.956 28.9247C131.588 29.4966 132.282 30.0457 133.119 30.2745C134.061 30.5294 135.038 30.3464 135.996 30.4542C137.997 30.6765 138.443 32.2093 139.3 33.7519C140.261 35.4873 141.799 36.7522 143.812 36.9188C143.587 36.8992 143.535 34.5461 143.278 34.5265C141.365 34.3696 139.844 33.2126 138.889 31.5687C137.967 29.9869 137.557 28.307 135.465 28.0619C133.507 27.8331 132.204 28.088 130.598 26.6925C129.096 25.3852 127.63 23.5125 125.414 24.3361C125.294 24.3818 126.033 26.6958 125.949 26.7284Z" fill="#02FFF7"/>
<path d="M113.979 25.9667C113.979 25.9667 111.392 28.2283 109.473 31.1599C109.473 31.1599 113.066 26.7151 115.096 25.9863L113.979 25.9667Z" fill="#251B7D"/>
<path d="M116.8 25.9667H117.334L116.292 29.3558L116.8 25.9667Z" fill="#251B7D"/>
<path d="M104.974 36.6931C104.974 36.6931 105.589 35.6538 106.296 34.6602C106.472 34.4119 106.652 34.1602 106.821 33.938C107 33.7125 107.166 33.5 107.306 33.3203C107.593 32.9542 107.736 32.6797 107.736 32.6797C107.736 32.6797 107.538 32.915 107.186 33.2059C107.01 33.3529 106.801 33.5229 106.58 33.7059C106.355 33.8955 106.127 34.1014 105.899 34.3105C104.983 35.1439 104.133 36.0558 104.133 36.0558C104.133 36.0558 103.993 36.2617 103.745 36.6179C103.501 36.9774 103.162 37.5004 102.781 38.1377C102.4 38.7782 101.983 39.5397 101.572 40.3731C101.162 41.2065 100.761 42.1086 100.393 43.0204C99.6501 44.8441 99.0213 46.7037 98.5489 48.0927C98.0732 49.4817 97.7572 50.4099 97.7572 50.4099C97.7572 50.4099 98.1351 49.5079 98.702 48.1516C99.2689 46.7952 100.018 44.9879 100.872 43.2361C101.299 42.3602 101.751 41.5007 102.208 40.713C102.66 39.9254 103.117 39.2129 103.527 38.6181C103.938 38.0233 104.303 37.5428 104.56 37.2095C104.824 36.8827 104.974 36.6931 104.974 36.6931Z" fill="#251B7D"/>
<path d="M114.611 21.8358C114.611 21.8358 114.878 22.2705 115.103 22.7313C115.213 22.9601 115.324 23.202 115.386 23.3785C115.448 23.5582 115.448 23.6922 115.448 23.6922C115.448 23.6922 115.513 23.5745 115.549 23.3686C115.585 23.1627 115.601 22.9013 115.617 22.63C115.643 22.0875 115.617 21.545 115.617 21.545C115.617 21.545 115.471 21.1462 115.223 20.5743C115.099 20.2932 114.956 19.9631 114.803 19.6102C114.65 19.2507 114.474 18.8748 114.298 18.5055C113.946 17.7636 113.607 17.025 113.402 16.4498C113.294 16.1622 113.223 15.917 113.171 15.7471C113.125 15.5739 113.099 15.4758 113.099 15.4758C113.099 15.4758 113.109 15.5771 113.128 15.7569C113.151 15.9367 113.184 16.1916 113.245 16.4955C113.36 17.1034 113.581 17.9041 113.809 18.6918C113.923 19.0872 114.034 19.4762 114.125 19.8455C114.22 20.2181 114.308 20.5645 114.386 20.8652C114.536 21.4502 114.611 21.8358 114.611 21.8358Z" fill="#251B7D"/>
<path d="M112.457 24.0353C112.457 24.0353 112.705 24.6236 112.789 25.2217C112.877 25.8197 112.887 26.3786 112.887 26.3786C112.887 26.3786 114.031 26.0551 115.09 25.9864C116.152 25.9178 116.771 25.8916 116.771 25.8916L113.011 24.2608L112.457 24.0353Z" fill="#02FFF7"/>
<path d="M127.105 26.4407L126.62 25.3818C126.62 25.3818 126.916 25.7806 127.34 26.0289C127.763 26.2773 128.431 26.6891 128.617 26.9016C128.62 26.9016 127.825 26.4538 127.105 26.4407Z" fill="#E6FFFE"/>
<path d="M126.173 25.2217C126.099 25.4374 125.551 25.6988 124.89 25.5289C124.228 25.3622 124.544 24.2118 124.544 24.2118C124.544 24.2118 124.163 25.0517 124.264 25.323C124.365 25.5943 124.815 25.5648 124.896 25.6956C124.981 25.8263 126.32 27.3395 126.32 27.3395C126.32 27.3395 125.724 26.3231 125.567 26.0518C125.408 25.7806 125.603 25.64 125.883 25.6139C126.164 25.5845 126.18 25.1857 126.18 25.1857L126.173 25.2217Z" fill="#E6FFFE"/>
<path d="M128.65 25.0614C128.65 25.0614 128.213 24.6398 127.662 24.6136C127.662 24.6136 128.65 24.6136 128.77 24.5385L128.65 25.0614Z" fill="#E6FFFE"/>
<path d="M126.574 24.8099C126.835 24.6497 127.962 25.1171 128.64 25.5093C129.321 25.9015 130.259 26.7218 130.259 26.7218C130.259 26.7218 128.9 25.6302 128.043 25.3786C127.187 25.1269 126.515 25.0223 126.359 24.9668C126.203 24.9145 126.574 24.8099 126.574 24.8099Z" fill="#E6FFFE"/>
<path d="M118.706 25.2771C117.999 25.3719 113.79 25.4438 113.79 25.4438C113.79 25.4438 115.539 25.6693 116.621 25.7052C117.703 25.7412 118.706 25.2771 118.706 25.2771Z" fill="#E6FFFE"/>
<path d="M124.684 24.3132C124.622 24.5126 124.596 25.2087 124.909 25.346C124.909 25.346 124.759 24.9342 124.759 24.7741C124.759 24.6106 124.684 24.3132 124.684 24.3132Z" fill="#E6FFFE"/>
<path d="M129.461 35.0265C129.461 35.0265 129.48 35.1573 129.5 35.3534C129.509 35.4547 129.516 35.5593 129.522 35.6965C129.545 35.824 129.558 35.9482 129.565 36.0822C129.581 36.3436 129.552 36.6084 129.503 36.8012C129.457 36.994 129.402 37.1182 129.402 37.1182C129.402 37.1182 129.47 37.0038 129.542 36.8143C129.614 36.6247 129.679 36.36 129.695 36.0854C129.705 35.9515 129.705 35.8076 129.702 35.6867C129.711 35.5756 129.718 35.4449 129.721 35.3468C129.728 35.1442 129.724 35.0069 129.724 35.0069C129.724 35.0069 129.692 34.569 129.548 33.9382C129.477 33.6212 129.376 33.2584 129.252 32.8728C129.19 32.6799 129.122 32.4838 129.05 32.2845C129.014 32.1832 128.975 32.0818 128.936 31.9805C128.89 31.8792 128.832 31.791 128.78 31.6962C128.669 31.5132 128.571 31.3171 128.447 31.1439C128.327 30.9706 128.2 30.804 128.069 30.6504C127.812 30.3399 127.545 30.0751 127.31 29.8562C126.838 29.4215 126.499 29.16 126.499 29.16C126.499 29.16 126.828 29.4346 127.281 29.8856C127.506 30.1111 127.76 30.3856 128.004 30.7026C128.125 30.8595 128.245 31.0295 128.356 31.206C128.47 31.3792 128.558 31.5753 128.662 31.7583C128.711 31.8531 128.767 31.9446 128.806 32.0394C128.838 32.1374 128.871 32.2387 128.903 32.3368C128.965 32.5361 129.027 32.7355 129.079 32.9251C129.187 33.3074 129.272 33.6702 129.33 33.984C129.447 34.6049 129.461 35.0265 129.461 35.0265Z" fill="#E6FFFE"/>
<path d="M134.126 29.99C134.126 29.99 133.862 30.0129 133.595 30.0064C133.328 30.0064 133.061 29.9639 133.061 29.9639C133.061 29.9639 133.312 30.0717 133.576 30.1371C133.839 30.209 134.113 30.2515 134.113 30.2515C134.113 30.2515 134.331 30.2547 134.654 30.2449C134.976 30.2384 135.407 30.2123 135.827 30.2384C136.25 30.2678 136.671 30.3561 136.967 30.4737C137.267 30.5881 137.433 30.7286 137.433 30.7286C137.433 30.7286 137.277 30.575 136.983 30.4345C136.69 30.2907 136.27 30.1665 135.84 30.1077C135.407 30.0488 134.976 30.039 134.654 30.0227C134.338 30.0096 134.126 29.99 134.126 29.99Z" fill="#E6FFFE"/>
<path d="M115.598 24.0744L113.343 24.1757L115.591 24.3391L122.805 24.3064L115.598 24.0744Z" fill="#E6FFFE"/>
<path d="M109.935 13.5671C109.935 13.5671 109.974 13.6979 110.043 13.9266C110.101 14.1587 110.209 14.4822 110.29 14.8842C110.372 15.2797 110.466 15.7732 110.505 16.2732C110.561 16.7733 110.606 17.3027 110.717 17.8093C110.808 18.3224 110.978 18.7963 111.17 19.2572C111.366 19.7147 111.548 20.1527 111.717 20.522C111.887 20.8945 111.988 21.2246 112.069 21.4502C112.134 21.6822 112.17 21.8162 112.17 21.8162C112.17 21.8162 112.099 21.6985 111.965 21.5024C111.841 21.2998 111.636 21.0285 111.421 20.6821C111.206 20.3357 110.929 19.9468 110.691 19.4827C110.444 19.0284 110.238 18.476 110.128 17.9237C110.023 17.3681 109.984 16.8125 109.978 16.2994C109.974 15.783 109.984 15.332 109.955 14.9235C109.929 14.5182 109.935 14.175 109.926 13.9365C109.935 13.7044 109.935 13.5671 109.935 13.5671Z" fill="#251B7D"/>
<path d="M113.809 27.1631C113.809 27.1631 113.672 27.3167 113.434 27.5814C113.19 27.8396 112.861 28.2318 112.454 28.6828C112.047 29.1338 111.597 29.6829 111.111 30.2647C110.629 30.8497 110.115 31.4739 109.61 32.1112C109.091 32.742 108.603 33.3695 108.153 33.9839C107.704 34.5918 107.274 35.1703 106.909 35.6573C106.544 36.1508 106.198 36.5332 105.967 36.8044C105.719 37.0659 105.579 37.2129 105.579 37.2129C105.579 37.2129 105.69 37.0397 105.873 36.7325C106.065 36.4318 106.309 35.9841 106.628 35.4644C106.948 34.9448 107.293 34.3205 107.717 33.6767C108.127 33.0263 108.632 32.3661 109.14 31.7288C109.658 31.0948 110.186 30.4706 110.714 29.9117C111.239 29.3495 111.763 28.8593 112.216 28.4442C112.669 28.0259 113.079 27.7187 113.359 27.4964C113.643 27.284 113.809 27.1631 113.809 27.1631Z" fill="#251B7D"/>
<path d="M117.533 26.3787C117.533 26.3787 117.497 26.5127 117.458 26.748C117.409 26.98 117.386 27.3166 117.341 27.7219C117.292 28.1239 117.276 28.6043 117.162 29.1273C117.041 29.6306 116.881 30.147 116.725 30.6731C116.559 31.1928 116.393 31.7124 116.217 32.1929C116.047 32.6766 115.858 33.1178 115.712 33.5002C115.565 33.8826 115.409 34.1898 115.314 34.4087C115.207 34.6244 115.148 34.7486 115.148 34.7486C115.148 34.7486 115.168 34.6114 115.204 34.3728C115.252 34.1375 115.295 33.7943 115.389 33.3989C115.484 33.0001 115.575 32.5328 115.709 32.0393C115.836 31.5458 115.992 31.0261 116.145 30.5032C116.311 29.9868 116.481 29.4672 116.647 28.99C116.787 28.5226 116.904 28.0585 117.009 27.6598C117.11 27.2578 117.25 26.9343 117.347 26.7153C117.458 26.4931 117.533 26.3787 117.533 26.3787Z" fill="#251B7D"/>
<path d="M117.905 36.5394C117.905 36.5394 117.908 36.4871 117.914 36.3956C117.931 36.3106 117.931 36.1766 117.96 36.0361C117.993 35.8956 118.006 35.7224 118.051 35.5491C118.087 35.3727 118.146 35.1929 118.198 35.0066C118.263 34.8269 118.325 34.6406 118.406 34.4739C118.481 34.3039 118.582 34.1569 118.654 34.0261C118.726 33.8954 118.827 33.8006 118.879 33.7287C118.944 33.6634 118.983 33.6241 118.983 33.6241C118.983 33.6241 118.986 33.6764 118.99 33.7712C118.983 33.8595 118.996 33.9935 118.976 34.1373C118.954 34.2811 118.95 34.4575 118.911 34.6373C118.882 34.8171 118.827 35.0033 118.771 35.1929C118.703 35.3792 118.634 35.5655 118.546 35.7322C118.462 35.9021 118.354 36.0459 118.266 36.1701C118.182 36.2976 118.074 36.3825 118.012 36.4479C117.947 36.5067 117.905 36.5394 117.905 36.5394Z" fill="#251B7D"/>
<path d="M123.828 14.2763C123.828 14.2763 123.782 14.2763 123.704 14.2959C123.626 14.309 123.525 14.3515 123.411 14.4136C123.293 14.4757 123.173 14.5672 123.039 14.6685C122.909 14.7731 122.762 14.8842 122.612 14.9888C122.459 15.0901 122.303 15.1881 122.147 15.2633C121.99 15.3417 121.834 15.3908 121.7 15.4267C121.567 15.4659 121.449 15.4757 121.371 15.4855C121.29 15.4921 121.244 15.4921 121.244 15.4921C121.244 15.4921 121.286 15.4757 121.361 15.4463C121.436 15.4202 121.537 15.3712 121.661 15.3189C121.785 15.2666 121.918 15.1881 122.062 15.1032C122.205 15.0182 122.352 14.9201 122.498 14.8188C122.648 14.7208 122.792 14.6129 122.938 14.5181C123.082 14.4234 123.231 14.3515 123.365 14.3057C123.499 14.2567 123.619 14.2534 123.701 14.2534C123.782 14.2632 123.828 14.2763 123.828 14.2763Z" fill="#251B7D"/>
<path d="M114.542 14.4268C114.542 14.4268 114.562 14.4202 114.594 14.4039C114.627 14.3941 114.672 14.3712 114.731 14.3581C114.786 14.3451 114.852 14.3189 114.92 14.3058C114.988 14.2895 115.063 14.2732 115.138 14.2601C115.213 14.2503 115.288 14.2372 115.36 14.2307C115.432 14.2209 115.5 14.2241 115.559 14.2209C115.617 14.2176 115.669 14.2241 115.702 14.2241C115.738 14.2274 115.757 14.2307 115.757 14.2307C115.757 14.2307 115.741 14.2405 115.712 14.2634C115.679 14.2797 115.637 14.3091 115.585 14.332C115.529 14.3549 115.467 14.3843 115.396 14.4072C115.327 14.43 115.249 14.4464 115.171 14.4627C115.093 14.4725 115.014 14.4856 114.943 14.4856C114.868 14.4889 114.799 14.4791 114.741 14.4758C114.682 14.4725 114.63 14.4562 114.597 14.4497C114.562 14.43 114.542 14.4268 114.542 14.4268Z" fill="#251B7D"/>
<path d="M120.4 22.2706C120.4 22.2706 120.446 22.2216 120.498 22.117C120.553 22.0157 120.599 21.8588 120.631 21.666C120.664 21.4732 120.68 21.2379 120.703 20.9928C120.723 20.7444 120.739 20.4829 120.745 20.2182C120.752 19.9534 120.762 19.6985 120.768 19.4371C120.778 19.205 120.788 18.9534 120.794 18.754C120.801 18.5546 120.82 18.388 120.827 18.2703C120.84 18.1526 120.846 18.0873 120.846 18.0873C120.846 18.0873 120.853 18.1526 120.866 18.2703C120.872 18.388 120.895 18.5546 120.905 18.754C120.915 18.9534 120.934 19.1887 120.941 19.4371C120.951 19.6887 120.951 19.9567 120.941 20.2247C120.928 20.4927 120.912 20.7607 120.872 21.0124C120.837 21.264 120.788 21.4928 120.736 21.6889C120.684 21.8883 120.599 22.0419 120.527 22.1366C120.455 22.2314 120.4 22.2706 120.4 22.2706Z" fill="#251B7D"/>
<path d="M118.862 25.9799H120.055C120.055 25.9799 119.882 29.9639 117.895 33.7256C117.895 33.7256 118.986 27.699 118.862 25.9799Z" fill="#251B7D"/>
<path d="M133.75 63.2083L131.955 57.8222C131.952 57.8157 131.952 57.8124 131.948 57.8059C131.779 57.3581 131.349 57.0607 130.873 57.0607C130.238 57.0607 129.723 57.5771 129.723 58.2144C129.723 58.3484 129.746 58.4791 129.792 58.6033C129.792 58.6066 129.795 58.6099 129.795 58.6131L131.554 63.8946C131.698 64.3816 132.15 64.7215 132.655 64.7215C133.291 64.7215 133.806 64.2051 133.806 63.5678C133.806 63.4469 133.786 63.3292 133.75 63.2148C133.753 63.2148 133.753 63.2116 133.75 63.2083Z" fill="#02FFF7"/>
<path d="M136.995 63.2082L135.93 59.9988C135.927 59.9923 135.927 59.989 135.923 59.9825C135.754 59.5347 135.324 59.2373 134.848 59.2373C134.213 59.2373 133.698 59.7537 133.698 60.391C133.698 60.525 133.721 60.6557 133.767 60.7799C133.767 60.7832 133.77 60.7865 133.77 60.793L134.803 63.8978C134.946 64.3848 135.399 64.7247 135.904 64.7247C136.539 64.7247 137.054 64.2083 137.054 63.571C137.054 63.4501 137.034 63.3324 136.998 63.218C136.998 63.2148 136.995 63.2115 136.995 63.2082Z" fill="#02FFF7"/>
<path d="M138.709 58.5903C138.693 58.5445 138.67 58.4988 138.644 58.4497C138.641 58.4432 138.637 58.4367 138.634 58.4334C138.634 58.4334 138.624 58.4171 138.608 58.3909C138.605 58.3844 138.598 58.3778 138.595 58.368C138.5 58.2275 138.139 57.7209 137.429 57.1751C137.269 57.0542 137.064 57.0215 136.875 57.0967C136.689 57.1686 136.555 57.3287 136.523 57.5248C136.422 58.0902 136.376 58.8877 136.523 59.3027C136.526 59.3093 136.529 59.3158 136.529 59.3224C136.552 59.4073 136.588 59.489 136.63 59.5642C136.839 59.9368 137.233 60.1558 137.64 60.1558C137.774 60.1558 137.911 60.1329 138.041 60.0839C138.331 59.9727 138.559 59.757 138.686 59.4727C138.813 59.1949 138.823 58.8811 138.709 58.5903Z" fill="#02FFF7"/>
<path d="M57.5948 40.9389C57.5948 40.9389 58.4797 39.4356 59.4957 37.9985C59.7485 37.6392 60.006 37.2752 60.2494 36.9537C60.5069 36.6276 60.7457 36.3203 60.947 36.0603C61.359 35.5308 61.565 35.1337 61.565 35.1337C61.565 35.1337 61.2794 35.4741 60.7738 35.8948C60.521 36.1076 60.2213 36.3534 59.903 36.6181C59.5799 36.8923 59.2522 37.1901 58.9245 37.4927C57.6089 38.6981 56.3869 40.017 56.3869 40.017C56.3869 40.017 56.1856 40.3149 55.8298 40.8301C55.4787 41.3502 54.9917 42.1065 54.444 43.0283C53.8962 43.9549 53.2969 45.0564 52.707 46.2618C52.1171 47.4673 51.5412 48.772 51.0122 50.091C49.9447 52.7288 49.0412 55.4186 48.3623 57.4278C47.6787 59.4369 47.2246 60.7794 47.2246 60.7794C47.2246 60.7794 47.7677 59.4747 48.5823 57.5128C49.397 55.551 50.4738 52.9368 51.7004 50.403C52.3137 49.136 52.9645 47.8928 53.62 46.7535C54.2707 45.6142 54.9262 44.5836 55.5161 43.7233C56.106 42.8629 56.6304 42.168 57.0002 41.6858C57.3795 41.2131 57.5948 40.9389 57.5948 40.9389Z" fill="#DEDEDE"/>
<path d="M71.4436 19.4484C71.4436 19.4484 71.8275 20.0772 72.1506 20.7437C72.3097 21.0746 72.4689 21.4245 72.5579 21.6797C72.6468 21.9397 72.6468 22.1336 72.6468 22.1336C72.6468 22.1336 72.7405 21.9634 72.792 21.6656C72.8435 21.3677 72.8669 20.9895 72.8903 20.5972C72.9277 19.8124 72.8903 19.0277 72.8903 19.0277C72.8903 19.0277 72.6796 18.451 72.3238 17.6237C72.1459 17.2172 71.9399 16.7397 71.7198 16.2291C71.4998 15.7091 71.247 15.1655 70.9941 14.6313C70.4885 13.5582 70.0016 12.4898 69.7066 11.6578C69.5521 11.2418 69.4491 10.8873 69.3742 10.6415C69.3087 10.3909 69.2712 10.2491 69.2712 10.2491C69.2712 10.2491 69.2853 10.3956 69.3134 10.6556C69.3461 10.9156 69.393 11.2844 69.4819 11.724C69.6458 12.6033 69.9641 13.7615 70.2919 14.9008C70.4557 15.4728 70.6149 16.0353 70.746 16.5695C70.8818 17.1084 71.0082 17.6095 71.1206 18.0444C71.3359 18.8906 71.4436 19.4484 71.4436 19.4484Z" fill="#DEDEDE"/>
<path d="M77.5535 25.4427H79.267C79.267 25.4427 79.0189 31.2053 76.163 36.6465C76.163 36.6465 77.7314 27.9293 77.5535 25.4427Z" fill="#DEDEDE"/>
<path d="M95.686 7.79565C97.7133 9.94186 94.3283 18.2241 92.3104 22.63H68.3489C62.9742 12.5702 63.4892 6.90219 64.2663 6.108C64.2663 6.10327 64.271 6.10327 64.271 6.09855C64.3178 6.056 64.36 6.02764 64.4021 6.01818C65.9612 5.588 67.3282 7.20947 68.6579 7.79565C69.6364 8.22584 70.9332 8.59457 71.9913 8.26839C73.1009 7.91856 73.7049 7.54983 74.866 7.87129C75.9428 8.16438 76.308 9.51167 77.3848 9.90404C77.8811 10.0837 78.4242 10.0742 78.9532 10.06C79.9598 10.0364 81.1022 10.0128 81.9823 9.45494C82.4224 9.17603 82.708 8.72221 83.1153 8.38657C83.5367 8.03675 83.841 7.99893 84.3326 7.87602C85.6576 7.54983 86.6782 9.51167 87.947 8.92548C88.2747 8.77894 88.4901 8.46693 88.785 8.32984C89.0893 8.19275 89.4545 8.2542 89.7916 8.3062C90.6297 8.43384 91.3647 8.29202 91.8657 7.77674C92.3245 7.30874 92.8676 6.14109 93.8695 6.44837C94.6513 6.68473 95.1944 7.41274 95.686 7.79565Z" fill="#A4FF00"/>
<path d="M68.3489 22.6299H92.3057C91.5332 24.3129 90.9621 25.4332 90.9621 25.4332H69.936C69.3555 24.4641 68.8311 23.5329 68.3489 22.6299Z" fill="#291482"/>
<path d="M90.9621 25.4332C104.188 33.1293 114.783 52.5255 114.783 67.4874C114.783 86.5764 99.4034 89.5262 80.4186 89.5262C61.4385 89.5262 46.0541 86.5764 46.0541 67.4874C46.0541 52.5255 56.7099 33.1246 69.936 25.4332L90.9621 25.4332Z" fill="#A4FF00"/>
<path d="M68.6579 7.79566C67.3282 7.2142 65.9611 5.59273 64.4021 6.01818C64.36 6.03237 64.3178 6.056 64.271 6.09855C64.7907 5.15781 65.1605 4.8269 65.9565 4.4109C66.757 3.99489 66.9162 4.01853 67.7964 4.18871C68.6813 4.3589 69.5708 4.60944 70.4697 4.50072C71.6027 4.36362 72.6655 3.65453 73.7985 3.78689C74.983 3.91926 75.9615 4.94981 77.1554 4.95454C78.3633 4.95927 79.3558 3.91926 80.5544 3.80107C81.7482 3.68289 82.8297 4.49599 84.0095 4.69454C85.372 4.92145 86.7203 4.3258 88.0827 4.07998C89.2813 3.86253 90.5313 3.92398 91.7065 4.25489C92.5773 4.50072 94.141 5.12945 95.686 7.79093C95.1944 7.40802 94.656 6.68001 93.8741 6.44364C92.8722 6.13637 92.3291 7.30401 91.8703 7.77202C91.3647 8.29202 90.6343 8.43384 89.7963 8.30148C89.4592 8.24948 89.094 8.1833 88.7897 8.32512C88.4947 8.46221 88.2794 8.77421 87.9516 8.92076C86.6829 9.50222 85.6622 7.54511 84.3373 7.87129C83.8457 7.9942 83.5414 8.03202 83.12 8.38184C82.7127 8.71748 82.4271 9.16658 81.987 9.45022C81.1068 10.008 79.9598 10.0317 78.9579 10.0553C78.4335 10.0695 77.8857 10.0789 77.3895 9.89931C76.3126 9.50694 75.9475 8.15966 74.8706 7.86657C73.7049 7.54511 73.1009 7.91384 71.996 8.26366C70.9379 8.59457 69.641 8.22584 68.6579 7.79566Z" fill="#9BEC09"/>
<path opacity="0.4" d="M68.6579 7.79566C67.3282 7.2142 65.9611 5.59273 64.4021 6.01818C64.36 6.03237 64.3178 6.056 64.271 6.09855C64.7907 5.15781 65.1605 4.8269 65.9565 4.4109C66.757 3.99489 66.9162 4.01853 67.7964 4.18871C68.6813 4.3589 69.5708 4.60944 70.4697 4.50072C71.6027 4.36362 72.6655 3.65453 73.7985 3.78689C74.983 3.91926 75.9615 4.94981 77.1554 4.95454C78.3633 4.95927 79.3558 3.91926 80.5544 3.80107C81.7482 3.68289 82.8297 4.49599 84.0095 4.69454C85.372 4.92145 86.7203 4.3258 88.0827 4.07998C89.2813 3.86253 90.5313 3.92398 91.7065 4.25489C92.5773 4.50072 94.141 5.12945 95.686 7.79093C95.1944 7.40802 94.656 6.68001 93.8741 6.44364C92.8722 6.13637 92.3291 7.30401 91.8703 7.77202C91.3647 8.29202 90.6343 8.43384 89.7963 8.30148C89.4592 8.24948 89.094 8.1833 88.7897 8.32512C88.4947 8.46221 88.2794 8.77421 87.9516 8.92076C86.6829 9.50222 85.6622 7.54511 84.3373 7.87129C83.8457 7.9942 83.5414 8.03202 83.12 8.38184C82.7127 8.71748 82.4271 9.16658 81.987 9.45022C81.1068 10.008 79.9598 10.0317 78.9579 10.0553C78.4335 10.0695 77.8857 10.0789 77.3895 9.89931C76.3126 9.50694 75.9475 8.15966 74.8706 7.86657C73.7049 7.54511 73.1009 7.91384 71.996 8.26366C70.9379 8.59457 69.641 8.22584 68.6579 7.79566Z" fill="#9BEC09"/>
<path d="M88.8834 19.302C82.2352 22.2755 68.3536 22.6347 68.3536 22.6347H92.3105C94.3331 18.2242 97.7133 9.94662 95.6861 7.80042C95.2975 7.49787 94.8761 6.98259 94.3331 6.66113C93.3405 11.5445 91.538 18.1107 88.8834 19.302Z" fill="#9BEC09"/>
<path d="M85.887 25.4097C85.8308 28.7046 89.5154 31.1817 90.9995 33.8243C92.4603 36.4243 92.5399 39.1567 92.4462 42.0782C92.4696 41.4353 95.3911 40.868 95.4098 40.1778C95.5081 37.2563 95.4285 34.5239 93.9631 31.9239C92.479 29.2861 88.7991 26.8089 88.8506 23.5093C88.8412 24.138 85.8964 24.7384 85.887 25.4097Z" fill="#291482"/>
<path d="M87.7317 26.5252C90.7655 25.3859 92.8723 27.83 94.9276 29.702C95.8359 30.5293 96.8331 31.3234 98.0364 31.6544C99.3894 32.0231 100.794 31.7584 102.17 31.9144C105.045 32.2358 105.686 34.4529 106.918 36.6842C108.299 39.1944 110.509 41.0239 113.402 41.265C113.079 41.2366 113.009 37.8377 112.634 37.8046C109.886 37.5777 107.7 35.9042 106.328 33.5264C105.003 31.2383 104.413 28.8085 101.407 28.454C98.5935 28.123 96.7208 28.4918 94.4126 26.4732C92.2543 24.5823 90.1475 21.8735 86.9638 23.0648C86.7953 23.131 87.8581 26.4779 87.7317 26.5252Z" fill="#291482"/>
<path d="M70.5351 25.4285C70.5351 25.4285 66.8178 28.6998 64.0602 32.9402C64.0602 32.9402 69.2242 26.511 72.141 25.4568L70.5351 25.4285Z" fill="#9BEC09"/>
<path d="M74.5899 25.4285H75.3577L73.8595 30.326L74.5899 25.4285Z" fill="#9BEC09"/>
<path d="M68.3489 22.6299C68.3489 22.6299 68.7047 23.4809 68.8264 24.346C68.9528 25.2111 68.9669 26.0194 68.9669 26.0194C68.9669 26.0194 70.6102 25.5514 72.1318 25.4522C73.6581 25.3529 74.5476 25.3151 74.5476 25.3151L69.1495 22.9609L68.3489 22.6299Z" fill="#291482"/>
<path d="M89.3983 26.1094L88.7007 24.5778C88.7007 24.5778 89.1267 25.1545 89.7354 25.5138C90.344 25.873 91.3038 26.4687 91.5706 26.776C91.5753 26.776 90.433 26.1283 89.3983 26.1094Z" fill="#291482"/>
<path d="M88.0593 24.346C87.9516 24.658 87.1651 25.0362 86.2146 24.7904C85.2642 24.5493 85.7184 22.8853 85.7184 22.8853C85.7184 22.8853 85.1706 24.1002 85.3157 24.4925C85.4609 24.8849 86.107 24.8424 86.224 25.0315C86.3457 25.2205 88.27 27.4093 88.27 27.4093C88.27 27.4093 87.4132 25.9391 87.1885 25.5467C86.9591 25.1544 87.24 24.9511 87.6426 24.9133C88.0452 24.8707 88.0686 24.294 88.0686 24.294L88.0593 24.346Z" fill="#291482"/>
<path d="M91.6174 24.1143C91.6174 24.1143 90.9901 23.5045 90.1989 23.4666C90.1989 23.4666 91.6174 23.4666 91.7907 23.3579L91.6174 24.1143Z" fill="#291482"/>
<path d="M88.6352 23.7504C89.0098 23.5187 90.6297 24.1948 91.6035 24.762C92.582 25.3293 93.9304 26.5159 93.9304 26.5159C93.9304 26.5159 91.978 24.9369 90.7467 24.5729C89.5154 24.2089 88.5509 24.0577 88.3262 23.9773C88.1015 23.9017 88.6352 23.7504 88.6352 23.7504Z" fill="#291482"/>
<path d="M77.3285 24.4263C76.3126 24.5634 70.2637 24.6674 70.2637 24.6674C70.2637 24.6674 72.7778 24.9935 74.3322 25.0455C75.8865 25.1023 77.3285 24.4263 77.3285 24.4263Z" fill="#291482"/>
<path d="M85.9197 23.0319C85.8307 23.3202 85.7933 24.3271 86.2427 24.5257C86.2427 24.5257 86.0274 23.9301 86.0274 23.6984C86.0274 23.462 85.9197 23.0319 85.9197 23.0319Z" fill="#291482"/>
<path d="M92.7832 38.528C92.7832 38.528 92.8113 38.717 92.8394 39.0007C92.8535 39.1472 92.8628 39.2985 92.8722 39.4971C92.905 39.6814 92.9237 39.8611 92.9331 40.0549C92.9565 40.4331 92.9143 40.816 92.8441 41.0949C92.7786 41.3738 92.699 41.5534 92.699 41.5534C92.699 41.5534 92.7973 41.388 92.9003 41.1138C93.0033 40.8396 93.0969 40.4567 93.1203 40.0596C93.1344 39.8658 93.1344 39.6578 93.1297 39.4829C93.1437 39.3221 93.1531 39.1331 93.1578 38.9912C93.1671 38.6981 93.1625 38.4996 93.1625 38.4996C93.1625 38.4996 93.1156 37.8661 92.9096 36.9538C92.8066 36.4952 92.6615 35.9705 92.4836 35.4127C92.3946 35.1337 92.2963 34.8501 92.1933 34.5617C92.1418 34.4152 92.0856 34.2686 92.0295 34.1221C91.9639 33.9755 91.8796 33.8479 91.8047 33.7108C91.6456 33.4461 91.5051 33.1624 91.3272 32.9119C91.154 32.6614 90.9714 32.4203 90.7841 32.1981C90.4142 31.749 90.0303 31.3661 89.6932 31.0493C89.0144 30.4206 88.5275 30.0424 88.5275 30.0424C88.5275 30.0424 89.0003 30.4395 89.6511 31.0919C89.9741 31.4181 90.3393 31.8152 90.6905 32.2737C90.8637 32.5006 91.0369 32.7464 91.1961 33.0017C91.36 33.2523 91.4864 33.5359 91.6362 33.8006C91.7064 33.9377 91.786 34.0701 91.8422 34.2072C91.889 34.349 91.9358 34.4956 91.9826 34.6374C92.0716 34.9257 92.1606 35.2141 92.2355 35.4883C92.39 36.0414 92.5117 36.5661 92.596 37.0199C92.7645 37.9181 92.7832 38.528 92.7832 38.528Z" fill="#291482"/>
<path d="M99.4876 31.2432C99.4876 31.2432 99.1084 31.2763 98.7245 31.2668C98.3406 31.2668 97.9567 31.2054 97.9567 31.2054C97.9567 31.2054 98.3172 31.3614 98.6964 31.4559C99.0756 31.5599 99.4689 31.6214 99.4689 31.6214C99.4689 31.6214 99.7826 31.6261 100.246 31.6119C100.71 31.6025 101.328 31.5647 101.932 31.6025C102.54 31.645 103.144 31.7727 103.57 31.9428C104.001 32.1083 104.24 32.3116 104.24 32.3116C104.24 32.3116 104.015 32.0894 103.594 31.8861C103.172 31.6781 102.568 31.4985 101.95 31.4134C101.328 31.3283 100.71 31.3141 100.246 31.2905C99.7919 31.2716 99.4876 31.2432 99.4876 31.2432Z" fill="#291482"/>
<path d="M72.8621 22.6866L69.6223 22.8332L72.8528 23.0695L83.2183 23.0223L72.8621 22.6866Z" fill="#291482"/>
<path d="M64.7252 7.48834C64.7252 7.48834 64.7814 7.67743 64.8797 8.00835C64.964 8.34399 65.1185 8.81199 65.2355 9.39345C65.3526 9.96546 65.4884 10.6793 65.5445 11.4026C65.6241 12.1258 65.6897 12.8917 65.8489 13.6244C65.98 14.3666 66.2234 15.0521 66.4996 15.7186C66.7805 16.3804 67.0427 17.0139 67.2862 17.5481C67.5296 18.087 67.6748 18.5644 67.7918 18.8906C67.8855 19.2263 67.937 19.4201 67.937 19.4201C67.937 19.4201 67.834 19.2499 67.642 18.9663C67.4641 18.6732 67.1691 18.2808 66.8601 17.7797C66.5511 17.2786 66.1532 16.7161 65.8114 16.0448C65.4556 15.3877 65.1606 14.5888 65.0015 13.7899C64.8516 12.9862 64.7955 12.1826 64.7861 11.4404C64.7814 10.6935 64.7955 10.0411 64.7533 9.45018C64.7159 8.86399 64.7252 8.36762 64.7112 8.02253C64.7252 7.68689 64.7252 7.48834 64.7252 7.48834Z" fill="#9BEC09"/>
<path d="M70.2919 27.1541C70.2919 27.1541 70.0952 27.3763 69.7534 27.7592C69.4023 28.1327 68.9294 28.6999 68.3442 29.3523C67.759 30.0047 67.1129 30.7989 66.4153 31.6403C65.7224 32.4865 64.9827 33.3894 64.257 34.3113C63.5126 35.2236 62.8103 36.1313 62.1642 37.02C61.5181 37.8993 60.9001 38.736 60.3758 39.4404C59.8514 40.1542 59.3551 40.7073 59.0227 41.0997C58.6669 41.4779 58.4656 41.6906 58.4656 41.6906C58.4656 41.6906 58.6248 41.4401 58.8869 40.9957C59.1632 40.5608 59.5143 39.9131 59.9731 39.1615C60.4319 38.4099 60.9282 37.5069 61.5368 36.5757C62.1268 35.6349 62.8524 34.68 63.5828 33.7582C64.3272 32.8411 65.0857 31.9382 65.8441 31.1298C66.5932 30.3167 67.3517 29.6076 68.0024 29.0072C68.6532 28.4021 69.2431 27.9578 69.6458 27.6363C70.0531 27.329 70.2919 27.1541 70.2919 27.1541Z" fill="#9BEC09"/>
<path d="M75.6432 26.0195C75.6432 26.0195 75.5917 26.2134 75.5355 26.5537C75.4652 26.8894 75.4325 27.3763 75.3669 27.9625C75.2967 28.5439 75.2733 29.2388 75.1094 29.9952C74.9362 30.7232 74.7068 31.4701 74.4821 32.2312C74.2433 32.9829 74.0045 33.7345 73.7517 34.4294C73.5082 35.1291 73.2367 35.7673 73.026 36.3204C72.8153 36.8735 72.5906 37.3178 72.4548 37.6346C72.3003 37.9466 72.2161 38.1262 72.2161 38.1262C72.2161 38.1262 72.2442 37.9276 72.2957 37.5826C72.3659 37.2422 72.4267 36.7458 72.5625 36.1738C72.6983 35.5971 72.8294 34.9211 73.0213 34.2072C73.2039 33.4934 73.4287 32.7418 73.6487 31.9854C73.8875 31.2385 74.1309 30.4868 74.3697 29.7967C74.571 29.1207 74.7396 28.4494 74.8894 27.8726C75.0345 27.2912 75.2358 26.8232 75.3763 26.5064C75.5355 26.185 75.6432 26.0195 75.6432 26.0195Z" fill="#9BEC09"/>
<path d="M76.177 40.7166C76.177 40.7166 76.1817 40.6409 76.191 40.5086C76.2145 40.3857 76.2145 40.1919 76.2566 39.9886C76.3034 39.7853 76.3221 39.5348 76.3877 39.2842C76.4392 39.0289 76.5235 38.7689 76.5984 38.4995C76.692 38.2395 76.781 37.97 76.898 37.7289C77.0057 37.4831 77.1508 37.2704 77.2538 37.0813C77.3568 36.8922 77.502 36.7551 77.5769 36.6511C77.6705 36.5565 77.7267 36.4998 77.7267 36.4998C77.7267 36.4998 77.7314 36.5755 77.736 36.7125C77.7267 36.8402 77.7454 37.034 77.7173 37.242C77.6845 37.45 77.6799 37.7053 77.6237 37.9653C77.5815 38.2253 77.502 38.4947 77.4224 38.7689C77.324 39.0384 77.2257 39.3078 77.0993 39.5489C76.9776 39.7948 76.8231 40.0028 76.6967 40.1824C76.575 40.3668 76.4205 40.4897 76.3315 40.5842C76.2379 40.6693 76.177 40.7166 76.177 40.7166Z" fill="#9BEC09"/>
<path d="M84.6884 8.51411C84.6884 8.51411 84.6228 8.51411 84.5105 8.54247C84.3981 8.56138 84.253 8.62284 84.0891 8.71266C83.9206 8.80248 83.7473 8.93484 83.5554 9.08139C83.3681 9.23266 83.1574 9.39339 82.9421 9.54466C82.722 9.69121 82.4973 9.83303 82.2726 9.94176C82.0478 10.0552 81.8231 10.1261 81.6312 10.1781C81.4392 10.2349 81.2707 10.249 81.1583 10.2632C81.0413 10.2727 80.9757 10.2727 80.9757 10.2727C80.9757 10.2727 81.0366 10.249 81.1443 10.2065C81.2519 10.1687 81.3971 10.0978 81.575 10.0221C81.7529 9.94649 81.9448 9.83303 82.1508 9.71012C82.3568 9.58721 82.5675 9.44539 82.7782 9.29884C82.9936 9.15702 83.1996 9.00102 83.4103 8.86393C83.6163 8.72684 83.8316 8.62284 84.0236 8.55666C84.2155 8.48575 84.3888 8.48102 84.5058 8.48102C84.6228 8.4952 84.6884 8.51411 84.6884 8.51411Z" fill="#9BEC09"/>
<path d="M71.3452 8.73171C71.3452 8.73171 71.3733 8.72226 71.4201 8.69862C71.4669 8.68444 71.5325 8.65135 71.6168 8.63244C71.6964 8.61353 71.79 8.57571 71.8883 8.5568C71.9866 8.53316 72.0943 8.51425 72.202 8.49062C72.3097 8.47644 72.4174 8.45753 72.5204 8.44807C72.6234 8.43389 72.7217 8.43862 72.8059 8.43389C72.8902 8.42916 72.9651 8.43862 73.0119 8.43862C73.0634 8.44334 73.0915 8.44807 73.0915 8.44807C73.0915 8.44807 73.0681 8.46225 73.026 8.49534C72.9792 8.51898 72.9183 8.56153 72.8434 8.59462C72.7638 8.62771 72.6749 8.67026 72.5719 8.70335C72.4735 8.73644 72.3612 8.76007 72.2488 8.78371C72.1364 8.79789 72.0241 8.8168 71.9211 8.8168C71.8134 8.82153 71.7151 8.80735 71.6308 8.80262C71.5465 8.79789 71.4716 8.77426 71.4248 8.7648C71.3733 8.74117 71.3452 8.73171 71.3452 8.73171Z" fill="#9BEC09"/>
<path d="M79.7632 20.0772C79.7632 20.0772 79.8287 20.0063 79.9036 19.855C79.9832 19.7085 80.0488 19.4816 80.0956 19.2027C80.1424 18.9237 80.1658 18.5834 80.1986 18.2288C80.2267 17.8696 80.2501 17.4914 80.2595 17.1085C80.2688 16.7255 80.2829 16.3568 80.2922 15.9786C80.3063 15.643 80.3203 15.279 80.3297 14.9906C80.339 14.7023 80.3671 14.4612 80.3812 14.291C80.3999 14.1208 80.4093 14.0262 80.4093 14.0262C80.4093 14.0262 80.4186 14.1208 80.4374 14.291C80.4467 14.4612 80.4795 14.7023 80.4935 14.9906C80.5076 15.279 80.5357 15.6194 80.545 15.9786C80.5591 16.3426 80.5591 16.7303 80.545 17.1179C80.5263 17.5056 80.5029 17.8932 80.4467 18.2572C80.3952 18.6212 80.325 18.9521 80.2501 19.2357C80.1752 19.5241 80.0535 19.7463 79.9505 19.8834C79.8428 20.0205 79.7632 20.0772 79.7632 20.0772Z" fill="#9BEC09"/>
<path d="M97.8537 30.6901C98.1252 32.9451 98.2657 35.2567 98.2657 37.6062C98.2657 63.5403 81.163 84.5674 60.0714 84.5674C57.6743 84.5674 55.3287 84.2932 53.0533 83.7732C59.3317 88.5052 69.2524 89.531 80.4186 89.531C99.3987 89.531 114.783 86.5812 114.783 67.4923C114.783 55.2438 107.681 40.0266 97.8537 30.6901Z" fill="#9BEC09"/>
<path d="M98.9447 79.2914L96.365 71.5008C96.3603 71.4913 96.3603 71.4866 96.3556 71.4771C96.1122 70.8295 95.4942 70.3993 94.8106 70.3993C93.8977 70.3993 93.158 71.1462 93.158 72.068C93.158 72.2619 93.1907 72.4509 93.2563 72.6306C93.2563 72.6353 93.261 72.64 93.261 72.6448L95.7891 80.2841C95.9951 80.9885 96.6459 81.4801 97.3716 81.4801C98.2846 81.4801 99.0243 80.7332 99.0243 79.8114C99.0243 79.6365 98.9962 79.4663 98.9447 79.3008C98.9494 79.3008 98.9447 79.2961 98.9447 79.2914Z" fill="#291482"/>
<path d="M103.608 79.2916L102.077 74.6494C102.072 74.6399 102.072 74.6352 102.067 74.6257C101.824 73.9781 101.206 73.5479 100.522 73.5479C99.6095 73.5479 98.8698 74.2948 98.8698 75.2167C98.8698 75.4105 98.9025 75.5996 98.9681 75.7792C98.9681 75.7839 98.9728 75.7887 98.9728 75.7981L100.457 80.2891C100.663 80.9934 101.314 81.4851 102.039 81.4851C102.952 81.4851 103.692 80.7382 103.692 79.8163C103.692 79.6414 103.664 79.4712 103.612 79.3058C103.608 79.3011 103.608 79.2963 103.608 79.2916Z" fill="#291482"/>
<path d="M106.07 72.612C106.047 72.5458 106.014 72.4796 105.977 72.4087C105.972 72.3992 105.967 72.3898 105.963 72.3851C105.963 72.3851 105.949 72.3614 105.925 72.3236C105.921 72.3142 105.911 72.3047 105.906 72.2905C105.771 72.0872 105.251 71.3545 104.23 70.565C104.001 70.3901 103.706 70.3429 103.434 70.4516C103.168 70.5556 102.976 70.7872 102.929 71.0709C102.784 71.8887 102.718 73.0422 102.929 73.6425C102.934 73.652 102.938 73.6614 102.938 73.6709C102.971 73.7938 103.022 73.912 103.083 74.0207C103.383 74.5596 103.949 74.8764 104.535 74.8764C104.727 74.8764 104.923 74.8433 105.111 74.7724C105.527 74.6116 105.855 74.2996 106.038 73.8884C106.22 73.4865 106.23 73.0327 106.07 72.612Z" fill="#291482"/>
<g style="mix-blend-mode:multiply" opacity="0.52">
<path d="M31.9995 27.4689C31.9995 27.4689 32.3584 28.0432 32.6661 28.6586C32.8047 28.9389 32.9279 29.2265 33.0353 29.5202C33.0831 29.6556 33.1108 29.7972 33.1174 29.9407C33.1883 29.8058 33.2368 29.6603 33.261 29.5099C33.261 29.233 33.3328 28.8843 33.3533 28.4843C33.3533 27.7561 33.3533 27.0279 33.3533 27.0279C33.3533 27.0279 33.1482 26.4945 32.82 25.7355L32.2559 24.4535C32.0507 23.9714 31.8149 23.4279 31.5892 22.9766C31.1174 21.9509 30.6559 20.9971 30.379 20.2279C30.2354 19.8484 30.1431 19.5202 30.0713 19.2843L29.979 18.9253V19.3048C29.979 19.5407 30.0508 19.8791 30.1328 20.3304C30.2867 21.1407 30.5841 22.2073 30.8918 23.2638C31.0354 23.7868 31.1892 24.2894 31.3123 24.8022C31.4354 25.315 31.5585 25.7663 31.661 26.1561C31.8969 26.9458 31.9995 27.4689 31.9995 27.4689Z" fill="#FF8CF9"/>
</g>
<path d="M18.7588 47.305C18.7588 47.305 19.5793 45.9204 20.5229 44.5871L21.2306 43.623L21.887 42.8025C22.0985 42.5328 22.2904 42.2483 22.4613 41.9512C22.233 42.2018 21.9862 42.435 21.7229 42.6486L20.9126 43.3153C20.6049 43.5717 20.3075 43.8486 19.9998 44.1255C18.7793 45.2332 17.6409 46.4537 17.6409 46.4537L17.1178 47.2127C16.7897 47.6948 16.3384 48.3819 15.8256 49.264C15.3128 50.146 14.8 51.1307 14.2051 52.2486C13.6102 53.3666 13.1179 54.5358 12.6256 55.7563C11.6 58.1973 10.7898 60.6794 10.1539 62.5358L9.1283 65.6127L10.4001 62.5973C11.159 60.7922 12.1641 58.3717 13.3026 56.0332C13.8769 54.864 14.482 53.7153 15.0974 52.6691C15.7128 51.623 16.2666 50.6794 16.8204 49.9204C17.3743 49.1614 17.846 48.4845 18.205 48.0435L18.7588 47.305Z" fill="white"/>
<path d="M31.6608 27.4689C31.6608 27.4689 32.0198 28.0432 32.3275 28.6586C32.4711 28.9663 32.6249 29.2945 32.707 29.5202C32.7548 29.6556 32.7824 29.7972 32.789 29.9407C32.8533 29.804 32.8982 29.659 32.9224 29.5099C32.9738 29.1702 33.0047 28.8277 33.0147 28.4843C33.0147 27.7561 33.0147 27.0279 33.0147 27.0279C33.0147 27.0279 32.8198 26.4945 32.4813 25.7355L31.9275 24.4535C31.7121 23.9714 31.4865 23.4279 31.2506 22.9766C30.7788 21.9509 30.3275 20.9971 30.0506 20.2279C29.932 19.9188 29.8293 19.6039 29.7429 19.2843L29.6404 18.9253V19.3048C29.6404 19.5407 29.7122 19.8791 29.7942 20.3304C29.9481 21.1407 30.2455 22.2073 30.5532 23.2638C30.707 23.7868 30.8506 24.2894 30.9737 24.8022C31.0968 25.315 31.2198 25.7663 31.3224 26.1561C31.5583 26.9458 31.6608 27.4689 31.6608 27.4689Z" fill="white"/>
<path d="M37.3634 32.9971H38.9532C38.6809 36.6036 37.6979 40.1207 36.0609 43.3458C36.0609 43.3458 37.5275 35.2945 37.3634 32.9971Z" fill="white"/>
<path d="M54.2657 16.71C56.1528 18.6895 52.9939 26.3306 51.1171 30.4331H28.7791C23.7741 21.2023 24.2459 15.91 24.9741 15.1818C25.0013 15.1264 25.0441 15.08 25.0972 15.0485C26.5536 14.6485 27.8253 16.1459 29.0663 16.6895C30.016 17.1695 31.0981 17.321 32.1432 17.1203C32.9723 16.7 33.9185 16.57 34.8303 16.7511C35.8559 17.028 36.1738 18.269 37.1789 18.628C37.6508 18.7684 38.1451 18.8171 38.6353 18.7716C39.6078 18.8379 40.5806 18.6469 41.4558 18.2177C41.818 17.8968 42.1605 17.5543 42.4814 17.1921C42.8066 16.9335 43.1971 16.7702 43.6096 16.7203C44.8403 16.4229 45.7941 18.228 46.9736 17.6844C47.2813 17.5511 47.4864 17.2639 47.7633 17.1408C48.0675 17.0481 48.3924 17.0481 48.6966 17.1408C49.3844 17.303 50.108 17.1192 50.635 16.6485C51.0555 16.2177 51.5683 15.1408 52.5016 15.4177C53.169 15.7282 53.7685 16.1673 54.2657 16.71Z" fill="#FFADFB"/>
<path d="M28.7789 30.4331H51.1169C50.3989 31.9921 49.8553 33.0177 49.8553 33.0177H30.2866C29.7328 32.1083 29.2302 31.2468 28.7789 30.4331Z" fill="#291482"/>
<path d="M49.8554 32.987C62.1628 40.13 72.06 58.1267 72.06 72.0108C72.06 89.7189 57.7014 92.4607 40.03 92.4607C22.3586 92.4607 8 89.7189 8 72.0108C8 58.1267 17.9792 40.13 30.2866 32.987H49.8554Z" fill="#FFADFB"/>
<path d="M29.0662 16.7101C27.8252 16.1665 26.5534 14.6588 25.0971 15.0691C25.0511 15.0834 25.0091 15.1079 24.974 15.1408C25.2903 14.4467 25.8532 13.8947 26.5534 13.5921C27.0496 13.2601 27.6741 13.184 28.2355 13.387C29.0476 13.6048 29.8874 13.7016 30.7277 13.6742C31.7533 13.5408 32.7789 12.8844 33.8046 13.0178C34.8302 13.1511 35.8558 14.0434 36.9429 14.0947C38.0301 14.146 38.9942 13.1306 40.1018 13.0691C41.2095 13.0075 42.2249 13.7049 43.3223 13.8896C44.6453 14.0229 45.9068 13.5101 47.1683 13.2844C48.2947 13.0872 49.4509 13.1433 50.5529 13.4485C51.3631 13.6742 52.8195 14.2485 54.2656 16.7101C53.7858 16.1896 53.2116 15.765 52.5733 15.4588C51.64 15.1819 51.1272 16.2588 50.7067 16.6896C50.1751 17.167 49.442 17.3513 48.7478 17.1819C48.4436 17.0891 48.1187 17.0891 47.8145 17.1819C47.5376 17.3049 47.3324 17.5921 47.0248 17.7255C45.8453 18.2691 44.8915 16.4639 43.6607 16.7614C43.2483 16.8113 42.8577 16.9746 42.5326 17.2332C42.2117 17.5954 41.8692 17.9379 41.5069 18.2588C40.6318 18.6879 39.659 18.879 38.6865 18.8126C38.1963 18.8582 37.702 18.8094 37.2301 18.6691C36.2045 18.3101 35.8763 17.0691 34.8815 16.7921C33.97 16.5873 33.0161 16.6957 32.1738 17.0998C31.1235 17.3202 30.0296 17.183 29.0662 16.7101Z" fill="#291482"/>
<path d="M29.0662 16.7101C27.8252 16.1665 26.5534 14.6588 25.0971 15.0691C25.0511 15.0834 25.0091 15.1079 24.974 15.1408C25.2903 14.4467 25.8532 13.8947 26.5534 13.5921C27.0496 13.2601 27.6741 13.184 28.2355 13.387C29.0476 13.6048 29.8874 13.7016 30.7277 13.6742C31.7533 13.5408 32.7789 12.8844 33.8046 13.0178C34.8302 13.1511 35.8558 14.0434 36.9429 14.0947C38.0301 14.146 38.9942 13.1306 40.1018 13.0691C41.2095 13.0075 42.2249 13.7049 43.3223 13.8896C44.6453 14.0229 45.9068 13.5101 47.1683 13.2844C48.2947 13.0872 49.4509 13.1433 50.5529 13.4485C51.3631 13.6742 52.8195 14.2485 54.2656 16.7101C53.7858 16.1896 53.2116 15.765 52.5733 15.4588C51.64 15.1819 51.1272 16.2588 50.7067 16.6896C50.1751 17.167 49.442 17.3513 48.7478 17.1819C48.4436 17.0891 48.1187 17.0891 47.8145 17.1819C47.5376 17.3049 47.3324 17.5921 47.0248 17.7255C45.8453 18.2691 44.8915 16.4639 43.6607 16.7614C43.2483 16.8113 42.8577 16.9746 42.5326 17.2332C42.2117 17.5954 41.8692 17.9379 41.5069 18.2588C40.6318 18.6879 39.659 18.879 38.6865 18.8126C38.1963 18.8582 37.702 18.8094 37.2301 18.6691C36.2045 18.3101 35.8763 17.0691 34.8815 16.7921C33.97 16.5873 33.0161 16.6957 32.1738 17.0998C31.1235 17.3202 30.0296 17.183 29.0662 16.7101Z" fill="#FF8CF9"/>
<g style="mix-blend-mode:multiply" opacity="0.4">
<path d="M47.9169 27.3564C41.7632 30.1051 28.7789 30.4333 28.7789 30.4333H51.1169C52.9937 26.3307 56.1526 18.7205 54.2655 16.741C53.868 16.3676 53.4428 16.0248 52.9937 15.7153C52.0707 20.1769 50.3989 26.2282 47.9169 27.3564Z" fill="#FF8CF9"/>
</g>
<path d="M45.1274 32.9662C45.1274 36.0432 48.512 38.2996 49.8966 40.7304C51.2811 43.1611 51.3324 45.6534 51.2401 48.3509C51.2401 47.7662 53.9785 47.2329 53.999 46.6073C54.0913 43.9098 53.999 41.3765 52.6555 38.9765C51.3119 36.5765 47.8453 34.2586 47.8966 31.2124C47.8966 31.797 45.1377 32.3509 45.1274 32.9662H45.1274Z" fill="#291482"/>
<g style="mix-blend-mode:screen" opacity="0.29">
<path d="M30.8201 32.9868C28.5353 35.047 26.5071 37.3749 24.7792 39.9201C24.7792 39.9201 29.5893 33.9817 32.3072 33.0073L30.8201 32.9868Z" fill="#FF8CF9"/>
</g>
<g style="mix-blend-mode:screen" opacity="0.29">
<path d="M34.594 32.9868H35.312L33.9171 37.5099L34.594 32.9868Z" fill="#FF8CF9"/>
</g>
<g style="mix-blend-mode:multiply">
<path d="M47.1477 31.9818C47.0554 32.269 46.3169 32.6279 45.4349 32.4023C44.5529 32.1766 44.9734 30.6382 44.9734 30.6382C44.9734 30.6382 44.4606 31.7664 44.5939 32.1254C44.7272 32.4843 45.3323 32.4433 45.4452 32.6279C45.558 32.8125 47.3528 34.8228 47.3528 34.8228L46.3272 33.0997C46.1221 32.7305 46.3785 32.5459 46.758 32.5151C47.1374 32.4843 47.1579 31.9407 47.1579 31.9407L47.1477 31.9818Z" fill="white"/>
</g>
<g style="mix-blend-mode:multiply">
<path d="M50.4706 31.7766C50.1048 31.4399 49.6415 31.228 49.1476 31.1714C49.645 31.182 50.1424 31.1511 50.6347 31.0791L50.4706 31.7766Z" fill="white"/>
</g>
<g style="mix-blend-mode:screen">
<path d="M45.158 30.7715C45.0759 31.0382 45.0451 31.9715 45.4554 32.1561C45.3639 31.9071 45.2986 31.6493 45.2605 31.3869C45.2451 31.1791 45.2107 30.9731 45.158 30.7715Z" fill="#291482"/>
</g>
<path d="M51.558 45.0791V45.5201C51.558 45.6534 51.558 45.7868 51.558 45.9714C51.5732 46.142 51.5732 46.3136 51.558 46.4842C51.5817 46.8079 51.554 47.1333 51.476 47.4483C51.4428 47.5918 51.3983 47.7324 51.3427 47.8688C51.415 47.7408 51.4768 47.607 51.5273 47.4688C51.6487 47.1393 51.7213 46.7937 51.7427 46.4432C51.7529 46.2655 51.7529 46.0875 51.7427 45.9098C51.7427 45.756 51.7427 45.5816 51.7427 45.4586V44.997C51.698 44.5168 51.6192 44.0404 51.5068 43.5714C51.4042 43.1509 51.2709 42.6586 51.1068 42.1457C51.0247 41.8893 50.9324 41.6329 50.8401 41.3662L50.6863 40.956C50.6247 40.8227 50.5427 40.6996 50.4709 40.5765C50.3991 40.4534 50.194 40.0739 50.0299 39.838C49.8658 39.6021 49.7017 39.3868 49.5273 39.1816C49.2051 38.8207 48.8627 38.4782 48.5017 38.156C47.8658 37.5714 47.4146 37.2227 47.4146 37.2227C47.4146 37.2227 47.8556 37.5919 48.4402 38.1868C48.7835 38.5327 49.1054 38.8992 49.4042 39.2842C49.5754 39.4962 49.733 39.7189 49.876 39.9509C50.0266 40.1891 50.1636 40.4356 50.2863 40.6893C50.3613 40.8104 50.4265 40.9373 50.4811 41.0688L50.6145 41.4586C50.6965 41.7252 50.7786 41.9919 50.8504 42.2483C50.9837 42.7142 51.0932 43.1866 51.1786 43.6637C51.3401 44.1254 51.467 44.5985 51.558 45.0791Z" fill="#291482"/>
<path d="M32.9841 30.4537L29.9688 30.587L32.9738 30.8024L42.6351 30.7614L32.9841 30.4537Z" fill="#291482"/>
<path d="M25.4047 16.4229L25.5482 16.9049C25.62 17.2126 25.7739 17.6434 25.8764 18.187C26.0203 18.7982 26.123 19.4184 26.1841 20.0434C26.2419 20.7313 26.3343 21.416 26.461 22.0946C26.5927 22.7606 26.7955 23.4105 27.0662 24.0331C27.3328 24.6382 27.579 25.2229 27.8046 25.7152C28.0302 26.2075 28.1636 26.6587 28.2764 26.9562L28.4097 27.4485L28.1328 27.028C27.9687 26.7613 27.6918 26.3921 27.4046 25.9305C27.1174 25.469 26.7482 24.9562 26.4303 24.3305C26.074 23.6896 25.8181 22.9978 25.6713 22.2793C25.5393 21.5654 25.4706 20.8412 25.4662 20.1152C25.4662 19.428 25.4662 18.8229 25.4662 18.2793C25.4662 17.7357 25.4662 17.2536 25.4662 16.9562L25.4047 16.4229Z" fill="#FFE8FE"/>
<g style="mix-blend-mode:multiply" opacity="0.4">
<path d="M30.5942 34.5356L30.0917 35.0997C29.7532 35.4382 29.3225 35.9613 28.7686 36.5664C28.2148 37.1715 27.6302 37.8997 26.9738 38.6792C26.3174 39.4587 25.6405 40.2997 24.9226 41.1408C24.2046 41.9818 23.5688 42.8228 22.9739 43.6433L21.3432 45.9203C20.8611 46.5767 20.3996 47.0895 20.0817 47.4485L19.5688 48.0023L19.9586 47.3562C20.215 46.9562 20.5432 46.3305 20.9842 45.6638C21.4252 44.9972 21.8662 44.1356 22.4406 43.2741C23.0237 42.3799 23.6536 41.5172 24.3277 40.6895C25.0251 39.8382 25.7328 39.0074 26.4405 38.2587C27.1482 37.51 27.8456 36.8536 28.4917 36.2997C29.1378 35.7459 29.6507 35.3356 30.0199 35.0382L30.5942 34.5356Z" fill="#FF8CF9"/>
</g>
<g style="mix-blend-mode:multiply" opacity="0.4">
<path d="M35.5788 33.5103C35.5788 33.5103 35.5275 33.6949 35.4763 34.0026C35.425 34.3103 35.384 34.7615 35.3224 35.3051C35.2609 35.8487 35.2301 36.4846 35.0865 37.182C34.9429 37.8795 34.7071 38.5462 34.5019 39.2333C34.2968 39.9205 34.0507 40.6179 33.8148 41.2846C33.5789 41.9513 33.343 42.5154 33.1379 43.0282C32.9327 43.541 32.7379 43.9513 32.6148 44.2487L32.3892 44.7L32.461 44.1974C32.5225 43.8795 32.584 43.4282 32.7071 42.8949C32.8302 42.3615 32.9532 41.7359 33.1379 41.0795C33.3225 40.4231 33.5173 39.7256 33.7225 39.0282C33.9276 38.3308 34.1737 37.6436 34.3891 36.9769C34.6045 36.3103 34.7378 35.7359 34.8712 35.2026C34.9889 34.7697 35.1433 34.3477 35.3327 33.941C35.406 33.7926 35.4882 33.6487 35.5788 33.5103Z" fill="#FF8CF9"/>
</g>
<path d="M44.0092 17.3664H43.8451C43.7086 17.3993 43.5775 17.4511 43.4554 17.5203C43.2756 17.6177 43.107 17.7347 42.9528 17.869C42.7784 18.0023 42.5836 18.1562 42.3785 18.2895C42.1806 18.4298 41.9713 18.5533 41.7528 18.6587C41.5622 18.7528 41.363 18.8284 41.158 18.8844C41.0139 18.9235 40.8661 18.9476 40.717 18.9562H40.5426L40.6964 18.8946C40.8325 18.8468 40.966 18.7921 41.0964 18.7305C41.2605 18.6587 41.4451 18.5459 41.6298 18.4434L42.2349 18.1254L42.8195 17.7254C42.9966 17.6034 43.1899 17.5067 43.3938 17.4382C43.5378 17.3838 43.6913 17.3593 43.8451 17.3664H44.0092Z" fill="#FFE8FE"/>
<path d="M31.5685 17.5716H31.6403L31.8249 17.5101L32.0813 17.4383C32.1649 17.4026 32.2505 17.3718 32.3377 17.346H32.6351H32.9018C32.9666 17.3408 33.0318 17.3408 33.0966 17.346H33.1684H33.1069L32.9326 17.4383L32.6864 17.5408L32.389 17.6126H32.0813H31.8044C31.7396 17.62 31.6743 17.62 31.6095 17.6126L31.5685 17.5716Z" fill="#FFE8FE"/>
<path d="M39.4249 28.0433C39.4774 27.9826 39.519 27.9132 39.5479 27.8382C39.6411 27.6512 39.7035 27.4503 39.7325 27.2433C39.7325 26.9767 39.7941 26.669 39.8249 26.3408C39.8556 26.0126 39.8249 25.6536 39.8761 25.3151V24.2895V23.3767C39.8761 23.11 39.8761 22.8946 39.8761 22.7305V22.4946V22.7305C39.8761 22.8946 39.8761 23.11 39.9377 23.3767C39.9992 23.6433 39.9377 23.9613 39.9377 24.2895C39.9377 24.6177 39.9377 24.9869 39.9377 25.3151C39.9377 25.6433 39.9377 26.0331 39.8454 26.3408C39.8008 26.6482 39.7391 26.953 39.6608 27.2536C39.6058 27.4672 39.5119 27.6689 39.3838 27.8485C39.4038 27.9119 39.4175 27.9772 39.4249 28.0433Z" fill="#FFE8FE"/>
<path d="M57.3013 82.7408L54.9013 75.5613C54.6795 74.9519 54.1036 74.5435 53.4552 74.5356C52.6056 74.5356 51.9168 75.2244 51.9168 76.0741C51.9157 76.2526 51.947 76.4298 52.0091 76.5972L54.368 83.6536C54.5824 84.3886 55.3045 84.8541 56.0625 84.7458C56.8204 84.6375 57.3833 83.9884 57.3833 83.2228C57.3853 83.0627 57.361 82.9033 57.3115 82.751L57.3013 82.7408Z" fill="#291482"/>
<path d="M61.6399 82.7408L60.2143 78.4331C59.9487 77.7427 59.2295 77.339 58.5018 77.472C57.7742 77.605 57.2442 78.237 57.24 78.9767C57.2414 79.1508 57.2691 79.3237 57.322 79.4895L58.7066 83.5921C58.921 84.3271 59.6432 84.7926 60.4011 84.6843C61.159 84.5761 61.7219 83.9269 61.7219 83.1613C61.7239 83.0012 61.6997 82.8418 61.6501 82.6895L61.6399 82.7408Z" fill="#291482"/>
<path d="M63.9373 76.5869C63.9373 76.5254 63.886 76.4741 63.8553 76.4023V76.3408C63.4282 75.7244 62.9014 75.1837 62.2963 74.7408C62.0828 74.5852 61.8057 74.5467 61.5579 74.6382C61.31 74.7326 61.1305 74.9511 61.0861 75.2126C60.9215 75.9972 60.9215 76.8074 61.0861 77.5921C61.1199 77.7055 61.1645 77.8154 61.2194 77.9203C61.4975 78.4062 62.0134 78.7071 62.5732 78.71C62.7561 78.7116 62.9374 78.6768 63.1066 78.6074C63.4895 78.4556 63.7943 78.1546 63.951 77.7736C64.1076 77.3926 64.1027 76.9642 63.9373 76.5869Z" fill="#291482"/>
<path d="M46.8505 34.0023C49.6812 32.9767 51.6401 35.2023 53.558 36.9357C54.3704 37.7545 55.365 38.3695 56.4605 38.7306C57.7339 38.915 59.0201 38.9973 60.3066 38.9767C62.9937 39.2741 63.5886 41.3152 64.7373 43.3767C65.8903 45.7304 68.1718 47.3264 70.7781 47.6023C70.4807 47.6023 70.4089 44.4434 70.0602 44.4126C67.5672 44.1537 65.3653 42.6742 64.1834 40.4639C62.9527 38.3511 62.3988 36.1049 59.5989 35.7767C56.9733 35.469 55.2298 35.7767 53.076 33.9511C50.9222 32.1254 49.0966 29.7049 46.1326 30.8023C45.9787 30.8639 46.9633 33.9613 46.8505 34.0023Z" fill="#291482"/>
<g style="mix-blend-mode:multiply">
<path d="M48.3992 33.6126L47.7223 32.2075C47.9936 32.5462 48.3194 32.8374 48.6864 33.0691C49.2928 33.4001 49.8663 33.7882 50.3991 34.228C49.781 33.8898 49.1006 33.6804 48.3992 33.6126Z" fill="white"/>
</g>
<g style="mix-blend-mode:multiply">
<path d="M47.7219 31.4586C48.0706 31.2433 49.5783 31.8689 50.4911 32.392C51.2514 32.8781 51.9747 33.4197 52.6552 34.0125C51.7567 33.2774 50.7588 32.6731 49.6911 32.2176C48.5424 31.8792 47.6399 31.7458 47.4348 31.674C47.2296 31.6022 47.7219 31.4586 47.7219 31.4586Z" fill="white"/>
</g>
<path d="M57.8038 38.3511C57.8038 38.3511 57.4551 38.3511 57.0961 38.3511C56.8556 38.3483 56.6156 38.3278 56.3782 38.2896C56.6053 38.3833 56.8382 38.4621 57.0756 38.5254C57.4243 38.6178 57.7935 38.6793 57.7935 38.6793H58.5115C58.9422 38.6793 59.5371 38.6793 60.0909 38.6793C60.6132 38.709 61.1282 38.8162 61.6191 38.9972C61.8451 39.0743 62.0566 39.1887 62.2447 39.3357C62.0629 39.1772 61.8591 39.0459 61.6396 38.946C61.1522 38.7215 60.6334 38.5728 60.1012 38.5049C59.5268 38.4229 58.9525 38.4126 58.5217 38.3921C58.091 38.3716 57.8038 38.3511 57.8038 38.3511Z" fill="#291482"/>
<g style="mix-blend-mode:multiply" opacity="0.4">
<path d="M56.2859 37.6743C56.5377 39.8121 56.6644 41.963 56.6654 44.1158C56.6654 68.248 40.7273 87.8205 21.0663 87.8205C18.8644 87.8194 16.6696 87.5697 14.5228 87.076C20.3688 91.4806 29.6199 92.4112 40.0299 92.4112C57.7218 92.4112 72.0599 89.6609 72.0599 71.8978C72.0599 60.5348 65.4447 46.3698 56.2859 37.6743Z" fill="#FF8CF9"/>
</g>
<rect x="39.3019" y="32.9868" width="4.31785" height="2.58462" transform="rotate(-180 39.3019 32.9868)" fill="#291482"/>
<g style="mix-blend-mode:multiply">
<path d="M37.1482 32.064C36.2046 32.1871 30.5637 32.2896 30.5637 32.2896C30.5637 32.2896 32.9124 32.5871 34.3585 32.6383C35.3182 32.6426 36.2682 32.447 37.1482 32.064Z" fill="white"/>
</g>
</svg>
