<svg xmlns="http://www.w3.org/2000/svg" width="25" height="25" viewBox="0 0 25 25">
    <g fill="#3E47AC" fill-rule="nonzero">
        <path d="M21.303 3.655A12.39 12.39 0 0 0 12.479 0a12.39 12.39 0 0 0-8.824 3.655A12.39 12.39 0 0 0 0 12.48a12.39 12.39 0 0 0 3.655 8.824 12.39 12.39 0 0 0 8.824 3.655 12.39 12.39 0 0 0 8.824-3.655 12.39 12.39 0 0 0 3.655-8.824 12.39 12.39 0 0 0-3.655-8.824zM20.299 20.3a10.99 10.99 0 0 1-7.82 3.24 10.99 10.99 0 0 1-7.82-3.24C.347 15.987.347 8.971 4.659 4.66a10.99 10.99 0 0 1 7.82-3.24c2.952 0 5.73 1.15 7.82 3.24 4.312 4.312 4.312 11.328 0 15.64z"/>
        <g stroke="#3E47AC" stroke-width=".3">
            <path d="M18.242 8.064c0-.886-.726-1.604-1.62-1.604h-.827a1.133 1.133 0 0 0-1.085-.802h-.648c-.23-.585-.8-.97-1.434-.97-.634 0-1.203.385-1.433.97h-.616c-.501 0-.942.326-1.085.802H8.65c-.894 0-1.62.718-1.62 1.604v9.032c0 .886.726 1.604 1.62 1.604h7.97c.895 0 1.62-.718 1.62-1.604V8.064zM10.093 6.78c0-.266.218-.482.486-.482h.875a.323.323 0 0 0 .324-.256.889.889 0 0 1 .875-.715c.426 0 .793.3.874.715.032.151.168.26.324.256h.875c.269 0 .486.216.486.482v.24a.484.484 0 0 1-.486.481H10.58a.484.484 0 0 1-.486-.48V6.78zm7.5 10.315a.967.967 0 0 1-.971.963h-7.97a.967.967 0 0 1-.973-.963V8.064c0-.532.435-.963.972-.963h.778a1.13 1.13 0 0 0 1.134 1.043h4.147a1.13 1.13 0 0 0 1.134-1.043h.778c.536 0 .972.431.972.963v9.032z"/>
            <path d="M11.88 14.964a.288.288 0 0 1-.207-.088l-1.754-1.794a.304.304 0 0 1 0-.423.288.288 0 0 1 .414 0l1.547 1.583 3.008-3.862a.288.288 0 0 1 .413 0 .304.304 0 0 1 0 .423l-3.215 4.073a.288.288 0 0 1-.206.088z"/>
        </g>
    </g>
</svg>
