<svg width="18" height="18" viewBox="0 0 18 18" fill="none" xmlns="http://www.w3.org/2000/svg" >
<mask id="mask0_3018_128386" style="mask-type:luminance" maskUnits="userSpaceOnUse" x="3" y="3" width="12" height="12">
<path fill-rule="evenodd" clip-rule="evenodd" d="M3 3H15V15H3V3Z" fill="white"/>
</mask>
<g mask="url(#mask0_3018_128386)">
<path fill-rule="evenodd" clip-rule="evenodd" d="M3.64841 14.9973C3.44411 14.9904 3.21496 14.8597 3.0833 14.5883C2.95164 14.3169 2.9761 14.0509 3.15633 13.8049C3.18856 13.7609 3.22762 13.7215 3.26631 13.6828C4.80344 12.1448 6.34044 10.6066 7.8799 9.07094C7.94085 9.01014 7.9352 8.98318 7.87774 8.92645C7.42355 8.47812 6.9732 8.02595 6.52139 7.57519C5.43187 6.48815 4.34189 5.40155 3.25284 4.31406C3.01655 4.07817 2.93683 3.79755 3.05579 3.48181C3.23855 2.99674 3.85622 2.85503 4.24457 3.20189C4.27254 3.22687 4.29859 3.25397 4.32513 3.28052C5.8606 4.81613 7.39649 6.35133 8.9298 7.88906C8.99138 7.95079 9.01841 7.94256 9.07475 7.88597C10.615 6.33887 12.157 4.79361 13.6991 3.24835C13.9536 2.99331 14.2988 2.9296 14.5951 3.08096C15.0361 3.3062 15.1349 3.89193 14.7936 4.25906C14.772 4.28231 14.7491 4.30438 14.7267 4.32683C13.1933 5.86046 11.6603 7.39441 10.1251 8.92624C10.0669 8.98426 10.0643 9.01108 10.1241 9.07083C11.6672 10.6111 13.2079 12.1536 14.7489 13.6959C14.9939 13.9411 15.0642 14.2583 14.9397 14.5525C14.7455 15.0113 14.1558 15.1468 13.7722 14.8202C13.7393 14.7922 13.7088 14.7612 13.6782 14.7306C12.1427 13.195 10.607 11.6597 9.0735 10.1221C9.01463 10.0631 8.98771 10.0631 8.92873 10.1222C7.38882 11.6663 5.84631 13.2077 4.30529 14.7506C4.14906 14.9071 3.96873 15.0007 3.64841 14.9973" fill="#291482"/>
</g>
</svg>
