<svg xmlns="http://www.w3.org/2000/svg" width="18" height="14" viewBox="0 0 18 14">
    <g fill="none" fill-rule="evenodd">
        <g fill="#111135">
            <g>
                <path d="M.728 1.299h9.42c.466.026.497.48.51 1.787 0 .487-.008.995-.013 1.298l-.003.253c-.037.683-.109 1.327-.218 1.98-.036.225-.085.436-.137.646.06.441.338 2.558.372 3.626.07 1.674-.638 2.66-.864 2.888l.003.003-.063.057c-.074.055-.17.085-.275.085H6.126c-.092 0-.162-.03-.21-.05l-.309-.21c-.676.176-1.4.338-2.172.338-.473 0-.908-.059-1.332-.183-.377-.12-1.367-.355-1.44-.369-.18-.05-.296-.167-.336-.311l-.009-.067c-.003-.004-.02-.093-.044-.218l-.144-.778c-.037-.228-.07-.444-.08-.596-.119-1.562-.025-3.26.28-5.046C.085 5.512-.021 4.626.012 3.8c.014-.086.033-.27.057-.496.02-.203.046-.44.071-.65.134-1.2.15-1.354.588-1.354zm.056.512c-.03.144-.065.461-.115.898-.024.21-.05.445-.07.647-.026.245-.047.447-.057.499-.022.567.057 1.198.187 1.848.16-.23.36-.478.59-.666.113-.092.28-.078.375.03.096.107.083.27-.03.362-.4.327-.726.92-.804 1.068C.56 8.25.465 9.913.58 11.441c.012.14.042.34.076.55l.142.768.038.202c.335.071 1.211.299 1.428.367.366.107.75.159 1.171.159.749 0 1.47-.173 2.145-.348l1.854-.598c.143-.047.29.028.337.162.048.134-.028.279-.167.324l-1.23.397 3.093-.042c-.009-.005.727-.85.66-2.476-.022-.658-.142-1.754-.24-2.576-.156.354-.335.7-.506.864-.051.05-.119.075-.187.075-.07 0-.137-.024-.189-.075-.104-.1-.104-.263 0-.362.22-.212.577-1.12.754-1.65.051-.208.102-.418.138-.642.107-.64.177-1.265.212-1.916l.004-.249c.005-.3.013-.806.013-1.287-.007-.686-.032-1.114-.074-1.276zM15.279 0c.147 0 .267.115.267.257v6.158l2.023-1.52c.116-.087.285-.069.375.044.09.11.07.273-.046.359L15.804 6.87c-.155.117-.34.174-.525.174s-.37-.057-.524-.174L12.66 5.298c-.116-.086-.136-.249-.046-.36.09-.112.258-.13.374-.044l2.024 1.52V.258c0-.142.119-.257.266-.257zM6.731 2.43c.338.063.61.237.752.463.175.206.248.508.175.801-.14.568-.75.936-1.397.836-.488-.086-.99-.101-1.47-.044l-.283.043-.054.004c-.073.016-.14.016-.193.016-.554 0-1.058-.367-1.175-.856-.058-.28.001-.559.162-.79.149-.21.369-.364.63-.441l.134-.032.045-.006c.883-.158 1.807-.156 2.674.006zm-2.244.449l-.357.055-.067.004c-.13.028-.28.12-.372.252-.082.118-.112.258-.084.397.06.248.347.45.654.45.023 0 .046 0 .064-.002l.023-.004.074-.01c.61-.112 1.291-.113 1.9.005.386.053.744-.146.817-.45.035-.14.001-.277-.091-.39-.087-.132-.236-.22-.404-.253-.705-.127-1.441-.146-2.157-.054z" transform="translate(-65.000000, -397.000000) translate(65.000000, 397.000000)"/>
            </g>
        </g>
    </g>
</svg>
