<svg width="219" height="254" viewBox="0 0 219 254" fill="none" xmlns="http://www.w3.org/2000/svg">
<path d="M218.5 143.675C218.5 204.037 169.699 252.969 109.5 252.969C49.3006 252.969 0.5 204.037 0.5 143.675C0.5 83.3132 49.3006 34.3809 109.5 34.3809C169.699 34.3809 218.5 83.3132 218.5 143.675Z" fill="#E1DEFB"/>
<mask id="mask0_2712_122409" style="mask-type:luminance" maskUnits="userSpaceOnUse" x="-1" y="30" width="219" height="218">
<path d="M217.5 139.175C217.5 199.261 168.699 247.969 108.5 247.969C48.3006 247.969 -0.5 199.261 -0.5 139.175C-0.5 79.0894 48.3006 30.3809 108.5 30.3809C168.699 30.3809 217.5 79.0894 217.5 139.175Z" fill="white"/>
</mask>
<g mask="url(#mask0_2712_122409)">
</g>
<mask id="mask1_2712_122409" style="mask-type:luminance" maskUnits="userSpaceOnUse" x="0" y="0" width="219" height="252">
<path fill-rule="evenodd" clip-rule="evenodd" d="M54.5652 53.9227C10.1657 84.8385 0.642764 129.062 0.5 150.775V151.508C0.614211 176.054 18.0035 218.926 59.8475 240.855C102.12 262.985 146.404 245.665 160.966 237.613C175.542 229.56 217.943 201.376 218.5 140.839V138.769C217.958 79.5829 179.298 49.0986 179.298 49.0986L177.056 4.45761L59.7047 0L54.5652 53.9227Z" fill="white"/>
</mask>
<g mask="url(#mask1_2712_122409)">
<path opacity="0.46" fill-rule="evenodd" clip-rule="evenodd" d="M28.6102 248.291L33.5254 223.968L49.3338 152.068L79.0907 90.0578V77.629C63.548 77.629 162.649 33.9277 162.649 33.9277C169.956 33.9277 175.801 39.9417 175.801 47.1584V57.7162H176.066C176.332 57.7162 176.598 57.9835 176.598 58.2508V63.0619C176.598 63.3292 176.332 63.5965 176.066 63.5965H175.801V68.5413H176.066C176.332 68.5413 176.598 68.8086 176.598 69.0759V78.8318C176.598 79.0991 176.332 79.3664 176.066 79.3664H175.801V82.1729H176.066C176.332 82.1729 176.598 82.4402 176.598 82.7074V92.4634C176.598 92.7307 176.332 92.998 176.066 92.998H175.801V99.6801C176.863 99.5465 177.793 99.5465 178.59 99.6801C184.967 101.685 183.904 109.302 177.661 115.049C177.129 115.584 176.465 115.985 175.801 116.519V136.699C178.458 137.768 181.247 137.902 182.709 139.238C187.624 143.649 183.771 150.064 175.801 152.87V166.368C177.262 167.17 178.458 168.239 179.786 168.64C182.443 169.709 185.1 169.843 186.561 171.046C191.609 175.456 187.491 182.004 179.52 184.811C178.325 185.212 177.129 185.479 175.934 185.746V187.216C175.934 194.567 169.956 200.447 162.782 200.447H122.531C121.601 204.991 118.014 220.627 107.785 234.66C98.7516 249.36 89.9839 257.245 78.9579 258.448C77.8951 258.715 77.2309 258.715 76.9652 258.582L72.5814 273.282C70.8544 279.163 65.4079 283.172 59.2971 283.172H40.9647H21.4367C16.6543 283.172 13.5989 278.094 15.7244 273.817L28.6102 248.291Z" fill="#E3DED1"/>
<path fill-rule="evenodd" clip-rule="evenodd" d="M72.3149 66.5371H71.2522C70.9865 66.5371 70.7208 66.8044 70.7208 67.0717V83.3761C70.7208 83.6434 70.9865 83.9107 71.2522 83.9107H72.3149C72.5806 83.9107 72.8463 83.6434 72.8463 83.3761V67.0717C72.8463 66.8044 72.5806 66.5371 72.3149 66.5371Z" fill="#7B7B7B"/>
<path fill-rule="evenodd" clip-rule="evenodd" d="M167.431 48.6287H166.368C166.103 48.6287 165.837 48.896 165.837 49.1633V53.9744C165.837 54.2417 166.103 54.509 166.368 54.509H167.431C167.697 54.509 167.962 54.2417 167.962 53.9744V49.1633C167.83 48.896 167.697 48.6287 167.431 48.6287Z" fill="#7B7B7B"/>
<path fill-rule="evenodd" clip-rule="evenodd" d="M167.431 59.4532H166.368C166.103 59.4532 165.837 59.7205 165.837 59.9878V69.7437C165.837 70.011 166.103 70.2783 166.368 70.2783H167.431C167.697 70.2783 167.962 70.011 167.962 69.7437V59.8541C167.83 59.5868 167.697 59.4532 167.431 59.4532Z" fill="#7B7B7B"/>
<path fill-rule="evenodd" clip-rule="evenodd" d="M167.431 72.9512H166.368C166.103 72.9512 165.837 73.2185 165.837 73.4858V83.2418C165.837 83.509 166.103 83.7763 166.368 83.7763H167.431C167.697 83.7763 167.962 83.509 167.962 83.2418V73.4858C167.83 73.2185 167.697 72.9512 167.431 72.9512Z" fill="#7B7B7B"/>
<path fill-rule="evenodd" clip-rule="evenodd" d="M142.324 94.6014L153.748 90.5921C156.937 89.6566 160.258 90.9931 162.782 90.9931C165.571 90.8594 168.095 89.9239 169.955 90.4585C176.332 92.4631 175.269 100.081 169.025 105.827C160.922 113.445 150.427 112.109 150.427 112.109L142.324 94.6014Z" fill="#F5BA80"/>
<path fill-rule="evenodd" clip-rule="evenodd" d="M147.24 122.666L159.328 123.602C162.65 124.002 165.041 126.675 167.432 127.611C170.089 128.68 172.746 128.814 174.207 130.016C179.255 134.427 175.137 140.975 167.166 143.782C156.804 147.39 147.638 142.044 147.638 142.044L147.24 122.666Z" fill="#F5BA80"/>
<path fill-rule="evenodd" clip-rule="evenodd" d="M150.959 154.473L163.048 155.408C166.369 155.809 168.76 158.482 171.151 159.417C173.808 160.487 176.465 160.62 177.926 161.823C182.974 166.233 178.856 172.782 170.886 175.588C160.524 179.197 151.358 173.851 151.358 173.851L150.959 154.473Z" fill="#F5BA80"/>
<path fill-rule="evenodd" clip-rule="evenodd" d="M24.7574 214.879L40.6986 142.979L71.5183 78.9645C71.5183 78.9645 71.6512 74.6879 82.5443 70.144C93.3046 65.6002 104.862 134.159 104.862 134.159L114.028 189.888C114.028 189.888 110.176 215.681 92.109 233.456C74.0423 251.23 68.0644 249.359 68.0644 249.359L62.6178 262.189L17.9824 249.359L24.7574 214.879Z" fill="#F5BA80"/>
<path fill-rule="evenodd" clip-rule="evenodd" d="M80.0203 135.497L70.4556 149.396L63.9462 152.068L70.4556 95.8047L80.0203 135.497Z" fill="#EBA365"/>
<path fill-rule="evenodd" clip-rule="evenodd" d="M154.014 24.8398H83.7397C76.4333 24.8398 70.5882 30.8538 70.5882 38.0705V177.995C70.5882 185.345 76.5661 191.225 83.7397 191.225H154.014C161.32 191.225 167.165 185.212 167.165 177.995V38.0705C167.165 30.8538 161.187 24.8398 154.014 24.8398Z" fill="#666767"/>
<path fill-rule="evenodd" clip-rule="evenodd" d="M154.545 25.6406H83.2084C76.6991 25.6406 71.3853 30.9863 71.3853 37.5349V178.395C71.3853 184.943 76.6991 190.289 83.2084 190.289H154.545C161.055 190.289 166.368 184.943 166.368 178.395V37.6685C166.368 31.12 161.055 25.6406 154.545 25.6406Z" fill="#363332"/>
<path fill-rule="evenodd" clip-rule="evenodd" d="M154.546 29.918H136.213C135.682 31.6553 135.948 33.1254 134.619 34.0609C133.955 34.4618 132.892 34.7291 131.033 34.7291C122.929 34.7291 114.826 34.7291 106.722 34.7291C104.73 34.7291 103.667 34.4618 103.003 33.9273C101.94 33.1254 102.073 31.6553 101.541 29.918H83.2089C78.958 29.918 75.504 33.3927 75.504 37.6693V178.529C75.504 182.806 78.958 186.28 83.2089 186.28H154.546C158.797 186.28 162.251 182.806 162.251 178.529V37.6693C162.118 33.3927 158.664 29.918 154.546 29.918Z" fill="white"/>
<rect x="83" y="166" width="72" height="18" rx="4" fill="#FF8CF9" fill-opacity="0.4"/>
<path fill-rule="evenodd" clip-rule="evenodd" d="M83.2085 191.225H113.763C106.722 214.346 79.7546 218.355 75.2379 219.157C79.7546 208.866 79.4889 204.991 82.6771 191.092C82.81 191.225 83.0757 191.225 83.2085 191.225Z" fill="#EFAF77"/>
<path fill-rule="evenodd" clip-rule="evenodd" d="M103.799 217.152C84.9355 252.3 68.7286 258.849 33.7908 236.13C59.2967 239.738 83.3414 232.254 103.799 217.152Z" fill="#EFAF77"/>
<path d="M6.02661 266.866L21.835 235.594L41.6286 253.502L32.3296 274.083H10.4104C6.69083 274.083 4.29965 270.207 6.02661 266.866Z" fill="#F5BA80"/>
<path d="M55.1787 265.796L41.4958 253.501L45.6139 241.072L68.1973 249.358L60.7581 274.082H53.8502L55.1787 265.796Z" fill="#EFAF77"/>
<path fill-rule="evenodd" clip-rule="evenodd" d="M113.231 149.93C113.763 147.525 113.364 145.386 112.434 143.515C114.56 144.184 116.685 144.585 118.944 144.718C120.803 144.852 122.265 145.654 123.328 146.99C123.859 148.327 123.726 149.797 123.062 150.866C121.866 153.004 113.231 149.93 113.231 149.93Z" fill="#F7D9BE"/>
<path fill-rule="evenodd" clip-rule="evenodd" d="M83.8726 186.147H83.2084C82.9427 186.147 82.5441 186.147 82.2784 186.147C81.8799 183.34 81.2157 180.801 80.4186 178.663L95.1643 161.69C95.1643 161.69 100.345 164.363 109.644 163.428C110.973 163.294 112.301 163.16 113.762 162.893C118.146 162.091 121.069 160.22 122.796 157.948C123.726 156.879 124.257 155.676 124.655 154.34C124.788 156.745 123.991 161.156 117.216 164.898C114.958 166.1 112.567 167.036 110.308 167.571C103.002 169.442 97.0241 168.372 97.0241 168.372L83.8726 186.147Z" fill="#363332"/>
<rect x="83" y="145" width="72" height="18" rx="4" fill="#291482" fill-opacity="0.4"/>
<rect x="83" y="124" width="72" height="18" rx="4" fill="#A4FF00" fill-opacity="0.4"/>
<path fill-rule="evenodd" clip-rule="evenodd" d="M27.0165 225.705C27.0165 225.705 23.9611 198.709 34.3229 184.008C44.6847 169.441 88.6558 134.293 88.6558 134.293C88.6558 134.293 91.4455 129.482 97.6892 134.828C103.933 140.04 111.239 144.316 118.944 144.717C127.048 145.118 128.509 160.086 113.763 162.893C102.073 165.031 95.1651 161.69 95.1651 161.69L80.4195 178.662C89.32 201.248 77.2313 247.756 46.4116 239.604C30.8689 235.327 27.0165 225.705 27.0165 225.705Z" fill="#F5BA80"/>
<path fill-rule="evenodd" clip-rule="evenodd" d="M79.0907 218.487C76.4338 224.1 70.1902 225.971 64.0794 224.635C63.0166 224.368 62.6181 224.234 62.6181 224.234C62.6181 224.234 74.8397 208.731 75.6368 197.505C76.4338 186.279 75.5039 179.597 75.5039 178.795C75.5039 178.662 75.5039 178.662 75.5039 178.662L91.578 159.551L93.5706 148.859L95.6961 158.482C95.6961 158.482 99.9471 159.818 109.113 160.219C109.91 160.219 110.707 160.219 111.504 160.353C116.42 160.486 120.139 159.284 122.929 158.081C121.202 160.353 118.147 162.224 113.896 163.026C112.434 163.293 111.106 163.426 109.778 163.56C100.611 164.362 95.2976 161.823 95.2976 161.823L80.552 178.795C81.349 180.934 82.9431 186.279 83.3417 189.086C83.3417 190.289 85.0686 205.791 79.0907 218.487Z" fill="#EBA365"/>
<ellipse cx="92.1591" cy="52.2881" rx="7.43181" ry="7.4697" fill="#291482"/>
<rect x="83" y="65" width="72" height="54" rx="4" fill="#02FFF7" fill-opacity="0.4"/>
</g>
<path d="M97.4952 84.2612C96.8445 84.9162 96.8445 85.9821 97.4952 86.6371L101.488 90.6697C102.139 91.3247 103.198 91.3247 103.849 90.6697L106.617 87.8829V110.422C106.617 111.347 107.357 112.104 108.288 112.104H129.288C130.206 112.104 130.959 111.347 130.959 110.422V88.037L133.561 90.6697C134.212 91.3247 135.271 91.3247 135.922 90.6697L139.915 86.6371C140.565 85.9821 140.565 84.9162 139.915 84.2612L132.349 76.3115C131.686 75.618 130.78 75.2327 129.823 75.2199L108.059 75.207C107.14 75.207 106.247 75.5666 105.596 76.2216L97.4952 84.2612Z" fill="#ACA2FF"/>
<path d="M123.47 75.336L118.482 76.3891L113.583 75.336V71.6758H123.47V75.336Z" fill="#251B7D"/>
<path d="M114.846 78.5595L111.095 75.2332L113.736 71.6758L118.597 76.3891L116.849 78.4182C116.338 79.0218 115.445 79.0861 114.846 78.5595Z" fill="#7A6DEF"/>
<path d="M122.347 78.5595L126.098 75.2332L123.457 71.6758L118.597 76.3891L120.344 78.4182C120.855 79.0218 121.76 79.0861 122.347 78.5595Z" fill="#7A6DEF"/>
<path d="M106.617 87.8702V84.8008L100.965 90.1434L102.675 91.8515L106.617 87.8702Z" fill="#7A6DEF"/>
<path d="M130.933 88.1155V85.0332L136.381 90.196L134.722 91.8527L130.933 88.1155Z" fill="#7A6DEF"/>
</svg>
