<svg width="24" height="24" viewBox="0 0 24 24" fill="none" xmlns="http://www.w3.org/2000/svg">
<path d="M5.61865 10.3718C5.61865 10.3718 5.8648 9.95639 6.14787 9.55639L6.36017 9.26716L6.55709 9.02101C6.62055 8.9401 6.67813 8.85476 6.7294 8.76562C6.6609 8.84083 6.58685 8.91077 6.50786 8.97486L6.26479 9.17486C6.17249 9.25178 6.08326 9.33486 5.99095 9.41793C5.62481 9.75024 5.28328 10.1164 5.28328 10.1164L5.12636 10.3441C5.0279 10.4887 4.89252 10.6949 4.73867 10.9595C4.58483 11.2241 4.43099 11.5195 4.25253 11.8549C4.07408 12.1902 3.92639 12.541 3.7787 12.9072C3.47101 13.6395 3.22794 14.3841 3.03718 14.941L2.72949 15.8641L3.11102 14.9595C3.33871 14.4179 3.64024 13.6918 3.98177 12.9902C4.15407 12.6395 4.33561 12.2949 4.52022 11.981C4.70483 11.6672 4.87098 11.3841 5.03713 11.1564C5.20328 10.9287 5.34481 10.7256 5.4525 10.5933L5.61865 10.3718Z" fill="white"/>
<path d="M9.48944 4.4205C9.48944 4.4205 9.59713 4.59281 9.68944 4.77742C9.73251 4.86973 9.77866 4.96819 9.80328 5.03588C9.81761 5.0765 9.82591 5.11901 9.82789 5.16204C9.84718 5.12104 9.86065 5.07754 9.86789 5.03281C9.88334 4.9309 9.89259 4.82814 9.89558 4.72511C9.89558 4.50665 9.89558 4.28819 9.89558 4.28819C9.89558 4.28819 9.83712 4.12819 9.73559 3.9005L9.56944 3.51588C9.50482 3.37127 9.43713 3.20819 9.36637 3.07281C9.22483 2.76511 9.08945 2.47896 9.00637 2.24819C8.97078 2.15548 8.93997 2.06099 8.91407 1.96511L8.8833 1.85742V1.97127C8.8833 2.04204 8.90484 2.14358 8.92945 2.27896C8.97561 2.52204 9.06483 2.84204 9.15714 3.15896C9.20329 3.31588 9.24637 3.46665 9.28329 3.6205C9.32021 3.77435 9.35714 3.90973 9.3879 4.02665C9.45867 4.26358 9.48944 4.4205 9.48944 4.4205Z" fill="white"/>
<path d="M11.2003 6.08008H11.6772C11.5956 7.16204 11.3007 8.21716 10.8096 9.18469C10.8096 9.18469 11.2496 6.76931 11.2003 6.08008Z" fill="white"/>
<path d="M16.271 1.19241C16.8371 1.78625 15.8895 4.07856 15.3264 5.30933H8.62501C7.12351 2.5401 7.26505 0.952407 7.4835 0.733945C7.49166 0.717308 7.50449 0.703409 7.52043 0.693945C7.95734 0.573945 8.33887 1.02318 8.71117 1.18625C8.99609 1.33025 9.32071 1.3757 9.63422 1.31548C9.88297 1.18939 10.1668 1.15039 10.4404 1.20471C10.748 1.28779 10.8434 1.6601 11.145 1.76779C11.2865 1.80991 11.4348 1.82453 11.5819 1.81087C11.8736 1.83077 12.1654 1.77346 12.428 1.64471C12.5367 1.54844 12.6394 1.44569 12.7357 1.33702C12.8332 1.25945 12.9504 1.21045 13.0741 1.19548C13.4434 1.10625 13.7295 1.64779 14.0833 1.48471C14.1757 1.44471 14.2372 1.35856 14.3203 1.32164C14.4115 1.29381 14.509 1.29381 14.6003 1.32164C14.8066 1.37031 15.0237 1.31517 15.1818 1.17395C15.3079 1.04471 15.4618 0.721637 15.7418 0.804714C15.942 0.897841 16.1218 1.02959 16.271 1.19241Z" fill="url(#paint0_linear_3021_132037)"/>
<path d="M8.625 5.31055H15.3264C15.111 5.77824 14.9479 6.08593 14.9479 6.08593H9.0773C8.91115 5.81311 8.76038 5.55465 8.625 5.31055Z" fill="#251B7D"/>
<path d="M14.9477 6.07617C18.6399 8.21908 21.6091 13.6181 21.6091 17.7833C21.6091 23.0957 17.3015 23.9183 12.0001 23.9183C6.6987 23.9183 2.39111 23.0957 2.39111 17.7833C2.39111 13.6181 5.38489 8.21908 9.07711 6.07617H14.9477Z" fill="url(#paint1_linear_3021_132037)"/>
<path d="M8.71106 1.1931C8.33876 1.03002 7.95723 0.577717 7.52032 0.700794C7.50654 0.705087 7.49392 0.712452 7.4834 0.722332C7.57829 0.514075 7.74716 0.348494 7.95723 0.257717C8.10608 0.158122 8.29342 0.135274 8.46184 0.196178C8.70546 0.261532 8.9574 0.290563 9.20951 0.282332C9.5172 0.242332 9.82488 0.0454091 10.1326 0.0854091C10.4403 0.125409 10.7479 0.393101 11.0741 0.408486C11.4002 0.423871 11.6895 0.119255 12.0218 0.100794C12.3541 0.0823322 12.6587 0.291563 12.9879 0.346948C13.3848 0.386948 13.7632 0.233101 14.1417 0.165409C14.4796 0.106243 14.8265 0.12306 15.1571 0.21464C15.4001 0.282332 15.837 0.45464 16.2709 1.1931C16.1269 1.03695 15.9547 0.909569 15.7632 0.817717C15.4832 0.73464 15.3294 1.05772 15.2032 1.18695C15.0437 1.33019 14.8238 1.38546 14.6155 1.33464C14.5243 1.30681 14.4268 1.30681 14.3355 1.33464C14.2525 1.37156 14.1909 1.45772 14.0986 1.49772C13.7448 1.66079 13.4586 1.11926 13.0894 1.20849C12.9657 1.22345 12.8485 1.27245 12.751 1.35002C12.6547 1.45869 12.5519 1.56145 12.4433 1.65772C12.1807 1.78646 11.8889 1.84377 11.5971 1.82387C11.4501 1.83753 11.3018 1.82291 11.1602 1.78079C10.8525 1.6731 10.7541 1.30079 10.4556 1.21772C10.1822 1.15626 9.89603 1.18878 9.64335 1.31002C9.32824 1.37615 9.00008 1.33499 8.71106 1.1931Z" fill="#251B7D"/>
<path d="M8.71106 1.1931C8.33876 1.03002 7.95723 0.577717 7.52032 0.700794C7.50654 0.705087 7.49392 0.712452 7.4834 0.722332C7.57829 0.514075 7.74716 0.348494 7.95723 0.257717C8.10608 0.158122 8.29342 0.135274 8.46184 0.196178C8.70546 0.261532 8.9574 0.290563 9.20951 0.282332C9.5172 0.242332 9.82488 0.0454091 10.1326 0.0854091C10.4403 0.125409 10.7479 0.393101 11.0741 0.408486C11.4002 0.423871 11.6895 0.119255 12.0218 0.100794C12.3541 0.0823322 12.6587 0.291563 12.9879 0.346948C13.3848 0.386948 13.7632 0.233101 14.1417 0.165409C14.4796 0.106243 14.8265 0.12306 15.1571 0.21464C15.4001 0.282332 15.837 0.45464 16.2709 1.1931C16.1269 1.03695 15.9547 0.909569 15.7632 0.817717C15.4832 0.73464 15.3294 1.05772 15.2032 1.18695C15.0437 1.33019 14.8238 1.38546 14.6155 1.33464C14.5243 1.30681 14.4268 1.30681 14.3355 1.33464C14.2525 1.37156 14.1909 1.45772 14.0986 1.49772C13.7448 1.66079 13.4586 1.11926 13.0894 1.20849C12.9657 1.22345 12.8485 1.27245 12.751 1.35002C12.6547 1.45869 12.5519 1.56145 12.4433 1.65772C12.1807 1.78646 11.8889 1.84377 11.5971 1.82387C11.4501 1.83753 11.3018 1.82291 11.1602 1.78079C10.8525 1.6731 10.7541 1.30079 10.4556 1.21772C10.1822 1.15626 9.89603 1.18878 9.64335 1.31002C9.32824 1.37615 9.00008 1.33499 8.71106 1.1931Z" fill="#FF8CF9"/>
<path d="M13.5293 6.06912C13.5293 6.9922 14.5447 7.66912 14.96 8.39835C15.3754 9.12758 15.3908 9.87528 15.3631 10.6845C15.3631 10.5091 16.1846 10.3491 16.1908 10.1614C16.2185 9.3522 16.1908 8.5922 15.7877 7.8722C15.3846 7.1522 14.3447 6.45681 14.36 5.54297C14.36 5.71835 13.5324 5.88451 13.5293 6.06912H13.5293Z" fill="#251B7D"/>
<g style="mix-blend-mode:screen" opacity="0.29">
<path d="M9.23707 6.07617C8.55165 6.69422 7.94318 7.39258 7.4248 8.15617C7.4248 8.15617 8.86785 6.37463 9.68321 6.08233L9.23707 6.07617Z" fill="#FF8CF9"/>
</g>
<g style="mix-blend-mode:screen" opacity="0.29">
<path d="M10.3691 6.07617H10.5845L10.166 7.43309L10.3691 6.07617Z" fill="#FF8CF9"/>
</g>
<g style="mix-blend-mode:multiply">
<path d="M14.1356 5.77417C14.1079 5.86032 13.8863 5.96802 13.6217 5.90032C13.3571 5.83263 13.4833 5.37109 13.4833 5.37109C13.4833 5.37109 13.3294 5.70956 13.3694 5.81725C13.4094 5.92494 13.591 5.91263 13.6248 5.96802C13.6587 6.0234 14.1971 6.62648 14.1971 6.62648L13.8894 6.10956C13.8279 5.99879 13.9048 5.9434 14.0186 5.93417C14.1325 5.92494 14.1386 5.76186 14.1386 5.76186L14.1356 5.77417Z" fill="white"/>
</g>
<g style="mix-blend-mode:multiply">
<path d="M15.1323 5.71354C15.0225 5.61254 14.8835 5.54898 14.7354 5.532C14.8846 5.53515 15.0338 5.52589 15.1815 5.50431L15.1323 5.71354Z" fill="white"/>
</g>
<g style="mix-blend-mode:screen">
<path d="M13.5387 5.41211C13.5141 5.49211 13.5048 5.77211 13.6279 5.82749C13.6005 5.75281 13.5809 5.67547 13.5695 5.59672C13.5648 5.53438 13.5545 5.47259 13.5387 5.41211Z" fill="#251B7D"/>
</g>
<path d="M15.4584 9.70458V9.83689C15.4584 9.87689 15.4584 9.91689 15.4584 9.97227C15.4629 10.0235 15.4629 10.0749 15.4584 10.1261C15.4655 10.2232 15.4572 10.3208 15.4338 10.4153C15.4238 10.4584 15.4104 10.5006 15.3938 10.5415C15.4155 10.5031 15.434 10.463 15.4491 10.4215C15.4856 10.3226 15.5073 10.219 15.5138 10.1138C15.5168 10.0605 15.5168 10.0071 15.5138 9.95381C15.5138 9.90766 15.5138 9.85535 15.5138 9.81843V9.67996C15.5004 9.5359 15.4767 9.39297 15.443 9.25227C15.4122 9.12612 15.3722 8.97843 15.323 8.82458C15.2984 8.74766 15.2707 8.67073 15.243 8.59073L15.1968 8.46766C15.1784 8.42766 15.1538 8.39073 15.1322 8.35381C15.1107 8.31689 15.0492 8.20304 14.9999 8.13227C14.9507 8.0615 14.9015 7.99689 14.8492 7.93535C14.7525 7.82706 14.6498 7.72433 14.5415 7.62766C14.3507 7.45227 14.2153 7.34766 14.2153 7.34766C14.2153 7.34766 14.3476 7.45843 14.523 7.63689C14.626 7.74067 14.7226 7.85062 14.8122 7.96612C14.8636 8.02973 14.9109 8.09653 14.9538 8.16612C14.9989 8.23758 15.04 8.31155 15.0768 8.38766C15.0994 8.42397 15.1189 8.46204 15.1353 8.5015L15.1753 8.61843C15.1999 8.69843 15.2245 8.77843 15.2461 8.85535C15.2861 8.99513 15.3189 9.13685 15.3445 9.27996C15.393 9.41847 15.4311 9.5604 15.4584 9.70458Z" fill="#251B7D"/>
<path d="M9.88653 5.31638L8.98193 5.35638L9.88345 5.421L12.7818 5.40869L9.88653 5.31638Z" fill="#251B7D"/>
<path d="M7.6123 1.10742L7.65538 1.25204C7.67692 1.34434 7.72307 1.47358 7.75384 1.63665C7.79698 1.82003 7.82782 2.00609 7.84615 2.19358C7.86346 2.39997 7.89119 2.60536 7.92922 2.80896C7.96871 3.00876 8.02957 3.20372 8.11075 3.3905C8.19075 3.57204 8.2646 3.74742 8.33229 3.89511C8.39998 4.04281 8.43998 4.17819 8.47382 4.26742L8.51382 4.41511L8.43075 4.28896C8.38152 4.20896 8.29844 4.09819 8.21229 3.95973C8.12614 3.82127 8.01537 3.66742 7.91999 3.47973C7.81311 3.28743 7.73632 3.0799 7.6923 2.86435C7.65268 2.65017 7.63209 2.43292 7.63077 2.21511C7.63077 2.00896 7.63077 1.82742 7.63077 1.66435C7.63077 1.50127 7.63077 1.35665 7.63077 1.26742L7.6123 1.10742Z" fill="#FFE8FE"/>
<g style="mix-blend-mode:multiply" opacity="0.4">
<path d="M9.16943 6.54102L9.01866 6.71025C8.91713 6.81178 8.7879 6.96871 8.62175 7.15025C8.4556 7.33178 8.28022 7.55025 8.0833 7.78409C7.88638 8.01794 7.68331 8.27025 7.46793 8.52255C7.25255 8.77486 7.06179 9.02717 6.88333 9.27332L6.39411 9.9564C6.2495 10.1533 6.11104 10.3072 6.01566 10.4149L5.86182 10.581L5.97874 10.3872C6.05566 10.2672 6.15412 10.0795 6.28642 9.87948C6.41873 9.67948 6.55103 9.42102 6.72333 9.16255C6.89826 8.8943 7.08724 8.63548 7.28947 8.38717C7.4987 8.13179 7.711 7.88255 7.92331 7.65794C8.13561 7.43332 8.34483 7.2364 8.53868 7.07025C8.73252 6.90409 8.88636 6.78102 8.99713 6.69178L9.16943 6.54102Z" fill="#FF8CF9"/>
</g>
<g style="mix-blend-mode:multiply" opacity="0.4">
<path d="M10.6649 6.23242C10.6649 6.23242 10.6495 6.28781 10.6341 6.38011C10.6188 6.47242 10.6064 6.60781 10.588 6.77088C10.5695 6.93396 10.5603 7.12473 10.5172 7.33396C10.4741 7.54319 10.4034 7.74319 10.3418 7.94934C10.2803 8.1555 10.2065 8.36473 10.1357 8.56473C10.0649 8.76473 9.99415 8.93396 9.93262 9.08781C9.87108 9.24165 9.81262 9.36473 9.7757 9.45396L9.70801 9.58934L9.72955 9.43858C9.74801 9.34319 9.76647 9.20781 9.80339 9.04781C9.84031 8.88781 9.87723 8.70011 9.93262 8.50319C9.988 8.30627 10.0465 8.09704 10.108 7.88781C10.1695 7.67858 10.2434 7.47242 10.308 7.27242C10.3726 7.07242 10.4126 6.90011 10.4526 6.74011C10.4879 6.61026 10.5343 6.48365 10.5911 6.36165C10.613 6.31713 10.6377 6.27397 10.6649 6.23242Z" fill="#FF8CF9"/>
</g>
<path d="M13.1938 1.39099H13.1446C13.1036 1.40085 13.0643 1.41639 13.0276 1.43714C12.9737 1.46638 12.9231 1.50146 12.8769 1.54175C12.8246 1.58175 12.7661 1.62791 12.7046 1.66791C12.6452 1.71 12.5824 1.74705 12.5169 1.77868C12.4597 1.8069 12.3999 1.82957 12.3384 1.84637C12.2952 1.85812 12.2508 1.86534 12.2061 1.86791H12.1538L12.2 1.84945C12.2408 1.83511 12.2808 1.81867 12.32 1.80022C12.3692 1.77868 12.4246 1.74483 12.48 1.71406L12.6615 1.61868L12.8369 1.49868C12.89 1.46207 12.948 1.43307 13.0092 1.41252C13.0524 1.39618 13.0984 1.38885 13.1446 1.39099H13.1938Z" fill="#FFE8FE"/>
<path d="M9.46143 1.45082H9.48296L9.53835 1.43236L9.61527 1.41082C9.64035 1.40012 9.66604 1.39087 9.69219 1.38313H9.78142H9.86142C9.88087 1.38157 9.90042 1.38157 9.91988 1.38313H9.94141H9.92295L9.87065 1.41082L9.7968 1.44159L9.70757 1.46313H9.61527H9.53219C9.51277 1.46534 9.49316 1.46534 9.47373 1.46313L9.46143 1.45082Z" fill="#FFE8FE"/>
<path d="M11.8187 4.59235C11.8345 4.57412 11.847 4.5533 11.8556 4.53081C11.8836 4.4747 11.9023 4.41443 11.911 4.35235C11.911 4.27235 11.9295 4.18004 11.9387 4.08158C11.9479 3.98312 11.9387 3.87543 11.9541 3.77389V3.4662V3.19235C11.9541 3.11235 11.9541 3.04773 11.9541 2.9985V2.92773V2.9985C11.9541 3.04773 11.9541 3.11235 11.9726 3.19235C11.991 3.27235 11.9726 3.36773 11.9726 3.4662C11.9726 3.56466 11.9726 3.67543 11.9726 3.77389C11.9726 3.87235 11.9726 3.98927 11.9449 4.08158C11.9315 4.17382 11.913 4.26524 11.8895 4.35543C11.873 4.41951 11.8448 4.48001 11.8064 4.53389C11.8124 4.55293 11.8165 4.57251 11.8187 4.59235Z" fill="#FFE8FE"/>
<path d="M17.6564 21.0026L16.9364 18.8487C16.8698 18.6659 16.6971 18.5434 16.5026 18.541C16.2477 18.541 16.041 18.7477 16.041 19.0026C16.0407 19.0561 16.0501 19.1093 16.0687 19.1595L16.7764 21.2764C16.8407 21.4969 17.0574 21.6366 17.2847 21.6041C17.5121 21.5716 17.681 21.3769 17.681 21.1472C17.6816 21.0991 17.6743 21.0513 17.6594 21.0056L17.6564 21.0026Z" fill="#251B7D"/>
<path d="M18.9582 21.0023L18.5305 19.71C18.4508 19.5028 18.235 19.3817 18.0167 19.4216C17.7984 19.4615 17.6394 19.6511 17.6382 19.873C17.6386 19.9253 17.6469 19.9771 17.6628 20.0269L18.0782 21.2577C18.1425 21.4782 18.3591 21.6178 18.5865 21.5853C18.8139 21.5528 18.9828 21.3581 18.9828 21.1284C18.9834 21.0804 18.9761 21.0326 18.9612 20.9869L18.9582 21.0023Z" fill="#251B7D"/>
<path d="M19.6473 19.1559C19.6473 19.1375 19.6319 19.1221 19.6227 19.1005V19.0821C19.4946 18.8972 19.3365 18.7349 19.155 18.6021C19.0909 18.5554 19.0078 18.5439 18.9335 18.5713C18.8591 18.5996 18.8052 18.6652 18.7919 18.7436C18.7425 18.979 18.7425 19.2221 18.7919 19.4575C18.802 19.4915 18.8154 19.5245 18.8319 19.5559C18.9153 19.7017 19.0701 19.792 19.2381 19.7928C19.2929 19.7933 19.3473 19.7829 19.3981 19.7621C19.5129 19.7165 19.6044 19.6262 19.6514 19.5119C19.6984 19.3976 19.6969 19.2691 19.6473 19.1559Z" fill="#251B7D"/>
<path d="M14.0465 6.38039C14.8957 6.0727 15.4833 6.74039 16.0587 7.26039C16.3024 7.50604 16.6008 7.69055 16.9295 7.79885C17.3115 7.85418 17.6973 7.87887 18.0833 7.8727C18.8894 7.96193 19.0679 8.57424 19.4125 9.1927C19.7584 9.8988 20.4429 10.3776 21.2247 10.4604C21.1355 10.4604 21.114 9.5127 21.0094 9.50347C20.2615 9.42579 19.6009 8.98194 19.2463 8.31885C18.8771 7.68501 18.711 7.01116 17.871 6.9127C17.0833 6.82039 16.5602 6.9127 15.9141 6.36501C15.268 5.81731 14.7203 5.09116 13.8311 5.42039C13.7849 5.43885 14.0803 6.36808 14.0465 6.38039Z" fill="#251B7D"/>
<g style="mix-blend-mode:multiply">
<path d="M14.5107 6.26334L14.3076 5.8418C14.389 5.94341 14.4867 6.03076 14.5968 6.10026C14.7788 6.19958 14.9508 6.316 15.1107 6.44795C14.9252 6.34647 14.7211 6.28367 14.5107 6.26334Z" fill="white"/>
</g>
<g style="mix-blend-mode:multiply">
<path d="M14.3077 5.61855C14.4123 5.55393 14.8646 5.74163 15.1384 5.89855C15.3665 6.04438 15.5835 6.20687 15.7877 6.3847C15.5181 6.16418 15.2188 5.98289 14.8984 5.84624C14.5538 5.7447 14.2831 5.7047 14.2215 5.68316C14.16 5.66163 14.3077 5.61855 14.3077 5.61855Z" fill="white"/>
</g>
<path d="M17.3325 7.68448C17.3325 7.68448 17.2279 7.68448 17.1202 7.68448C17.048 7.68365 16.976 7.67748 16.9048 7.66602C16.9729 7.69414 17.0428 7.71778 17.114 7.73678C17.2186 7.76448 17.3294 7.78294 17.3294 7.78294H17.5448C17.674 7.78294 17.8525 7.78294 18.0186 7.78294C18.1753 7.79185 18.3298 7.824 18.4771 7.87832C18.5449 7.90143 18.6083 7.93575 18.6647 7.97986C18.6102 7.93231 18.5491 7.89292 18.4832 7.86294C18.337 7.7956 18.1814 7.75099 18.0217 7.73063C17.8494 7.70602 17.6771 7.70294 17.5478 7.69678C17.4186 7.69063 17.3325 7.68448 17.3325 7.68448Z" fill="#251B7D"/>
<rect x="11.7817" y="6.07617" width="1.29535" height="0.775384" transform="rotate(-180 11.7817 6.07617)" fill="#251B7D"/>
<g style="mix-blend-mode:multiply">
<path d="M11.1355 5.8001C10.8524 5.83703 9.16016 5.8678 9.16016 5.8678C9.16016 5.8678 9.86475 5.95703 10.2986 5.97241C10.5865 5.97369 10.8715 5.91501 11.1355 5.8001Z" fill="white"/>
</g>
<defs>
<linearGradient id="paint0_linear_3021_132037" x1="16.02" y1="4.99803" x2="14.0236" y2="-0.867199" gradientUnits="userSpaceOnUse">
<stop offset="0.0342123" stop-color="#FF81FF"/>
<stop offset="0.931241" stop-color="#FFD5FF"/>
</linearGradient>
<linearGradient id="paint1_linear_3021_132037" x1="20.7111" y1="22.7201" x2="9.4283" y2="4.52595" gradientUnits="userSpaceOnUse">
<stop offset="0.0342123" stop-color="#FF81FF"/>
<stop offset="0.931241" stop-color="#FFD5FF"/>
</linearGradient>
</defs>
</svg>
