<svg width="30" height="30" viewBox="0 0 30 30" fill="none" xmlns="http://www.w3.org/2000/svg">
<path fill-rule="evenodd" clip-rule="evenodd" d="M13.0371 5.05239C9.50403 6.01068 6.88501 9.14739 6.7559 12.9073H6.751L6.16064 28.0944L23.5117 28.0944L24.1664 27.2403L23.8713 12.9073H23.8662C23.7247 8.78616 20.5918 5.41373 16.5428 4.83789C16.1945 5.46406 15.5092 5.88989 14.7209 5.88989C14.0262 5.88989 13.4117 5.55931 13.0371 5.05239Z" fill="#D3D3D3"/>
<path d="M10.6442 6.83701L13.6715 4.73387C13.9152 4.56442 14.1937 4.46221 14.4855 4.43128C14.4952 4.02767 14.6921 3.66019 15.0192 3.44452C15.2034 3.32298 15.3097 3.1184 15.3036 2.89768C15.2944 2.56819 15.0197 2.2925 14.6906 2.2836C14.5169 2.27822 14.3557 2.34226 14.2325 2.46246C14.1092 2.58248 14.0415 2.74353 14.0415 2.91566C14.0415 3.02039 13.9567 3.10512 13.8523 3.10512C13.7479 3.10512 13.6631 3.02039 13.6631 2.91566C13.6631 2.64031 13.7717 2.38278 13.9688 2.1908C14.1657 1.99883 14.4236 1.89713 14.7011 1.90469C15.2272 1.91932 15.6672 2.36008 15.6818 2.88725C15.6915 3.24027 15.5216 3.56673 15.2273 3.76106C15.0065 3.90663 14.8728 4.1561 14.8638 4.43179C15.1543 4.46339 15.4313 4.56543 15.674 4.73404L18.7013 6.83718C18.8943 6.97133 18.9735 7.20297 18.9035 7.42756C18.8333 7.65198 18.6364 7.79705 18.4015 7.79705H10.944C10.7092 7.79705 10.5121 7.65198 10.4421 7.42756C10.3718 7.2028 10.4511 6.97116 10.6442 6.83701ZM10.803 7.31409C10.8105 7.33846 10.8432 7.41798 10.9439 7.41798H18.4014C18.5021 7.41798 18.5349 7.33846 18.5425 7.31409C18.55 7.28988 18.5682 7.20583 18.4855 7.14851L15.4584 5.0452C15.2267 4.88432 14.9553 4.79926 14.6736 4.79909H14.6723C14.3903 4.79909 14.1189 4.88432 13.887 5.0452L10.8597 7.14851C10.7769 7.20583 10.7954 7.28971 10.803 7.31409Z" fill="#291482"/>
<path fill-rule="evenodd" clip-rule="evenodd" d="M12.8844 4.92773C8.95369 5.69484 5.97895 8.87469 5.83867 12.7223H5.8335V13.0068V28.0947H23.6082V13.0068V12.7223H23.603C23.4627 8.87475 20.4881 5.69496 16.5575 4.92778C16.1817 5.50457 15.4998 5.89009 14.721 5.89009C13.9421 5.89009 13.2602 5.50455 12.8844 4.92773Z" fill="#ECECEC"/>
<rect x="5.8335" y="13.0352" width="17.6783" height="3.27375" fill="#F4F4F4"/>
<line x1="14.8525" y1="5.83203" x2="14.8525" y2="26.784" stroke="#D3D3D3" stroke-width="1.01449"/>
<path d="M9.98971 25.446L9.06756 22.6854C9.06655 22.6826 9.06554 22.6798 9.06428 22.6773C8.97777 22.4483 8.75631 22.2949 8.51115 22.2949C8.18527 22.2949 7.91992 22.5603 7.91992 22.8861C7.91992 22.9545 7.93152 23.0213 7.95448 23.0854C7.95498 23.0874 7.95549 23.0892 7.95624 23.0912L8.86149 25.7991C8.93514 26.0488 9.16795 26.2231 9.4285 26.2231C9.75438 26.2231 10.0197 25.958 10.0197 25.6319C10.0197 25.5704 10.0101 25.5096 9.99147 25.4511C9.99097 25.4493 9.99046 25.4475 9.98996 25.446H9.98971Z" fill="#291482"/>
<path d="M11.6578 25.4468L11.1094 23.8026C11.1084 23.7998 11.1074 23.7973 11.1064 23.7947C11.0199 23.5657 10.7984 23.4121 10.553 23.4121C10.2271 23.4121 9.96179 23.6775 9.96179 24.0033C9.96179 24.0717 9.97339 24.1385 9.99635 24.2026C9.99685 24.2046 9.99736 24.2066 9.99811 24.2084L10.5296 25.8002C10.6032 26.0499 10.836 26.2242 11.0966 26.2242C11.4227 26.2242 11.6878 25.9589 11.6878 25.633C11.6878 25.5714 11.6782 25.5107 11.6595 25.4521C11.659 25.4504 11.6585 25.4486 11.658 25.4471L11.6578 25.4468Z" fill="#291482"/>
<path d="M12.5393 23.0794C12.5302 23.0562 12.5194 23.0332 12.5052 23.008C12.504 23.005 12.5025 23.0022 12.501 22.9992C12.501 22.9992 12.4967 22.9914 12.4878 22.9777C12.4856 22.974 12.4831 22.9704 12.4808 22.9669C12.4326 22.894 12.2467 22.635 11.8817 22.3557C11.7998 22.2929 11.6936 22.2778 11.5975 22.3149C11.5021 22.3517 11.434 22.4339 11.4159 22.5346C11.3632 22.8236 11.3407 23.2325 11.4159 23.4466C11.4171 23.4504 11.4186 23.4537 11.4202 23.457C11.4325 23.5004 11.4499 23.5422 11.4719 23.5813C11.5783 23.7728 11.7814 23.885 11.9915 23.885C12.0603 23.885 12.1302 23.8729 12.1975 23.8474C12.3466 23.7912 12.4644 23.6802 12.5292 23.5349C12.594 23.3894 12.5978 23.2277 12.5401 23.0794H12.5393Z" fill="#291482"/>
</svg>
