<svg width="24" height="16" viewBox="0 0 24 16" fill="none" xmlns="http://www.w3.org/2000/svg">
<rect width="23.0538" height="16" rx="4" fill="url(#paint0_linear_2402_73067)"/>
<g clip-path="url(#clip0_2402_73067)">
<path d="M8.95607 4.00235H7.06535C5.38972 4.00235 4.01953 5.37224 4.01953 7.04751V8.93783C4.01953 10.6131 5.38972 11.983 7.06535 11.983H8.95607C10.6317 11.983 12.0019 10.6131 12.0019 8.93783V7.04751C12.0019 5.37224 10.6317 4.00235 8.95607 4.00235ZM6.89542 5.38945C7.35143 5.38945 7.7214 5.75934 7.7214 6.21525C7.7214 6.67117 7.35143 7.04106 6.89542 7.04106C6.43941 7.04106 6.06943 6.67117 6.06943 6.21525C6.06943 5.75934 6.43941 5.38945 6.89542 5.38945ZM8.27636 10.8604C6.67817 10.8604 5.38326 9.56364 5.38326 7.96794C5.38326 7.90773 5.38542 7.84751 5.38757 7.78945H6.71688C6.71043 7.84751 6.70613 7.90773 6.70613 7.96794C6.70613 8.83461 7.40736 9.53568 8.27421 9.53568C8.76033 9.53568 9.19484 9.31418 9.48092 8.96794L10.5026 9.8131C9.9735 10.454 9.17333 10.8604 8.27636 10.8604ZM9.61428 7.14859C9.37122 6.75074 8.95607 6.47117 8.4721 6.4131L8.81626 5.12493C9.56696 5.26687 10.2166 5.69697 10.6403 6.29912L9.61428 7.14859Z" fill="#00E784"/>
<path d="M17.5116 7.22373C17.2384 7.22373 16.9674 7.27749 16.7136 7.38502C16.7996 7.15491 16.8448 6.90975 16.8448 6.66459V5.13126H15.4574V6.66459C15.4574 6.84093 15.3864 7.00868 15.2616 7.13341C15.1369 7.25814 14.967 7.32696 14.7906 7.32696H13.2548V8.7119H14.7927C15.0659 8.7119 15.3369 8.65814 15.5907 8.55061C15.5047 8.78072 15.4595 9.02588 15.4595 9.27104V10.8044H16.8469V9.27104C16.8469 9.0947 16.9179 8.92695 17.0427 8.80222C17.1674 8.67749 17.3374 8.60867 17.5137 8.60867H19.0517V7.22373H17.5116Z" fill="#00E784"/>
</g>
<defs>
<linearGradient id="paint0_linear_2402_73067" x1="28.2291" y1="24.2667" x2="11.4384" y2="0.0613703" gradientUnits="userSpaceOnUse">
<stop stop-color="#00E784"/>
<stop offset="0.250292" stop-color="#00AC6A"/>
<stop offset="0.49686" stop-color="#008A5B"/>
<stop offset="0.723999" stop-color="#00654A"/>
<stop offset="1" stop-color="#00493E"/>
</linearGradient>
<clipPath id="clip0_2402_73067">
<rect width="15.0538" height="8" fill="white" transform="translate(4 4)"/>
</clipPath>
</defs>
</svg>
