<svg xmlns="http://www.w3.org/2000/svg" width="19" height="16" viewBox="0 0 19 16">
    <g fill="#111135" fill-rule="nonzero" stroke="#111237">
        <path stroke-width=".1" d="M17.979 14.404h-.596V5.766v-.033a.351.351 0 0 0 0-.06.298.298 0 0 0-.024-.053l-.033-.045a.2.2 0 0 0-.044-.041s-.015-.018-.027-.024L9.808 1.042a.298.298 0 0 0-.298 0L2.063 5.51s-.017.018-.026.024a.271.271 0 0 0-.077.09.2.2 0 0 0-.025.05.351.351 0 0 0 0 .06l-.041.032v8.638h-.596a.298.298 0 0 0 0 .596h16.68a.298.298 0 1 0 0-.596zm-12.213 0H3.979v-2.978h1.787v2.978zm9.532 0h-7.15V8.447h7.15v5.957zm1.49 0h-.894V8.15a.298.298 0 0 0-.298-.298H7.85a.298.298 0 0 0-.298.298v6.255H6.362v-3.276a.298.298 0 0 0-.298-.298H3.68a.298.298 0 0 0-.298.298v3.276h-.894V5.936l7.15-4.29 7.148 4.29v8.468z"/>
        <path stroke-width=".2" d="M11.128 7.255h1.191a.298.298 0 1 0 0-.595h-1.191a.298.298 0 1 0 0 .595zM9.638 10.234h4.17a.298.298 0 1 0 0-.596h-4.17a.298.298 0 0 0 0 .596zM9.638 11.723h4.17a.298.298 0 1 0 0-.595h-4.17a.298.298 0 1 0 0 .595zM9.638 13.213h4.17a.298.298 0 1 0 0-.596h-4.17a.298.298 0 1 0 0 .596zM5.468 9.638H4.277a.298.298 0 0 0 0 .596h1.191a.298.298 0 0 0 0-.596z"/>
    </g>
</svg>
