<svg xmlns="http://www.w3.org/2000/svg" width="22" height="26" viewBox="0 0 22 26">
    <g fill="none" fill-rule="evenodd" stroke="#111135" stroke-linecap="square" stroke-width="1.2">
        <path d="M2 1.556h18a1 1 0 0 1 1 1V23.02a1 1 0 0 1-1.555.832l-1.224-.816a1 1 0 0 0-1.109 0l-2.224 1.483a1 1 0 0 1-1.11 0l-2.223-1.483a1 1 0 0 0-1.11 0L8.221 24.52a1 1 0 0 1-1.109 0l-2.224-1.483a1 1 0 0 0-1.11 0l-1.223.816A1 1 0 0 1 1 23.02V2.556a1 1 0 0 1 1-1zM5.444 8.222H11M15.444 8.222h1.112M5.444 12.667H11M15.444 12.667h1.112M5.444 17.111H11M15.444 17.111h1.112"/>
    </g>
</svg>
