<svg width="30" height="30" viewBox="0 0 30 30" fill="none" xmlns="http://www.w3.org/2000/svg">
<g filter="url(#filter0_d_3679_11803)">
<path d="M20.2419 1.40549C20.9623 2.15747 19.7604 5.05237 19.044 6.59528H10.5409C8.63433 3.08867 8.81441 1.09379 9.08845 0.81716C9.10496 0.800096 9.125 0.786802 9.14718 0.778198C9.69917 0.630141 10.1846 1.19899 10.6583 1.4016C11.0206 1.58479 11.4339 1.64239 11.8328 1.56524C12.1481 1.40631 12.5083 1.35825 12.8546 1.42887C13.2461 1.53017 13.3674 2.00162 13.7472 2.13799C13.9277 2.18918 14.116 2.20766 14.3031 2.19253C14.6743 2.21773 15.0456 2.14516 15.3797 1.98214C15.517 1.85926 15.6477 1.7292 15.7711 1.59251C15.8956 1.49481 16.0445 1.43283 16.2018 1.41328C16.6716 1.30029 17.0356 1.98603 17.4859 1.77953C17.6033 1.72888 17.6777 1.61979 17.7834 1.57303C17.8995 1.53779 18.0235 1.53779 18.1396 1.57303C18.401 1.63537 18.6763 1.56539 18.8756 1.38601C19.0401 1.22237 19.2319 0.813264 19.5881 0.922359C19.8371 1.03709 20.0596 1.20154 20.2419 1.40549Z" fill="url(#paint0_linear_3679_11803)"/>
<path d="M10.5409 6.59521H19.044C18.77 7.18355 18.5664 7.57707 18.5664 7.57707H11.1046C10.8971 7.23809 10.7131 6.91081 10.5409 6.59521Z" fill="#251B7D"/>
<path d="M18.5664 7.57715C23.2642 10.2694 27.0225 17.0567 27.0225 22.2893C27.0225 28.9675 21.5612 30 14.8237 30C8.08625 30 2.625 28.9675 2.625 22.2893C2.625 17.0567 6.40677 10.2694 11.1046 7.57715H18.5664Z" fill="url(#paint1_linear_3679_11803)"/>
<path d="M10.6504 1.4055C10.1767 1.2029 9.69126 0.626253 9.13926 0.782102C9.12192 0.789719 9.10602 0.800264 9.09229 0.813272C9.21514 0.551476 9.42741 0.341599 9.69126 0.221044C9.88492 0.094191 10.1277 0.0667006 10.345 0.147015C10.6537 0.229558 10.973 0.266319 11.2924 0.25611C11.6839 0.205459 12.0754 -0.0439006 12.4669 0.00675051C12.8584 0.0574016 13.2499 0.396374 13.6414 0.396374C14.0329 0.396374 14.4243 0.0340242 14.8472 0.00675051C15.27 -0.0205232 15.6575 0.248317 16.0764 0.31845C16.5854 0.388582 17.0591 0.19377 17.5445 0.108053C17.9715 0.0317218 18.4103 0.0516933 18.8286 0.166496C19.1379 0.25611 19.6938 0.474299 20.2419 1.4055C20.0618 1.20704 19.8435 1.0467 19.5998 0.934055C19.2436 0.824961 19.0517 1.23407 18.8873 1.39771C18.688 1.57709 18.4126 1.64707 18.1513 1.58473C18.0352 1.54949 17.9112 1.54949 17.7951 1.58473C17.6894 1.63148 17.615 1.74058 17.4975 1.79123C17.0473 1.99773 16.6832 1.31199 16.2134 1.42498C16.0562 1.44452 15.9072 1.5065 15.7828 1.60421C15.6593 1.7409 15.5287 1.87096 15.3913 1.99383C15.0573 2.15686 14.6859 2.22943 14.3147 2.20423C14.1276 2.21935 13.9393 2.20088 13.7588 2.14968C13.3673 2.01331 13.246 1.54187 12.8662 1.44057C12.5184 1.36119 12.1538 1.40243 11.8327 1.55745C11.4326 1.64 11.0163 1.58649 10.6504 1.4055Z" fill="#FF7D19"/>
<path d="M16.7655 7.56544C16.7459 8.73431 18.0535 9.58759 18.5781 10.511C19.1027 11.4344 19.1261 12.3773 19.0909 13.3981C19.0909 13.1721 20.1362 12.9734 20.144 12.7357C20.1792 11.711 20.144 10.7565 19.6312 9.84474C19.1183 8.93302 17.799 8.05636 17.8186 6.90308C17.8186 7.12127 16.7694 7.33166 16.7655 7.56544Z" fill="#251B7D"/>
<path d="M17.4193 7.95909C18.4959 7.56947 19.2475 8.41495 19.9757 9.06952C20.2847 9.37735 20.6632 9.60713 21.0797 9.73967C21.5657 9.80984 22.0567 9.84111 22.5478 9.83318C23.5656 9.94228 23.7966 10.7176 24.2312 11.5008C24.6721 12.3918 25.5408 12.9961 26.5331 13.1021C26.4196 13.1021 26.3922 11.9021 26.2591 11.8943C25.3122 11.7973 24.4751 11.2399 24.0237 10.4059C23.5539 9.6072 23.3464 8.75782 22.2776 8.63314C21.2793 8.51625 20.6138 8.63314 19.7956 7.93961C18.9774 7.24608 18.2805 6.33046 17.1531 6.74736C17.0904 6.77074 17.4662 7.9435 17.4232 7.95909H17.4193Z" fill="#251B7D"/>
<path opacity="0.7" d="M11.2389 7.57324C10.3689 8.35417 9.59724 9.23728 8.94092 10.2032C8.94092 10.2032 10.7731 7.95118 11.8066 7.58493L11.2389 7.57324Z" fill="#FF7D19"/>
<path opacity="0.7" d="M13.1507 7.57324H13.4209L12.8884 9.28759L13.1507 7.57324Z" fill="#FF7D19"/>
<path d="M7.51345 13.0006C7.51345 13.0006 7.82664 12.4747 8.18681 11.972C8.27685 11.8474 8.3669 11.7188 8.45302 11.6058L8.70357 11.2941C8.78432 11.1916 8.85758 11.0836 8.92281 10.9707C8.83566 11.0659 8.74144 11.1545 8.64094 11.2356L8.33166 11.4889C8.21813 11.5863 8.1046 11.6915 7.98715 11.7967C7.52128 12.2175 7.08673 12.6812 7.08673 12.6812L6.88707 12.9656C6.76571 13.1487 6.58954 13.4097 6.39771 13.7448C6.20588 14.0799 6.00623 14.4539 5.77916 14.8747C5.5521 15.2955 5.38768 15.7553 5.17627 16.215C4.78478 17.1385 4.47942 18.0774 4.2367 18.7827L3.84521 19.9515L4.32674 18.8099C4.61645 18.1242 5.0001 17.2086 5.43465 16.3202C5.6304 15.8683 5.86921 15.4358 6.1041 15.0384C6.33899 14.641 6.56605 14.2591 6.77746 13.9747C6.98886 13.6903 7.16894 13.4331 7.30205 13.2617L7.51345 13.0006Z" fill="#FF7D19"/>
<path d="M12.4266 5.48095C12.4266 5.48095 12.5636 5.70303 12.6811 5.93681C12.7354 6.04264 12.7824 6.15198 12.822 6.26409C12.8403 6.31416 12.8509 6.36671 12.8533 6.41994C12.8804 6.36871 12.8989 6.31344 12.9081 6.2563C12.9081 6.1511 12.9356 6.01863 12.9434 5.86668C12.9434 5.59394 12.9434 5.31731 12.9434 5.31731C12.9434 5.31731 12.8651 5.1147 12.7398 4.82638C12.6772 4.68612 12.6067 4.51858 12.5284 4.33935C12.4501 4.16012 12.3601 3.96921 12.27 3.77829C12.0899 3.38867 11.9177 3.03021 11.812 2.738C11.7572 2.59384 11.7219 2.46916 11.6945 2.38344L11.6593 2.24707V2.38733C11.6593 2.47695 11.6906 2.60942 11.718 2.77696C11.7767 3.08476 11.8903 3.48997 12.0077 3.88739C12.0664 4.08999 12.1213 4.27701 12.1682 4.47182C12.2152 4.66663 12.2622 4.83807 12.3013 4.98613C12.3875 5.28614 12.4266 5.48095 12.4266 5.48095Z" fill="#FF7D19"/>
<path d="M18.0106 7.81478L17.76 7.2771C17.8624 7.40689 17.987 7.51768 18.128 7.60438C18.3581 7.73046 18.5757 7.87788 18.7779 8.04466C18.5413 7.91502 18.2798 7.83668 18.0106 7.81478Z" fill="#3E48A6"/>
<path d="M17.5367 7.19522C17.3707 7.37711 17.1096 7.43899 16.879 7.35107C16.5424 7.26535 16.7029 6.68481 16.7029 6.68481C16.7029 6.68481 16.511 7.1095 16.5619 7.24587C16.6128 7.38224 16.8438 7.37055 16.8869 7.43679C16.9299 7.50302 17.6111 8.26669 17.6111 8.26669L17.2196 7.61602C17.1374 7.47965 17.2196 7.40951 17.3801 7.39393C17.5407 7.37835 17.5328 7.17574 17.5328 7.17574L17.5367 7.19522Z" fill="#3E48A6"/>
<g style="mix-blend-mode:multiply">
<path d="M18.7972 7.11342C18.6578 6.98813 18.4827 6.90914 18.2961 6.88744C18.4849 6.89184 18.6736 6.8788 18.8599 6.84847L18.7972 7.11342Z" fill="#E9E5D9"/>
</g>
<g style="mix-blend-mode:multiply">
<path d="M17.7599 6.98873C17.893 6.90691 18.4685 7.14458 18.813 7.34329C19.1036 7.52605 19.3797 7.73054 19.6391 7.955C19.2975 7.67684 18.9179 7.44856 18.5116 7.27705C18.0731 7.14848 17.7286 7.09783 17.6503 7.06666C17.572 7.03549 17.7599 6.98873 17.7599 6.98873Z" fill="#E9E5D9"/>
</g>
<g style="mix-blend-mode:multiply">
<path d="M13.7276 7.22267C13.3674 7.26942 11.2181 7.30838 11.2181 7.30838C11.2181 7.30838 12.1107 7.42138 12.6627 7.44086C13.029 7.44248 13.3917 7.36817 13.7276 7.22267Z" fill="#E9E5D9"/>
</g>
<g style="mix-blend-mode:screen">
<path d="M16.7773 6.7356C16.746 6.8369 16.7303 7.18756 16.8908 7.25769C16.854 7.16478 16.8278 7.06807 16.8125 6.96937C16.8072 6.89061 16.7955 6.81243 16.7773 6.7356V6.7356Z" fill="#BC8867"/>
</g>
<path d="M19.2123 12.1552C19.2123 12.1552 19.2123 12.2215 19.2123 12.3228C19.2123 12.4241 19.2123 12.428 19.2123 12.4981C19.2245 12.5625 19.2323 12.6275 19.2358 12.6929C19.2426 12.8146 19.2321 12.9366 19.2045 13.0553C19.1896 13.1096 19.1713 13.163 19.1497 13.215C19.1778 13.166 19.2027 13.1153 19.2241 13.0631C19.2668 12.937 19.2931 12.8061 19.3024 12.6734C19.3063 12.606 19.3063 12.5383 19.3024 12.4708C19.3024 12.4163 19.3024 12.3501 19.3024 12.2994C19.3024 12.2488 19.3024 12.128 19.3024 12.128C19.2854 11.9455 19.2553 11.7646 19.2123 11.5864C19.1715 11.4032 19.1205 11.2224 19.0597 11.0448C19.0283 10.9513 18.997 10.85 18.9579 10.7487L18.9344 10.6162L18.8522 10.4721C18.7935 10.3786 18.7465 10.2812 18.6838 10.1915C18.6212 10.1019 18.5546 10.0201 18.492 9.94218C18.369 9.80505 18.2383 9.67497 18.1005 9.55256C17.8578 9.33047 17.6855 9.198 17.6855 9.198C17.6855 9.198 17.8539 9.33826 18.077 9.58762C18.208 9.71774 18.3309 9.85567 18.445 10.0006C18.5104 10.0812 18.5705 10.1658 18.6251 10.2539C18.6838 10.3396 18.7269 10.4409 18.7817 10.5344C18.8365 10.6279 18.8326 10.6279 18.8522 10.6747L18.9031 10.8266C18.9344 10.9279 18.9657 11.0253 18.9931 11.1227C19.0479 11.3176 19.091 11.5124 19.1223 11.6604C19.1627 11.8233 19.1927 11.9886 19.2123 12.1552Z" fill="#3E48A6"/>
<path d="M21.5925 9.60712C21.5925 9.60712 21.4594 9.60712 21.3224 9.60712C21.2306 9.60607 21.139 9.59825 21.0483 9.58374C21.135 9.61936 21.2239 9.64929 21.3146 9.67335C21.4477 9.70842 21.5847 9.7318 21.5847 9.7318H21.8626C22.0271 9.7318 22.2541 9.7318 22.4616 9.7318C22.6605 9.74385 22.8568 9.78319 23.0449 9.84868C23.131 9.88009 23.2116 9.92479 23.2837 9.98116C23.2143 9.92094 23.1365 9.87107 23.0528 9.8331C22.864 9.74853 22.6633 9.69334 22.4577 9.66946C22.2345 9.63829 22.0153 9.63439 21.8509 9.6266C21.6865 9.61881 21.5925 9.60712 21.5925 9.60712Z" fill="#3E48A6"/>
<path d="M12.1421 6.61466L10.9911 6.66531L12.1381 6.74713L15.8181 6.73155L12.1421 6.61466Z" fill="#3E48A6"/>
<path d="M10.0424 1.29639L10.0972 1.47951C10.1285 1.5964 10.1833 1.76004 10.2264 1.96654C10.274 2.19814 10.308 2.43231 10.3281 2.66786C10.3502 2.92922 10.3855 3.1893 10.4338 3.44711C10.4836 3.69945 10.5624 3.94523 10.6687 4.1796C10.7666 4.40948 10.8606 4.63157 10.9467 4.81859C11.0134 4.97268 11.0722 5.13003 11.1229 5.29003L11.1738 5.47316C11.1738 5.47316 11.1385 5.41471 11.0681 5.31731C10.9976 5.2199 10.9036 5.07574 10.794 4.90041C10.6844 4.72508 10.5435 4.53027 10.4221 4.29649C10.2878 4.05221 10.1902 3.78967 10.1324 3.51724C10.0814 3.24619 10.0564 2.9709 10.058 2.69514C10.058 2.43409 10.058 2.20811 10.058 1.99771C10.058 1.78731 10.058 1.60809 10.058 1.49899L10.0424 1.29639Z" fill="#FF7D19"/>
<g opacity="0.7">
<path d="M12.3482 9.86841L12.1564 10.0827C12.0311 10.2113 11.8628 10.41 11.6553 10.6399C11.4478 10.8697 11.2168 11.1425 10.9702 11.4269C10.7236 11.7113 10.4613 12.0386 10.1872 12.362C9.91318 12.6854 9.69004 13.0049 9.48255 13.3166L8.82876 14.1543C8.64085 14.4036 8.46468 14.5984 8.34723 14.7348L8.15149 14.9452L8.30025 14.6997C8.39813 14.5478 8.5234 14.3101 8.69174 14.0569C8.86008 13.8036 9.03234 13.4802 9.24765 13.1529C9.47138 12.8118 9.71314 12.4828 9.97191 12.1672C10.2381 11.8477 10.5043 11.5321 10.7745 11.2477C11.0446 10.9633 11.3108 10.7178 11.5574 10.5035C11.8041 10.2892 11.9959 10.1372 12.1407 10.0243L12.3482 9.86841Z" fill="#FF7D19"/>
</g>
<path d="M21.4008 26.4198L20.4847 23.6924C20.3836 23.4308 20.1101 23.2774 19.8329 23.3269C19.5557 23.3763 19.3528 23.6147 19.3494 23.895C19.349 23.9628 19.3609 24.0301 19.3846 24.0937L20.285 26.7704C20.3719 27.0438 20.6452 27.2141 20.9302 27.1724C21.2152 27.1308 21.4278 26.8896 21.4321 26.6029C21.4326 26.5421 21.4233 26.4816 21.4047 26.4237L21.4008 26.4198Z" fill="#251B7D"/>
<path d="M23.0529 26.4198L22.5087 24.7951C22.4074 24.5328 22.1328 24.3795 21.8551 24.43C21.5773 24.4805 21.375 24.7206 21.3734 25.0016C21.3736 25.069 21.3842 25.1361 21.4047 25.2003L21.9293 26.7588C22.0113 27.0388 22.2882 27.2157 22.5781 27.1735C22.868 27.1313 23.0823 26.8829 23.0803 26.5913C23.0808 26.5305 23.0715 26.47 23.0529 26.412V26.4198Z" fill="#251B7D"/>
<path d="M23.9297 24.0818L23.8945 24.0116C23.7266 23.766 23.5174 23.5512 23.2759 23.3766C23.1959 23.3139 23.0882 23.299 22.9941 23.3376C22.901 23.3734 22.8329 23.4544 22.814 23.5519C22.7511 23.8486 22.7511 24.1552 22.814 24.4519C22.8269 24.495 22.8439 24.5368 22.8649 24.5766C22.971 24.7612 23.1679 24.8755 23.3816 24.8766C23.4512 24.875 23.52 24.8618 23.5852 24.8376C23.7329 24.7847 23.8519 24.6733 23.9141 24.5298C23.9769 24.388 23.9825 24.2276 23.9297 24.0818Z" fill="#251B7D"/>
<path d="M14.102 9.07886C14.102 9.07886 14.0825 9.14899 14.0629 9.26588C14.0433 9.38276 14.0277 9.5542 14.0042 9.7607C13.9877 9.99858 13.9576 10.2353 13.9141 10.4698C13.8515 10.727 13.7693 10.988 13.691 11.2491C13.6127 11.5101 13.5226 11.7751 13.4326 12.0283C13.3426 12.2816 13.2486 12.4959 13.1742 12.6907C13.0998 12.8855 13.0176 13.0413 12.9706 13.1504L12.8884 13.3219L12.9158 13.1348C12.9393 13.0141 12.9589 12.8387 13.0098 12.64C13.0607 12.4413 13.1037 12.1997 13.1703 11.9504C13.2369 11.701 13.3151 11.44 13.3934 11.1711C13.4717 10.9023 13.5657 10.6451 13.6518 10.3919C13.738 10.1386 13.781 9.92044 13.8358 9.72174C13.8773 9.55675 13.935 9.39623 14.0081 9.2425C14.0361 9.18612 14.0674 9.13147 14.102 9.07886Z" fill="#FF7D19"/>
<path d="M14.1099 12.9227V12.8565C14.1099 12.8137 14.1099 12.7474 14.1334 12.6773C14.1568 12.6072 14.1568 12.5175 14.1803 12.4279C14.2038 12.3383 14.2273 12.2487 14.2547 12.1552C14.2845 12.0636 14.3198 11.9738 14.3604 11.8863C14.3992 11.8087 14.4424 11.7333 14.4896 11.6604C14.5223 11.6061 14.5603 11.5552 14.6031 11.5084L14.654 11.4578V11.5318C14.6573 11.5928 14.6573 11.6539 14.654 11.7149C14.654 11.7889 14.654 11.8786 14.6227 11.9682C14.6048 12.063 14.5812 12.1566 14.5522 12.2487C14.5199 12.3418 14.4819 12.4328 14.4387 12.5214C14.3959 12.5988 14.3475 12.6731 14.2939 12.7435C14.2567 12.7954 14.2133 12.8425 14.1647 12.8838L14.1099 12.9227Z" fill="#FF7D19"/>
<path opacity="0.7" d="M14.5954 7.89478H15.2023C15.1005 9.26101 14.7265 10.5934 14.1022 11.8144C14.1022 11.8144 14.6581 8.76364 14.5954 7.89478Z" fill="#FF7D19"/>
</g>
<defs>
<filter id="filter0_d_3679_11803" x="2.625" y="0" width="24.3975" height="30" filterUnits="userSpaceOnUse" color-interpolation-filters="sRGB">
<feFlood flood-opacity="0" result="BackgroundImageFix"/>
<feColorMatrix in="SourceAlpha" type="matrix" values="0 0 0 0 0 0 0 0 0 0 0 0 0 0 0 0 0 0 127 0" result="hardAlpha"/>
<feOffset/>
<feColorMatrix type="matrix" values="0 0 0 0 0 0 0 0 0 0 0 0 0 0 0 0 0 0 0.16775 0"/>
<feBlend mode="normal" in2="BackgroundImageFix" result="effect1_dropShadow_3679_11803"/>
<feBlend mode="normal" in="SourceGraphic" in2="effect1_dropShadow_3679_11803" result="shape"/>
</filter>
<linearGradient id="paint0_linear_3679_11803" x1="19.1757" y1="6.46503" x2="15.93" y2="-1.08032" gradientUnits="userSpaceOnUse">
<stop offset="0.101039" stop-color="#FF7400"/>
<stop offset="0.905521" stop-color="#FFC28F"/>
</linearGradient>
<linearGradient id="paint1_linear_3679_11803" x1="24.3" y1="29.5" x2="7.64805" y2="8.18751" gradientUnits="userSpaceOnUse">
<stop offset="0.101039" stop-color="#FF7400"/>
<stop offset="0.905521" stop-color="#FFC28F"/>
</linearGradient>
</defs>
</svg>
