<svg xmlns="http://www.w3.org/2000/svg" width="16" height="16" viewBox="0 0 16 16">
    <g fill="#111135" fill-rule="nonzero" transform="matrix(-1 0 0 1 16 0)">
        <path d="M11.217 5.833h-1.8V3.45a.52.52 0 0 0-.517-.517.52.52 0 0 0-.517.517v2.917a.52.52 0 0 0 .517.516h2.317a.52.52 0 0 0 .516-.516.503.503 0 0 0-.516-.534z"/>
        <path d="M15.183 6.367A6.288 6.288 0 0 0 8.9.083a6.288 6.288 0 0 0-6.283 6.284c0 .883.183 1.716.516 2.466l-2.75 4.6a1.625 1.625 0 0 0-.016 1.65c.3.517.833.834 1.416.834h7.634a1.6 1.6 0 0 0 1.416-.834c.3-.516.284-1.133-.016-1.65l-.567-.95c2.817-.616 4.933-3.133 4.933-6.116zm-4.968 8.316a.634.634 0 0 1-.556.317H1.44a.634.634 0 0 1-.556-.952L4.994 7.3c.161-.282.448-.3.556-.3.108 0 .377.035.556.3l4.109 6.748a.63.63 0 0 1 0 .635zM9.737 11.8L6.985 7.152a1.666 1.666 0 0 0-1.444-.83c-.602 0-1.135.311-1.445.83l-.395.639a4.994 4.994 0 0 1-.172-1.348C3.529 3.436 5.953 1 8.929 1c2.975 0 5.4 2.436 5.4 5.426A5.427 5.427 0 0 1 9.737 11.8z"/>
        <circle cx="5.617" cy="13.55" r="1"/>
        <path d="M5.55 9.117a.65.65 0 0 0-.583.7l.216 2.333c.017.2.184.367.384.383a.44.44 0 0 0 .466-.383l.217-2.333V9.7a.65.65 0 0 0-.7-.583z"/>
    </g>
</svg>
