<svg xmlns="http://www.w3.org/2000/svg" width="25" height="25" viewBox="0 0 25 25">
    <g fill="#3E47AC" fill-rule="nonzero">
        <path d="M21.303 3.655A12.39 12.39 0 0 0 12.479 0a12.39 12.39 0 0 0-8.824 3.655A12.39 12.39 0 0 0 0 12.48a12.39 12.39 0 0 0 3.655 8.824 12.39 12.39 0 0 0 8.824 3.655 12.39 12.39 0 0 0 8.824-3.655 12.39 12.39 0 0 0 3.655-8.824 12.39 12.39 0 0 0-3.655-8.824zM20.299 20.3a10.99 10.99 0 0 1-7.82 3.24 10.99 10.99 0 0 1-7.82-3.24C.347 15.987.347 8.971 4.659 4.66a10.99 10.99 0 0 1 7.82-3.24c2.952 0 5.73 1.15 7.82 3.24 4.312 4.312 4.312 11.328 0 15.64z"/>
        <path stroke="#3E47AC" stroke-width=".3" d="M11.109 17.122a.574.574 0 0 1-.412-.174l-3.495-3.576a.605.605 0 0 1 0-.843.573.573 0 0 1 .824 0l3.083 3.155 5.996-7.697a.573.573 0 0 1 .823 0 .605.605 0 0 1 0 .843l-6.407 8.118a.574.574 0 0 1-.412.174z"/>
    </g>
</svg>
