<svg width="24" height="24" viewBox="0 0 24 24" fill="none" xmlns="http://www.w3.org/2000/svg">
<path d="M22 12C22 6.47708 17.5229 2 12 2C6.47722 2 2 6.47708 2 12C2 17.5229 6.47722 22 12 22C17.5229 22 22 17.5229 22 12Z" fill="#C83C3E"/>
<path d="M12.6351 13.6805H11.365C11.1135 13.6805 10.9096 13.4766 10.9096 13.225V7.47501C10.9096 7.22339 11.1135 7.01953 11.365 7.01953H12.6351C12.8866 7.01953 13.0906 7.22339 13.0906 7.47501V13.225C13.0906 13.4766 12.8867 13.6805 12.6351 13.6805Z" fill="white"/>
<path d="M12 17.3041C11.3978 17.3041 10.9096 16.8159 10.9096 16.2137V16.2134C10.9096 15.6113 11.3978 15.123 12 15.123C12.6022 15.123 13.0906 15.6113 13.0906 16.2134V16.2137C13.0906 16.8159 12.6022 17.3041 12 17.3041Z" fill="white"/>
</svg>
