<svg width="16" height="16" viewBox="0 0 16 16" fill="none" xmlns="http://www.w3.org/2000/svg">
<circle cx="8" cy="8" r="8" fill="#C3C8DB"/>
<path fill-rule="evenodd" clip-rule="evenodd" d="M11.9799 4.86801C12.2142 4.6337 12.2142 4.2538 11.9799 4.01949C11.7455 3.78517 11.3656 3.78517 11.1313 4.01949L8.00004 7.15078L4.86875 4.01949C4.63443 3.78517 4.25453 3.78517 4.02022 4.01949C3.7859 4.2538 3.7859 4.6337 4.02022 4.86801L7.15151 7.99931L4.02022 11.1306C3.7859 11.3649 3.7859 11.7448 4.02022 11.9791C4.25453 12.2134 4.63443 12.2134 4.86875 11.9791L8.00004 8.84783L11.1313 11.9791C11.3656 12.2134 11.7455 12.2134 11.9799 11.9791C12.2142 11.7448 12.2142 11.3649 11.9799 11.1306L8.84857 7.99931L11.9799 4.86801Z" fill="white"/>
</svg>
