<svg width="24" height="24" viewBox="0 0 24 24" fill="none" xmlns="http://www.w3.org/2000/svg">
<path fill-rule="evenodd" clip-rule="evenodd" d="M24 12C24 5.37258 18.6274 -8.1423e-07 12 -5.24537e-07C5.37258 -2.34843e-07 -8.1423e-07 5.37258 -5.24537e-07 12C-2.34843e-07 18.6274 5.37258 24 12 24C18.6274 24 24 18.6274 24 12ZM23.25 12C23.25 5.7868 18.2132 0.749999 12 0.749999C5.7868 0.75 0.749999 5.7868 0.749999 12C0.75 18.2132 5.7868 23.25 12 23.25C18.2132 23.25 23.25 18.2132 23.25 12Z" fill="#291482"/>
<path fill-rule="evenodd" clip-rule="evenodd" d="M11.6262 9.15105L6.92353 13.4204C6.74256 13.5853 6.69988 13.8003 6.81085 13.9978C6.88512 14.1294 7.01317 14.2186 7.16255 14.2411C7.32901 14.2677 7.5023 14.2119 7.63888 14.0886C8.6035 13.2137 9.56811 12.3389 10.5319 11.4623L10.6616 11.3449C11.1072 10.9408 11.5528 10.5367 12.0001 10.1276C12.1043 10.2225 12.2084 10.3167 12.3126 10.4108L15.8167 13.5953C16.0122 13.7728 16.206 13.9511 16.4066 14.1227C16.6166 14.3052 16.9393 14.2894 17.1245 14.0886C17.209 13.9986 17.25 13.8919 17.25 13.7845C17.25 13.6528 17.1894 13.5195 17.069 13.4104L12.3877 9.16271C12.31 9.09189 12.1854 8.9969 12.0027 9.00024C11.8678 8.99607 11.7415 9.0469 11.6262 9.15105" fill="#291482"/>
</svg>
