<svg xmlns="http://www.w3.org/2000/svg" width="18" height="14" viewBox="0 0 18 14">
    <g fill="none" fill-rule="evenodd">
        <g fill="#F4A621">
            <g>
                <path d="M9.303 7.265c.095-.1.188-.12.296-.066.055.028.177.112.123.28-.016.047-.033.12 0 .183.035.066.102.087.17.108 1.218.396 1.966 1.482 1.904 2.767-.062 1.328-1.16 2.45-2.497 2.555-1.426.115-2.672-.868-2.91-2.276-.1-.594-.005-1.173.284-1.72.048-.093.11-.153.18-.174.02-.006.04-.009.06-.009.038 0 .076.011.115.032.137.075.167.217.08.381-.55 1.044-.22 2.3.769 2.921.734.462 1.517.488 2.267.075.763-.42 1.16-1.105 1.147-1.98-.013-.882-.431-1.546-1.256-1.982-.048-.027-.12-.06-.211-.059l-.096.005v.221c0 .115-.05.185-.164.227-.106.04-.193.015-.251-.066-.17-.239-.325-.488-.467-.722-.041-.069-.026-.147.044-.233.125-.153.26-.306.412-.468zM9.316 1.3c.224.004.423.07.518.173.12.128.17.291.157.515-.009.183.057.29.23.367.528.238.812.687.82 1.298.012 1.007.01 2.032.006 3.024 0 .363-.002.727-.005 1.097-.172-.096-.338-.178-.523-.236l-.002-.013v-.441c0-.343-.002-.685.004-1.028.001-.064-.005-.146-.06-.203-.057-.056-.137-.064-.208-.064-3.149.003-6.298.003-9.447-.001-.069.009-.15.007-.208.064-.057.057-.064.136-.064.214.003 1.029.003 2.058.003 3.087v1.764c0 .519.335.853.853.853l1.032.001c1.204 0 2.41.001 3.613-.004.105 0 .116.013.134.088.044.175.122.337.203.492H1.44c-.84 0-1.43-.585-1.433-1.421L.001 8.584V6.386c0-.949.004-1.861.01-2.747.002-.597.287-1.043.823-1.291.124-.058.176-.136.178-.271.008-.633.128-.761.744-.761h.033c.371.003.581.213.593.591.01.29.054.334.345.334h1.164l.67.003c.072.001.147-.006.204-.066.056-.06.056-.143.052-.199-.016-.203.018-.346.112-.463.105-.131.226-.195.372-.198.1-.002.196-.003.295-.002.37.002.58.213.592.592.01.289.055.333.346.333h1.164l.67.003c.066.001.147-.006.203-.067.056-.06.056-.143.051-.2-.019-.225.033-.39.163-.52.101-.101.302-.156.531-.157zm-.944 8.28c.136-.065.233.039.289.139l.013.023c.075.134.15.269.22.407.024.047.06.102.126.12.065.018.129-.013.17-.037.199-.124.4-.243.6-.362l.187-.11c.216-.128.3-.057.355.028.043.066.057.137.04.205-.016.073-.065.136-.143.182-.238.144-.478.285-.718.426-.152.089-.303.177-.454.267-.044.025-.08.032-.118.028l-.014-.001-.014.002c-.048.006-.102.003-.155-.093l-.148-.26c-.118-.21-.237-.417-.346-.63-.03-.055-.033-.122-.011-.187.02-.065.067-.12.12-.146zm-.01-6.773c-.192.003-.388.004-.59.005h-.634c-.22 0-.45-.002-.694-.004-.07 0-.149.008-.203.065-.057.06-.058.142-.055.199.012.207-.029.357-.13.472-.198.224-.764.285-1.008.109-.178-.128-.253-.311-.232-.56.006-.061.006-.15-.053-.214-.059-.065-.139-.065-.222-.072-.449.006-.898.006-1.345.004h-.469c-.293 0-.34.048-.344.339 0 .183-.074.352-.198.464-.106.096-.238.138-.383.127-.058-.005-.118-.004-.176-.003h-.109c-.225-.007-.395-.132-.478-.353-.018-.048-.022-.103-.026-.166-.003-.052-.007-.108-.018-.167L.961 2.88l-.13.116c-.197.174-.293.383-.294.638v.457c.002.282.003.564-.004.846-.002.08.004.171.066.234s.152.072.233.072c2.45-.005 4.902-.004 7.347-.005h1.889l.224.001c.066 0 .124-.004.174-.053.037-.037.055-.09.054-.161-.002-.192-.002-.384 0-.576v-.418l-.006-.419c-.007-.27-.123-.49-.347-.655l-.137-.1-.033.271c-.007.063-.013.121-.025.179-.047.223-.166.361-.356.408-.219.054-.44.052-.639-.005-.165-.048-.355-.162-.354-.627 0-.073-.005-.156-.065-.214-.057-.057-.137-.061-.196-.062zm1.061-.896c-.059-.061-.18-.06-.24 0-.048.047-.048.107-.048.151V3c0 .159.09.193.167.194.05 0 .091-.016.12-.045.047-.047.047-.109.047-.153v-.973c-.002-.035-.011-.078-.046-.112zm-7.719-.045c-.054-.008-.099.011-.13.042-.053.048-.052.114-.052.164v.953c.001.021.004.085.054.129.03.026.067.039.113.039h.018c.087-.007.144-.063.15-.156l-.003-.05c.002-.306.002-.611 0-.913l.001-.065c-.006-.083-.064-.138-.15-.143zm3.81 0c-.056-.003-.1.009-.133.04-.053.049-.053.117-.053.165v.95c.001.024.003.086.052.131.03.027.07.041.116.041h.013c.061-.003.16-.032.153-.204v-.978c-.005-.083-.063-.138-.148-.145z" transform="translate(-65.000000, -421.000000) translate(65.000000, 421.000000)"/>
            </g>
        </g>
    </g>
</svg>
