<svg xmlns="http://www.w3.org/2000/svg" width="56" height="55" viewBox="0 0 56 55">
    <g fill="none" fill-rule="evenodd">
        <g fill="#19A784">
            <g>
                <path d="M7.147 13.488c.004-.931.34-1.713 1.106-2.386.107.556.038 1.027.209 1.478.408 1.075 1.28 1.736 2.425 1.772.397.012.797-.027 1.191.01 1.652.153 2.928-1.222 2.945-2.923.01-1.016.027-1.016 1.04-1.016 2.582 0 5.164.018 7.746-.013.59-.007.795.158.744.75-.097 1.11.22 2.075 1.161 2.75 1.214.869 3.894.579 4.873-.527.583-.658.71-1.47.66-2.305-.031-.531.154-.67.671-.666 2.731.024 5.463.03 8.194-.003.602-.008.681.228.68.742-.001 1.712.576 2.707 1.822 3.064.965.276 1.98.26 2.944.024 1.026-.252 1.617-1.02 1.835-2.05.08-.382.104-.775.162-1.228.867.633 1.28 1.47 1.304 2.443.049 1.99.008 3.984.029 5.975.004.424-.182.49-.538.483-.918-.016-1.837-.005-2.756-.005-12.539 0-25.078-.005-37.617.018-.69.002-.866-.183-.849-.86.047-1.841.01-3.685.019-5.527m4.201-4.751V6.873c0-.228-.017-.472.325-.452.316.019.24.267.24.446.006 1.292.007 2.583 0 3.876-.002.177.082.428-.233.451-.338.025-.332-.213-.332-.445V8.737m16.574-2.315c.31.025.233.274.234.453.007 1.293.006 2.585.001 3.877 0 .184.065.425-.247.443-.345.02-.321-.229-.322-.454V8.802 6.863c0-.234-.004-.469.334-.441m16.197-.003c.305 0 .281.216.282.414.003.646.001 1.292.001 1.939 0 .671.002 1.342 0 2.013-.001.199.018.414-.285.411-.299-.002-.287-.212-.288-.413V6.83c0-.202-.008-.41.29-.41M30.18 47.51c-6.607.02-13.214.013-19.82.013-1.96 0-3.212-1.232-3.213-3.19-.005-6.85.005-13.7-.014-20.55-.002-.576.134-.752.734-.751 13.437.019 26.874.019 40.31.005.546 0 .725.126.714.7-.036 1.992-.013 3.986-.013 5.978 0 .293-.058.587.343.714.925.293 1.773.762 2.687 1.282.042-.16.074-.227.074-.294.002-5.953.054-11.907-.022-17.859-.034-2.66-1.24-4.754-3.748-5.875-.593-.264-.758-.556-.727-1.145.049-.917-.123-1.787-.782-2.491-1.051-1.123-4.001-1.168-5.094-.083-.712.707-.896 1.589-.816 2.541.043.524-.137.675-.661.67-2.608-.025-5.216-.011-7.824-.011-1.016 0-1.016 0-1.05-1.002-.063-1.843-1.137-2.906-2.952-2.917-.423-.002-.845 0-1.267.008-.8.015-1.42.384-1.913.997-.537.666-.634 1.45-.57 2.26.042.529-.147.67-.665.665-2.608-.025-5.216-.011-7.824-.011-1.015 0-1.015 0-1.047-1.003-.058-1.837-1.139-2.903-2.953-2.916-2.976-.021-3.706.677-3.747 3.64-.006.412-.137.598-.51.77-2.49 1.142-3.753 3.186-3.768 5.853-.056 10.287-.05 20.574-.01 30.86.015 3.82 2.749 6.44 6.543 6.443 6.979.004 13.958.002 20.937-.003.235 0 .485.073.762-.094-.434-.816-.887-1.624-1.108-2.512-.146-.583-.435-.693-.986-.692" transform="translate(-160.000000, -289.000000) translate(160.000000, 289.000000)"/>
                <path d="M46.766 30.602c-.346-.112-.64-.138-.455-.7.246-.752-.099-1.371-.736-1.695-.686-.347-1.28-.15-1.771.37-.613.649-1.21 1.315-1.778 2.004-.353.428-.535.958-.221 1.472.64 1.048 1.294 2.09 2.01 3.087.363.504.943.66 1.564.432.633-.233.989-.671.98-1.365-.002-.166 0-.332 0-.528.33-.016.538.122.748.232 3.231 1.695 5.013 4.343 5.066 7.994.052 3.56-1.553 6.3-4.672 8.006-3.088 1.69-6.241 1.568-9.24-.304-3.94-2.46-5.378-7.574-3.126-11.818.486-.917.258-1.762-.52-2.18-.778-.419-1.603-.118-2.095.81-1.263 2.377-1.707 4.904-1.255 7.557 1.081 6.339 6.793 10.458 12.87 9.988 5.873-.455 10.77-5.364 11.05-11.219.268-5.596-3.073-10.417-8.419-12.143" transform="translate(-160.000000, -289.000000) translate(160.000000, 289.000000)"/>
                <path d="M39.297 40.281c.662 1.282 1.406 2.521 2.115 3.778.245.434.591.686 1.101.606.291.035.534-.037.774-.178 1.666-.981 3.346-1.94 5.005-2.934.869-.521 1.083-1.45.575-2.235-.463-.717-1.162-.801-2.09-.252-1.123.664-2.254 1.315-3.363 2.001-.337.21-.487.156-.657-.179-.316-.623-.663-1.23-1.007-1.84-.454-.802-1.118-1.078-1.788-.756-.68.326-1.045 1.255-.665 1.99" transform="translate(-160.000000, -289.000000) translate(160.000000, 289.000000)"/>
            </g>
        </g>
    </g>
</svg>
