<svg width="178" height="14" viewBox="0 0 178 14" fill="none" xmlns="http://www.w3.org/2000/svg">
<path d="M9.60043 1.36364V13H8.23679L1.89588 3.86364H1.78225V13H0.373157V1.36364H1.73679L8.10043 10.5227H8.21407V1.36364H9.60043ZM16.1837 13.1818C15.3958 13.1818 14.7045 12.9943 14.1098 12.6193C13.5189 12.2443 13.0568 11.7197 12.7234 11.0455C12.3939 10.3712 12.2291 9.58333 12.2291 8.68182C12.2291 7.77273 12.3939 6.97917 12.7234 6.30114C13.0568 5.62311 13.5189 5.09659 14.1098 4.72159C14.7045 4.34659 15.3958 4.15909 16.1837 4.15909C16.9715 4.15909 17.6609 4.34659 18.2518 4.72159C18.8465 5.09659 19.3087 5.62311 19.6382 6.30114C19.9715 6.97917 20.1382 7.77273 20.1382 8.68182C20.1382 9.58333 19.9715 10.3712 19.6382 11.0455C19.3087 11.7197 18.8465 12.2443 18.2518 12.6193C17.6609 12.9943 16.9715 13.1818 16.1837 13.1818ZM16.1837 11.9773C16.7822 11.9773 17.2746 11.8239 17.6609 11.517C18.0473 11.2102 18.3333 10.8068 18.5189 10.3068C18.7045 9.80682 18.7973 9.26515 18.7973 8.68182C18.7973 8.09848 18.7045 7.55492 18.5189 7.05114C18.3333 6.54735 18.0473 6.14015 17.6609 5.82955C17.2746 5.51894 16.7822 5.36364 16.1837 5.36364C15.5852 5.36364 15.0928 5.51894 14.7064 5.82955C14.32 6.14015 14.034 6.54735 13.8484 7.05114C13.6628 7.55492 13.57 8.09848 13.57 8.68182C13.57 9.26515 13.6628 9.80682 13.8484 10.3068C14.034 10.8068 14.32 11.2102 14.7064 11.517C15.0928 11.8239 15.5852 11.9773 16.1837 11.9773ZM33.6669 6.22727L32.4624 6.56818C32.3866 6.36742 32.2749 6.17235 32.1271 5.98295C31.9832 5.78977 31.7862 5.63068 31.5362 5.50568C31.2862 5.38068 30.9661 5.31818 30.576 5.31818C30.0419 5.31818 29.5968 5.44129 29.2408 5.6875C28.8885 5.92992 28.7124 6.23864 28.7124 6.61364C28.7124 6.94697 28.8336 7.21023 29.076 7.40341C29.3184 7.59659 29.6972 7.75758 30.2124 7.88636L31.5078 8.20455C32.2881 8.39394 32.8696 8.68371 33.2521 9.07386C33.6347 9.46023 33.826 9.95833 33.826 10.5682C33.826 11.0682 33.6821 11.5152 33.3942 11.9091C33.1101 12.303 32.7124 12.6136 32.201 12.8409C31.6896 13.0682 31.0949 13.1818 30.4169 13.1818C29.5268 13.1818 28.79 12.9886 28.2067 12.6023C27.6233 12.2159 27.254 11.6515 27.0987 10.9091L28.3715 10.5909C28.4927 11.0606 28.7218 11.4129 29.059 11.6477C29.3999 11.8826 29.8449 12 30.3942 12C31.0192 12 31.5154 11.8674 31.8828 11.6023C32.254 11.3333 32.4396 11.0114 32.4396 10.6364C32.4396 10.3333 32.3336 10.0795 32.1215 9.875C31.9093 9.66667 31.5836 9.51136 31.1442 9.40909L29.6896 9.06818C28.8904 8.87879 28.3033 8.58523 27.9283 8.1875C27.5571 7.78598 27.3715 7.28409 27.3715 6.68182C27.3715 6.18939 27.5097 5.75379 27.7862 5.375C28.0665 4.99621 28.4472 4.69886 28.9283 4.48295C29.4131 4.26705 29.9624 4.15909 30.576 4.15909C31.4396 4.15909 32.1177 4.34848 32.6101 4.72727C33.1063 5.10606 33.4586 5.60606 33.6669 6.22727ZM39.9036 13.1818C39.0626 13.1818 38.3373 12.9962 37.7274 12.625C37.1214 12.25 36.6536 11.7273 36.324 11.0568C35.9982 10.3826 35.8354 9.59848 35.8354 8.70455C35.8354 7.81061 35.9982 7.02273 36.324 6.34091C36.6536 5.6553 37.1119 5.12121 37.699 4.73864C38.2899 4.35227 38.9793 4.15909 39.7672 4.15909C40.2217 4.15909 40.6706 4.23485 41.1138 4.38636C41.557 4.53788 41.9604 4.78409 42.324 5.125C42.6876 5.46212 42.9774 5.90909 43.1933 6.46591C43.4092 7.02273 43.5172 7.70833 43.5172 8.52273V9.09091H36.7899V7.93182H42.1536C42.1536 7.43939 42.0551 7 41.8581 6.61364C41.6649 6.22727 41.3884 5.92235 41.0286 5.69886C40.6725 5.47538 40.252 5.36364 39.7672 5.36364C39.2331 5.36364 38.771 5.49621 38.3808 5.76136C37.9945 6.02273 37.6971 6.36364 37.4888 6.78409C37.2804 7.20455 37.1763 7.6553 37.1763 8.13636V8.90909C37.1763 9.56818 37.2899 10.1269 37.5172 10.5852C37.7482 11.0398 38.0683 11.3864 38.4774 11.625C38.8865 11.8598 39.3619 11.9773 39.9036 11.9773C40.2558 11.9773 40.574 11.928 40.8581 11.8295C41.146 11.7273 41.3941 11.5758 41.6024 11.375C41.8107 11.1705 41.9717 10.9167 42.0854 10.6136L43.3808 10.9773C43.2445 11.4167 43.0153 11.803 42.6933 12.1364C42.3714 12.4659 41.9736 12.7235 41.5001 12.9091C41.0267 13.0909 40.4945 13.1818 39.9036 13.1818ZM48.5251 13.2045C47.9721 13.2045 47.4702 13.1004 47.0195 12.892C46.5687 12.6799 46.2108 12.375 45.9456 11.9773C45.6804 11.5758 45.5479 11.0909 45.5479 10.5227C45.5479 10.0227 45.6464 9.61742 45.8433 9.30682C46.0403 8.99242 46.3036 8.74621 46.6331 8.56818C46.9626 8.39015 47.3263 8.25758 47.724 8.17045C48.1255 8.07955 48.5289 8.00758 48.9342 7.95455C49.4645 7.88636 49.8945 7.83523 50.224 7.80114C50.5573 7.76326 50.7998 7.70076 50.9513 7.61364C51.1066 7.52652 51.1842 7.375 51.1842 7.15909V7.11364C51.1842 6.55303 51.0308 6.11742 50.724 5.80682C50.421 5.49621 49.9608 5.34091 49.3433 5.34091C48.7032 5.34091 48.2013 5.48106 47.8376 5.76136C47.474 6.04167 47.2183 6.34091 47.0706 6.65909L45.7979 6.20455C46.0251 5.67424 46.3282 5.26136 46.707 4.96591C47.0895 4.66667 47.5062 4.45833 47.957 4.34091C48.4115 4.2197 48.8585 4.15909 49.2979 4.15909C49.5782 4.15909 49.9001 4.19318 50.2638 4.26136C50.6312 4.32576 50.9854 4.46023 51.3263 4.66477C51.671 4.86932 51.957 5.17803 52.1842 5.59091C52.4115 6.00379 52.5251 6.55682 52.5251 7.25V13H51.1842V11.8182H51.1161C51.0251 12.0076 50.8736 12.2102 50.6615 12.4261C50.4494 12.642 50.1672 12.8258 49.8149 12.9773C49.4626 13.1288 49.0327 13.2045 48.5251 13.2045ZM48.7297 12C49.26 12 49.707 11.8958 50.0706 11.6875C50.438 11.4792 50.7145 11.2102 50.9001 10.8807C51.0895 10.5511 51.1842 10.2045 51.1842 9.84091V8.61364C51.1274 8.68182 51.0024 8.74432 50.8092 8.80114C50.6198 8.85417 50.4001 8.90151 50.1501 8.94318C49.9039 8.98106 49.6634 9.01515 49.4286 9.04545C49.1975 9.07197 49.01 9.0947 48.8661 9.11364C48.5176 9.15909 48.1918 9.23295 47.8888 9.33523C47.5895 9.43371 47.3471 9.58333 47.1615 9.78409C46.9797 9.98106 46.8888 10.25 46.8888 10.5909C46.8888 11.0568 47.0611 11.4091 47.4058 11.6477C47.7543 11.8826 48.1956 12 48.7297 12ZM55.3726 13V4.27273H56.668V5.59091H56.759C56.918 5.15909 57.2059 4.80871 57.6226 4.53977C58.0393 4.27083 58.509 4.13636 59.0317 4.13636C59.1302 4.13636 59.2533 4.13826 59.401 4.14205C59.5487 4.14583 59.6605 4.15152 59.7362 4.15909V5.52273C59.6908 5.51136 59.5866 5.49432 59.4237 5.47159C59.2646 5.44508 59.0961 5.43182 58.918 5.43182C58.4938 5.43182 58.115 5.52083 57.7817 5.69886C57.4521 5.87311 57.1908 6.11553 56.9976 6.42614C56.8082 6.73295 56.7135 7.08333 56.7135 7.47727V13H55.3726ZM65.0055 13.1818C64.1874 13.1818 63.4828 12.9886 62.8919 12.6023C62.301 12.2159 61.8465 11.6837 61.5283 11.0057C61.2101 10.3277 61.051 9.55303 61.051 8.68182C61.051 7.79545 61.2139 7.01326 61.5396 6.33523C61.8692 5.65341 62.3275 5.12121 62.9146 4.73864C63.5055 4.35227 64.1949 4.15909 64.9828 4.15909C65.5965 4.15909 66.1495 4.27273 66.6419 4.5C67.1343 4.72727 67.5377 5.04545 67.8521 5.45455C68.1665 5.86364 68.3616 6.34091 68.4374 6.88636H67.0965C66.9942 6.48864 66.7669 6.13636 66.4146 5.82955C66.0662 5.51894 65.5965 5.36364 65.0055 5.36364C64.4828 5.36364 64.0245 5.5 63.6305 5.77273C63.2404 6.04167 62.9355 6.42235 62.7158 6.91477C62.4999 7.40341 62.3919 7.97727 62.3919 8.63636C62.3919 9.31061 62.498 9.89773 62.7101 10.3977C62.926 10.8977 63.229 11.286 63.6192 11.5625C64.0131 11.839 64.4752 11.9773 65.0055 11.9773C65.354 11.9773 65.6703 11.9167 65.9544 11.7955C66.2385 11.6742 66.479 11.5 66.676 11.2727C66.873 11.0455 67.0131 10.7727 67.0965 10.4545H68.4374C68.3616 10.9697 68.1741 11.4337 67.8749 11.8466C67.5794 12.2557 67.1874 12.5814 66.6987 12.8239C66.2139 13.0625 65.6495 13.1818 65.0055 13.1818ZM72.1385 7.75V13H70.7976V1.36364H72.1385V5.63636H72.2521C72.4567 5.18561 72.7635 4.82765 73.1726 4.5625C73.5855 4.29356 74.1347 4.15909 74.8203 4.15909C75.415 4.15909 75.9358 4.27841 76.3828 4.51705C76.8298 4.75189 77.1764 5.11364 77.4226 5.60227C77.6726 6.08712 77.7976 6.70455 77.7976 7.45455V13H76.4567V7.54545C76.4567 6.85227 76.2768 6.31629 75.9169 5.9375C75.5608 5.55492 75.0665 5.36364 74.4339 5.36364C73.9946 5.36364 73.6006 5.45644 73.2521 5.64205C72.9074 5.82765 72.6347 6.09848 72.4339 6.45455C72.237 6.81061 72.1385 7.24242 72.1385 7.75ZM85.5507 13V4.27273H86.8462V5.59091H86.9371C87.0962 5.15909 87.384 4.80871 87.8007 4.53977C88.2174 4.27083 88.6871 4.13636 89.2098 4.13636C89.3083 4.13636 89.4314 4.13826 89.5791 4.14205C89.7268 4.14583 89.8386 4.15152 89.9144 4.15909V5.52273C89.8689 5.51136 89.7647 5.49432 89.6019 5.47159C89.4428 5.44508 89.2742 5.43182 89.0962 5.43182C88.6719 5.43182 88.2931 5.52083 87.9598 5.69886C87.6303 5.87311 87.3689 6.11553 87.1757 6.42614C86.9863 6.73295 86.8916 7.08333 86.8916 7.47727V13H85.5507ZM95.2973 13.1818C94.4564 13.1818 93.731 12.9962 93.1212 12.625C92.5151 12.25 92.0473 11.7273 91.7178 11.0568C91.392 10.3826 91.2291 9.59848 91.2291 8.70455C91.2291 7.81061 91.392 7.02273 91.7178 6.34091C92.0473 5.6553 92.5056 5.12121 93.0928 4.73864C93.6837 4.35227 94.3731 4.15909 95.1609 4.15909C95.6155 4.15909 96.0644 4.23485 96.5075 4.38636C96.9507 4.53788 97.3541 4.78409 97.7178 5.125C98.0814 5.46212 98.3712 5.90909 98.5871 6.46591C98.803 7.02273 98.9109 7.70833 98.9109 8.52273V9.09091H92.1837V7.93182H97.5473C97.5473 7.43939 97.4488 7 97.2519 6.61364C97.0587 6.22727 96.7822 5.92235 96.4223 5.69886C96.0662 5.47538 95.6458 5.36364 95.1609 5.36364C94.6269 5.36364 94.1647 5.49621 93.7746 5.76136C93.3882 6.02273 93.0909 6.36364 92.8825 6.78409C92.6742 7.20455 92.57 7.6553 92.57 8.13636V8.90909C92.57 9.56818 92.6837 10.1269 92.9109 10.5852C93.142 11.0398 93.4621 11.3864 93.8712 11.625C94.2803 11.8598 94.7556 11.9773 95.2973 11.9773C95.6496 11.9773 95.9678 11.928 96.2519 11.8295C96.5397 11.7273 96.7878 11.5758 96.9962 11.375C97.2045 11.1705 97.3655 10.9167 97.4791 10.6136L98.7746 10.9773C98.6382 11.4167 98.409 11.803 98.0871 12.1364C97.7651 12.4659 97.3674 12.7235 96.8939 12.9091C96.4204 13.0909 95.8882 13.1818 95.2973 13.1818ZM107.533 6.22727L106.328 6.56818C106.252 6.36742 106.14 6.17235 105.993 5.98295C105.849 5.78977 105.652 5.63068 105.402 5.50568C105.152 5.38068 104.832 5.31818 104.442 5.31818C103.908 5.31818 103.462 5.44129 103.106 5.6875C102.754 5.92992 102.578 6.23864 102.578 6.61364C102.578 6.94697 102.699 7.21023 102.942 7.40341C103.184 7.59659 103.563 7.75758 104.078 7.88636L105.373 8.20455C106.154 8.39394 106.735 8.68371 107.118 9.07386C107.5 9.46023 107.692 9.95833 107.692 10.5682C107.692 11.0682 107.548 11.5152 107.26 11.9091C106.976 12.303 106.578 12.6136 106.067 12.8409C105.555 13.0682 104.961 13.1818 104.283 13.1818C103.392 13.1818 102.656 12.9886 102.072 12.6023C101.489 12.2159 101.12 11.6515 100.964 10.9091L102.237 10.5909C102.358 11.0606 102.587 11.4129 102.925 11.6477C103.265 11.8826 103.711 12 104.26 12C104.885 12 105.381 11.8674 105.748 11.6023C106.12 11.3333 106.305 11.0114 106.305 10.6364C106.305 10.3333 106.199 10.0795 105.987 9.875C105.775 9.66667 105.449 9.51136 105.01 9.40909L103.555 9.06818C102.756 8.87879 102.169 8.58523 101.794 8.1875C101.423 7.78598 101.237 7.28409 101.237 6.68182C101.237 6.18939 101.375 5.75379 101.652 5.375C101.932 4.99621 102.313 4.69886 102.794 4.48295C103.279 4.26705 103.828 4.15909 104.442 4.15909C105.305 4.15909 105.983 4.34848 106.476 4.72727C106.972 5.10606 107.324 5.60606 107.533 6.22727ZM115.61 9.43182V4.27273H116.951V13H115.61V11.5227H115.519C115.315 11.9659 114.996 12.3428 114.565 12.6534C114.133 12.9602 113.587 13.1136 112.928 13.1136C112.383 13.1136 111.898 12.9943 111.474 12.7557C111.049 12.5133 110.716 12.1496 110.474 11.6648C110.231 11.1761 110.11 10.5606 110.11 9.81818V4.27273H111.451V9.72727C111.451 10.3636 111.629 10.8712 111.985 11.25C112.345 11.6288 112.803 11.8182 113.36 11.8182C113.693 11.8182 114.032 11.733 114.377 11.5625C114.726 11.392 115.017 11.1307 115.252 10.7784C115.491 10.4261 115.61 9.97727 115.61 9.43182ZM121.148 1.36364V13H119.807V1.36364H121.148ZM127.799 4.27273V5.40909H123.277V4.27273H127.799ZM124.595 2.18182H125.936V10.5C125.936 10.8788 125.991 11.1629 126.1 11.3523C126.214 11.5379 126.358 11.6629 126.532 11.7273C126.71 11.7879 126.898 11.8182 127.095 11.8182C127.242 11.8182 127.364 11.8106 127.458 11.7955C127.553 11.7765 127.629 11.7614 127.686 11.75L127.958 12.9545C127.867 12.9886 127.741 13.0227 127.578 13.0568C127.415 13.0947 127.208 13.1136 126.958 13.1136C126.58 13.1136 126.208 13.0322 125.845 12.8693C125.485 12.7064 125.186 12.4583 124.947 12.125C124.712 11.7917 124.595 11.3712 124.595 10.8636V2.18182ZM139.003 4.27273V5.40909H134.298V4.27273H139.003ZM135.707 13V3.06818C135.707 2.56818 135.825 2.15151 136.06 1.81818C136.294 1.48485 136.599 1.23485 136.974 1.06818C137.349 0.901514 137.745 0.818181 138.162 0.818181C138.491 0.818181 138.76 0.844696 138.969 0.897727C139.177 0.950757 139.332 0.999999 139.435 1.04545L139.048 2.20455C138.98 2.18182 138.885 2.15341 138.764 2.11932C138.647 2.08523 138.491 2.06818 138.298 2.06818C137.855 2.06818 137.535 2.17992 137.338 2.40341C137.145 2.62689 137.048 2.95455 137.048 3.38636V13H135.707ZM144.468 13.1818C143.68 13.1818 142.989 12.9943 142.394 12.6193C141.803 12.2443 141.341 11.7197 141.008 11.0455C140.678 10.3712 140.513 9.58333 140.513 8.68182C140.513 7.77273 140.678 6.97917 141.008 6.30114C141.341 5.62311 141.803 5.09659 142.394 4.72159C142.989 4.34659 143.68 4.15909 144.468 4.15909C145.256 4.15909 145.945 4.34659 146.536 4.72159C147.131 5.09659 147.593 5.62311 147.923 6.30114C148.256 6.97917 148.423 7.77273 148.423 8.68182C148.423 9.58333 148.256 10.3712 147.923 11.0455C147.593 11.7197 147.131 12.2443 146.536 12.6193C145.945 12.9943 145.256 13.1818 144.468 13.1818ZM144.468 11.9773C145.067 11.9773 145.559 11.8239 145.945 11.517C146.332 11.2102 146.618 10.8068 146.803 10.3068C146.989 9.80682 147.082 9.26515 147.082 8.68182C147.082 8.09848 146.989 7.55492 146.803 7.05114C146.618 6.54735 146.332 6.14015 145.945 5.82955C145.559 5.51894 145.067 5.36364 144.468 5.36364C143.87 5.36364 143.377 5.51894 142.991 5.82955C142.604 6.14015 142.318 6.54735 142.133 7.05114C141.947 7.55492 141.854 8.09848 141.854 8.68182C141.854 9.26515 141.947 9.80682 142.133 10.3068C142.318 10.8068 142.604 11.2102 142.991 11.517C143.377 11.8239 143.87 11.9773 144.468 11.9773ZM156.369 9.43182V4.27273H157.71V13H156.369V11.5227H156.279C156.074 11.9659 155.756 12.3428 155.324 12.6534C154.892 12.9602 154.347 13.1136 153.688 13.1136C153.142 13.1136 152.657 12.9943 152.233 12.7557C151.809 12.5133 151.476 12.1496 151.233 11.6648C150.991 11.1761 150.869 10.5606 150.869 9.81818V4.27273H152.21V9.72727C152.21 10.3636 152.388 10.8712 152.744 11.25C153.104 11.6288 153.563 11.8182 154.119 11.8182C154.453 11.8182 154.792 11.733 155.137 11.5625C155.485 11.392 155.777 11.1307 156.012 10.7784C156.25 10.4261 156.369 9.97727 156.369 9.43182ZM161.907 7.75V13H160.566V4.27273H161.862V5.63636H161.975C162.18 5.19318 162.491 4.83712 162.907 4.56818C163.324 4.29545 163.862 4.15909 164.521 4.15909C165.112 4.15909 165.629 4.2803 166.072 4.52273C166.515 4.76136 166.86 5.125 167.106 5.61364C167.352 6.09848 167.475 6.71212 167.475 7.45455V13H166.135V7.54545C166.135 6.85985 165.956 6.32576 165.6 5.94318C165.244 5.55682 164.756 5.36364 164.135 5.36364C163.706 5.36364 163.324 5.45644 162.987 5.64205C162.653 5.82765 162.39 6.09848 162.197 6.45455C162.004 6.81061 161.907 7.24242 161.907 7.75ZM173.621 13.1818C172.894 13.1818 172.252 12.9981 171.695 12.6307C171.138 12.2595 170.703 11.7367 170.388 11.0625C170.074 10.3845 169.917 9.58333 169.917 8.65909C169.917 7.74242 170.074 6.94697 170.388 6.27273C170.703 5.59848 171.14 5.07765 171.701 4.71023C172.261 4.3428 172.909 4.15909 173.644 4.15909C174.212 4.15909 174.661 4.25379 174.99 4.44318C175.324 4.62879 175.578 4.84091 175.752 5.07955C175.93 5.31439 176.068 5.50758 176.167 5.65909H176.28V1.36364H177.621V13H176.326V11.6591H176.167C176.068 11.8182 175.928 12.0189 175.746 12.2614C175.564 12.5 175.305 12.714 174.968 12.9034C174.631 13.089 174.182 13.1818 173.621 13.1818ZM173.803 11.9773C174.341 11.9773 174.795 11.8371 175.167 11.5568C175.538 11.2727 175.82 10.8807 176.013 10.3807C176.206 9.87689 176.303 9.29545 176.303 8.63636C176.303 7.98485 176.208 7.41477 176.019 6.92614C175.829 6.43371 175.549 6.05114 175.178 5.77841C174.807 5.50189 174.348 5.36364 173.803 5.36364C173.235 5.36364 172.761 5.50947 172.383 5.80114C172.008 6.08902 171.725 6.48106 171.536 6.97727C171.35 7.4697 171.258 8.02273 171.258 8.63636C171.258 9.25758 171.352 9.82197 171.542 10.3295C171.735 10.8333 172.019 11.2348 172.394 11.5341C172.773 11.8295 173.242 11.9773 173.803 11.9773Z" fill="#C3C8DB"/>
</svg>
