<svg width="24" height="24" viewBox="0 0 24 24" fill="none" xmlns="http://www.w3.org/2000/svg">
<path d="M16.2651 1.11291C16.8314 1.70639 15.8858 3.99665 15.3221 5.21499H8.62825C7.12808 2.43321 7.27064 0.865844 7.48776 0.646229C7.48776 0.644922 7.48906 0.644922 7.48906 0.643615C7.50214 0.63185 7.51391 0.624007 7.52568 0.621392C7.96122 0.502434 8.34312 0.950814 8.71457 1.11291C8.98792 1.23187 9.35021 1.33383 9.64579 1.24363C9.95577 1.1469 10.1245 1.04493 10.4488 1.13383C10.7497 1.21487 10.8517 1.58743 11.1525 1.69593C11.2911 1.74561 11.4429 1.74299 11.5906 1.73907C11.8718 1.73254 12.191 1.726 12.4369 1.57175C12.5598 1.49462 12.6396 1.36913 12.7534 1.27631C12.8711 1.17958 12.9561 1.16912 13.0934 1.13513C13.4636 1.04493 13.7487 1.58743 14.1031 1.42534C14.1947 1.38481 14.2548 1.29854 14.3372 1.26063C14.4223 1.22272 14.5243 1.23971 14.6184 1.25409C14.8526 1.28939 15.0579 1.25017 15.1978 1.10768C15.326 0.978265 15.4777 0.65538 15.7576 0.74035C15.976 0.805711 16.1278 1.00702 16.2651 1.11291Z" fill="url(#paint0_linear_3021_132045)"/>
<path d="M8.62793 5.21484H15.3205C15.1047 5.68022 14.9451 5.99003 14.9451 5.99003H9.07131C8.90913 5.72205 8.76264 5.46322 8.62793 5.21484Z" fill="#291482"/>
<path d="M9.08007 6.02223H14.9367C16.7749 7.08342 18.4321 8.94927 19.6303 11.0671C20.8302 13.1877 21.5679 15.5576 21.5679 17.6193C21.5679 18.9346 21.3003 19.9694 20.8182 20.7821C20.3362 21.5947 19.6385 22.1877 18.7745 22.6173C17.0448 23.4774 14.6516 23.6816 11.9999 23.6816C9.34884 23.6816 6.95568 23.4774 5.22581 22.6173C4.36174 22.1877 3.6639 21.5947 3.1818 20.7821C2.6996 19.9694 2.4319 18.9346 2.4319 17.6193C2.4319 15.5576 3.17386 13.1875 4.37798 11.0666C5.58048 8.94865 7.2419 7.08278 9.08007 6.02223Z" fill="url(#paint1_linear_3021_132045)" stroke="#DEDEDE" stroke-width="0.064"/>
<path d="M8.71427 1.11306C8.34283 0.95227 7.96092 0.503891 7.52539 0.621542C7.51362 0.625463 7.50185 0.631999 7.48877 0.643764C7.63395 0.383626 7.73727 0.29212 7.95961 0.177084C8.18327 0.0620482 8.22773 0.0685844 8.47362 0.115645C8.72081 0.162705 8.96931 0.231988 9.22043 0.201922C9.53694 0.164012 9.83384 -0.0320721 10.1504 0.00453023C10.4812 0.0411326 10.7546 0.326108 11.0881 0.327415C11.4256 0.328723 11.7028 0.0411326 12.0377 0.00845191C12.3712 -0.0242288 12.6733 0.200614 13.0029 0.255518C13.3835 0.318265 13.7602 0.153554 14.1408 0.0855783C14.4756 0.0254459 14.8248 0.0424398 15.1531 0.133946C15.3963 0.201922 15.8332 0.375783 16.2648 1.11175C16.1275 1.00587 15.9771 0.804554 15.7586 0.739192C15.4787 0.654222 15.327 0.977108 15.1989 1.10652C15.0576 1.25032 14.8536 1.28954 14.6195 1.25293C14.5253 1.23855 14.4233 1.22025 14.3383 1.25947C14.2559 1.29738 14.1957 1.38366 14.1041 1.42418C13.7497 1.58497 13.4646 1.04378 13.0944 1.13397C12.9571 1.16796 12.8721 1.17842 12.7544 1.27516C12.6406 1.36797 12.5608 1.49216 12.4379 1.57059C12.192 1.72484 11.8715 1.73138 11.5917 1.73791C11.4452 1.74184 11.2921 1.74445 11.1535 1.69478C10.8527 1.58628 10.7507 1.21372 10.4499 1.13267C10.1242 1.04378 9.95547 1.14574 9.64681 1.24247C9.35122 1.33398 8.98893 1.23071 8.71427 1.11306Z" fill="#251B7D"/>
<path d="M8.71427 1.11306C8.34283 0.95227 7.96092 0.503891 7.52539 0.621542C7.51362 0.625463 7.50185 0.631999 7.48877 0.643764C7.63395 0.383626 7.73727 0.29212 7.95961 0.177084C8.18327 0.0620482 8.22773 0.0685844 8.47362 0.115645C8.72081 0.162705 8.96931 0.231988 9.22043 0.201922C9.53694 0.164012 9.83384 -0.0320721 10.1504 0.00453023C10.4812 0.0411326 10.7546 0.326108 11.0881 0.327415C11.4256 0.328723 11.7028 0.0411326 12.0377 0.00845191C12.3712 -0.0242288 12.6733 0.200614 13.0029 0.255518C13.3835 0.318265 13.7602 0.153554 14.1408 0.0855783C14.4756 0.0254459 14.8248 0.0424398 15.1531 0.133946C15.3963 0.201922 15.8332 0.375783 16.2648 1.11175C16.1275 1.00587 15.9771 0.804554 15.7586 0.739192C15.4787 0.654222 15.327 0.977108 15.1989 1.10652C15.0576 1.25032 14.8536 1.28954 14.6195 1.25293C14.5253 1.23855 14.4233 1.22025 14.3383 1.25947C14.2559 1.29738 14.1957 1.38366 14.1041 1.42418C13.7497 1.58497 13.4646 1.04378 13.0944 1.13397C12.9571 1.16796 12.8721 1.17842 12.7544 1.27516C12.6406 1.36797 12.5608 1.49216 12.4379 1.57059C12.192 1.72484 11.8715 1.73138 11.5917 1.73791C11.4452 1.74184 11.2921 1.74445 11.1535 1.69478C10.8527 1.58628 10.7507 1.21372 10.4499 1.13267C10.1242 1.04378 9.95547 1.14574 9.64681 1.24247C9.35122 1.33398 8.98893 1.23071 8.71427 1.11306Z" fill="#DEDEDE"/>
<path d="M13.5275 5.98254C13.5118 6.89367 14.5411 7.57866 14.9557 8.3094C15.3638 9.02838 15.386 9.78395 15.3599 10.5918C15.3664 10.414 16.1826 10.2572 16.1878 10.0663C16.2153 9.25845 16.193 8.50287 15.7837 7.7839C15.369 7.05446 14.341 6.36948 14.3554 5.45703C14.3528 5.63089 13.5301 5.79691 13.5275 5.98254Z" fill="#251B7D"/>
<path d="M14.0428 6.29171C14.8903 5.97667 15.4789 6.6525 16.0531 7.17017C16.3068 7.39893 16.5854 7.61854 16.9215 7.71005C17.2995 7.81201 17.6919 7.73881 18.0764 7.78195C18.8794 7.87084 19.0586 8.48393 19.4026 9.10094C19.7884 9.79508 20.4058 10.301 21.214 10.3676C21.1238 10.3598 21.1042 9.4199 20.9995 9.41075C20.2318 9.34801 19.621 8.88525 19.2378 8.22771C18.8677 7.59501 18.7029 6.9231 17.8632 6.82506C17.0771 6.73355 16.554 6.83552 15.9092 6.27733C15.3062 5.75444 14.7177 5.0054 13.8283 5.33482C13.7812 5.35312 14.0781 6.27864 14.0428 6.29171Z" fill="#291482"/>
<path d="M9.20765 5.97007C9.20765 5.97007 8.19533 6.90343 7.45898 8.09824C7.45898 8.09824 8.84928 6.27989 9.65495 5.96484L9.20765 5.97007Z" fill="#DEDEDE"/>
<path d="M10.3715 5.98828H10.586L10.1675 7.34388L10.3715 5.98828Z" fill="#DEDEDE"/>
<path d="M5.62372 10.2772C5.62372 10.2772 5.87092 9.86145 6.15473 9.46405C6.22536 9.36471 6.29729 9.26405 6.3653 9.17516C6.43724 9.08496 6.50394 8.99999 6.56018 8.92809C6.67528 8.78168 6.73282 8.67188 6.73282 8.67188C6.73282 8.67188 6.65304 8.766 6.51179 8.88234C6.44116 8.94116 6.35746 9.00914 6.26852 9.08234C6.17827 9.15816 6.08672 9.24052 5.99517 9.32418C5.62765 9.65752 5.28628 10.0222 5.28628 10.0222C5.28628 10.0222 5.23004 10.1046 5.13064 10.2471C5.03255 10.3909 4.89653 10.6 4.7435 10.8549C4.59048 11.1112 4.42307 11.4157 4.25827 11.7491C4.09348 12.0824 3.93261 12.4432 3.78481 12.8079C3.48661 13.5374 3.23419 14.2812 3.04454 14.8368C2.85489 15.3936 2.72803 15.7636 2.72803 15.7636C2.72803 15.7636 2.87974 15.4028 3.10732 14.8603C3.33489 14.3178 3.63571 13.5949 3.97838 12.8942C4.14972 12.5439 4.33152 12.2001 4.51462 11.885C4.69642 11.57 4.87953 11.285 5.04432 11.0471C5.20912 10.8092 5.3556 10.617 5.45893 10.4837C5.56356 10.353 5.62372 10.2772 5.62372 10.2772Z" fill="#DEDEDE"/>
<path d="M9.49261 4.33488C9.49261 4.33488 9.59986 4.50874 9.6901 4.69306C9.73457 4.78457 9.77904 4.8813 9.80389 4.95189C9.82874 5.02379 9.82874 5.07739 9.82874 5.07739C9.82874 5.07739 9.8549 5.03033 9.86928 4.94797C9.88367 4.86561 9.89021 4.76104 9.89675 4.65254C9.90721 4.43554 9.89675 4.21854 9.89675 4.21854C9.89675 4.21854 9.83789 4.05906 9.73849 3.83029C9.68879 3.71787 9.63125 3.58584 9.56977 3.44466C9.5083 3.30086 9.43768 3.15053 9.36705 3.00282C9.2258 2.70607 9.08977 2.41064 9.00738 2.18057C8.96422 2.06553 8.93544 1.96749 8.91452 1.89952C8.89621 1.83023 8.88574 1.79102 8.88574 1.79102C8.88574 1.79102 8.88967 1.83154 8.89751 1.90344C8.90667 1.97533 8.91975 2.0773 8.9446 2.19887C8.99037 2.44201 9.07931 2.76229 9.17086 3.07733C9.21664 3.2355 9.26111 3.39106 9.29773 3.53878C9.33566 3.6878 9.37228 3.82637 9.40236 3.94663C9.46253 4.17932 9.49261 4.33488 9.49261 4.33488Z" fill="#DEDEDE"/>
<path d="M14.5084 6.17745L14.3135 5.75391C14.3135 5.75391 14.4325 5.91339 14.6025 6.01274C14.7726 6.11209 15.0407 6.2768 15.1152 6.36177C15.1152 6.36177 14.7974 6.18268 14.5084 6.17745Z" fill="#1B2877"/>
<path d="M14.1346 5.68909C14.1045 5.77537 13.8848 5.87994 13.6193 5.81197C13.3538 5.7453 13.4806 5.28516 13.4806 5.28516C13.4806 5.28516 13.3276 5.62111 13.3682 5.72961C13.4087 5.83811 13.5892 5.82635 13.6219 5.87864C13.6559 5.93093 14.1935 6.53617 14.1935 6.53617C14.1935 6.53617 13.9541 6.12963 13.8913 6.02113C13.8272 5.91263 13.9057 5.85641 14.0182 5.84596C14.1307 5.83419 14.1372 5.67471 14.1372 5.67471L14.1346 5.68909Z" fill="#1B2877"/>
<path d="M15.1282 5.62517C15.1282 5.62517 14.953 5.45654 14.7319 5.44608C14.7319 5.44608 15.1282 5.44608 15.1766 5.41602L15.1282 5.62517Z" fill="#1B2877"/>
<path d="M14.2951 5.52464C14.3997 5.46058 14.8523 5.64752 15.1243 5.80438C15.3976 5.96125 15.7743 6.28936 15.7743 6.28936C15.7743 6.28936 15.2289 5.85275 14.885 5.75209C14.541 5.65144 14.2715 5.60961 14.2088 5.58738C14.1447 5.56516 14.2951 5.52464 14.2951 5.52464Z" fill="#1B2877"/>
<path d="M11.1367 5.71094C10.8529 5.74885 9.16309 5.77761 9.16309 5.77761C9.16309 5.77761 9.86543 5.8678 10.2997 5.88218C10.7339 5.89656 11.1367 5.71094 11.1367 5.71094Z" fill="#1B2877"/>
<path d="M13.5369 5.32617C13.512 5.40591 13.5015 5.68435 13.6271 5.73926C13.6271 5.73926 13.5669 5.57455 13.5669 5.51049C13.5669 5.44513 13.5369 5.32617 13.5369 5.32617Z" fill="#1B2877"/>
<path d="M15.454 9.6121C15.454 9.6121 15.4619 9.66439 15.4697 9.74282C15.4736 9.78334 15.4763 9.82518 15.4789 9.88008C15.488 9.93106 15.4933 9.98074 15.4959 10.0343C15.5024 10.1389 15.4906 10.2448 15.471 10.3219C15.4527 10.399 15.4305 10.4487 15.4305 10.4487C15.4305 10.4487 15.4579 10.403 15.4867 10.3272C15.5155 10.2513 15.5416 10.1454 15.5482 10.0356C15.5521 9.98204 15.5521 9.92453 15.5508 9.87616C15.5547 9.83171 15.5573 9.77942 15.5587 9.74021C15.5613 9.65916 15.56 9.60425 15.56 9.60425C15.56 9.60425 15.5469 9.42909 15.4893 9.17679C15.4606 9.04999 15.42 8.90489 15.3703 8.75064C15.3455 8.67351 15.318 8.59508 15.2892 8.51533C15.2748 8.47481 15.2591 8.43429 15.2434 8.39376C15.2251 8.35324 15.2016 8.31794 15.1807 8.28003C15.1362 8.20683 15.097 8.1284 15.0473 8.05911C14.9989 7.98983 14.9479 7.92316 14.8955 7.86172C14.7922 7.73753 14.685 7.63165 14.5908 7.54406C14.4012 7.3702 14.2651 7.26562 14.2651 7.26562C14.2651 7.26562 14.3972 7.37543 14.579 7.55583C14.6693 7.64603 14.7713 7.75584 14.8694 7.88264C14.9178 7.94538 14.9662 8.01336 15.0106 8.08395C15.0564 8.15323 15.0917 8.23167 15.1336 8.30487C15.1532 8.34278 15.1754 8.37938 15.1911 8.41729C15.2042 8.45651 15.2173 8.49703 15.2304 8.53625C15.2552 8.61599 15.2801 8.69573 15.301 8.77155C15.3442 8.9245 15.3782 9.0696 15.4017 9.19509C15.4475 9.44347 15.454 9.6121 15.454 9.6121Z" fill="#251B7D"/>
<path d="M17.3271 7.5964C17.3271 7.5964 17.2212 7.60555 17.1139 7.60293C17.0067 7.60293 16.8994 7.58594 16.8994 7.58594C16.8994 7.58594 17.0001 7.62908 17.1061 7.65522C17.212 7.68398 17.3219 7.70097 17.3219 7.70097C17.3219 7.70097 17.4095 7.70228 17.539 7.69836C17.6685 7.69574 17.8411 7.68529 18.0098 7.69574C18.1799 7.70751 18.3486 7.7428 18.4676 7.78987C18.5879 7.83562 18.6546 7.89183 18.6546 7.89183C18.6546 7.89183 18.5918 7.83039 18.4741 7.77418C18.3564 7.71666 18.1877 7.66699 18.0151 7.64346C17.8411 7.61993 17.6685 7.616 17.539 7.60947C17.4121 7.60424 17.3271 7.5964 17.3271 7.5964Z" fill="#251B7D"/>
<path d="M9.88895 5.22987L8.98389 5.27039L9.88503 5.33445L12.7807 5.32268L9.88895 5.22987Z" fill="#1B2877"/>
<path d="M7.61574 1.02734C7.61574 1.02734 7.63143 1.07963 7.6589 1.17114C7.68114 1.26395 7.7256 1.39337 7.7583 1.55416C7.791 1.71233 7.82893 1.90972 7.84462 2.10973C7.86686 2.30973 7.88517 2.5215 7.92964 2.72413C7.96626 2.92936 8.03427 3.11891 8.11143 3.30323C8.18991 3.48624 8.26315 3.66141 8.33116 3.80912C8.39917 3.95815 8.43972 4.09018 8.47242 4.18038C8.49857 4.27319 8.51296 4.32679 8.51296 4.32679C8.51296 4.32679 8.48419 4.27973 8.43056 4.20129C8.38086 4.12024 8.29846 4.01174 8.21214 3.87318C8.12582 3.73461 8.01465 3.57905 7.91917 3.39343C7.81977 3.21172 7.73737 2.9908 7.69291 2.76988C7.65105 2.54765 7.63536 2.32542 7.63274 2.12019C7.63143 1.91364 7.63536 1.73325 7.62359 1.56984C7.61312 1.40775 7.61574 1.27049 7.61182 1.17506C7.61574 1.08225 7.61574 1.02734 7.61574 1.02734Z" fill="#DEDEDE"/>
<path d="M9.17095 6.4668C9.17095 6.4668 9.11602 6.52824 9.02054 6.63412C8.92245 6.73739 8.79035 6.89426 8.62686 7.07466C8.46337 7.25506 8.28288 7.47467 8.08801 7.70736C7.89444 7.94135 7.68779 8.19103 7.48506 8.44594C7.27711 8.69823 7.08092 8.94922 6.90043 9.19498C6.71994 9.43813 6.5473 9.66951 6.40081 9.86428C6.25433 10.0617 6.11569 10.2146 6.02283 10.3231C5.92343 10.4277 5.86719 10.4865 5.86719 10.4865C5.86719 10.4865 5.91166 10.4172 5.9849 10.2944C6.06206 10.1741 6.16016 9.99501 6.28833 9.78716C6.41651 9.57931 6.55514 9.32963 6.72517 9.0721C6.88997 8.81196 7.09269 8.5479 7.29672 8.29299C7.50468 8.03939 7.71656 7.78971 7.92844 7.56618C8.13771 7.34133 8.34959 7.14525 8.53138 6.97923C8.71318 6.81191 8.87798 6.68903 8.99046 6.60013C9.10424 6.51516 9.17095 6.4668 9.17095 6.4668Z" fill="#DEDEDE"/>
<path d="M10.6659 6.15234C10.6659 6.15234 10.6515 6.20594 10.6358 6.30006C10.6162 6.39287 10.607 6.52752 10.5887 6.68961C10.5691 6.8504 10.5626 7.04257 10.5168 7.25172C10.4684 7.45303 10.4043 7.65958 10.3415 7.87004C10.2748 8.07789 10.2081 8.28574 10.1375 8.4779C10.0695 8.67137 9.99362 8.84785 9.93476 9.00079C9.87591 9.15374 9.81313 9.27662 9.7752 9.3642C9.73204 9.45048 9.7085 9.50015 9.7085 9.50015C9.7085 9.50015 9.71634 9.44525 9.73073 9.34982C9.75035 9.2557 9.76735 9.11844 9.80528 8.96027C9.84321 8.80079 9.87983 8.61385 9.93346 8.41646C9.98446 8.21907 10.0472 8.01122 10.1087 7.80206C10.1754 7.59552 10.2434 7.38767 10.3101 7.19682C10.3664 7.00988 10.4135 6.82426 10.4553 6.66478C10.4959 6.50399 10.5521 6.37457 10.5913 6.28699C10.6358 6.1981 10.6659 6.15234 10.6659 6.15234Z" fill="#DEDEDE"/>
<path d="M10.8149 10.2168C10.8149 10.2168 10.8162 10.1959 10.8189 10.1593C10.8254 10.1253 10.8254 10.0717 10.8372 10.0155C10.8503 9.95931 10.8555 9.89002 10.8738 9.82074C10.8882 9.75015 10.9117 9.67825 10.9327 9.60374C10.9588 9.53184 10.9837 9.45733 11.0164 9.39066C11.0464 9.32268 11.087 9.26386 11.1158 9.21157C11.1445 9.15928 11.1851 9.12137 11.206 9.09261C11.2322 9.06647 11.2479 9.05078 11.2479 9.05078C11.2479 9.05078 11.2492 9.0717 11.2505 9.10961C11.2479 9.1449 11.2531 9.1985 11.2452 9.25602C11.2361 9.31353 11.2348 9.38412 11.2191 9.45602C11.2073 9.52792 11.1851 9.60243 11.1628 9.67825C11.1354 9.75276 11.1079 9.82728 11.0726 9.89394C11.0386 9.96192 10.9954 10.0194 10.9601 10.0691C10.9261 10.1201 10.883 10.1541 10.8581 10.1802C10.8319 10.2038 10.8149 10.2168 10.8149 10.2168Z" fill="#DEDEDE"/>
<path d="M13.1929 1.31188C13.1929 1.31188 13.1746 1.31188 13.1432 1.31973C13.1118 1.32496 13.0713 1.34195 13.0255 1.36679C12.9784 1.39163 12.93 1.42823 12.8764 1.46875C12.8241 1.51058 12.7652 1.55503 12.7051 1.59686C12.6436 1.63738 12.5808 1.6766 12.5181 1.70667C12.4553 1.73804 12.3925 1.75765 12.3389 1.77203C12.2852 1.78772 12.2382 1.79164 12.2068 1.79556C12.1741 1.79817 12.1558 1.79817 12.1558 1.79817C12.1558 1.79817 12.1728 1.79164 12.2028 1.77987C12.2329 1.76941 12.2735 1.74981 12.3232 1.72889C12.3729 1.70797 12.4265 1.6766 12.484 1.64261C12.5416 1.60863 12.6004 1.56941 12.6593 1.52888C12.7195 1.48967 12.777 1.44653 12.8359 1.40862C12.8934 1.37071 12.9536 1.34195 13.0072 1.32365C13.0608 1.30404 13.1092 1.30273 13.1419 1.30273C13.1746 1.30666 13.1929 1.31188 13.1929 1.31188Z" fill="#DEDEDE"/>
<path d="M9.46533 1.37022C9.46533 1.37022 9.47318 1.3676 9.48626 1.36107C9.49934 1.35714 9.51765 1.34799 9.54119 1.34276C9.56342 1.33754 9.58958 1.32708 9.61705 1.32185C9.64451 1.31531 9.6746 1.31008 9.70468 1.30355C9.73476 1.29963 9.76484 1.2944 9.79362 1.29178C9.82239 1.28786 9.84986 1.28917 9.8734 1.28786C9.89694 1.28655 9.91787 1.28917 9.93095 1.28917C9.94533 1.29048 9.95318 1.29178 9.95318 1.29178C9.95318 1.29178 9.94664 1.2957 9.93487 1.30485C9.9231 1.31139 9.90479 1.32316 9.88386 1.33231C9.86163 1.34146 9.83678 1.35322 9.808 1.36237C9.78054 1.37152 9.74915 1.37806 9.71776 1.3846C9.68637 1.38852 9.65498 1.39375 9.6262 1.39375C9.59612 1.39505 9.56866 1.39113 9.54511 1.38982C9.52157 1.38852 9.50065 1.38198 9.48757 1.37937C9.47318 1.37283 9.46533 1.37022 9.46533 1.37022Z" fill="#DEDEDE"/>
<path d="M11.8169 4.50919C11.8169 4.50919 11.8352 4.48958 11.8561 4.44775C11.8784 4.40723 11.8967 4.34448 11.9098 4.26735C11.9228 4.19023 11.9294 4.0961 11.9385 3.99806C11.9464 3.89871 11.9529 3.79414 11.9555 3.68825C11.9581 3.58236 11.9621 3.4804 11.9647 3.37582C11.9686 3.28301 11.9725 3.18235 11.9752 3.10261C11.9778 3.02287 11.9856 2.9562 11.9895 2.90914C11.9948 2.86208 11.9974 2.83594 11.9974 2.83594C11.9974 2.83594 12 2.86208 12.0052 2.90914C12.0078 2.9562 12.017 3.02287 12.0209 3.10261C12.0249 3.18235 12.0327 3.27647 12.0353 3.37582C12.0392 3.47648 12.0392 3.58367 12.0353 3.69086C12.0301 3.79806 12.0235 3.90525 12.0078 4.00591C11.9935 4.10656 11.9738 4.19807 11.9529 4.2765C11.932 4.35624 11.898 4.41768 11.8692 4.45559C11.8391 4.4935 11.8169 4.50919 11.8169 4.50919Z" fill="#DEDEDE"/>
<path d="M11.1995 5.99219H11.6782C11.6782 5.99219 11.6089 7.5857 10.811 9.09032C10.811 9.09032 11.2492 6.67979 11.1995 5.99219Z" fill="#DEDEDE"/>
<path d="M17.1752 20.8847L16.4545 18.7304C16.4532 18.7278 16.4532 18.7264 16.4519 18.7238C16.3839 18.5447 16.2112 18.4258 16.0203 18.4258C15.7652 18.4258 15.5586 18.6323 15.5586 18.8872C15.5586 18.9408 15.5677 18.9931 15.5861 19.0428C15.5861 19.0441 15.5874 19.0454 15.5874 19.0467L16.2936 21.1592C16.3512 21.354 16.533 21.4899 16.7357 21.4899C16.9907 21.4899 17.1974 21.2834 17.1974 21.0285C17.1974 20.9801 17.1895 20.933 17.1752 20.8873C17.1765 20.8873 17.1752 20.886 17.1752 20.8847Z" fill="#291482"/>
<path d="M18.4764 20.8832L18.0487 19.5995C18.0474 19.5969 18.0474 19.5956 18.0461 19.593C17.9781 19.4139 17.8055 19.2949 17.6145 19.2949C17.3595 19.2949 17.1528 19.5015 17.1528 19.7564C17.1528 19.81 17.162 19.8623 17.1803 19.9119C17.1803 19.9132 17.1816 19.9145 17.1816 19.9172L17.5962 21.159C17.6538 21.3538 17.8356 21.4898 18.0383 21.4898C18.2933 21.4898 18.5 21.2832 18.5 21.0283C18.5 20.9799 18.4921 20.9329 18.4777 20.8871C18.4777 20.8858 18.4777 20.8845 18.4764 20.8832Z" fill="#291482"/>
<path d="M19.1657 19.0367C19.1591 19.0184 19.15 19.0001 19.1395 18.9805C19.1382 18.9779 19.1369 18.9753 19.1356 18.974C19.1356 18.974 19.1317 18.9674 19.1251 18.957C19.1238 18.9544 19.1212 18.9517 19.1199 18.9478C19.082 18.8916 18.9368 18.689 18.6517 18.4707C18.5876 18.4223 18.5052 18.4106 18.4293 18.4393C18.3548 18.4681 18.3012 18.5321 18.2881 18.6106C18.2475 18.8367 18.2292 19.1557 18.2881 19.3217C18.2894 19.3243 18.2907 19.3269 18.2907 19.3295C18.2998 19.3635 18.3142 19.3962 18.3312 19.4263C18.4149 19.5753 18.5732 19.6629 18.7367 19.6629C18.7903 19.6629 18.8452 19.6537 18.8976 19.6341C19.014 19.5897 19.1055 19.5034 19.1565 19.3897C19.2075 19.2786 19.2101 19.1531 19.1657 19.0367Z" fill="#291482"/>
<defs>
<linearGradient id="paint0_linear_3021_132045" x1="9.36001" y1="0.958094" x2="11.9361" y2="6.68208" gradientUnits="userSpaceOnUse">
<stop stop-color="white"/>
<stop offset="1" stop-color="#DFDFDF"/>
</linearGradient>
<linearGradient id="paint1_linear_3021_132045" x1="6.6399" y1="7.35992" x2="19.5999" y2="23.1999" gradientUnits="userSpaceOnUse">
<stop stop-color="white"/>
<stop offset="1" stop-color="#DFDFDF"/>
</linearGradient>
</defs>
</svg>
