<svg xmlns="http://www.w3.org/2000/svg" width="25" height="25" viewBox="0 0 25 25">
    <g fill="#F5A623" fill-rule="nonzero">
        <path d="M21.303 3.655A12.39 12.39 0 0 0 12.479 0a12.39 12.39 0 0 0-8.824 3.655A12.39 12.39 0 0 0 0 12.48a12.39 12.39 0 0 0 3.655 8.824 12.39 12.39 0 0 0 8.824 3.655 12.39 12.39 0 0 0 8.824-3.655 12.39 12.39 0 0 0 3.655-8.824 12.39 12.39 0 0 0-3.655-8.824zM20.299 20.3a10.99 10.99 0 0 1-7.82 3.24 10.99 10.99 0 0 1-7.82-3.24C.347 15.987.347 8.971 4.659 4.66a10.99 10.99 0 0 1 7.82-3.24c2.952 0 5.73 1.15 7.82 3.24 4.312 4.312 4.312 11.328 0 15.64z"/>
        <path d="M14.668 11.67c.748-.709 1.76-1.666 1.852-3.953h.668v-.686H8.594v.686h.668c.092 2.287 1.103 3.244 1.851 3.952.502.475.786.766.786 1.217 0 .451-.284.742-.786 1.216-.748.708-1.76 1.665-1.851 3.952h-.668v.686h8.594v-.686h-.668c-.093-2.287-1.104-3.244-1.852-3.952-.502-.474-.786-.765-.786-1.216 0-.451.284-.742.786-1.217zm-2.108 3.787a1.627 1.627 0 0 0-.301.096l-2.025.87c.33-.873.863-1.377 1.325-1.814.515-.487 1.001-.947 1.001-1.723v2.571zm1.663-.848c.46.437.993.941 1.324 1.814l-2.024-.87a1.627 1.627 0 0 0-.302-.096v-2.571c0 .776.487 1.236 1.002 1.723zm-4-5.29c-.16-.433-.27-.955-.3-1.602h5.935c-.03.647-.14 1.169-.3 1.601h-5.335z"/>
    </g>
</svg>
