<svg width="24" height="24" viewBox="0 0 24 24" fill="none" xmlns="http://www.w3.org/2000/svg">
<g filter="url(#filter0_d_3021_132049)">
<path d="M16.1937 1.12478C16.77 1.72636 15.8085 4.04229 15.2354 5.27662H8.43289C6.90766 2.47132 7.05172 0.875425 7.27096 0.654119C7.28417 0.640467 7.30019 0.629832 7.31794 0.622949C7.75953 0.504503 8.14789 0.959584 8.52685 1.12167C8.81665 1.26823 9.14732 1.3143 9.46642 1.25258C9.71871 1.12544 10.0068 1.08699 10.2838 1.14349C10.597 1.22453 10.6941 1.60168 10.9979 1.71078C11.1423 1.75173 11.293 1.76652 11.4426 1.75442C11.7396 1.77458 12.0367 1.71652 12.3039 1.5861C12.4138 1.4878 12.5183 1.38375 12.6171 1.2744C12.7167 1.19624 12.8358 1.14665 12.9616 1.13102C13.3374 1.04063 13.6287 1.58922 13.9889 1.42402C14.0828 1.38349 14.1423 1.29622 14.2269 1.25882C14.3198 1.23063 14.419 1.23063 14.5119 1.25882C14.721 1.30869 14.9413 1.2527 15.1007 1.1092C15.2322 0.978286 15.3857 0.651002 15.6707 0.738278C15.8698 0.830063 16.0479 0.961624 16.1937 1.12478Z" fill="url(#paint0_linear_3021_132049)"/>
<path d="M8.43262 5.27539H15.2351C15.0159 5.74606 14.853 6.06087 14.853 6.06087H8.88361C8.71762 5.78969 8.57042 5.52787 8.43262 5.27539Z" fill="#251B7D"/>
<path d="M14.8532 6.0625C18.6115 8.21634 21.6181 13.6461 21.6181 17.8323C21.6181 23.1748 17.2491 24.0008 11.8591 24.0008C6.4691 24.0008 2.1001 23.1748 2.1001 17.8323C2.1001 13.6461 5.12551 8.21634 8.88379 6.0625H14.8532Z" fill="url(#paint1_linear_3021_132049)"/>
<path d="M18.7827 18.2589C18.7262 18.1017 18.6366 17.9613 18.5204 17.8409C18.3543 17.6604 18.1285 17.52 17.8562 17.433C17.7035 17.3862 17.5474 17.3561 17.3814 17.3428C17.3449 17.3394 17.3083 17.3628 17.2951 17.3996L17.2087 17.6303C17.1921 17.6905 17.232 17.7507 17.2951 17.7507C17.6072 17.754 17.8994 17.8409 18.1551 18.0449C18.2016 18.0817 18.2447 18.1285 18.2813 18.1753C18.3344 18.2455 18.3776 18.3224 18.4075 18.406C18.444 18.5096 18.4573 18.6166 18.4506 18.7303C18.4407 18.8908 18.3875 19.0546 18.2946 19.2151C18.1617 19.4425 17.9658 19.6264 17.7466 19.7668C17.3714 20.0042 16.9265 20.1413 16.4782 20.1078L16.953 18.8206C16.973 18.7638 16.9331 18.7036 16.87 18.7036H16.611C16.5745 18.7036 16.5446 18.727 16.5313 18.7604C16.445 18.9777 16.1295 19.8002 16.0465 20.0142C15.8506 19.9407 15.6912 19.8303 15.5783 19.6899C15.565 19.6732 15.555 19.6565 15.5418 19.6398C15.3226 19.3087 15.3525 18.8975 15.6281 18.533C15.8074 18.2957 16.0199 18.1185 16.259 17.9914L16.1793 18.1954C16.1627 18.2388 16.1826 18.289 16.2291 18.309L16.3819 18.3692C16.4284 18.3859 16.4782 18.3659 16.4948 18.3191L16.7604 17.6336C16.777 17.5902 16.7571 17.54 16.7106 17.52L16.0299 17.2558C15.9867 17.2391 15.9369 17.2592 15.917 17.306L15.8572 17.4598C15.8406 17.5032 15.8606 17.5534 15.907 17.5735L16.0731 17.637C15.741 17.8109 15.4654 18.0516 15.2728 18.3391C15.0038 18.737 14.9308 19.1784 15.0669 19.5729C15.1964 19.9474 15.492 20.2316 15.9104 20.3854C15.7775 20.7465 15.5949 21.2313 15.4455 21.6325C15.4255 21.6893 15.4654 21.7495 15.5285 21.7495L15.8141 21.7462C15.8506 21.7462 15.8838 21.7228 15.8938 21.6893L16.3387 20.489C16.4284 20.499 16.5213 20.5057 16.6143 20.5057C16.6774 20.5057 16.7405 20.5024 16.8003 20.499C16.8202 20.606 16.8567 20.7498 16.9265 20.907C16.9663 20.9972 17.0095 21.0842 17.0659 21.1644C17.0659 21.1644 17.0659 21.1678 17.0693 21.1678C17.2386 21.4185 17.4876 21.6158 17.8097 21.7428C17.8562 21.7629 17.906 21.7395 17.9226 21.6893L17.999 21.4653C18.0123 21.4219 17.9924 21.375 17.9492 21.3583C17.6935 21.2547 17.5209 21.1109 17.408 20.9471C17.3449 20.8535 17.2519 20.6796 17.2154 20.4288C17.4511 20.3653 17.6736 20.2683 17.8861 20.1379C18.0355 20.0443 18.1783 19.9407 18.3078 19.8203C18.4407 19.6999 18.5469 19.5662 18.6399 19.4124C18.7296 19.2619 18.7893 19.1081 18.8225 18.951H18.8259C18.8823 18.6066 18.8591 18.4762 18.7827 18.2589Z" fill="#251B7D"/>
<path d="M8.52042 1.1244C8.14146 0.962317 7.75311 0.501002 7.31151 0.625682C7.29763 0.631775 7.28492 0.640211 7.27393 0.650618C7.37221 0.441181 7.54203 0.273279 7.75311 0.176835C7.90803 0.0753528 8.10226 0.0533605 8.27613 0.117612C8.52309 0.183646 8.77848 0.213055 9.03405 0.204888C9.34724 0.164367 9.66043 -0.0351205 9.97362 0.00540041C10.2868 0.0459213 10.6 0.3171 10.9132 0.3171C11.2264 0.3171 11.5396 0.0272193 11.8778 0.00540041C12.2161 -0.0164185 12.5261 0.198654 12.8612 0.25476C13.2684 0.310866 13.6473 0.155016 14.0357 0.0864422C14.3773 0.0253775 14.7284 0.0413546 15.063 0.133197C15.3104 0.204888 15.7551 0.379439 16.1936 1.1244C16.0495 0.965632 15.8749 0.837363 15.6799 0.747244C15.3949 0.659968 15.2415 0.987253 15.1099 1.11817C14.9505 1.26167 14.7302 1.31765 14.5211 1.26778C14.4283 1.23959 14.329 1.23959 14.2361 1.26778C14.1516 1.30519 14.0921 1.39246 13.9981 1.43298C13.6379 1.59818 13.3467 1.04959 12.9709 1.13999C12.845 1.15562 12.7259 1.2052 12.6263 1.28337C12.5276 1.39272 12.423 1.49677 12.3132 1.59507C12.0459 1.72549 11.7488 1.78354 11.4519 1.76338C11.3022 1.77548 11.1516 1.7607 11.0072 1.71975C10.694 1.61065 10.5969 1.23349 10.2931 1.15245C10.0148 1.08895 9.72311 1.12194 9.46626 1.24596C9.1462 1.312 8.81313 1.26919 8.52042 1.1244Z" fill="#CAA900"/>
<path d="M13.4123 6.05333C13.3966 6.98842 14.4427 7.67105 14.8624 8.40977C15.282 9.1485 15.3008 9.90281 15.2726 10.7195C15.2726 10.5387 16.1088 10.3797 16.1151 10.1896C16.1433 9.36981 16.1151 8.60614 15.7048 7.87677C15.2946 7.14739 14.2391 6.44607 14.2548 5.52344C14.2548 5.69799 13.4154 5.86631 13.4123 6.05333Z" fill="#251B7D"/>
<path d="M13.9354 6.36766C14.7967 6.05596 15.398 6.73235 15.9805 7.256C16.2278 7.50227 16.5306 7.6861 16.8637 7.79213C17.2526 7.84826 17.6453 7.87328 18.0382 7.86694C18.8525 7.95421 19.0373 8.57449 19.3849 9.20101C19.7377 9.91383 20.4326 10.3973 21.2265 10.4821C21.1357 10.4821 21.1137 9.52206 21.0072 9.51582C20.2498 9.4382 19.5801 8.99231 19.2189 8.32513C18.8431 7.68615 18.6771 7.00665 17.8221 6.9069C17.0235 6.81339 16.491 6.9069 15.8365 6.35208C15.1819 5.79725 14.6244 5.06476 13.7224 5.39828C13.6723 5.41698 13.973 6.35519 13.9385 6.36766H13.9354Z" fill="#251B7D"/>
<path opacity="0.7" d="M8.99126 6.05859C8.29521 6.68334 7.67789 7.38982 7.15283 8.16256C7.15283 8.16256 8.61856 6.36094 9.44538 6.06794L8.99126 6.05859Z" fill="#DDBB06"/>
<path opacity="0.7" d="M10.5204 6.05859H10.7365L10.3105 7.43007L10.5204 6.05859Z" fill="#DDBB06"/>
<path d="M6.01076 10.4013C6.01076 10.4013 6.26131 9.9805 6.54945 9.57841C6.62148 9.47867 6.69352 9.37581 6.76242 9.28541L6.96286 9.03605C7.02745 8.95409 7.08606 8.86764 7.13825 8.77734C7.06853 8.85352 6.99315 8.92438 6.91275 8.9893L6.66533 9.1919C6.5745 9.26983 6.48368 9.35399 6.38972 9.43815C6.01703 9.77478 5.66939 10.1457 5.66939 10.1457L5.50966 10.3732C5.41257 10.5197 5.27163 10.7286 5.11817 10.9966C4.96471 11.2647 4.80498 11.5639 4.62333 11.9006C4.44168 12.2372 4.31014 12.605 4.14102 12.9728C3.82783 13.7115 3.58354 14.4627 3.38936 15.0269L3.07617 15.962L3.4614 15.0487C3.69316 14.5001 4.00008 13.7676 4.34772 13.057C4.50432 12.6954 4.69536 12.3494 4.88328 12.0315C5.07119 11.7135 5.25284 11.4081 5.42197 11.1805C5.59109 10.953 5.73516 10.7473 5.84164 10.6101L6.01076 10.4013Z" fill="#CAA900"/>
<path d="M9.94149 4.38398C9.94149 4.38398 10.0511 4.56165 10.1451 4.74867C10.1885 4.83333 10.2262 4.92081 10.2578 5.01049C10.2725 5.05055 10.2809 5.09259 10.2829 5.13517C10.3045 5.09419 10.3193 5.04997 10.3267 5.00426C10.3267 4.9201 10.3486 4.81412 10.3549 4.69256C10.3549 4.47437 10.3549 4.25306 10.3549 4.25306C10.3549 4.25306 10.2923 4.09098 10.192 3.86032C10.1419 3.74811 10.0856 3.61408 10.0229 3.4707C9.96028 3.32732 9.88825 3.17459 9.81621 3.02185C9.67215 2.71015 9.53434 2.42339 9.44978 2.18962C9.40593 2.07429 9.37775 1.97454 9.35582 1.90597L9.32764 1.79688V1.90909C9.32764 1.98078 9.35269 2.08676 9.37462 2.22079C9.42159 2.46703 9.51242 2.7912 9.60638 3.10913C9.65335 3.27121 9.6972 3.42083 9.73478 3.57668C9.77237 3.73253 9.80995 3.86967 9.84127 3.98812C9.91017 4.22813 9.94149 4.38398 9.94149 4.38398Z" fill="#CAA900"/>
<path d="M14.4084 6.25241L14.208 5.82227C14.2899 5.9261 14.3896 6.01473 14.5024 6.08409C14.6865 6.18496 14.8605 6.30289 15.0223 6.43631C14.833 6.3326 14.6238 6.26993 14.4084 6.25241Z" fill="#251B7D"/>
<g style="mix-blend-mode:multiply">
<path d="M15.0381 5.69151C14.9266 5.59128 14.7865 5.52809 14.6372 5.51073C14.7882 5.51425 14.9392 5.50382 15.0882 5.47956L15.0381 5.69151Z" fill="#FBF2E5"/>
</g>
<path d="M15.3699 9.72322C15.3699 9.72322 15.3699 9.77621 15.3699 9.85725C15.3699 9.93829 15.3699 9.94141 15.3699 9.99751C15.3796 10.049 15.3859 10.1011 15.3887 10.1534C15.3941 10.2507 15.3856 10.3483 15.3636 10.4432C15.3517 10.4867 15.3371 10.5294 15.3198 10.571C15.3423 10.5319 15.3621 10.4913 15.3793 10.4495C15.4134 10.3487 15.4345 10.2439 15.4419 10.1378C15.445 10.0838 15.445 10.0297 15.4419 9.97569C15.4419 9.93206 15.4419 9.87907 15.4419 9.83855C15.4419 9.79803 15.4419 9.7014 15.4419 9.7014C15.4283 9.55546 15.4042 9.41067 15.3699 9.26814C15.3372 9.1216 15.2964 8.97696 15.2477 8.83488C15.2227 8.76007 15.1976 8.67903 15.1663 8.59798L15.1475 8.49201L15.0817 8.37668C15.0348 8.30187 14.9972 8.22395 14.9471 8.15225C14.897 8.08056 14.8437 8.01511 14.7936 7.95277C14.6952 7.84306 14.5906 7.739 14.4804 7.64107C14.2862 7.4634 14.1484 7.35742 14.1484 7.35742C14.1484 7.35742 14.2831 7.46963 14.4616 7.66912C14.5664 7.77322 14.6647 7.88356 14.756 7.99952C14.8083 8.06396 14.8564 8.13163 14.9001 8.20213C14.9471 8.2707 14.9815 8.35174 15.0254 8.42655C15.0692 8.50136 15.0661 8.50136 15.0817 8.53876L15.1225 8.66032C15.1475 8.74137 15.1726 8.81929 15.1945 8.89722C15.2383 9.05307 15.2728 9.20891 15.2978 9.32736C15.3301 9.45769 15.3542 9.5899 15.3699 9.72322Z" fill="#251B7D"/>
<path d="M17.2742 7.68667C17.2742 7.68667 17.1677 7.68667 17.0581 7.68667C16.9847 7.68583 16.9114 7.67958 16.8389 7.66797C16.9082 7.69646 16.9794 7.72041 17.0518 7.73966C17.1583 7.76771 17.2679 7.78641 17.2679 7.78641H17.4903C17.6218 7.78641 17.8035 7.78641 17.9695 7.78641C18.1286 7.79606 18.2857 7.82753 18.4361 7.87992C18.505 7.90505 18.5695 7.94081 18.6272 7.9859C18.5717 7.93773 18.5094 7.89783 18.4424 7.86746C18.2914 7.7998 18.1308 7.75565 17.9664 7.73654C17.7878 7.71161 17.6124 7.70849 17.4809 7.70226C17.3494 7.69602 17.2742 7.68667 17.2742 7.68667Z" fill="#251B7D"/>
<path d="M8.03418 1.03711L8.07803 1.18361C8.10308 1.27712 8.14693 1.40803 8.18138 1.57323C8.21949 1.75851 8.24668 1.94585 8.26281 2.13429C8.28044 2.34337 8.30866 2.55144 8.34737 2.75769C8.38718 2.95956 8.45023 3.15618 8.53528 3.34368C8.61358 3.52759 8.68875 3.70525 8.75765 3.85487C8.81099 3.97814 8.85802 4.10402 8.89858 4.23203L8.9393 4.37852C8.9393 4.37852 8.91111 4.33177 8.85474 4.25384C8.79836 4.17592 8.7232 4.06059 8.6355 3.92033C8.54781 3.78006 8.43506 3.62421 8.33797 3.43719C8.23056 3.24177 8.15248 3.03174 8.10621 2.81379C8.06537 2.59695 8.04545 2.37672 8.04671 2.15611C8.04671 1.94727 8.04671 1.76649 8.04671 1.59817C8.04671 1.42985 8.04671 1.28647 8.04671 1.19919L8.03418 1.03711Z" fill="#CAA900"/>
<g opacity="0.7">
<path d="M9.87888 7.89453L9.72542 8.06597C9.6252 8.16883 9.49053 8.32779 9.32454 8.5117C9.15854 8.6956 8.97376 8.91379 8.77645 9.14133C8.57914 9.36887 8.36931 9.6307 8.15007 9.88941C7.93084 10.1481 7.75232 10.4037 7.58633 10.6531L7.0633 11.3232C6.91297 11.5227 6.77204 11.6786 6.67808 11.7877L6.52148 11.956L6.6405 11.7596C6.71879 11.638 6.81901 11.4479 6.95369 11.2453C7.08836 11.0427 7.22616 10.784 7.39842 10.5222C7.5774 10.2493 7.7708 9.98604 7.97782 9.73356C8.19079 9.47796 8.40376 9.22549 8.61986 8.99795C8.83596 8.77041 9.04893 8.57404 9.24624 8.4026C9.44355 8.23117 9.59701 8.1096 9.71289 8.01921L9.87888 7.89453Z" fill="#DDBB06"/>
</g>
<path d="M11.2814 7.26367C11.2814 7.26367 11.2658 7.31978 11.2501 7.41329C11.2345 7.5068 11.2219 7.64394 11.2031 7.80915C11.19 7.99945 11.1659 8.18885 11.1311 8.37644C11.081 8.58216 11.0152 8.791 10.9526 8.99984C10.8899 9.20867 10.8179 9.42063 10.7459 9.62323C10.6738 9.82584 10.5987 9.99727 10.5392 10.1531C10.4797 10.309 10.4139 10.4337 10.3763 10.5209L10.3105 10.6581L10.3325 10.5085C10.3513 10.4118 10.3669 10.2716 10.4076 10.1126C10.4484 9.95363 10.4828 9.76038 10.536 9.56089C10.5893 9.36141 10.6519 9.15257 10.7146 8.9375C10.7772 8.72242 10.8524 8.5167 10.9213 8.3141C10.9902 8.11149 11.0246 7.93694 11.0685 7.77798C11.1016 7.64599 11.1478 7.51757 11.2063 7.39459C11.2286 7.34948 11.2538 7.30576 11.2814 7.26367Z" fill="#CAA900"/>
<path d="M11.2881 10.338V10.285C11.2881 10.2507 11.2881 10.1977 11.3069 10.1416C11.3257 10.0855 11.3257 10.0138 11.3445 9.94215C11.3633 9.87046 11.382 9.79876 11.404 9.72396C11.4278 9.65065 11.4561 9.57883 11.4885 9.50888C11.5196 9.44676 11.5541 9.38641 11.5919 9.3281C11.6181 9.28469 11.6485 9.24397 11.6827 9.20654L11.7234 9.16602V9.22524C11.7261 9.27404 11.7261 9.32294 11.7234 9.37174C11.7234 9.43096 11.7234 9.50265 11.6984 9.57434C11.684 9.65019 11.6652 9.72512 11.642 9.79876C11.6161 9.87322 11.5858 9.94608 11.5512 10.017C11.5169 10.0789 11.4782 10.1383 11.4353 10.1946C11.4056 10.2361 11.3709 10.2738 11.3319 10.3068L11.2881 10.338Z" fill="#CAA900"/>
<path opacity="0.7" d="M11.6764 6.31641H12.1618C12.0804 7.40939 11.7812 8.47533 11.2817 9.4521C11.2817 9.4521 11.7265 7.0115 11.6764 6.31641Z" fill="#DDBB06"/>
</g>
<defs>
<filter id="filter0_d_3021_132049" x="2.1001" y="0" width="19.5181" height="24" filterUnits="userSpaceOnUse" color-interpolation-filters="sRGB">
<feFlood flood-opacity="0" result="BackgroundImageFix"/>
<feColorMatrix in="SourceAlpha" type="matrix" values="0 0 0 0 0 0 0 0 0 0 0 0 0 0 0 0 0 0 127 0" result="hardAlpha"/>
<feOffset/>
<feColorMatrix type="matrix" values="0 0 0 0 0 0 0 0 0 0 0 0 0 0 0 0 0 0 0.16775 0"/>
<feBlend mode="normal" in2="BackgroundImageFix" result="effect1_dropShadow_3021_132049"/>
<feBlend mode="normal" in="SourceGraphic" in2="effect1_dropShadow_3021_132049" result="shape"/>
</filter>
<linearGradient id="paint0_linear_3021_132049" x1="15.3407" y1="5.17241" x2="12.8465" y2="-0.288795" gradientUnits="userSpaceOnUse">
<stop offset="0.101039" stop-color="#FFD706"/>
<stop offset="0.635538" stop-color="#FFE979"/>
</linearGradient>
<linearGradient id="paint1_linear_3021_132049" x1="19.4401" y1="23.6008" x2="6.1589" y2="6.8442" gradientUnits="userSpaceOnUse">
<stop offset="0.101039" stop-color="#FFD706"/>
<stop offset="0.661458" stop-color="#FFE979"/>
</linearGradient>
</defs>
</svg>
