<svg xmlns="http://www.w3.org/2000/svg" width="25" height="25" viewBox="0 0 25 25">
    <g fill="none" fill-rule="nonzero">
        <path fill="#CA3232" d="M21.303 3.655A12.39 12.39 0 0 0 12.479 0a12.39 12.39 0 0 0-8.824 3.655A12.39 12.39 0 0 0 0 12.48a12.39 12.39 0 0 0 3.655 8.824 12.39 12.39 0 0 0 8.824 3.655 12.39 12.39 0 0 0 8.824-3.655 12.39 12.39 0 0 0 3.655-8.824 12.39 12.39 0 0 0-3.655-8.824zM20.299 20.3a10.99 10.99 0 0 1-7.82 3.24 10.99 10.99 0 0 1-7.82-3.24C.347 15.987.347 8.971 4.659 4.66a10.99 10.99 0 0 1 7.82-3.24c2.952 0 5.73 1.15 7.82 3.24 4.312 4.312 4.312 11.328 0 15.64z"/>
        <path stroke="#CA3232" stroke-linecap="round" stroke-width="1.5" d="M8.402 8.402l8.196 8.196m0-8.196l-8.196 8.196"/>
    </g>
</svg>
