<svg width="89" height="86" viewBox="0 0 89 86" fill="none" xmlns="http://www.w3.org/2000/svg">
<path d="M1.21464 26.3099C-0.113213 27.6466 -0.113213 29.822 1.21464 31.1587L9.364 39.3886C10.6919 40.7253 12.8529 40.7253 14.1807 39.3886L19.8306 33.701V79.6992C19.8306 81.5863 21.3407 83.1326 23.2414 83.1326H66.0971C67.9717 83.1326 69.5079 81.5863 69.5079 79.6992V34.0156L74.8193 39.3886C76.1471 40.7253 78.3081 40.7253 79.636 39.3886L87.7854 31.1587C89.1132 29.822 89.1132 27.6466 87.7854 26.3099L72.3458 10.0861C70.9919 8.67074 69.1434 7.88445 67.1906 7.85824L22.7727 7.83203C20.8981 7.83203 19.0755 8.5659 17.7477 9.9026L1.21464 26.3099Z" fill="#C3C8DB"/>
<path d="M54.2245 8.09478L44.0443 10.244L34.0464 8.09478V0.625H54.2245V8.09478Z" fill="#9BA5C0"/>
<path d="M36.624 14.6734L28.9694 7.8851L34.3589 0.625L44.2787 10.244L40.7117 14.3851C39.6703 15.617 37.8477 15.748 36.624 14.6734Z" fill="#D4D8E3"/>
<path d="M51.9334 14.6734L59.588 7.8851L54.1985 0.625L44.2787 10.244L47.8457 14.3851C48.8871 15.617 50.7357 15.748 51.9334 14.6734Z" fill="#D4D8E3"/>
<path d="M19.8306 33.6762V27.4121L8.29651 38.3154L11.7854 41.8013L19.8306 33.6762Z" fill="#9BA5C0"/>
<path d="M69.4558 34.1732V27.8828L80.5733 38.4191L77.1886 41.8002L69.4558 34.1732Z" fill="#9BA5C0"/>
<path d="M73.3175 84.099C73.3175 83.623 73.4751 72.4223 83.2778 72.4223C84.1919 72.4223 84.9484 71.6608 84.9484 70.7406C84.9484 69.8204 84.1919 69.0589 83.2778 69.0589C73.5066 69.0589 73.3175 57.8582 73.3175 57.3823V57.3823C73.3175 56.7794 73.0023 56.24 72.498 55.9544C71.9936 55.6688 71.3632 55.6688 70.8274 55.9544C70.2916 56.24 70.0079 56.8111 70.0079 57.414C70.0079 57.8899 69.8503 69.0907 60.0475 69.0907C59.1334 69.0907 58.377 69.8522 58.377 70.7723C58.377 71.6925 59.1334 72.454 60.0475 72.454C69.8187 72.454 70.0079 83.6548 70.0079 84.1307V84.1307C70.0079 85.0509 70.7644 85.8124 71.6784 85.7807C72.561 85.7807 73.3175 85.0191 73.3175 84.099V84.099Z" fill="#8790AD"/>
<path d="M65.7841 58.2386C65.7841 57.8896 65.9102 49.9253 72.8762 49.9253C73.5381 49.9253 74.0424 49.3859 74.0424 48.7513C74.0424 48.1167 73.5066 47.5773 72.8762 47.5773C65.9102 47.5773 65.7841 39.5813 65.7841 39.264V39.264C65.7841 38.8515 65.5635 38.439 65.1853 38.2487C64.807 38.0583 64.3657 38.0266 64.019 38.2487C63.6408 38.4708 63.4201 38.8515 63.4201 39.2958C63.4201 39.6448 63.2941 47.609 56.3281 47.609C55.6662 47.609 55.1619 48.1484 55.1619 48.783C55.1619 49.4176 55.6977 49.9571 56.3281 49.9571C63.2941 49.9571 63.4201 57.953 63.4201 58.2703V58.2703C63.4201 58.9367 63.956 59.4443 64.6179 59.4443C65.2483 59.4126 65.7841 58.8732 65.7841 58.2386V58.2386Z" fill="#8790AD"/>
</svg>
