<svg xmlns="http://www.w3.org/2000/svg" width="32" height="32" viewBox="0 0 32 32" fill="none">
  <path d="M21.7125 1.48246C22.4648 2.27381 21.2086 5.32766 20.4597 6.9522H11.5683C9.57357 3.24296 9.76471 1.15302 10.0531 0.860188C10.0531 0.858445 10.0549 0.858445 10.0549 0.856702C10.0723 0.841014 10.0879 0.830556 10.1035 0.82707C10.6822 0.668451 11.1895 1.26632 11.683 1.48246C12.0462 1.64108 12.5275 1.77704 12.9202 1.65677C13.332 1.52778 13.5562 1.39182 13.9871 1.51035C14.3867 1.61842 14.5223 2.11519 14.9219 2.25987C15.1061 2.32611 15.3077 2.32262 15.504 2.31739C15.8776 2.30868 16.3016 2.29996 16.6282 2.09428C16.7916 1.99144 16.8976 1.8241 17.0487 1.70035C17.2051 1.57136 17.3181 1.55741 17.5005 1.51209C17.9923 1.39182 18.3711 2.11519 18.8419 1.89905C18.9636 1.84502 19.0435 1.72998 19.153 1.67943C19.2659 1.62888 19.4015 1.65154 19.5266 1.67071C19.8376 1.71778 20.1104 1.66548 20.2963 1.47549C20.4666 1.30293 20.6682 0.872389 21.04 0.985689C21.3285 1.07284 21.53 1.34127 21.7125 1.48246Z" fill="url(#paint0_linear_1299_16285)"/>
  <path d="M11.5665 6.95218H20.4578C20.1711 7.57271 19.9591 7.98582 19.9591 7.98582H12.1538C11.94 7.62849 11.7454 7.2851 11.5665 6.95218Z" fill="#291482"/>
  <path d="M19.9591 7.98572C24.8679 10.8217 28.8 17.9752 28.8 23.492C28.8 30.5305 23.092 31.6182 16.046 31.6182C9.00181 31.6182 3.29205 30.5305 3.29205 23.492C3.29205 17.9752 7.24683 10.8217 12.1556 7.98572L19.9591 7.98572Z" fill="url(#paint1_linear_1299_16285)"/>
  <path d="M11.6811 1.48242C11.1876 1.26802 10.6802 0.670148 10.1016 0.827024C10.086 0.832253 10.0703 0.840969 10.053 0.856656C10.2458 0.509786 10.3831 0.387772 10.6785 0.234382C10.9756 0.0809924 11.0347 0.0897078 11.3614 0.152458C11.6915 0.216952 12.0217 0.309334 12.3536 0.269243C12.7741 0.218695 13.1685 -0.0427652 13.589 0.00604063C14.0286 0.0548465 14.3918 0.434835 14.8348 0.436578C15.2832 0.438321 15.6515 0.0548465 16.0963 0.0112698C16.5394 -0.0323068 16.9408 0.2675 17.3787 0.340709C17.8843 0.424376 18.3848 0.20475 18.8904 0.114111C19.3352 0.0339297 19.7992 0.0565895 20.2353 0.178604C20.5585 0.269243 21.1389 0.501071 21.7123 1.48242C21.5298 1.34123 21.33 1.0728 21.0398 0.985643C20.668 0.872344 20.4664 1.30288 20.2961 1.47544C20.1085 1.66718 19.8374 1.71947 19.5264 1.67067C19.4013 1.65149 19.2657 1.62709 19.1528 1.67938C19.0433 1.72993 18.9634 1.84497 18.8418 1.89901C18.3709 2.11341 17.9921 1.39178 17.5003 1.51205C17.3179 1.55737 17.2049 1.57131 17.0486 1.7003C16.8974 1.82406 16.7914 1.98965 16.6281 2.09423C16.3014 2.29991 15.8757 2.30863 15.5038 2.31734C15.3092 2.32257 15.1059 2.32606 14.9217 2.25982C14.5221 2.11515 14.3865 1.61838 13.9869 1.51031C13.5542 1.39178 13.3301 1.52774 12.92 1.65672C12.5273 1.77699 12.046 1.64104 11.6811 1.48242Z" fill="#251B7D"/>
  <path d="M11.6811 1.48242C11.1876 1.26802 10.6802 0.670148 10.1016 0.827024C10.086 0.832253 10.0703 0.840969 10.053 0.856656C10.2458 0.509786 10.3831 0.387772 10.6785 0.234382C10.9756 0.0809924 11.0347 0.0897078 11.3614 0.152458C11.6915 0.216952 12.0217 0.309334 12.3536 0.269243C12.7741 0.218695 13.1685 -0.0427652 13.589 0.00604063C14.0286 0.0548465 14.3918 0.434835 14.8348 0.436578C15.2832 0.438321 15.6515 0.0548465 16.0963 0.0112698C16.5394 -0.0323068 16.9408 0.2675 17.3787 0.340709C17.8843 0.424376 18.3848 0.20475 18.8904 0.114111C19.3352 0.0339297 19.7992 0.0565895 20.2353 0.178604C20.5585 0.269243 21.1389 0.501071 21.7123 1.48242C21.5298 1.34123 21.33 1.0728 21.0398 0.985643C20.668 0.872344 20.4664 1.30288 20.2961 1.47544C20.1085 1.66718 19.8374 1.71947 19.5264 1.67067C19.4013 1.65149 19.2657 1.62709 19.1528 1.67938C19.0433 1.72993 18.9634 1.84497 18.8418 1.89901C18.3709 2.11341 17.9921 1.39178 17.5003 1.51205C17.3179 1.55737 17.2049 1.57131 17.0486 1.7003C16.8974 1.82406 16.7914 1.98965 16.6281 2.09423C16.3014 2.29991 15.8757 2.30863 15.5038 2.31734C15.3092 2.32257 15.1059 2.32606 14.9217 2.25982C14.5221 2.11515 14.3865 1.61838 13.9869 1.51031C13.5542 1.39178 13.3301 1.52774 12.92 1.65672C12.5273 1.77699 12.046 1.64104 11.6811 1.48242Z" fill="#15E9E2"/>
  <path d="M18.0755 7.97531C18.0547 9.19023 19.4222 10.1036 19.973 11.078C20.5151 12.0367 20.5446 13.0441 20.5099 14.1214C20.5186 13.8843 21.6028 13.6751 21.6098 13.4206C21.6463 12.3434 21.6167 11.3359 21.0729 10.3773C20.5221 9.40462 19.1563 8.49126 19.1754 7.2746C19.1719 7.50642 18.079 7.72779 18.0755 7.97531Z" fill="#291482"/>
  <path d="M18.762 8.38851C19.888 7.96843 20.6699 8.8696 21.4327 9.55985C21.7698 9.86489 22.1399 10.1577 22.5865 10.2797C23.0887 10.4157 23.6099 10.3181 24.1208 10.3756C25.1877 10.4941 25.4257 11.3116 25.8827 12.1344C26.3953 13.0599 27.2155 13.7345 28.2893 13.8234C28.1694 13.8129 28.1416 12.5579 28.0043 12.5475C26.9844 12.4638 26.1729 11.8468 25.6638 10.97C25.172 10.1263 24.9531 9.23041 23.8376 9.09968C22.7933 8.97767 22.0982 9.11363 21.2416 8.36934C20.4406 7.67211 19.6586 6.67334 18.4771 7.11259C18.4128 7.13699 18.8072 8.37108 18.762 8.38851Z" fill="#291482"/>
  <path d="M12.378 7.98218C12.378 7.98218 10.9983 9.18838 9.9749 10.7519C9.9749 10.7519 11.8915 8.38134 12.974 7.99264L12.378 7.98218Z" fill="#15E9E2"/>
  <path d="M13.8828 7.98218H14.1677L13.6117 9.78974L13.8828 7.98218Z" fill="#15E9E2"/>
  <path d="M7.57534 13.703C7.57534 13.703 7.90375 13.1487 8.28081 12.6188C8.37464 12.4863 8.47021 12.3521 8.56056 12.2336C8.65613 12.1133 8.74475 12 8.81946 11.9041C8.97237 11.7089 9.04883 11.5625 9.04883 11.5625C9.04883 11.5625 8.94283 11.688 8.75517 11.8431C8.66134 11.9216 8.55014 12.0122 8.43198 12.1098C8.31208 12.2109 8.19045 12.3207 8.06882 12.4323C7.58055 12.8768 7.12704 13.3631 7.12704 13.3631C7.12704 13.3631 7.05232 13.4729 6.92027 13.6629C6.78995 13.8546 6.60923 14.1335 6.40593 14.4734C6.20264 14.8151 5.98022 15.2212 5.76128 15.6657C5.54235 16.1102 5.32862 16.5912 5.13227 17.0776C4.7361 18.0502 4.40074 19.042 4.14879 19.7828C3.8951 20.5236 3.72655 21.0186 3.72655 21.0186C3.72655 21.0186 3.92811 20.5375 4.23046 19.8142C4.5328 19.0908 4.93245 18.1269 5.3877 17.1926C5.61533 16.7255 5.85685 16.267 6.10012 15.847C6.34164 15.4269 6.58491 15.0469 6.80385 14.7296C7.02278 14.4124 7.2174 14.1562 7.35467 13.9784C7.49541 13.8041 7.57534 13.703 7.57534 13.703Z" fill="#15E9E2"/>
  <path d="M12.7151 5.77909C12.7151 5.77909 12.8576 6.01092 12.9775 6.25669C13.0365 6.3787 13.0956 6.50769 13.1286 6.60182C13.1616 6.69768 13.1616 6.76915 13.1616 6.76915C13.1616 6.76915 13.1964 6.7064 13.2155 6.59659C13.2346 6.48677 13.2433 6.34733 13.252 6.20265C13.2659 5.91331 13.252 5.62396 13.252 5.62396C13.252 5.62396 13.1738 5.4113 13.0418 5.10627C12.9757 4.95636 12.8993 4.78031 12.8176 4.59206C12.7359 4.40033 12.6421 4.19987 12.5483 4.00291C12.3606 3.60723 12.1799 3.2133 12.0704 2.90652C12.0131 2.75313 11.9749 2.6224 11.9471 2.53176C11.9227 2.43938 11.9088 2.38708 11.9088 2.38708C11.9088 2.38708 11.914 2.44112 11.9245 2.53699C11.9366 2.63286 11.954 2.76882 11.987 2.93092C12.0478 3.25513 12.166 3.68218 12.2876 4.10226C12.3484 4.31317 12.4075 4.5206 12.4562 4.71756C12.5066 4.91627 12.5535 5.10104 12.5952 5.2614C12.6751 5.57341 12.7151 5.77909 12.7151 5.77909Z" fill="#15E9E2"/>
  <path d="M11.5665 6.95218C11.5665 6.95218 11.6985 7.26593 11.7437 7.58491C11.7906 7.90389 11.7958 8.20196 11.7958 8.20196C11.7958 8.20196 12.4057 8.02939 12.9705 7.99279C13.5369 7.95618 13.8671 7.94224 13.8671 7.94224L11.8619 7.07245L11.5665 6.95218Z" fill="#291482"/>
  <path d="M19.3788 8.23507L19.1199 7.67032C19.1199 7.67032 19.278 7.88297 19.5039 8.01545C19.7298 8.14792 20.086 8.36755 20.1851 8.48084C20.1868 8.48084 19.7628 8.24204 19.3788 8.23507Z" fill="#291482"/>
  <path d="M18.8819 7.58487C18.8419 7.69991 18.55 7.83936 18.1973 7.74872C17.8445 7.65982 18.0131 7.04626 18.0131 7.04626C18.0131 7.04626 17.8098 7.49423 17.8637 7.63891C17.9175 7.78358 18.1573 7.76789 18.2008 7.83762C18.2459 7.90734 18.9601 8.71438 18.9601 8.71438C18.9601 8.71438 18.6421 8.17228 18.5587 8.02761C18.4736 7.88294 18.5778 7.80798 18.7272 7.79404C18.8767 7.77835 18.8854 7.5657 18.8854 7.5657L18.8819 7.58487Z" fill="#291482"/>
  <path d="M20.2024 7.49941C20.2024 7.49941 19.9696 7.27456 19.6759 7.26061C19.6759 7.26061 20.2024 7.26061 20.2667 7.22052L20.2024 7.49941Z" fill="#291482"/>
  <path d="M19.0956 7.36525C19.2346 7.27984 19.8358 7.5291 20.1972 7.73826C20.5604 7.94743 21.0608 8.38494 21.0608 8.38494C21.0608 8.38494 20.3362 7.80276 19.8792 7.66854C19.4222 7.53432 19.0643 7.47855 18.9809 7.44891C18.8975 7.42103 19.0956 7.36525 19.0956 7.36525Z" fill="#291482"/>
  <path d="M14.8993 7.61447C14.5222 7.66502 12.2772 7.70337 12.2772 7.70337C12.2772 7.70337 13.2103 7.82364 13.7872 7.84281C14.3641 7.86199 14.8993 7.61447 14.8993 7.61447Z" fill="#291482"/>
  <path d="M18.0876 7.1004C18.0546 7.20673 18.0407 7.578 18.2075 7.65121C18.2075 7.65121 18.1276 7.43159 18.1276 7.34618C18.1276 7.25902 18.0876 7.1004 18.0876 7.1004Z" fill="#291482"/>
  <path d="M20.6351 12.8141C20.6351 12.8141 20.6455 12.8838 20.6559 12.9884C20.6611 13.0424 20.6646 13.0982 20.6681 13.1714C20.6802 13.2394 20.6872 13.3056 20.6907 13.3771C20.6994 13.5166 20.6837 13.6577 20.6577 13.7606C20.6333 13.8634 20.6038 13.9297 20.6038 13.9297C20.6038 13.9297 20.6403 13.8687 20.6785 13.7676C20.7167 13.6665 20.7515 13.5253 20.7602 13.3789C20.7654 13.3074 20.7654 13.2307 20.7636 13.1662C20.7689 13.1069 20.7723 13.0372 20.7741 12.9849C20.7775 12.8769 20.7758 12.8036 20.7758 12.8036C20.7758 12.8036 20.7584 12.5701 20.682 12.2337C20.6438 12.0646 20.5899 11.8711 20.5239 11.6654C20.4908 11.5626 20.4544 11.458 20.4161 11.3517C20.397 11.2976 20.3762 11.2436 20.3553 11.1896C20.331 11.1355 20.2997 11.0885 20.2719 11.0379C20.2128 10.9403 20.1607 10.8357 20.0947 10.7433C20.0304 10.651 19.9626 10.5621 19.8931 10.4801C19.7558 10.3145 19.6134 10.1734 19.4882 10.0566C19.2363 9.82475 19.0556 9.6853 19.0556 9.6853C19.0556 9.6853 19.2311 9.83172 19.4726 10.0723C19.5925 10.1925 19.728 10.339 19.8584 10.508C19.9226 10.5917 19.9869 10.6823 20.046 10.7765C20.1068 10.8688 20.1537 10.9734 20.2094 11.071C20.2354 11.1216 20.265 11.1704 20.2858 11.2209C20.3032 11.2732 20.3206 11.3273 20.3379 11.3796C20.3709 11.4859 20.404 11.5922 20.4318 11.6933C20.4891 11.8973 20.5343 12.0907 20.5656 12.2581C20.6281 12.5892 20.6351 12.8141 20.6351 12.8141Z" fill="#291482"/>
  <path d="M23.1233 10.128C23.1233 10.128 22.9826 10.1402 22.8401 10.1367C22.6976 10.1367 22.5551 10.1141 22.5551 10.1141C22.5551 10.1141 22.6889 10.1716 22.8296 10.2065C22.9704 10.2448 23.1163 10.2675 23.1163 10.2675C23.1163 10.2675 23.2328 10.2692 23.4048 10.264C23.5768 10.2605 23.8062 10.2465 24.0303 10.2605C24.2562 10.2762 24.4804 10.3232 24.6385 10.386C24.7983 10.447 24.887 10.522 24.887 10.522C24.887 10.522 24.8036 10.44 24.6472 10.3651C24.4908 10.2884 24.2666 10.2221 24.0373 10.1908C23.8062 10.1594 23.5768 10.1542 23.4048 10.1454C23.2362 10.1385 23.1233 10.128 23.1233 10.128Z" fill="#291482"/>
  <path d="M13.2415 6.97301L12.0391 7.02705L13.238 7.1142L17.0851 7.09677L13.2415 6.97301Z" fill="#291482"/>
  <path d="M10.2216 1.36917C10.2216 1.36917 10.2424 1.43889 10.2789 1.56091C10.3102 1.68467 10.3675 1.85723 10.411 2.07163C10.4544 2.28254 10.5048 2.54574 10.5257 2.81243C10.5552 3.07912 10.5795 3.36149 10.6386 3.63167C10.6873 3.90533 10.7776 4.15808 10.8801 4.40385C10.9844 4.64788 11.0817 4.88145 11.172 5.07841C11.2624 5.27712 11.3163 5.45317 11.3597 5.57344C11.3945 5.6972 11.4136 5.76867 11.4136 5.76867C11.4136 5.76867 11.3753 5.70592 11.3041 5.60133C11.2381 5.49326 11.1286 5.34859 11.0139 5.16382C10.8992 4.97906 10.7515 4.77163 10.6247 4.52412C10.4926 4.28183 10.3832 3.98726 10.3241 3.69268C10.2685 3.39636 10.2476 3.10003 10.2442 2.82637C10.2424 2.55097 10.2476 2.31043 10.232 2.09254C10.2181 1.8764 10.2216 1.69338 10.2164 1.56614C10.2216 1.44238 10.2216 1.36917 10.2216 1.36917Z" fill="#15E9E2"/>
  <path d="M12.2876 8.6203C12.2876 8.6203 12.2146 8.70222 12.0878 8.84341C11.9575 8.98111 11.782 9.19028 11.5648 9.43083C11.3476 9.67137 11.1078 9.9642 10.8489 10.2745C10.5917 10.5865 10.3172 10.9194 10.0478 11.2593C9.77155 11.5957 9.51091 11.9304 9.27112 12.2581C9.03133 12.5823 8.80197 12.8908 8.60736 13.1505C8.41274 13.4137 8.22856 13.6177 8.10519 13.7623C7.97313 13.9018 7.89841 13.9802 7.89841 13.9802C7.89841 13.9802 7.95749 13.8878 8.0548 13.724C8.15732 13.5636 8.28764 13.3248 8.45792 13.0477C8.62821 12.7705 8.81239 12.4376 9.03828 12.0942C9.25722 11.7474 9.52655 11.3953 9.79761 11.0554C10.0739 10.7172 10.3554 10.3843 10.6369 10.0862C10.9166 9.78641 11.1964 9.52495 11.4379 9.30358C11.6794 9.08047 11.8984 8.91662 12.0478 8.79809C12.199 8.68479 12.2876 8.6203 12.2876 8.6203Z" fill="#15E9E2"/>
  <path d="M14.2737 8.20197C14.2737 8.20197 14.2546 8.27343 14.2337 8.39893C14.2077 8.52269 14.1955 8.70222 14.1712 8.91836C14.1451 9.13276 14.1364 9.38899 14.0756 9.66788C14.0113 9.93631 13.9262 10.2117 13.8428 10.4924C13.7541 10.7695 13.6655 11.0466 13.5717 11.3029C13.4813 11.5609 13.3806 11.7962 13.3024 12.0001C13.2242 12.204 13.1408 12.3679 13.0904 12.4847C13.033 12.5997 13.0018 12.666 13.0018 12.666C13.0018 12.666 13.0122 12.5927 13.0313 12.4655C13.0574 12.34 13.0799 12.157 13.1303 11.9461C13.1807 11.7334 13.2294 11.4842 13.3006 11.221C13.3684 10.9578 13.4518 10.6806 13.5335 10.4017C13.6221 10.1263 13.7124 9.84916 13.8011 9.59467C13.8758 9.34542 13.9383 9.0979 13.9939 8.88525C14.0478 8.67085 14.1225 8.49829 14.1746 8.3815C14.2337 8.26297 14.2737 8.20197 14.2737 8.20197Z" fill="#15E9E2"/>
  <path d="M14.4718 13.6211C14.4718 13.6211 14.4735 13.5932 14.477 13.5444C14.4857 13.4991 14.4857 13.4276 14.5013 13.3526C14.5187 13.2777 14.5257 13.1853 14.55 13.0929C14.5691 12.9988 14.6004 12.9029 14.6282 12.8036C14.6629 12.7077 14.6959 12.6083 14.7394 12.5195C14.7793 12.4288 14.8332 12.3504 14.8714 12.2807C14.9097 12.2109 14.9635 12.1604 14.9913 12.122C15.0261 12.0872 15.0469 12.0663 15.0469 12.0663C15.0469 12.0663 15.0487 12.0941 15.0504 12.1447C15.0469 12.1918 15.0539 12.2632 15.0435 12.3399C15.0313 12.4166 15.0296 12.5107 15.0087 12.6066C14.9931 12.7025 14.9635 12.8018 14.934 12.9029C14.8975 13.0023 14.861 13.1016 14.8141 13.1905C14.7689 13.2812 14.7116 13.3579 14.6647 13.4241C14.6195 13.4921 14.5621 13.5374 14.5291 13.5723C14.4944 13.6036 14.4718 13.6211 14.4718 13.6211Z" fill="#15E9E2"/>
  <path d="M17.6309 1.7474C17.6309 1.7474 17.6065 1.7474 17.5648 1.75786C17.5231 1.76483 17.4693 1.78749 17.4084 1.82061C17.3459 1.85373 17.2816 1.90253 17.2104 1.95657C17.1409 2.01235 17.0627 2.07161 16.9827 2.12739C16.9011 2.18142 16.8177 2.23372 16.7343 2.27381C16.6509 2.31564 16.5674 2.34179 16.4962 2.36096C16.425 2.38188 16.3624 2.38711 16.3207 2.39233C16.2773 2.39582 16.2529 2.39582 16.2529 2.39582C16.2529 2.39582 16.2755 2.38711 16.3155 2.37142C16.3555 2.35747 16.4093 2.33133 16.4754 2.30344C16.5414 2.27555 16.6126 2.23372 16.6891 2.1884C16.7655 2.14308 16.8437 2.09078 16.9219 2.03675C17.0018 1.98446 17.0783 1.92694 17.1565 1.87639C17.2329 1.82584 17.3129 1.78749 17.3841 1.76309C17.4554 1.73694 17.5197 1.7352 17.5631 1.7352C17.6065 1.74043 17.6309 1.7474 17.6309 1.7474Z" fill="#15E9E2"/>
  <path d="M12.6785 1.82758C12.6785 1.82758 12.689 1.8241 12.7063 1.81538C12.7237 1.81015 12.748 1.79795 12.7793 1.79098C12.8089 1.78401 12.8436 1.77006 12.8801 1.76309C12.9166 1.75437 12.9566 1.74566 12.9965 1.73869C13.0365 1.73346 13.0764 1.72648 13.1147 1.723C13.1529 1.71777 13.1894 1.71951 13.2207 1.71777C13.2519 1.71603 13.2797 1.71951 13.2971 1.71951C13.3162 1.72126 13.3267 1.723 13.3267 1.723C13.3267 1.723 13.318 1.72823 13.3023 1.74043C13.285 1.74914 13.2624 1.76483 13.2346 1.77703C13.205 1.78923 13.172 1.80492 13.1338 1.81712C13.0973 1.82933 13.0556 1.83804 13.0139 1.84676C12.9722 1.85199 12.9305 1.85896 12.8923 1.85896C12.8523 1.8607 12.8158 1.85547 12.7845 1.85373C12.7533 1.85199 12.7255 1.84327 12.7081 1.83978C12.689 1.82933 12.6785 1.82758 12.6785 1.82758Z" fill="#15E9E2"/>
  <path d="M15.8027 6.01103C15.8027 6.01103 15.8271 5.98488 15.8549 5.92911C15.8844 5.87507 15.9087 5.7914 15.9261 5.68856C15.9435 5.58572 15.9522 5.46022 15.9643 5.32949C15.9748 5.19702 15.9835 5.05757 15.9869 4.91639C15.9904 4.7752 15.9956 4.63924 15.9991 4.49979C16.0043 4.37604 16.0095 4.24182 16.013 4.13549C16.0165 4.02917 16.0269 3.94027 16.0304 3.87752C16.0373 3.81477 16.0408 3.77991 16.0408 3.77991C16.0408 3.77991 16.0443 3.81477 16.0512 3.87752C16.0547 3.94027 16.0669 4.02917 16.0721 4.13549C16.0773 4.24182 16.0877 4.36732 16.0912 4.49979C16.0964 4.63401 16.0964 4.77694 16.0912 4.91987C16.0842 5.0628 16.0755 5.20573 16.0547 5.33995C16.0356 5.47417 16.0095 5.59618 15.9817 5.70076C15.9539 5.80709 15.9087 5.88902 15.8705 5.93956C15.8323 5.99011 15.8027 6.01103 15.8027 6.01103Z" fill="#15E9E2"/>
  <path d="M14.9826 7.98926H15.6185C15.6185 7.98926 15.5264 10.1141 14.4665 12.1203C14.4665 12.1203 15.0486 8.90611 14.9826 7.98926Z" fill="#15E9E2"/>
  <path d="M22.9228 27.8444L21.9654 24.9718C21.9637 24.9684 21.9637 24.9666 21.9619 24.9631C21.8716 24.7243 21.6422 24.5657 21.3885 24.5657C21.0497 24.5657 20.7751 24.8411 20.7751 25.181C20.7751 25.2525 20.7873 25.3222 20.8116 25.3884C20.8116 25.3902 20.8134 25.3919 20.8134 25.3937L21.7517 28.2105C21.8281 28.4702 22.0697 28.6514 22.339 28.6514C22.6778 28.6514 22.9524 28.376 22.9524 28.0361C22.9524 27.9717 22.9419 27.9089 22.9228 27.8479C22.9246 27.8479 22.9246 27.8462 22.9228 27.8444Z" fill="#291482"/>
  <path d="M24.6535 27.8444L24.0853 26.1327C24.0835 26.1292 24.0835 26.1274 24.0818 26.124C23.9914 25.8852 23.7621 25.7265 23.5084 25.7265C23.1696 25.7265 22.895 26.0019 22.895 26.3418C22.895 26.4133 22.9072 26.483 22.9315 26.5493C22.9315 26.551 22.9332 26.5527 22.9332 26.5562L23.4841 28.2121C23.5605 28.4719 23.802 28.6531 24.0714 28.6531C24.4102 28.6531 24.6847 28.3777 24.6847 28.0378C24.6847 27.9733 24.6743 27.9106 24.6552 27.8496C24.6552 27.8478 24.6535 27.8461 24.6535 27.8444Z" fill="#291482"/>
  <path d="M25.5676 25.3814C25.5589 25.357 25.5467 25.3326 25.5328 25.3065C25.5311 25.303 25.5293 25.2995 25.5276 25.2978C25.5276 25.2978 25.5224 25.289 25.5137 25.2751C25.5119 25.2716 25.5085 25.2681 25.5067 25.2629C25.4563 25.1879 25.2635 24.9178 24.8847 24.6267C24.7995 24.5622 24.6901 24.5447 24.5893 24.5848C24.4902 24.6232 24.419 24.7086 24.4016 24.8132C24.3478 25.1147 24.3234 25.54 24.4016 25.7614C24.4034 25.7649 24.4051 25.7684 24.4051 25.7719C24.4173 25.8172 24.4364 25.8608 24.459 25.9009C24.5702 26.0996 24.7804 26.2163 24.9976 26.2163C25.0689 26.2163 25.1418 26.2041 25.2113 26.178C25.366 26.1187 25.4876 26.0037 25.5554 25.852C25.6232 25.7039 25.6284 25.5366 25.5676 25.3814Z" fill="#291482"/>
  <defs>
    <linearGradient id="paint0_linear_1299_16285" x1="21.5001" y1="5.99985" x2="10.0001" y2="1.49985" gradientUnits="userSpaceOnUse">
      <stop stop-color="#02FFF7"/>
      <stop offset="1" stop-color="#E2FFFE"/>
    </linearGradient>
    <linearGradient id="paint1_linear_1299_16285" x1="28.1168" y1="31.6182" x2="-1.33691" y2="23.0787" gradientUnits="userSpaceOnUse">
      <stop offset="0.221861" stop-color="#02FFF7"/>
      <stop offset="1" stop-color="#E2FFFE"/>
    </linearGradient>
  </defs>
</svg>