<svg xmlns="http://www.w3.org/2000/svg" width="24" height="24" viewBox="0 0 28 28" fill="none">
<path d="M25 16C25 10.4771 20.5229 6 15 6C9.47722 6 5 10.4771 5 16C5 21.5229 9.47722 26 15 26C20.5229 26 25 21.5229 25 16Z" fill="#A4FF00"/>
<path d="M25 16C25 10.4771 20.5229 6 15 6C9.47722 6 5 10.4771 5 16C5 21.5229 9.47722 26 15 26C20.5229 26 25 21.5229 25 16Z" fill="#A4FF00"/>
<path d="M20.5391 12.3125L12.5775 20.274L8.53906 16.2356" stroke="#291482" stroke-width="1.5" stroke-linecap="round" stroke-linejoin="round"/>
</svg>
