<svg width="18" height="17" viewBox="0 0 18 17" fill="none" xmlns="http://www.w3.org/2000/svg">
<circle cx="7.94096" cy="7.94096" r="6.63944" stroke="#F5A623" stroke-width="0.867624"/>
<path d="M7.94093 1C7.77065 1 7.63245 1.1382 7.63245 1.30849V2.23395C7.63245 2.40424 7.77065 2.54244 7.94093 2.54244C8.11122 2.54244 8.24942 2.40424 8.24942 2.23395V1.30849C8.24942 1.1382 8.11122 1 7.94093 1Z" fill="#F5A623"/>
<path d="M7.94093 13.3395C7.77065 13.3395 7.63245 13.4777 7.63245 13.648V14.5734C7.63245 14.7437 7.77065 14.8819 7.94093 14.8819C8.11122 14.8819 8.24942 14.7437 8.24942 14.5734V13.648C8.24942 13.4777 8.11122 13.3395 7.94093 13.3395Z" fill="#F5A623"/>
<path d="M11.4115 1.92988C11.2639 1.84458 11.0752 1.89517 10.9901 2.04263L10.5273 2.84408C10.4422 2.9917 10.4926 3.18034 10.6402 3.26548C10.7879 3.35062 10.9765 3.30018 11.0616 3.15257L11.5244 2.35112C11.6095 2.20382 11.5591 2.01502 11.4115 1.92988Z" fill="#F5A623"/>
<path d="M5.24167 12.6163C5.09406 12.5312 4.90542 12.5816 4.82027 12.7292L4.35754 13.5307C4.2724 13.6781 4.32283 13.8669 4.47045 13.9519C4.61806 14.0372 4.8067 13.9866 4.89184 13.8392L5.35457 13.0377C5.43972 12.8901 5.38928 12.7015 5.24167 12.6163Z" fill="#F5A623"/>
<path d="M13.9521 4.47045C13.8669 4.32283 13.6783 4.2724 13.5308 4.35754L12.7294 4.82027C12.5817 4.90557 12.5313 5.09406 12.6165 5.24167C12.7017 5.38928 12.8902 5.43972 13.0378 5.35457L13.8393 4.89184C13.9866 4.8067 14.0372 4.61806 13.9521 4.47045Z" fill="#F5A623"/>
<path d="M3.26568 10.6402C3.18054 10.4926 2.9919 10.4422 2.84429 10.5273L2.04283 10.9901C1.89522 11.0754 1.84478 11.2639 1.92993 11.4115C2.01507 11.5591 2.20371 11.6095 2.35132 11.5244L3.15278 11.0616C3.30039 10.9765 3.35082 10.7879 3.26568 10.6402Z" fill="#F5A623"/>
<path d="M14.5734 7.63245H13.648C13.4777 7.63245 13.3395 7.77065 13.3395 7.94093C13.3395 8.11122 13.4777 8.24942 13.648 8.24942H14.5734C14.7437 8.24942 14.8819 8.11122 14.8819 7.94093C14.8819 7.77065 14.7437 7.63245 14.5734 7.63245Z" fill="#F5A623"/>
<path d="M2.23395 7.63245H1.30849C1.1382 7.63245 1 7.77065 1 7.94093C1 8.11122 1.1382 8.24942 1.30849 8.24942H2.23395C2.40424 8.24942 2.54244 8.11122 2.54244 7.94093C2.54244 7.77065 2.40424 7.63245 2.23395 7.63245Z" fill="#F5A623"/>
<path d="M13.8392 10.9901L13.0377 10.5273C12.8901 10.4422 12.7015 10.4926 12.6163 10.6402C12.5312 10.7879 12.5816 10.9765 12.7292 11.0616L13.5307 11.5244C13.6781 11.6095 13.8669 11.5591 13.9519 11.4115C14.0372 11.2639 13.9866 11.0752 13.8392 10.9901Z" fill="#F5A623"/>
<path d="M3.15278 4.82027L2.35132 4.35754C2.20371 4.2724 2.01507 4.32283 1.92993 4.47045C1.84478 4.61806 1.89522 4.8067 2.04283 4.89184L2.84429 5.35457C2.9919 5.43972 3.18054 5.38928 3.26568 5.24167C3.35082 5.09406 3.30039 4.90542 3.15278 4.82027Z" fill="#F5A623"/>
<path d="M11.5244 13.5307L11.0616 12.7292C10.9763 12.5816 10.7879 12.5312 10.6402 12.6163C10.4926 12.7016 10.4422 12.8901 10.5273 13.0377L10.9901 13.8392C11.0754 13.9866 11.2639 14.0372 11.4115 13.9519C11.5591 13.8669 11.6095 13.6781 11.5244 13.5307Z" fill="#F5A623"/>
<path d="M5.35457 2.84433L4.89184 2.04288C4.8067 1.89542 4.61806 1.84483 4.47045 1.93012C4.32283 2.01527 4.2724 2.20391 4.35754 2.35136L4.82027 3.15282C4.90542 3.30043 5.09406 3.35087 5.24167 3.26572C5.38928 3.18058 5.43972 2.99194 5.35457 2.84433Z" fill="#F5A623"/>
<path fill-rule="evenodd" clip-rule="evenodd" d="M7.63245 3.62221C7.63245 3.45192 7.77065 3.31372 7.94093 3.31372C8.11122 3.31372 8.24942 3.45192 8.24942 3.62221V7.63256H11.3343C11.5046 7.63256 11.6428 7.77076 11.6428 7.94105C11.6428 8.11133 11.5046 8.24954 11.3343 8.24954H7.94093C7.77065 8.24954 7.63245 8.11133 7.63245 7.94105V3.62221Z" fill="#F5A623"/>
<circle cx="13.5748" cy="13.3849" r="3.07283" fill="white"/>
<circle cx="13.5748" cy="13.3849" r="3.07283" stroke="#F5A623" stroke-width="1.08453"/>
<circle cx="13.5748" cy="13.3849" r="3.07283" stroke="white" stroke-width="1.08453"/>
<path d="M13.3248 13.1349V13.3849H13.5748V13.1349H13.3248ZM13.3248 13.6349H13.5748V13.3849H13.3248V13.6349ZM13.8248 13.6349V13.3849H13.5748V13.6349H13.8248ZM13.8248 13.1349H13.5748V13.3849H13.8248V13.1349ZM13.5748 12.1041H14.0748C14.0748 11.828 13.851 11.6041 13.5748 11.6041V12.1041ZM13.5748 12.1041V11.6041C13.2987 11.6041 13.0748 11.828 13.0748 12.1041H13.5748ZM13.5748 13.1349V12.1041H13.0748V13.1349H13.5748ZM12.2941 13.3849H13.3248V12.8849H12.2941V13.3849ZM12.2941 13.3849V12.8849C12.0179 12.8849 11.7941 13.1088 11.7941 13.3849H12.2941ZM12.2941 13.3849H11.7941C11.7941 13.661 12.0179 13.8849 12.2941 13.8849V13.3849ZM13.3248 13.3849H12.2941V13.8849H13.3248V13.3849ZM13.5748 14.6657V13.6349H13.0748V14.6657H13.5748ZM13.5748 14.6657H13.0748C13.0748 14.9418 13.2987 15.1657 13.5748 15.1657V14.6657ZM13.5748 14.6657V15.1657C13.851 15.1657 14.0748 14.9418 14.0748 14.6657H13.5748ZM13.5748 13.6349V14.6657H14.0748V13.6349H13.5748ZM14.8556 13.3849H13.8248V13.8849H14.8556V13.3849ZM14.8556 13.3849V13.8849C15.1318 13.8849 15.3556 13.661 15.3556 13.3849H14.8556ZM14.8556 13.3849H15.3556C15.3556 13.1088 15.1318 12.8849 14.8556 12.8849V13.3849ZM13.8248 13.3849H14.8556V12.8849H13.8248V13.3849ZM13.5748 12.1041V13.1349H14.0748V12.1041H13.5748Z" fill="#F5A623"/>
</svg>
