<svg width="34" height="32" viewBox="0 0 34 32" fill="none" xmlns="http://www.w3.org/2000/svg">
<ellipse cx="22.5883" cy="22.1176" rx="9.41176" ry="1.41176" fill="#DEDEDE"/>
<g style="mix-blend-mode:multiply" opacity="0.52">
<path d="M20.3292 4.08534C20.3292 4.08534 20.4305 4.24751 20.5174 4.42127C20.5565 4.50041 20.5913 4.58162 20.6216 4.66453C20.6351 4.70276 20.6429 4.74276 20.6448 4.78326C20.6648 4.74518 20.6785 4.7041 20.6853 4.66163C20.6853 4.58344 20.7056 4.48498 20.7114 4.37204C20.7114 4.16643 20.7114 3.96082 20.7114 3.96082C20.7114 3.96082 20.6535 3.81023 20.5608 3.59593L20.4015 3.23394C20.3436 3.09783 20.277 2.94435 20.2133 2.81693C20.0801 2.52733 19.9498 2.25801 19.8716 2.04082C19.8311 1.93367 19.805 1.841 19.7847 1.77439L19.7587 1.67303V1.78018C19.7587 1.84679 19.7789 1.94236 19.8021 2.06978C19.8455 2.29855 19.9295 2.59973 20.0164 2.89801C20.0569 3.0457 20.1004 3.1876 20.1351 3.3324C20.1699 3.4772 20.2046 3.60462 20.2336 3.71466C20.3002 3.93765 20.3292 4.08534 20.3292 4.08534Z" fill="#FF8CF9"/>
</g>
<path d="M16.5907 9.68611C16.5907 9.68611 16.8223 9.29516 17.0888 8.91869L17.2886 8.64647L17.4739 8.4148C17.5336 8.33865 17.5878 8.25833 17.6361 8.17444C17.5716 8.24522 17.5019 8.31104 17.4276 8.37136L17.1988 8.5596C17.1119 8.632 17.0279 8.71019 16.9411 8.78838C16.5965 9.10114 16.275 9.44575 16.275 9.44575L16.1273 9.66005C16.0347 9.79616 15.9072 9.99019 15.7625 10.2392C15.6177 10.4883 15.4729 10.7663 15.3049 11.082C15.137 11.3976 14.9979 11.7277 14.8589 12.0724C14.5694 12.7616 14.3406 13.4624 14.161 13.9866L13.8715 14.8553L14.2305 14.0039C14.4448 13.4943 14.7286 12.8108 15.0501 12.1505C15.2122 11.8204 15.3831 11.4961 15.5568 11.2007C15.7306 10.9053 15.887 10.6389 16.0434 10.4246C16.1997 10.2103 16.3329 10.0191 16.4343 9.89462L16.5907 9.68611Z" fill="white"/>
<path d="M20.2336 4.08534C20.2336 4.08534 20.3349 4.24751 20.4218 4.42127C20.4623 4.50815 20.5058 4.60082 20.5289 4.66453C20.5424 4.70276 20.5502 4.74276 20.5521 4.78326C20.5703 4.74467 20.5829 4.70373 20.5898 4.66163C20.6043 4.56572 20.613 4.46901 20.6158 4.37204C20.6158 4.16643 20.6158 3.96082 20.6158 3.96082C20.6158 3.96082 20.5608 3.81023 20.4652 3.59593L20.3089 3.23394C20.248 3.09783 20.1843 2.94435 20.1177 2.81693C19.9845 2.52733 19.8571 2.25801 19.7789 2.04082C19.7454 1.95356 19.7164 1.86463 19.692 1.77439L19.6631 1.67303V1.78018C19.6631 1.84679 19.6834 1.94236 19.7065 2.06978C19.75 2.29855 19.8339 2.59973 19.9208 2.89801C19.9643 3.0457 20.0048 3.1876 20.0395 3.3324C20.0743 3.4772 20.109 3.60462 20.138 3.71466C20.2046 3.93765 20.2336 4.08534 20.2336 4.08534Z" fill="white"/>
<path d="M21.8437 5.64624H22.2926C22.2157 6.66456 21.9382 7.65761 21.476 8.56823C21.476 8.56823 21.8901 6.29493 21.8437 5.64624Z" fill="white"/>
<path d="M26.6161 1.04752C27.149 1.60644 26.257 3.7639 25.7271 4.92227H19.4199C18.0067 2.31594 18.14 0.82164 18.3456 0.616029V0.616029C18.3532 0.600371 18.3653 0.587289 18.3803 0.578382C18.7915 0.465441 19.1506 0.888246 19.501 1.04173C19.7692 1.17726 20.0747 1.22003 20.3698 1.16336C20.6039 1.04469 20.871 1.00798 21.1285 1.05911C21.4181 1.1373 21.5078 1.4877 21.7916 1.58906C21.9249 1.6287 22.0644 1.64246 22.2028 1.6296C22.4774 1.64833 22.7521 1.5944 22.9992 1.47322C23.1015 1.38262 23.1982 1.28591 23.2888 1.18363C23.3806 1.11062 23.4909 1.06451 23.6073 1.05042C23.9548 0.966436 24.2242 1.47612 24.5572 1.32264C24.6441 1.28499 24.702 1.2039 24.7802 1.16915C24.8661 1.14296 24.9578 1.14296 25.0437 1.16915C25.2379 1.21496 25.4422 1.16306 25.591 1.03015C25.7097 0.908518 25.8545 0.604445 26.118 0.682635C26.3065 0.770284 26.4757 0.894285 26.6161 1.04752V1.04752Z" fill="#FFADFB"/>
<path d="M19.4198 4.9223H25.727C25.5243 5.36248 25.3708 5.65208 25.3708 5.65208H19.8455C19.6891 5.3953 19.5472 5.15205 19.4198 4.9223Z" fill="#291482"/>
<path d="M25.3709 5.64337C28.8459 7.66023 31.6404 12.7417 31.6404 16.6619C31.6404 21.6618 27.5862 22.4359 22.5966 22.4359C17.6071 22.4359 13.5529 21.6618 13.5529 16.6619C13.5529 12.7417 16.3705 7.66023 19.8456 5.64337H25.3709Z" fill="#FFADFB"/>
<path d="M19.5009 1.04755C19.1505 0.894067 18.7914 0.468366 18.3802 0.584203C18.3672 0.588244 18.3554 0.595175 18.3455 0.604474C18.4348 0.408468 18.5937 0.252627 18.7914 0.167189C18.9315 0.0734526 19.1078 0.0519492 19.2663 0.109271C19.4956 0.17078 19.7328 0.198103 19.97 0.190357C20.2596 0.15271 20.5492 -0.0326297 20.8388 0.0050174C21.1284 0.0426645 21.418 0.29461 21.7249 0.30909C22.0319 0.323569 22.3041 0.0368726 22.6168 0.019497C22.9296 0.00212147 23.2163 0.199045 23.5261 0.251171C23.8997 0.288818 24.2559 0.144022 24.6121 0.0803115C24.9301 0.0246259 25.2566 0.0404538 25.5677 0.126646C25.7965 0.190357 26.2077 0.352529 26.616 1.04755C26.4806 0.90059 26.3184 0.780698 26.1382 0.694248C25.8747 0.616058 25.7299 0.920131 25.6112 1.04176C25.4611 1.17657 25.2541 1.22859 25.0581 1.18076C24.9722 1.15457 24.8804 1.15457 24.7945 1.18076C24.7163 1.21552 24.6584 1.2966 24.5716 1.33425C24.2385 1.48773 23.9692 0.978049 23.6217 1.06203C23.5053 1.07612 23.395 1.12223 23.3032 1.19524C23.2126 1.29752 23.1159 1.39423 23.0136 1.48484C22.7665 1.60601 22.4918 1.65995 22.2172 1.64122C22.0788 1.65407 21.9392 1.64031 21.806 1.60067C21.5164 1.49932 21.4238 1.14891 21.1429 1.07072C20.8855 1.01288 20.6162 1.04349 20.3784 1.1576C20.0818 1.21983 19.7729 1.18109 19.5009 1.04755V1.04755Z" fill="#291482"/>
<path d="M19.5009 1.04755C19.1505 0.894067 18.7914 0.468366 18.3802 0.584203C18.3672 0.588244 18.3554 0.595175 18.3455 0.604474C18.4348 0.408468 18.5937 0.252627 18.7914 0.167189C18.9315 0.0734526 19.1078 0.0519492 19.2663 0.109271C19.4956 0.17078 19.7328 0.198103 19.97 0.190357C20.2596 0.15271 20.5492 -0.0326297 20.8388 0.0050174C21.1284 0.0426645 21.418 0.29461 21.7249 0.30909C22.0319 0.323569 22.3041 0.0368726 22.6168 0.019497C22.9296 0.00212147 23.2163 0.199045 23.5261 0.251171C23.8997 0.288818 24.2559 0.144022 24.6121 0.0803115C24.9301 0.0246259 25.2566 0.0404538 25.5677 0.126646C25.7965 0.190357 26.2077 0.352529 26.616 1.04755C26.4806 0.90059 26.3184 0.780698 26.1382 0.694248C25.8747 0.616058 25.7299 0.920131 25.6112 1.04176C25.4611 1.17657 25.2541 1.22859 25.0581 1.18076C24.9722 1.15457 24.8804 1.15457 24.7945 1.18076C24.7163 1.21552 24.6584 1.2966 24.5716 1.33425C24.2385 1.48773 23.9692 0.978049 23.6217 1.06203C23.5053 1.07612 23.395 1.12223 23.3032 1.19524C23.2126 1.29752 23.1159 1.39423 23.0136 1.48484C22.7665 1.60601 22.4918 1.65995 22.2172 1.64122C22.0788 1.65407 21.9392 1.64031 21.806 1.60067C21.5164 1.49932 21.4238 1.14891 21.1429 1.07072C20.8855 1.01288 20.6162 1.04349 20.3784 1.1576C20.0818 1.21983 19.7729 1.18109 19.5009 1.04755V1.04755Z" fill="#FF8CF9"/>
<g style="mix-blend-mode:multiply" opacity="0.4">
<path d="M24.8235 4.05354C23.086 4.82965 19.4198 4.92232 19.4198 4.92232H25.727C26.2569 3.76395 27.1488 1.61517 26.616 1.05626C26.5038 0.950838 26.3837 0.854032 26.2569 0.766663C25.9963 2.02639 25.5243 3.73499 24.8235 4.05354Z" fill="#FF8CF9"/>
</g>
<path d="M24.0359 5.63754C24.0359 6.50632 24.9915 7.14342 25.3825 7.82976C25.7734 8.51609 25.7879 9.2198 25.7618 9.98143C25.7618 9.81636 26.535 9.66577 26.5408 9.48912C26.5669 8.72749 26.5408 8.0122 26.1614 7.33455C25.7821 6.6569 24.8033 6.00242 24.8178 5.14233C24.8178 5.3074 24.0388 5.46378 24.0359 5.63754H24.0359Z" fill="#291482"/>
<g style="mix-blend-mode:screen" opacity="0.29">
<path d="M19.9962 5.64331C19.3511 6.225 18.7784 6.88228 18.2905 7.60096C18.2905 7.60096 19.6487 5.92422 20.4161 5.6491L19.9962 5.64331Z" fill="#FF8CF9"/>
</g>
<g style="mix-blend-mode:screen" opacity="0.29">
<path d="M21.0617 5.64331H21.2644L20.8706 6.92041L21.0617 5.64331V5.64331Z" fill="#FF8CF9"/>
</g>
<g style="mix-blend-mode:multiply">
<path d="M24.6063 5.35953C24.5803 5.44062 24.3718 5.54197 24.1227 5.47826C23.8737 5.41455 23.9924 4.98016 23.9924 4.98016C23.9924 4.98016 23.8476 5.29872 23.8853 5.40007C23.9229 5.50143 24.0938 5.48985 24.1256 5.54197C24.1575 5.5941 24.6643 6.1617 24.6643 6.1617L24.3747 5.67519C24.3168 5.57093 24.3892 5.51881 24.4963 5.51012C24.6034 5.50143 24.6092 5.34795 24.6092 5.34795L24.6063 5.35953Z" fill="white"/>
</g>
<g style="mix-blend-mode:multiply">
<path d="M25.5446 5.30161C25.4413 5.20655 25.3105 5.14673 25.171 5.13075C25.3115 5.13372 25.4519 5.125 25.5909 5.10468L25.5446 5.30161Z" fill="white"/>
</g>
<g style="mix-blend-mode:screen">
<path d="M24.0445 5.01782C24.0214 5.09312 24.0127 5.35665 24.1285 5.40877C24.1027 5.33848 24.0842 5.26569 24.0735 5.19158C24.0691 5.1329 24.0594 5.07474 24.0445 5.01782Z" fill="#291482"/>
</g>
<path d="M25.8516 9.05764V9.18216C25.8516 9.21981 25.8516 9.25745 25.8516 9.30958C25.8558 9.35775 25.8558 9.40621 25.8516 9.45438C25.8582 9.54577 25.8504 9.63765 25.8284 9.7266C25.819 9.76711 25.8065 9.80682 25.7908 9.84533C25.8112 9.80917 25.8286 9.7714 25.8429 9.73239C25.8772 9.63934 25.8977 9.54177 25.9037 9.44279C25.9066 9.39264 25.9066 9.34236 25.9037 9.29221C25.9037 9.24877 25.9037 9.19954 25.9037 9.16478V9.03447C25.8911 8.89888 25.8688 8.76436 25.8371 8.63193C25.8081 8.5132 25.7705 8.3742 25.7241 8.2294C25.701 8.157 25.6749 8.0846 25.6489 8.00931L25.6054 7.89347C25.588 7.85583 25.5649 7.82107 25.5446 7.78632C25.5243 7.75157 25.4664 7.64442 25.4201 7.57782C25.3738 7.51121 25.3274 7.4504 25.2782 7.39248C25.1872 7.29055 25.0905 7.19387 24.9886 7.10288C24.8091 6.93782 24.6816 6.83936 24.6816 6.83936C24.6816 6.83936 24.8062 6.94361 24.9712 7.11157C25.0682 7.20925 25.1591 7.31273 25.2434 7.42144C25.2918 7.48131 25.3363 7.54418 25.3766 7.60967C25.4192 7.67693 25.4578 7.74655 25.4925 7.81818C25.5137 7.85236 25.5321 7.88819 25.5475 7.92533L25.5851 8.03537C25.6083 8.11067 25.6315 8.18596 25.6518 8.25836C25.6894 8.38992 25.7203 8.5233 25.7444 8.658C25.79 8.78835 25.8259 8.92194 25.8516 9.05764V9.05764Z" fill="#291482"/>
<path d="M20.6072 4.92809L19.7559 4.96573L20.6043 5.02655L23.3322 5.01496L20.6072 4.92809V4.92809Z" fill="#291482"/>
<path d="M18.4672 0.966431L18.5077 1.10254C18.528 1.18942 18.5714 1.31105 18.6004 1.46453C18.641 1.63712 18.67 1.81223 18.6872 1.98869C18.7035 2.18295 18.7296 2.37626 18.7654 2.56788C18.8026 2.75592 18.8599 2.93942 18.9363 3.11521C19.0116 3.28607 19.0811 3.45114 19.1448 3.59014C19.2085 3.72915 19.2461 3.85657 19.278 3.94055L19.3157 4.07955L19.2375 3.96082C19.1911 3.88553 19.1129 3.78127 19.0319 3.65096C18.9508 3.52064 18.8465 3.37584 18.7567 3.19919C18.6562 3.01821 18.5839 2.82288 18.5425 2.62001C18.5052 2.41843 18.4858 2.21395 18.4845 2.00896C18.4845 1.81494 18.4845 1.64408 18.4845 1.49059C18.4845 1.33711 18.4845 1.201 18.4845 1.11702L18.4672 0.966431Z" fill="#FFE8FE"/>
<g style="mix-blend-mode:multiply" opacity="0.4">
<path d="M19.9324 6.08063L19.7905 6.2399C19.6949 6.33547 19.5733 6.48316 19.4169 6.65402C19.2605 6.82488 19.0955 7.03049 18.9101 7.25058C18.7248 7.47067 18.5337 7.70814 18.331 7.94561C18.1283 8.18307 17.9487 8.42054 17.7808 8.65221L17.3203 9.29511C17.1842 9.48045 17.0539 9.62524 16.9641 9.7266L16.8193 9.88298L16.9294 9.70054C17.0018 9.5876 17.0944 9.41094 17.219 9.22271C17.3435 9.03447 17.468 8.79122 17.6302 8.54796C17.7948 8.29549 17.9727 8.05189 18.163 7.81818C18.3599 7.57782 18.5597 7.34325 18.7596 7.13185C18.9594 6.92045 19.1563 6.73511 19.3387 6.57873C19.5212 6.42235 19.666 6.30651 19.7702 6.22253L19.9324 6.08063Z" fill="#FF8CF9"/>
</g>
<g style="mix-blend-mode:multiply" opacity="0.4">
<path d="M21.3398 5.79114C21.3398 5.79114 21.3253 5.84326 21.3109 5.93014C21.2964 6.01702 21.2848 6.14444 21.2674 6.29793C21.25 6.45141 21.2414 6.63096 21.2008 6.82788C21.1603 7.0248 21.0937 7.21304 21.0358 7.40707C20.9778 7.60109 20.9083 7.79802 20.8417 7.98625C20.7751 8.17449 20.7085 8.33376 20.6506 8.47856C20.5927 8.62336 20.5377 8.73919 20.5029 8.82317L20.4392 8.9506L20.4595 8.80869C20.4769 8.71892 20.4942 8.5915 20.529 8.44091C20.5637 8.29032 20.5985 8.11367 20.6506 7.92833C20.7027 7.74299 20.7578 7.54607 20.8157 7.34915C20.8736 7.15222 20.9431 6.9582 21.0039 6.76996C21.0647 6.58173 21.1024 6.41955 21.14 6.26897C21.1733 6.14675 21.2169 6.02759 21.2703 5.91277C21.291 5.87086 21.3142 5.83024 21.3398 5.79114Z" fill="#FF8CF9"/>
</g>
<path d="M23.7201 1.23288H23.6738C23.6353 1.24217 23.5982 1.25679 23.5638 1.27632C23.513 1.30384 23.4654 1.33686 23.4219 1.37478C23.3726 1.41243 23.3176 1.45587 23.2597 1.49352C23.2038 1.53313 23.1447 1.56801 23.083 1.59777C23.0292 1.62433 22.973 1.64566 22.9151 1.66148C22.8744 1.67254 22.8327 1.67933 22.7906 1.68175H22.7413L22.7848 1.66438C22.8232 1.65088 22.8609 1.63541 22.8977 1.61804C22.944 1.59777 22.9962 1.56591 23.0483 1.53696L23.2191 1.44718L23.3842 1.33424C23.4342 1.29979 23.4888 1.27249 23.5464 1.25315C23.587 1.23778 23.6304 1.23088 23.6738 1.23288H23.7201Z" fill="#FFE8FE"/>
<path d="M20.2075 1.29081H20.2278L20.2799 1.27343L20.3523 1.25316C20.3759 1.24308 20.4001 1.23438 20.4247 1.2271H20.5087H20.584C20.6023 1.22563 20.6207 1.22563 20.639 1.2271H20.6593H20.6419L20.5927 1.25316L20.5232 1.28212L20.4392 1.30239H20.3523H20.2741C20.2558 1.30447 20.2374 1.30447 20.2191 1.30239L20.2075 1.29081Z" fill="#FFE8FE"/>
<path d="M22.4258 4.24754C22.4406 4.23038 22.4524 4.21079 22.4605 4.18963C22.4868 4.13681 22.5044 4.08009 22.5126 4.02166C22.5126 3.94637 22.53 3.85949 22.5387 3.76682C22.5474 3.67415 22.5387 3.57279 22.5532 3.47723V3.18763V2.9299C22.5532 2.8546 22.5532 2.79379 22.5532 2.74745V2.68085V2.74745C22.5532 2.79379 22.5532 2.8546 22.5706 2.9299C22.5879 3.00519 22.5706 3.09496 22.5706 3.18763C22.5706 3.2803 22.5706 3.38456 22.5706 3.47723C22.5706 3.5699 22.5706 3.67994 22.5445 3.76682C22.5319 3.85363 22.5145 3.93968 22.4924 4.02456C22.4769 4.08487 22.4503 4.14181 22.4142 4.19252C22.4198 4.21044 22.4237 4.22887 22.4258 4.24754Z" fill="#FFE8FE"/>
<path d="M27.4732 19.6915L26.7956 17.6643V17.6643C26.733 17.4923 26.5704 17.377 26.3873 17.3748C26.1474 17.3748 25.9529 17.5692 25.9529 17.8091C25.9526 17.8595 25.9614 17.9096 25.979 17.9568V17.9568L26.645 19.9492C26.7055 20.1568 26.9094 20.2882 27.1234 20.2576C27.3374 20.2271 27.4964 20.0438 27.4964 19.8276C27.4969 19.7824 27.4901 19.7374 27.4761 19.6944L27.4732 19.6915Z" fill="#291482"/>
<path d="M28.6983 19.6915L28.2957 18.4752V18.4752C28.2208 18.2803 28.0177 18.1663 27.8122 18.2038C27.6068 18.2414 27.4571 18.4198 27.4559 18.6287C27.4563 18.6779 27.4641 18.7267 27.4791 18.7735V18.7735L27.87 19.9319C27.9306 20.1394 28.1345 20.2708 28.3485 20.2403C28.5625 20.2097 28.7214 20.0264 28.7214 19.8102C28.722 19.765 28.7151 19.72 28.7012 19.677L28.6983 19.6915Z" fill="#291482"/>
<path d="M29.3469 17.954C29.3469 17.9366 29.3324 17.9221 29.3237 17.9018V17.9018V17.8845V17.8845C29.2031 17.7104 29.0544 17.5578 28.8835 17.4327C28.8232 17.3888 28.745 17.3779 28.675 17.4037C28.605 17.4304 28.5544 17.4921 28.5418 17.5659C28.4953 17.7875 28.4953 18.0162 28.5418 18.2378V18.2378C28.5513 18.2698 28.564 18.3008 28.5795 18.3304C28.658 18.4676 28.8036 18.5526 28.9617 18.5534C29.0133 18.5539 29.0645 18.544 29.1123 18.5245C29.2204 18.4816 29.3065 18.3966 29.3507 18.289C29.395 18.1815 29.3936 18.0605 29.3469 17.954V17.954Z" fill="#291482"/>
<path d="M24.5224 5.93009C25.3217 5.6405 25.8748 6.26891 26.4163 6.75833C26.6457 6.98953 26.9265 7.16318 27.2358 7.26511C27.5954 7.31718 27.9585 7.34042 28.3218 7.33462C29.0805 7.4186 29.2484 7.99489 29.5728 8.57697C29.8983 9.24153 30.5425 9.69217 31.2784 9.77009C31.1945 9.77009 31.1742 8.87814 31.0757 8.86946C30.3718 8.79635 29.7501 8.37861 29.4164 7.75452C29.0689 7.15796 28.9125 6.52376 28.1219 6.43109C27.3806 6.34421 26.8883 6.43109 26.2802 5.91561C25.672 5.40014 25.1566 4.7167 24.3197 5.02656C24.2762 5.04394 24.5542 5.91851 24.5224 5.93009V5.93009Z" fill="#291482"/>
<g style="mix-blend-mode:multiply">
<path d="M24.9597 5.82002L24.7686 5.42328C24.8452 5.51892 24.9372 5.60113 25.0408 5.66654C25.212 5.76002 25.3739 5.86959 25.5244 5.99378C25.3498 5.89827 25.1577 5.83915 24.9597 5.82002V5.82002Z" fill="white"/>
</g>
<g style="mix-blend-mode:multiply">
<path d="M24.7685 5.21183C24.867 5.15102 25.2927 5.32767 25.5504 5.47536C25.7651 5.61261 25.9693 5.76555 26.1614 5.93292C25.9078 5.72537 25.626 5.55475 25.3245 5.42613C25.0002 5.33057 24.7454 5.29292 24.6875 5.27265C24.6295 5.25238 24.7685 5.21183 24.7685 5.21183Z" fill="white"/>
</g>
<path d="M27.615 7.15794C27.615 7.15794 27.5166 7.15794 27.4152 7.15794C27.3473 7.15716 27.2796 7.15135 27.2125 7.14056C27.2766 7.16704 27.3424 7.18929 27.4094 7.20717C27.5079 7.23323 27.6122 7.25061 27.6122 7.25061H27.8149C27.9365 7.25061 28.1044 7.25061 28.2608 7.25061C28.4083 7.259 28.5537 7.28925 28.6923 7.34038C28.7561 7.36213 28.8158 7.39443 28.869 7.43595C28.8176 7.39119 28.7601 7.35412 28.6981 7.3259C28.5605 7.26253 28.414 7.22054 28.2637 7.20138C28.1016 7.17821 27.9394 7.17532 27.8178 7.16952C27.6961 7.16373 27.615 7.15794 27.615 7.15794Z" fill="#291482"/>
<g style="mix-blend-mode:multiply" opacity="0.4">
<path d="M27.1865 6.96686C27.2576 7.57047 27.2933 8.17777 27.2936 8.78562C27.2936 15.5994 22.7934 21.1258 17.2421 21.1258C16.6204 21.1255 16.0007 21.055 15.3945 20.9156C17.0452 22.1592 19.6572 22.422 22.5965 22.422C27.5919 22.422 31.6403 21.6454 31.6403 16.63C31.6403 13.4216 29.7725 9.42204 27.1865 6.96686Z" fill="#FF8CF9"/>
</g>
<rect x="22.391" y="5.64331" width="1.21916" height="0.729774" transform="rotate(-180 22.391 5.64331)" fill="#291482"/>
<g style="mix-blend-mode:multiply">
<path d="M21.783 5.38279C21.5166 5.41754 19.9238 5.4465 19.9238 5.4465C19.9238 5.4465 20.587 5.53048 20.9953 5.54496C21.2663 5.54617 21.5345 5.49094 21.783 5.38279Z" fill="white"/>
</g>
<path d="M3.79288 15.7523C3.79288 15.7523 4.0837 15.2674 4.4176 14.804C4.50069 14.6881 4.58532 14.5707 4.66533 14.467C4.74996 14.3618 4.82843 14.2627 4.8946 14.1789C5.03 14.0081 5.09771 13.8801 5.09771 13.8801C5.09771 13.8801 5.00385 13.9898 4.83766 14.1255C4.75457 14.1941 4.6561 14.2734 4.55147 14.3588C4.44529 14.4472 4.33758 14.5433 4.22987 14.6408C3.7975 15.0296 3.3959 15.455 3.3959 15.455C3.3959 15.455 3.32973 15.551 3.21279 15.7172C3.09739 15.8849 2.93736 16.1288 2.75733 16.4261C2.5773 16.7249 2.38035 17.0802 2.18647 17.4689C1.99259 17.8577 1.80333 18.2785 1.62946 18.7038C1.27863 19.5546 0.981662 20.422 0.75855 21.07C0.533898 21.7179 0.384644 22.1509 0.384644 22.1509C0.384644 22.1509 0.563134 21.7301 0.830869 21.0974C1.0986 20.4647 1.45251 19.6216 1.85565 18.8045C2.05722 18.3959 2.2711 17.9949 2.48652 17.6275C2.7004 17.2601 2.91582 16.9277 3.1097 16.6502C3.30357 16.3728 3.47591 16.1486 3.59747 15.9931C3.7221 15.8407 3.79288 15.7523 3.79288 15.7523Z" fill="#DEDEDE"/>
<path d="M8.34445 8.82164C8.34445 8.82164 8.47063 9.0244 8.5768 9.23937C8.62911 9.34609 8.68143 9.45891 8.71067 9.54124C8.7399 9.62509 8.7399 9.6876 8.7399 9.6876C8.7399 9.6876 8.77068 9.63271 8.7876 9.53666C8.80453 9.44062 8.81222 9.31865 8.81991 9.19211C8.83222 8.93903 8.81991 8.68595 8.81991 8.68595C8.81991 8.68595 8.75067 8.49995 8.63373 8.23315C8.57526 8.10203 8.50756 7.94805 8.43524 7.78339C8.36292 7.61569 8.27983 7.44036 8.19674 7.26809C8.03056 6.92201 7.87053 6.57745 7.77359 6.30912C7.72282 6.17496 7.68896 6.06062 7.66434 5.98134C7.6428 5.90053 7.63049 5.8548 7.63049 5.8548C7.63049 5.8548 7.63511 5.90206 7.64434 5.98591C7.65511 6.06976 7.6705 6.18868 7.69974 6.33047C7.75359 6.61404 7.85822 6.98756 7.96593 7.35499C8.01979 7.53946 8.0721 7.72089 8.11519 7.89316C8.15981 8.06697 8.20135 8.22857 8.23828 8.36883C8.30906 8.64173 8.34445 8.82164 8.34445 8.82164Z" fill="#DEDEDE"/>
<path d="M10.3525 10.7542H10.9157C10.9157 10.7542 10.8341 12.6126 9.89551 14.3674C9.89551 14.3674 10.411 11.5561 10.3525 10.7542Z" fill="#DEDEDE"/>
<ellipse cx="11.1465" cy="30.5367" rx="10.5001" ry="1.4636" fill="#DEDEDE"/>
<path d="M16.3119 5.06329C16.9782 5.75545 15.8657 8.42652 15.2025 9.84743H7.32741C5.56097 6.60312 5.73023 4.77514 5.98566 4.51901C5.98566 4.51749 5.98719 4.51749 5.98719 4.51596C6.00258 4.50224 6.01643 4.49309 6.03028 4.49005C6.54267 4.35131 6.99197 4.87424 7.42896 5.06329C7.75055 5.20203 8.17678 5.32094 8.52452 5.21575C8.8892 5.10293 9.08769 4.98401 9.46929 5.08768C9.82319 5.18221 9.94321 5.61671 10.2971 5.74325C10.4602 5.80119 10.6387 5.79814 10.8126 5.79356C11.1434 5.78594 11.5188 5.77832 11.8081 5.59842C11.9528 5.50847 12.0466 5.36211 12.1805 5.25386C12.319 5.14104 12.419 5.12885 12.5806 5.08921C13.016 4.98401 13.3515 5.61671 13.7684 5.42766C13.8762 5.3804 13.9469 5.27978 14.0439 5.23557C14.1439 5.19135 14.2639 5.21117 14.3747 5.22794C14.6501 5.26911 14.8917 5.22337 15.0563 5.05719C15.2071 4.90626 15.3856 4.52968 15.7149 4.62878C15.9719 4.70501 16.1504 4.9398 16.3119 5.06329Z" fill="#A4FF00"/>
<path d="M7.32739 9.84698H15.201C14.9471 10.3897 14.7594 10.7511 14.7594 10.7511H7.84901C7.65821 10.4385 7.48588 10.1382 7.32739 9.84698Z" fill="#291482"/>
<path d="M14.7593 10.7513C19.1061 13.2333 22.5882 19.4887 22.5882 24.314C22.5882 30.4702 17.5336 31.4216 11.2941 31.4216C5.05619 31.4216 0 30.4702 0 24.314C0 19.4887 3.5021 13.2318 7.84895 10.7513L14.7593 10.7513Z" fill="#A4FF00"/>
<path d="M7.42883 5.06284C6.99184 4.87532 6.54253 4.35238 6.03014 4.4896C6.0163 4.49417 6.00245 4.50179 5.98706 4.51551C6.15786 4.21212 6.27942 4.1054 6.541 3.97124C6.80411 3.83707 6.85643 3.8447 7.14571 3.89958C7.43652 3.95447 7.72888 4.03527 8.02431 4.0002C8.39668 3.95599 8.74596 3.7273 9.11833 3.76999C9.50763 3.81268 9.82922 4.14504 10.2216 4.14656C10.6186 4.14809 10.9448 3.81268 11.3387 3.77457C11.7311 3.73645 12.0865 3.99868 12.4743 4.06271C12.922 4.13589 13.3652 3.9438 13.8129 3.86452C14.2068 3.79439 14.6177 3.81421 15.0039 3.92093C15.2901 4.0002 15.804 4.20297 16.3118 5.06131C16.1502 4.93782 15.9733 4.70304 15.7163 4.62681C15.387 4.52771 15.2085 4.90428 15.0577 5.05522C14.8916 5.22292 14.6515 5.26866 14.3761 5.22597C14.2653 5.2092 14.1453 5.18785 14.0453 5.23359C13.9483 5.27781 13.8776 5.37843 13.7698 5.42569C13.3529 5.61321 13.0174 4.98204 12.582 5.08723C12.4204 5.12687 12.3204 5.13907 12.1819 5.25189C12.048 5.36013 11.9542 5.50497 11.8095 5.59644C11.5203 5.77634 11.1433 5.78397 10.814 5.79159C10.6417 5.79616 10.4616 5.79921 10.2985 5.74128C9.94462 5.61474 9.8246 5.18023 9.4707 5.08571C9.08756 4.98204 8.88906 5.10095 8.52593 5.21377C8.17818 5.32049 7.75196 5.20158 7.42883 5.06284Z" fill="#9BEC09"/>
<path opacity="0.4" d="M7.42883 5.06284C6.99184 4.87532 6.54253 4.35238 6.03014 4.4896C6.0163 4.49417 6.00245 4.50179 5.98706 4.51551C6.15786 4.21212 6.27942 4.1054 6.541 3.97124C6.80411 3.83707 6.85643 3.8447 7.14571 3.89958C7.43652 3.95447 7.72888 4.03527 8.02431 4.0002C8.39668 3.95599 8.74596 3.7273 9.11833 3.76999C9.50763 3.81268 9.82922 4.14504 10.2216 4.14656C10.6186 4.14809 10.9448 3.81268 11.3387 3.77457C11.7311 3.73645 12.0865 3.99868 12.4743 4.06271C12.922 4.13589 13.3652 3.9438 13.8129 3.86452C14.2068 3.79439 14.6177 3.81421 15.0039 3.92093C15.2901 4.0002 15.804 4.20297 16.3118 5.06131C16.1502 4.93782 15.9733 4.70304 15.7163 4.62681C15.387 4.52771 15.2085 4.90428 15.0577 5.05522C14.8916 5.22292 14.6515 5.26866 14.3761 5.22597C14.2653 5.2092 14.1453 5.18785 14.0453 5.23359C13.9483 5.27781 13.8776 5.37843 13.7698 5.42569C13.3529 5.61321 13.0174 4.98204 12.582 5.08723C12.4204 5.12687 12.3204 5.13907 12.1819 5.25189C12.048 5.36013 11.9542 5.50497 11.8095 5.59644C11.5203 5.77634 11.1433 5.78397 10.814 5.79159C10.6417 5.79616 10.4616 5.79921 10.2985 5.74128C9.94462 5.61474 9.8246 5.18023 9.4707 5.08571C9.08756 4.98204 8.88906 5.10095 8.52593 5.21377C8.17818 5.32049 7.75196 5.20158 7.42883 5.06284Z" fill="#9BEC09"/>
<path d="M14.0762 8.77437C11.8912 9.73333 7.32898 9.8492 7.32898 9.8492H15.2025C15.8673 8.42676 16.9782 5.75722 16.312 5.06506C16.1842 4.96748 16.0458 4.8013 15.8673 4.69763C15.5411 6.27253 14.9487 8.39017 14.0762 8.77437Z" fill="#9BEC09"/>
<path d="M13.0913 10.7439C13.0728 11.8065 14.2838 12.6054 14.7715 13.4576C15.2516 14.2961 15.2778 15.1773 15.247 16.1195C15.2547 15.9122 16.2149 15.7292 16.221 15.5067C16.2533 14.5645 16.2272 13.6833 15.7455 12.8447C15.2578 11.994 14.0484 11.1951 14.0653 10.131C14.0622 10.3338 13.0944 10.5274 13.0913 10.7439V10.7439Z" fill="#291482"/>
<path d="M8.04588 10.75C8.04588 10.75 6.82415 11.805 5.91785 13.1726C5.91785 13.1726 7.61504 11.0991 8.57366 10.7591L8.04588 10.75Z" fill="#9BEC09"/>
<path d="M9.37834 10.75H9.63069L9.13831 12.3295L9.37834 10.75Z" fill="#9BEC09"/>
<path d="M7.32739 9.84698C7.32739 9.84698 7.44433 10.1214 7.48434 10.4004C7.52589 10.6794 7.5305 10.9401 7.5305 10.9401C7.5305 10.9401 8.07059 10.7892 8.57067 10.7572C9.07229 10.7251 9.36464 10.7129 9.36464 10.7129L7.59051 9.95371L7.32739 9.84698Z" fill="#291482"/>
<path d="M14.2454 10.9696L14.0161 10.4756C14.0161 10.4756 14.1561 10.6616 14.3562 10.7775C14.5562 10.8934 14.8716 11.0855 14.9593 11.1846C14.9609 11.1846 14.5854 10.9757 14.2454 10.9696Z" fill="#291482"/>
<path d="M13.8054 10.4008C13.77 10.5014 13.5115 10.6234 13.1991 10.5441C12.8867 10.4663 13.036 9.92969 13.036 9.92969C13.036 9.92969 12.856 10.3215 12.9037 10.448C12.9514 10.5746 13.1637 10.5609 13.2022 10.6218C13.2422 10.6828 13.8746 11.3887 13.8746 11.3887C13.8746 11.3887 13.593 10.9146 13.5192 10.788C13.4438 10.6615 13.5361 10.5959 13.6684 10.5837C13.8007 10.57 13.8084 10.384 13.8084 10.384L13.8054 10.4008Z" fill="#291482"/>
<path d="M14.9747 10.3253C14.9747 10.3253 14.7685 10.1286 14.5084 10.1164C14.5084 10.1164 14.9747 10.1164 15.0316 10.0814L14.9747 10.3253Z" fill="#291482"/>
<path d="M13.9946 10.2076C14.1177 10.1329 14.6501 10.3509 14.9701 10.5339C15.2917 10.7168 15.7349 11.0995 15.7349 11.0995C15.7349 11.0995 15.0932 10.5903 14.6885 10.4729C14.2839 10.3555 13.9669 10.3067 13.893 10.2808C13.8192 10.2564 13.9946 10.2076 13.9946 10.2076Z" fill="#291482"/>
<path d="M10.2786 10.426C9.94468 10.4702 7.95667 10.5038 7.95667 10.5038C7.95667 10.5038 8.78295 10.609 9.2938 10.6257C9.80465 10.644 10.2786 10.426 10.2786 10.426Z" fill="#291482"/>
<path d="M13.1022 9.97705C13.073 10.0701 13.0607 10.3948 13.2084 10.4588C13.2084 10.4588 13.1376 10.2667 13.1376 10.192C13.1376 10.1158 13.1022 9.97705 13.1022 9.97705Z" fill="#291482"/>
<path d="M15.3578 14.9742C15.3578 14.9742 15.367 15.0352 15.3763 15.1267C15.3809 15.174 15.384 15.2227 15.387 15.2868C15.3978 15.3462 15.404 15.4042 15.407 15.4667C15.4147 15.5886 15.4009 15.7121 15.3778 15.8021C15.3563 15.892 15.3301 15.95 15.3301 15.95C15.3301 15.95 15.3624 15.8966 15.3963 15.8082C15.4301 15.7198 15.4609 15.5963 15.4686 15.4682C15.4732 15.4057 15.4732 15.3386 15.4717 15.2822C15.4763 15.2304 15.4794 15.1694 15.4809 15.1236C15.484 15.0291 15.4824 14.9651 15.4824 14.9651C15.4824 14.9651 15.467 14.7608 15.3993 14.4665C15.3655 14.3187 15.3178 14.1494 15.2593 13.9695C15.2301 13.8796 15.1978 13.7881 15.1639 13.6951C15.147 13.6478 15.1285 13.6006 15.1101 13.5533C15.0885 13.5061 15.0608 13.4649 15.0362 13.4207C14.9839 13.3353 14.9377 13.2438 14.8793 13.163C14.8223 13.0822 14.7623 13.0045 14.7008 12.9328C14.5792 12.788 14.453 12.6645 14.3422 12.5623C14.1191 12.3596 13.9591 12.2376 13.9591 12.2376C13.9591 12.2376 14.1145 12.3657 14.3284 12.5761C14.4346 12.6813 14.5546 12.8093 14.67 12.9572C14.7269 13.0304 14.7839 13.1097 14.8362 13.192C14.89 13.2728 14.9316 13.3643 14.9808 13.4497C15.0039 13.4939 15.03 13.5366 15.0485 13.5808C15.0639 13.6265 15.0793 13.6738 15.0947 13.7195C15.1239 13.8125 15.1531 13.9055 15.1778 13.9939C15.2285 14.1723 15.2685 14.3415 15.2962 14.4879C15.3516 14.7776 15.3578 14.9742 15.3578 14.9742Z" fill="#291482"/>
<path d="M17.5613 12.6248C17.5613 12.6248 17.4366 12.6355 17.3105 12.6324C17.1843 12.6324 17.0581 12.6126 17.0581 12.6126C17.0581 12.6126 17.1766 12.6629 17.3012 12.6934C17.4259 12.727 17.5551 12.7468 17.5551 12.7468C17.5551 12.7468 17.6582 12.7483 17.8105 12.7437C17.9629 12.7407 18.166 12.7285 18.3645 12.7407C18.5645 12.7544 18.763 12.7956 18.903 12.8504C19.0446 12.9038 19.1231 12.9694 19.1231 12.9694C19.1231 12.9694 19.0492 12.8977 18.9107 12.8321C18.7722 12.7651 18.5737 12.7071 18.3706 12.6797C18.166 12.6522 17.9629 12.6477 17.8105 12.6401C17.6613 12.634 17.5613 12.6248 17.5613 12.6248Z" fill="#291482"/>
<path d="M8.81064 9.86513L7.74585 9.91239L8.80756 9.98862L12.2143 9.97338L8.81064 9.86513Z" fill="#291482"/>
<path d="M6.13633 4.96368C6.13633 4.96368 6.15479 5.02467 6.18711 5.13139C6.2148 5.23963 6.26558 5.39057 6.30405 5.57809C6.34252 5.76257 6.38714 5.99278 6.4056 6.22604C6.43176 6.4593 6.4533 6.70628 6.50562 6.94259C6.5487 7.18195 6.62872 7.40302 6.7195 7.61798C6.81182 7.83142 6.89799 8.03572 6.978 8.208C7.05802 8.3818 7.10572 8.53578 7.14418 8.64098C7.17496 8.74922 7.19188 8.81173 7.19188 8.81173C7.19188 8.81173 7.15803 8.75684 7.09495 8.66537C7.03647 8.57085 6.93954 8.44431 6.83798 8.2827C6.73643 8.12109 6.60564 7.93967 6.49331 7.72318C6.37637 7.51126 6.27943 7.25361 6.22711 6.99595C6.17788 6.73677 6.15941 6.47759 6.15633 6.23823C6.15479 5.99735 6.15941 5.78696 6.14556 5.59639C6.13325 5.40734 6.13633 5.24726 6.13171 5.13596C6.13633 5.02772 6.13633 4.96368 6.13633 4.96368Z" fill="#9BEC09"/>
<path d="M7.966 11.3061C7.966 11.3061 7.90137 11.3777 7.78905 11.5012C7.67365 11.6217 7.51824 11.8046 7.3259 12.015C7.13356 12.2254 6.92122 12.4815 6.69195 12.7529C6.46422 13.0258 6.22111 13.317 5.98261 13.6143C5.73795 13.9086 5.50714 14.2013 5.2948 14.4879C5.08246 14.7715 4.87935 15.0413 4.70702 15.2685C4.53468 15.4987 4.37158 15.6771 4.26233 15.8036C4.14539 15.9256 4.07922 15.9942 4.07922 15.9942C4.07922 15.9942 4.13154 15.9134 4.21771 15.7701C4.30849 15.6298 4.42389 15.4209 4.57469 15.1785C4.72548 14.9361 4.88858 14.6449 5.08862 14.3446C5.28249 14.0412 5.52099 13.7332 5.76103 13.4359C6.00569 13.1402 6.25496 12.849 6.50423 12.5883C6.75042 12.326 6.99969 12.0973 7.21357 11.9037C7.42745 11.7086 7.62133 11.5653 7.75366 11.4616C7.88753 11.3625 7.966 11.3061 7.966 11.3061Z" fill="#9BEC09"/>
<path d="M9.7246 10.9398C9.7246 10.9398 9.70767 11.0023 9.68921 11.1121C9.66613 11.2203 9.65536 11.3774 9.63382 11.5664C9.61074 11.7539 9.60304 11.9781 9.54919 12.222C9.49226 12.4568 9.41686 12.6977 9.343 12.9431C9.26453 13.1855 9.18605 13.4279 9.10296 13.6521C9.02295 13.8777 8.9337 14.0835 8.86446 14.2619C8.79522 14.4403 8.72136 14.5836 8.67674 14.6857C8.62596 14.7863 8.59827 14.8443 8.59827 14.8443C8.59827 14.8443 8.6075 14.7802 8.62442 14.6689C8.64751 14.5592 8.66751 14.3991 8.71213 14.2146C8.75675 14.0286 8.79984 13.8106 8.86292 13.5804C8.92293 13.3502 8.99679 13.1078 9.06911 12.8638C9.14759 12.623 9.2276 12.3805 9.30607 12.158C9.37224 11.9399 9.42763 11.7235 9.47687 11.5375C9.52457 11.3499 9.59073 11.199 9.63689 11.0969C9.68921 10.9932 9.7246 10.9398 9.7246 10.9398Z" fill="#9BEC09"/>
<path d="M9.90015 15.6807C9.90015 15.6807 9.90169 15.6563 9.90476 15.6136C9.91246 15.574 9.91246 15.5115 9.9263 15.4459C9.94169 15.3804 9.94785 15.2996 9.96939 15.2188C9.98631 15.1365 10.014 15.0526 10.0386 14.9657C10.0694 14.8818 10.0986 14.7949 10.1371 14.7172C10.1725 14.6379 10.2202 14.5693 10.254 14.5083C10.2879 14.4473 10.3356 14.4031 10.3602 14.3696C10.391 14.3391 10.4095 14.3208 10.4095 14.3208C10.4095 14.3208 10.411 14.3452 10.4125 14.3894C10.4095 14.4306 10.4156 14.4931 10.4064 14.5602C10.3956 14.6272 10.3941 14.7096 10.3756 14.7934C10.3618 14.8773 10.3356 14.9642 10.3094 15.0526C10.2771 15.1395 10.2448 15.2264 10.2033 15.3042C10.1633 15.3834 10.1125 15.4505 10.0709 15.5085C10.0309 15.5679 9.98016 15.6075 9.95092 15.638C9.92015 15.6655 9.90015 15.6807 9.90015 15.6807Z" fill="#9BEC09"/>
<path d="M12.6974 5.29467C12.6974 5.29467 12.6758 5.29467 12.6389 5.30382C12.602 5.30991 12.5543 5.32973 12.5004 5.3587C12.445 5.38767 12.3881 5.43036 12.325 5.47762C12.2635 5.52641 12.1942 5.57824 12.1234 5.62703C12.0511 5.67429 11.9773 5.72003 11.9034 5.75509C11.8295 5.79168 11.7557 5.81455 11.6926 5.83132C11.6295 5.84962 11.5741 5.85419 11.5372 5.85876C11.4987 5.86181 11.4772 5.86181 11.4772 5.86181C11.4772 5.86181 11.4972 5.85419 11.5326 5.84047C11.568 5.82827 11.6157 5.8054 11.6741 5.78101C11.7326 5.75662 11.7957 5.72003 11.8634 5.68039C11.9311 5.64075 12.0003 5.59501 12.0696 5.54775C12.1404 5.50201 12.2081 5.4517 12.2773 5.40749C12.345 5.36327 12.4158 5.32973 12.4789 5.30839C12.542 5.28552 12.5989 5.284 12.6374 5.284C12.6758 5.28857 12.6974 5.29467 12.6974 5.29467Z" fill="#9BEC09"/>
<path d="M8.31213 5.36474C8.31213 5.36474 8.32137 5.36169 8.33675 5.35407C8.35214 5.3495 8.37368 5.33882 8.40138 5.33273C8.42754 5.32663 8.45831 5.31443 8.49062 5.30833C8.52294 5.30071 8.55833 5.29461 8.59372 5.28699C8.62911 5.28242 8.6645 5.27632 8.69835 5.27327C8.7322 5.26869 8.76451 5.27022 8.79221 5.26869C8.81991 5.26717 8.84453 5.27022 8.85991 5.27022C8.87684 5.27174 8.88607 5.27327 8.88607 5.27327C8.88607 5.27327 8.87838 5.27784 8.86453 5.28851C8.84914 5.29614 8.82914 5.30986 8.80452 5.32053C8.77836 5.3312 8.74913 5.34492 8.71527 5.3556C8.68296 5.36627 8.64603 5.37389 8.6091 5.38151C8.57218 5.38609 8.53525 5.39219 8.50139 5.39219C8.466 5.39371 8.43369 5.38914 8.40599 5.38761C8.3783 5.38609 8.35368 5.37846 8.33829 5.37541C8.32137 5.36779 8.31213 5.36474 8.31213 5.36474Z" fill="#9BEC09"/>
<path d="M11.0787 9.0241C11.0787 9.0241 11.1003 9.00123 11.1249 8.95244C11.1511 8.90518 11.1726 8.832 11.188 8.74205C11.2034 8.6521 11.2111 8.54233 11.2218 8.42799C11.2311 8.31212 11.2388 8.19015 11.2418 8.06666C11.2449 7.94317 11.2495 7.82425 11.2526 7.70228C11.2572 7.59404 11.2618 7.47665 11.2649 7.38365C11.268 7.29065 11.2772 7.21289 11.2818 7.15801C11.288 7.10312 11.2911 7.07263 11.2911 7.07263C11.2911 7.07263 11.2942 7.10312 11.3003 7.15801C11.3034 7.21289 11.3142 7.29065 11.3188 7.38365C11.3234 7.47665 11.3326 7.58642 11.3357 7.70228C11.3403 7.81968 11.3403 7.94469 11.3357 8.06971C11.3295 8.19472 11.3219 8.31974 11.3034 8.43713C11.2865 8.55453 11.2634 8.66125 11.2388 8.75272C11.2141 8.84572 11.1741 8.91738 11.1403 8.96159C11.1049 9.0058 11.0787 9.0241 11.0787 9.0241Z" fill="#9BEC09"/>
<path d="M17.0242 12.4467C17.1134 13.1739 17.1596 13.9195 17.1596 14.6772C17.1596 23.041 11.5387 29.8224 4.60682 29.8224C3.819 29.8224 3.04811 29.734 2.30029 29.5663C4.3637 31.0924 7.62422 31.4232 11.294 31.4232C17.532 31.4232 22.5882 30.4719 22.5882 24.3156C22.5882 20.3654 20.2539 15.4578 17.0242 12.4467Z" fill="#9BEC09"/>
<path d="M17.3828 28.1215L16.535 25.609C16.5334 25.6059 16.5334 25.6044 16.5319 25.6013C16.4519 25.3925 16.2488 25.2537 16.0241 25.2537C15.7241 25.2537 15.481 25.4946 15.481 25.7919C15.481 25.8544 15.4917 25.9154 15.5133 25.9733C15.5133 25.9749 15.5148 25.9764 15.5148 25.9779L16.3457 28.4416C16.4134 28.6688 16.6273 28.8273 16.8658 28.8273C17.1658 28.8273 17.409 28.5865 17.409 28.2892C17.409 28.2328 17.3997 28.1779 17.3828 28.1245C17.3843 28.1245 17.3828 28.123 17.3828 28.1215Z" fill="#291482"/>
<path d="M18.9153 28.1212L18.4122 26.6241C18.4106 26.621 18.4106 26.6195 18.4091 26.6165C18.3291 26.4076 18.126 26.2689 17.9013 26.2689C17.6013 26.2689 17.3582 26.5097 17.3582 26.807C17.3582 26.8695 17.3689 26.9305 17.3905 26.9885C17.3905 26.99 17.392 26.9915 17.392 26.9946L17.8798 28.4429C17.9475 28.6701 18.1614 28.8286 18.3999 28.8286C18.6999 28.8286 18.943 28.5877 18.943 28.2905C18.943 28.234 18.9338 28.1792 18.9169 28.1258C18.9153 28.1243 18.9153 28.1228 18.9153 28.1212Z" fill="#291482"/>
<path d="M19.7246 25.9673C19.7169 25.946 19.7062 25.9246 19.6939 25.9017C19.6923 25.8987 19.6908 25.8956 19.6893 25.8941C19.6893 25.8941 19.6846 25.8865 19.6769 25.8743C19.6754 25.8713 19.6723 25.8682 19.6708 25.8636C19.6262 25.7981 19.4554 25.5618 19.1199 25.3072C19.0445 25.2507 18.9476 25.2355 18.8583 25.2706C18.7706 25.3041 18.7076 25.3788 18.6922 25.4703C18.6445 25.734 18.6229 26.106 18.6922 26.2997C18.6937 26.3027 18.6952 26.3058 18.6952 26.3088C18.706 26.3484 18.7229 26.3866 18.7429 26.4216C18.8414 26.5954 19.0276 26.6976 19.2199 26.6976C19.283 26.6976 19.3477 26.6869 19.4092 26.664C19.5462 26.6122 19.6539 26.5116 19.7139 26.3789C19.7739 26.2493 19.777 26.103 19.7246 25.9673Z" fill="#291482"/>
<path d="M13.6977 11.1028C14.6947 10.7354 15.3872 11.5236 16.0626 12.1273C16.3612 12.3941 16.6889 12.6503 17.0843 12.757C17.529 12.8759 17.9906 12.7905 18.443 12.8408C19.3878 12.9445 19.5986 13.6595 20.0033 14.3791C20.4572 15.1887 21.1835 15.7787 22.1344 15.8565C22.0282 15.8473 22.0051 14.7511 21.882 14.7405C20.9788 14.6673 20.2602 14.1276 19.8094 13.3607C19.3739 12.6228 19.1801 11.8392 18.1922 11.7248C17.2675 11.6181 16.652 11.737 15.8934 11.086C15.184 10.4762 14.4916 9.60263 13.4453 9.98682C13.3899 10.0082 13.7392 11.0876 13.6977 11.1028V11.1028Z" fill="#291482"/>
</svg>
