<svg width="24" height="24" viewBox="0 0 24 24" fill="none" xmlns="http://www.w3.org/2000/svg">
<path d="M16.2842 1.11098C16.8485 1.7045 15.9063 3.99489 15.3446 5.21329H8.6761C7.18003 2.43136 7.32338 0.863905 7.53971 0.644279C7.53971 0.642972 7.54101 0.642972 7.54101 0.641664C7.55405 0.629899 7.56577 0.622055 7.5775 0.61944C8.01147 0.500476 8.392 0.948879 8.76211 1.11098C9.03448 1.22995 9.39547 1.33192 9.68999 1.24171C9.99885 1.14497 10.167 1.043 10.4902 1.1319C10.7899 1.21295 10.8915 1.58553 11.1913 1.69404C11.3294 1.74372 11.4806 1.7411 11.6279 1.73718C11.908 1.73064 12.226 1.72411 12.471 1.56985C12.5935 1.49272 12.673 1.36722 12.7864 1.2744C12.9037 1.17766 12.9884 1.1672 13.1252 1.13321C13.494 1.043 13.7781 1.58553 14.1313 1.42343C14.2225 1.3829 14.2825 1.29662 14.3646 1.25871C14.4493 1.2208 14.5509 1.23779 14.6448 1.25217C14.878 1.28747 15.0826 1.24825 15.2221 1.10576C15.3498 0.976333 15.501 0.65343 15.7799 0.738404C15.9962 0.803769 16.1474 1.00509 16.2842 1.11098Z" fill="url(#paint0_linear_3021_132041)"/>
<path d="M8.67478 5.21484H15.3433C15.1282 5.68024 14.9692 5.99007 14.9692 5.99007H9.11526C8.95497 5.72208 8.80901 5.46454 8.67478 5.21484Z" fill="#291482"/>
<path d="M14.9694 5.99023C18.651 8.11721 21.6001 13.4824 21.6001 17.62C21.6001 22.8988 17.3191 23.7146 12.0346 23.7146C6.75142 23.7146 2.4691 22.8988 2.4691 17.62C2.4691 13.4824 5.43518 8.11721 9.11673 5.99023L14.9694 5.99023Z" fill="url(#paint1_linear_3021_132041)"/>
<path d="M8.7608 1.11181C8.39069 0.951015 8.01015 0.502611 7.57619 0.620268C7.56446 0.62419 7.55273 0.630727 7.5397 0.642492C7.68435 0.38234 7.7873 0.290829 8.00885 0.175787C8.2317 0.0607443 8.276 0.0672808 8.52101 0.114344C8.76862 0.162714 9.01622 0.232 9.26513 0.201933C9.58051 0.164021 9.87634 -0.0320739 10.1917 0.00453047C10.5214 0.0411348 10.7938 0.326126 11.1261 0.327433C11.4623 0.328741 11.7386 0.0411348 12.0722 0.00845237C12.4045 -0.0242301 12.7056 0.200625 13.034 0.255532C13.4132 0.318282 13.7885 0.153563 14.1678 0.085583C14.5014 0.0254473 14.8494 0.0424421 15.1765 0.133953C15.4189 0.201933 15.8541 0.375803 16.2842 1.11181C16.1473 1.00592 15.9975 0.804597 15.7798 0.739232C15.501 0.654258 15.3498 0.977161 15.2221 1.10658C15.0813 1.25039 14.878 1.28961 14.6448 1.253C14.5509 1.23862 14.4493 1.22032 14.3646 1.25954C14.2825 1.29745 14.2225 1.38373 14.1313 1.42426C13.7781 1.58505 13.494 1.04383 13.1252 1.13404C12.9884 1.16803 12.9037 1.17848 12.7864 1.27522C12.673 1.36804 12.5935 1.49224 12.471 1.57067C12.226 1.72494 11.9067 1.73147 11.6278 1.73801C11.4819 1.74193 11.3294 1.74455 11.1913 1.69487C10.8915 1.58636 10.7899 1.21378 10.4901 1.13273C10.1656 1.04383 9.99753 1.1458 9.68998 1.24254C9.39545 1.33275 9.03447 1.23078 8.7608 1.11181Z" fill="#251B7D"/>
<path d="M8.7608 1.11181C8.39069 0.951015 8.01015 0.502611 7.57619 0.620268C7.56446 0.62419 7.55273 0.630727 7.5397 0.642492C7.68435 0.38234 7.7873 0.290829 8.00885 0.175787C8.2317 0.0607443 8.276 0.0672808 8.52101 0.114344C8.76862 0.162714 9.01622 0.232 9.26513 0.201933C9.58051 0.164021 9.87634 -0.0320739 10.1917 0.00453047C10.5214 0.0411348 10.7938 0.326126 11.1261 0.327433C11.4623 0.328741 11.7386 0.0411348 12.0722 0.00845237C12.4045 -0.0242301 12.7056 0.200625 13.034 0.255532C13.4132 0.318282 13.7885 0.153563 14.1678 0.085583C14.5014 0.0254473 14.8494 0.0424421 15.1765 0.133953C15.4189 0.201933 15.8541 0.375803 16.2842 1.11181C16.1473 1.00592 15.9975 0.804597 15.7798 0.739232C15.501 0.654258 15.3498 0.977161 15.2221 1.10658C15.0813 1.25039 14.878 1.28961 14.6448 1.253C14.5509 1.23862 14.4493 1.22032 14.3646 1.25954C14.2825 1.29745 14.2225 1.38373 14.1313 1.42426C13.7781 1.58505 13.494 1.04383 13.1252 1.13404C12.9884 1.16803 12.9037 1.17848 12.7864 1.27522C12.673 1.36804 12.5935 1.49224 12.471 1.57067C12.226 1.72494 11.9067 1.73147 11.6278 1.73801C11.4819 1.74193 11.3294 1.74455 11.1913 1.69487C10.8915 1.58636 10.7899 1.21378 10.4901 1.13273C10.1656 1.04383 9.99753 1.1458 9.68998 1.24254C9.39545 1.33275 9.03447 1.23078 8.7608 1.11181Z" fill="#15E9E2"/>
<path d="M13.5566 5.98061C13.541 6.8918 14.5666 7.57682 14.9797 8.3076C15.3863 9.02662 15.4085 9.78224 15.3824 10.5901C15.3889 10.4124 16.2021 10.2555 16.2073 10.0646C16.2347 9.2567 16.2125 8.50108 15.8046 7.78207C15.3915 7.0526 14.3672 6.36757 14.3815 5.45508C14.3789 5.62895 13.5592 5.79498 13.5566 5.98061Z" fill="#291482"/>
<path d="M14.0713 6.29177C14.9158 5.97671 15.5023 6.65258 16.0744 7.17027C16.3272 7.39905 16.6048 7.61867 16.9397 7.71018C17.3163 7.81215 17.7073 7.73895 18.0904 7.78209C18.8906 7.87098 19.0691 8.48411 19.4119 9.10115C19.7963 9.79533 20.4114 10.3013 21.2168 10.3679C21.1269 10.3601 21.106 9.41882 21.0031 9.41098C20.2381 9.34823 19.6295 8.88545 19.2477 8.22787C18.8789 7.59514 18.7146 6.92319 17.878 6.82514C17.0948 6.73363 16.5735 6.8356 15.931 6.27738C15.3302 5.75447 14.7438 5.00538 13.8576 5.33482C13.8094 5.35312 14.1052 6.27869 14.0713 6.29177Z" fill="#291482"/>
<path d="M9.28347 5.98633C9.28347 5.98633 8.24873 6.89098 7.48114 8.06363C7.48114 8.06363 8.91857 6.2857 9.73047 5.99417L9.28347 5.98633Z" fill="#15E9E2"/>
<path d="M10.4123 5.98633H10.626L10.209 7.342L10.4123 5.98633Z" fill="#15E9E2"/>
<path d="M5.68151 10.2772C5.68151 10.2772 5.92781 9.86152 6.21061 9.4641C6.28098 9.36474 6.35265 9.26408 6.42042 9.17519C6.4921 9.08498 6.55856 9.00001 6.6146 8.92811C6.72928 8.78169 6.78662 8.67188 6.78662 8.67188C6.78662 8.67188 6.70713 8.766 6.56638 8.88235C6.49601 8.94118 6.4126 9.00916 6.32398 9.08237C6.23406 9.15819 6.14284 9.24055 6.05162 9.32422C5.68542 9.65758 5.34528 10.0223 5.34528 10.0223C5.34528 10.0223 5.28924 10.1047 5.1902 10.2472C5.09246 10.391 4.95693 10.6001 4.80445 10.8551C4.65198 11.1113 4.48517 11.4159 4.32096 11.7493C4.15676 12.0826 3.99647 12.4434 3.8492 12.8082C3.55207 13.5376 3.30056 14.2815 3.11159 14.8371C2.92132 15.3927 2.79491 15.764 2.79491 15.764C2.79491 15.764 2.94609 15.4032 3.17284 14.8606C3.3996 14.3181 3.69934 13.5952 4.04078 12.8945C4.21149 12.5441 4.39264 12.2003 4.57509 11.8852C4.75623 11.5702 4.93868 11.2852 5.10288 11.0472C5.26709 10.8093 5.41305 10.6171 5.516 10.4838C5.62156 10.3531 5.68151 10.2772 5.68151 10.2772Z" fill="#15E9E2"/>
<path d="M9.53652 4.33502C9.53652 4.33502 9.64339 4.50889 9.73331 4.69322C9.77762 4.78473 9.82193 4.88147 9.84669 4.95206C9.87145 5.02397 9.87145 5.07756 9.87145 5.07756C9.87145 5.07756 9.89751 5.0305 9.91185 4.94814C9.92618 4.86578 9.9327 4.7612 9.93921 4.65269C9.94964 4.43568 9.93921 4.21867 9.93921 4.21867C9.93921 4.21867 9.88057 4.05918 9.78153 3.8304C9.732 3.71797 9.67466 3.58594 9.61341 3.44475C9.55216 3.30095 9.48179 3.15061 9.41142 3.00288C9.27067 2.70612 9.13514 2.41068 9.05304 2.18059C9.01003 2.06555 8.98136 1.9675 8.96051 1.89952C8.94226 1.83023 8.93184 1.79102 8.93184 1.79102C8.93184 1.79102 8.93575 1.83154 8.94357 1.90344C8.95269 1.97534 8.96572 2.07731 8.99048 2.19889C9.03609 2.44205 9.12471 2.76234 9.21594 3.0774C9.26155 3.23558 9.30586 3.39115 9.34235 3.53887C9.38014 3.68791 9.41533 3.82648 9.4466 3.94675C9.50655 4.18076 9.53652 4.33502 9.53652 4.33502Z" fill="#15E9E2"/>
<path d="M8.67495 5.21484C8.67495 5.21484 8.774 5.45016 8.80788 5.68939C8.84307 5.92863 8.84698 6.15218 8.84698 6.15218C8.84698 6.15218 9.3044 6.02275 9.72794 5.9953C10.1528 5.96785 10.4004 5.95739 10.4004 5.95739L8.8965 5.30505L8.67495 5.21484Z" fill="#291482"/>
<path d="M14.534 6.17552L14.3398 5.75195C14.3398 5.75195 14.4584 5.91144 14.6278 6.0108C14.7972 6.11015 15.0644 6.27487 15.1387 6.35985C15.14 6.35985 14.822 6.18075 14.534 6.17552Z" fill="#291482"/>
<path d="M14.1616 5.68911C14.1316 5.77539 13.9127 5.87998 13.6481 5.812C13.3836 5.74533 13.51 5.28516 13.51 5.28516C13.51 5.28516 13.3575 5.62113 13.3979 5.72964C13.4383 5.83814 13.6181 5.82638 13.6507 5.87867C13.6846 5.93096 14.2202 6.53624 14.2202 6.53624C14.2202 6.53624 13.9817 6.12967 13.9192 6.02117C13.8553 5.91266 13.9335 5.85645 14.0456 5.84599C14.1577 5.83422 14.1642 5.67473 14.1642 5.67473L14.1616 5.68911Z" fill="#291482"/>
<path d="M15.152 5.62518C15.152 5.62518 14.9773 5.45654 14.7571 5.44608C14.7571 5.44608 15.152 5.44608 15.2002 5.41602L15.152 5.62518Z" fill="#291482"/>
<path d="M14.3215 5.52464C14.4257 5.46058 14.8767 5.64752 15.1477 5.8044C15.4201 5.96127 15.7954 6.28941 15.7954 6.28941C15.7954 6.28941 15.252 5.85277 14.9092 5.75211C14.5665 5.65145 14.298 5.60961 14.2355 5.58739C14.1729 5.56647 14.3215 5.52464 14.3215 5.52464Z" fill="#291482"/>
<path d="M11.1743 5.71094C10.8915 5.74885 9.20778 5.77761 9.20778 5.77761C9.20778 5.77761 9.9076 5.86781 10.3403 5.88219C10.7729 5.89657 11.1743 5.71094 11.1743 5.71094Z" fill="#291482"/>
<path d="M13.5656 5.32617C13.5409 5.40592 13.5304 5.68437 13.6555 5.73928C13.6555 5.73928 13.5956 5.57456 13.5956 5.5105C13.5956 5.44514 13.5656 5.32617 13.5656 5.32617Z" fill="#291482"/>
<path d="M15.4761 9.61027C15.4761 9.61027 15.484 9.66257 15.4918 9.741C15.4957 9.78153 15.4983 9.82336 15.5009 9.87827C15.51 9.92925 15.5152 9.97893 15.5178 10.0325C15.5244 10.1371 15.5126 10.243 15.4931 10.3201C15.4748 10.3973 15.4527 10.4469 15.4527 10.4469C15.4527 10.4469 15.4801 10.4012 15.5087 10.3254C15.5374 10.2495 15.5635 10.1437 15.57 10.0338C15.5739 9.98024 15.5739 9.92272 15.5726 9.87435C15.5765 9.8299 15.5791 9.77761 15.5804 9.73839C15.583 9.65734 15.5817 9.60243 15.5817 9.60243C15.5817 9.60243 15.5687 9.42725 15.5113 9.17494C15.4827 9.04813 15.4423 8.90302 15.3927 8.74876C15.368 8.67163 15.3406 8.59319 15.3119 8.51345C15.2976 8.47292 15.282 8.4324 15.2663 8.39187C15.2481 8.35134 15.2246 8.31605 15.2038 8.27814C15.1595 8.20493 15.1204 8.12649 15.0709 8.0572C15.0226 7.98792 14.9718 7.92124 14.9197 7.8598C14.8167 7.73561 14.7099 7.62972 14.616 7.54213C14.4271 7.36826 14.2915 7.26367 14.2915 7.26367C14.2915 7.26367 14.4232 7.37348 14.6043 7.55389C14.6942 7.6441 14.7959 7.75391 14.8936 7.88072C14.9418 7.94347 14.9901 8.01145 15.0344 8.08204C15.08 8.15133 15.1152 8.22977 15.1569 8.30297C15.1764 8.34089 15.1986 8.37749 15.2142 8.4154C15.2272 8.45462 15.2403 8.49515 15.2533 8.53437C15.2781 8.61411 15.3028 8.69386 15.3237 8.76968C15.3667 8.92263 15.4006 9.06774 15.424 9.19324C15.4709 9.44163 15.4761 9.61027 15.4761 9.61027Z" fill="#291482"/>
<path d="M17.3428 7.5964C17.3428 7.5964 17.2372 7.60555 17.1304 7.60293C17.0235 7.60293 16.9166 7.58594 16.9166 7.58594C16.9166 7.58594 17.017 7.62908 17.1225 7.65522C17.2281 7.68399 17.3376 7.70098 17.3376 7.70098C17.3376 7.70098 17.4249 7.70229 17.5539 7.69837C17.6829 7.69575 17.8549 7.68529 18.023 7.69575C18.1925 7.70752 18.3606 7.74281 18.4792 7.78988C18.5991 7.83563 18.6655 7.89185 18.6655 7.89185C18.6655 7.89185 18.603 7.8304 18.4857 7.77419C18.3684 7.71667 18.2003 7.66699 18.0283 7.64346C17.8549 7.61993 17.6829 7.61601 17.5539 7.60947C17.4275 7.60424 17.3428 7.5964 17.3428 7.5964Z" fill="#291482"/>
<path d="M9.93128 5.22922L9.02947 5.26974L9.92868 5.33511L12.814 5.32203L9.93128 5.22922Z" fill="#291482"/>
<path d="M7.66606 1.02734C7.66606 1.02734 7.6817 1.07964 7.70907 1.17115C7.73252 1.26396 7.77553 1.39339 7.80811 1.55419C7.84069 1.71237 7.87848 1.90977 7.89412 2.10979C7.91628 2.3098 7.93452 2.52159 7.97883 2.72422C8.01532 2.92946 8.08309 3.11902 8.15998 3.30335C8.23817 3.48637 8.31115 3.66155 8.37891 3.80928C8.44668 3.95831 8.48708 4.09035 8.51966 4.18055C8.54572 4.27337 8.56006 4.32697 8.56006 4.32697C8.56006 4.32697 8.53139 4.2799 8.47796 4.20147C8.42844 4.12041 8.34633 4.01191 8.26032 3.87333C8.17431 3.73476 8.06354 3.57919 7.9684 3.39355C7.86936 3.21184 7.78726 2.99091 7.74295 2.76997C7.70125 2.54773 7.68561 2.32549 7.683 2.12025C7.6817 1.91369 7.68561 1.73329 7.67388 1.56987C7.66345 1.40777 7.66606 1.2705 7.66215 1.17507C7.66606 1.08225 7.66606 1.02734 7.66606 1.02734Z" fill="#15E9E2"/>
<path d="M9.21582 6.46484C9.21582 6.46484 9.16109 6.52629 9.06595 6.63218C8.96821 6.73545 8.83659 6.89233 8.67369 7.07274C8.51079 7.25314 8.33095 7.47277 8.13677 7.70547C7.9439 7.93948 7.73799 8.18917 7.53599 8.44409C7.32878 8.6964 7.1333 8.9474 6.95346 9.19318C6.77362 9.43633 6.6016 9.66773 6.45564 9.86251C6.30968 10.0599 6.17154 10.2129 6.07901 10.3214C5.97997 10.426 5.92393 10.4848 5.92393 10.4848C5.92393 10.4848 5.96824 10.4155 6.04122 10.2926C6.11811 10.1723 6.21585 9.99324 6.34356 9.78538C6.47128 9.57752 6.60942 9.32783 6.77883 9.07029C6.94304 8.81014 7.14503 8.54606 7.34833 8.29114C7.55554 8.03752 7.76666 7.78783 7.97778 7.56428C8.18759 7.33943 8.39741 7.14333 8.57855 6.9773C8.7597 6.80997 8.9239 6.68708 9.03598 6.59819C9.14936 6.51321 9.21582 6.46484 9.21582 6.46484Z" fill="#15E9E2"/>
<path d="M10.7056 6.15234C10.7056 6.15234 10.6912 6.20594 10.6756 6.30007C10.656 6.39289 10.6469 6.52754 10.6287 6.68964C10.6091 6.85044 10.6026 7.04261 10.557 7.25178C10.5088 7.45311 10.4449 7.65966 10.3824 7.87013C10.3159 8.07799 10.2494 8.28586 10.1791 8.47803C10.1113 8.67151 10.0357 8.84799 9.97708 9.00095C9.91843 9.1539 9.85588 9.27679 9.81809 9.36438C9.77508 9.45066 9.75162 9.50034 9.75162 9.50034C9.75162 9.50034 9.75944 9.44543 9.77378 9.35C9.79332 9.25587 9.81027 9.1186 9.84806 8.96042C9.88585 8.80093 9.92234 8.61399 9.97577 8.41659C10.0266 8.21918 10.0892 8.01132 10.1504 7.80215C10.2169 7.5956 10.2846 7.38774 10.3511 7.19688C10.4071 7.00993 10.454 6.8243 10.4958 6.6648C10.5362 6.50401 10.5922 6.37458 10.6313 6.287C10.6756 6.1981 10.7056 6.15234 10.7056 6.15234Z" fill="#15E9E2"/>
<path d="M10.8541 10.2149C10.8541 10.2149 10.8554 10.194 10.858 10.1574C10.8645 10.1234 10.8645 10.0698 10.8763 10.0136C10.8893 9.9574 10.8945 9.88811 10.9128 9.81883C10.9271 9.74823 10.9506 9.67633 10.9714 9.60182C10.9975 9.52991 11.0222 9.4554 11.0548 9.38873C11.0848 9.32075 11.1252 9.26192 11.1539 9.20963C11.1825 9.15733 11.2229 9.11942 11.2438 9.09066C11.2698 9.06452 11.2855 9.04883 11.2855 9.04883C11.2855 9.04883 11.2868 9.06974 11.2881 9.10766C11.2855 9.14295 11.2907 9.19655 11.2829 9.25407C11.2738 9.3116 11.2724 9.38219 11.2568 9.45409C11.2451 9.52599 11.2229 9.60051 11.2008 9.67633C11.1734 9.75085 11.146 9.82536 11.1109 9.89204C11.077 9.96001 11.034 10.0175 10.9988 10.0672C10.9649 10.1182 10.9219 10.1522 10.8971 10.1783C10.8711 10.2019 10.8541 10.2149 10.8541 10.2149Z" fill="#15E9E2"/>
<path d="M13.2231 1.30993C13.2231 1.30993 13.2049 1.30993 13.1736 1.31778C13.1423 1.32301 13.1019 1.34 13.0563 1.36484C13.0094 1.38968 12.9612 1.42628 12.9078 1.46681C12.8556 1.50864 12.797 1.55309 12.7371 1.59492C12.6758 1.63545 12.6132 1.67467 12.5507 1.70474C12.4881 1.73611 12.4256 1.75572 12.3722 1.7701C12.3187 1.78579 12.2718 1.78971 12.2405 1.79363C12.208 1.79625 12.1897 1.79625 12.1897 1.79625C12.1897 1.79625 12.2066 1.78971 12.2366 1.77795C12.2666 1.76749 12.307 1.74788 12.3565 1.72696C12.406 1.70604 12.4595 1.67467 12.5168 1.64068C12.5742 1.60669 12.6328 1.56747 12.6914 1.52694C12.7514 1.48773 12.8087 1.44458 12.8674 1.40667C12.9247 1.36876 12.9847 1.34 13.0381 1.3217C13.0915 1.30209 13.1397 1.30078 13.1723 1.30078C13.2049 1.3047 13.2231 1.30993 13.2231 1.30993Z" fill="#15E9E2"/>
<path d="M9.50902 1.37022C9.50902 1.37022 9.51684 1.36761 9.52987 1.36107C9.54291 1.35715 9.56115 1.348 9.58461 1.34277C9.60676 1.33754 9.63283 1.32708 9.66019 1.32185C9.68756 1.31531 9.71754 1.30878 9.74751 1.30355C9.77748 1.29963 9.80746 1.2944 9.83613 1.29178C9.8648 1.28786 9.89216 1.28917 9.91562 1.28786C9.93908 1.28655 9.95993 1.28917 9.97296 1.28917C9.9873 1.29048 9.99512 1.29178 9.99512 1.29178C9.99512 1.29178 9.9886 1.29571 9.97687 1.30486C9.96384 1.31139 9.9469 1.32316 9.92605 1.33231C9.90389 1.34146 9.87913 1.35323 9.85046 1.36238C9.82309 1.37153 9.79182 1.37807 9.76054 1.3846C9.72926 1.38852 9.69799 1.39375 9.66932 1.39375C9.63934 1.39506 9.61198 1.39114 9.58852 1.38983C9.56506 1.38852 9.54421 1.38199 9.53118 1.37937C9.51684 1.37153 9.50902 1.37022 9.50902 1.37022Z" fill="#15E9E2"/>
<path d="M11.852 4.50733C11.852 4.50733 11.8703 4.48772 11.8911 4.44588C11.9133 4.40536 11.9315 4.34261 11.9446 4.26548C11.9576 4.18835 11.9641 4.09422 11.9732 3.99617C11.981 3.89682 11.9876 3.79223 11.9902 3.68634C11.9928 3.58045 11.9967 3.47848 11.9993 3.3739C12.0032 3.28108 12.0071 3.18042 12.0097 3.10067C12.0123 3.02093 12.0201 2.95426 12.0227 2.90719C12.028 2.86013 12.0306 2.83398 12.0306 2.83398C12.0306 2.83398 12.0332 2.86013 12.0384 2.90719C12.041 2.95426 12.0501 3.02093 12.054 3.10067C12.0579 3.18042 12.0658 3.27454 12.0684 3.3739C12.0723 3.47456 12.0723 3.58176 12.0684 3.68896C12.0631 3.79616 12.0566 3.90335 12.041 4.00402C12.0267 4.10468 12.0071 4.19619 11.9863 4.27463C11.9654 4.35437 11.9315 4.41582 11.9028 4.45373C11.8742 4.49164 11.852 4.50733 11.852 4.50733Z" fill="#15E9E2"/>
<path d="M11.2369 5.99219H11.7139C11.7139 5.99219 11.6448 7.58578 10.8498 9.09049C10.8498 9.09049 11.2864 6.67983 11.2369 5.99219Z" fill="#15E9E2"/>
<path d="M17.1923 20.8829L16.4742 18.7284C16.4729 18.7258 16.4729 18.7245 16.4716 18.7219C16.4039 18.5428 16.2318 18.4238 16.0416 18.4238C15.7874 18.4238 15.5815 18.6304 15.5815 18.8853C15.5815 18.9389 15.5907 18.9912 15.6089 19.0409C15.6089 19.0422 15.6102 19.0435 15.6102 19.0448L16.3139 21.1574C16.3713 21.3522 16.5524 21.4881 16.7544 21.4881C17.0085 21.4881 17.2145 21.2816 17.2145 21.0267C17.2145 20.9783 17.2066 20.9312 17.1923 20.8855C17.1936 20.8855 17.1936 20.8842 17.1923 20.8829Z" fill="#291482"/>
<path d="M18.4902 20.8833L18.0641 19.5995C18.0628 19.5969 18.0628 19.5956 18.0615 19.593C17.9937 19.4139 17.8217 19.2949 17.6314 19.2949C17.3773 19.2949 17.1714 19.5015 17.1714 19.7564C17.1714 19.81 17.1805 19.8623 17.1988 19.912C17.1988 19.9133 17.2001 19.9146 17.2001 19.9172L17.6132 21.1591C17.6705 21.3539 17.8517 21.4899 18.0537 21.4899C18.3078 21.4899 18.5137 21.2833 18.5137 21.0284C18.5137 20.98 18.5059 20.933 18.4915 20.8872C18.4915 20.8859 18.4902 20.8846 18.4902 20.8833Z" fill="#291482"/>
<path d="M19.1761 19.0354C19.1695 19.0171 19.1604 18.9988 19.15 18.9792C19.1487 18.9765 19.1474 18.9739 19.1461 18.9726C19.1461 18.9726 19.1422 18.9661 19.1357 18.9556C19.1344 18.953 19.1318 18.9504 19.1304 18.9465C19.0927 18.8903 18.948 18.6876 18.6639 18.4693C18.6 18.4209 18.5179 18.4079 18.4424 18.4379C18.3681 18.4667 18.3146 18.5308 18.3016 18.6092C18.2612 18.8354 18.243 19.1543 18.3016 19.3204C18.3029 19.323 18.3042 19.3256 18.3042 19.3282C18.3133 19.3622 18.3277 19.3949 18.3446 19.425C18.428 19.574 18.5857 19.6616 18.7486 19.6616C18.802 19.6616 18.8568 19.6524 18.9089 19.6328C19.0249 19.5884 19.1161 19.5021 19.1669 19.3883C19.2178 19.2772 19.2217 19.1517 19.1761 19.0354Z" fill="#291482"/>
<defs>
<linearGradient id="paint0_linear_3021_132041" x1="16.1249" y1="4.49902" x2="7.49994" y2="1.12402" gradientUnits="userSpaceOnUse">
<stop stop-color="#02FFF7"/>
<stop offset="1" stop-color="#E2FFFE"/>
</linearGradient>
<linearGradient id="paint1_linear_3021_132041" x1="21.0877" y1="23.7146" x2="-1.00262" y2="17.31" gradientUnits="userSpaceOnUse">
<stop offset="0.221861" stop-color="#02FFF7"/>
<stop offset="1" stop-color="#E2FFFE"/>
</linearGradient>
</defs>
</svg>
